/* XPM */
static const char *_[] = {
/* columns rows colors chars-per-pixel */
"54 64 130 2 ",
"   c black",
".  c gray8",
"X  c #191919",
"o  c #202020",
"O  c #282828",
"+  c #393939",
"@  c gray25",
"#  c #515151",
"$  c #5B5B5B",
"%  c gray37",
"&  c #7E7E7E",
"*  c #0119FF",
"=  c #012BFF",
"-  c #082FFF",
";  c #0131FF",
":  c #0137FF",
">  c #013AFF",
",  c #183EFF",
"<  c #0149FF",
"1  c #1045FF",
"2  c #1C41FF",
"3  c #0155FF",
"4  c #015AFF",
"5  c #015DFF",
"6  c #085BFF",
"7  c #2152FF",
"8  c #2957FF",
"9  c #0160FF",
"0  c #0167FF",
"q  c #0168FF",
"w  c #0E68FF",
"e  c #0173FF",
"r  c #017FFF",
"t  c #2160FF",
"y  c #3D64FF",
"u  c #217AFF",
"i  c #3679FF",
"p  c #4153FF",
"a  c #0184FF",
"s  c #0188FF",
"d  c #0190FF",
"f  c #0196FF",
"g  c #2185FF",
"h  c #218FFF",
"j  c #2193FF",
"k  c #2197FF",
"l  c #219EFF",
"z  c #01A2FF",
"x  c #01A9FF",
"c  c #01AFFF",
"v  c #0EAEFF",
"b  c #13AFFF",
"n  c #01B2FF",
"m  c #01B7FF",
"M  c #0EB1FF",
"N  c #08B8FF",
"B  c #21AEFF",
"V  c #21B8FF",
"C  c #608DFF",
"Z  c #7996FF",
"A  c #6CA0FF",
"S  c #01C0FF",
"D  c #01CBFF",
"F  c #01CFFF",
"G  c #01D2FF",
"H  c #01D5FF",
"J  c #01D8FF",
"K  c #01DEFF",
"L  c #10D3FF",
"P  c #21C8FF",
"I  c #36C4FF",
"U  c #21D5FF",
"Y  c #21D8FF",
"T  c #29D9FF",
"R  c #3DDEFF",
"E  c #01E0FF",
"W  c #08E0FF",
"Q  c #01EAFF",
"!  c #01ECFF",
"~  c #1CE1FF",
"^  c #01F0FF",
"/  c #3DE0FF",
"(  c #6CD4FF",
")  c #60D8FF",
"_  c #41EFFF",
"`  c #41F4FF",
"'  c #79E7FF",
"]  c #808080",
"[  c gray58",
"{  c #9F9F9F",
"}  c gray63",
"|  c #8095FF",
" . c #8AA3FF",
".. c #8DA0FF",
"X. c #97B8FF",
"o. c #94D8FF",
"O. c #BCC2FF",
"+. c #80EFFF",
"@. c #8AEAFF",
"#. c #97E3FF",
"$. c #8DF0FF",
"%. c #BCF9FF",
"&. c gray79",
"*. c #D7D7D7",
"=. c #DFDFDF",
"-. c #C0D5FF",
";. c #CDD2FF",
":. c #C0D9FF",
">. c #C0DCFF",
",. c #CAD9FF",
"<. c #CDDDFF",
"1. c #C0E3FF",
"2. c #C0E8FF",
"3. c #C0EAFF",
"4. c #C0ECFF",
"5. c #DFE2FF",
"6. c #DAE7FF",
"7. c #DEE7FF",
"8. c #CAF2FF",
"9. c #CDF0FF",
"0. c #CDFBFF",
"q. c #CDFCFF",
"w. c #DAF4FF",
"e. c #DEF7FF",
"r. c #E4E4E4",
"t. c #E4F5FF",
"y. c gray95",
"u. c gray96",
"i. c #F7F7FF",
"p. c None",
/* pixels */
"p.p.p.p.p.p.p.p.p.p.p.p.p.p.                                                    p.p.p.p.p.p.p.p.p.p.p.p.p.p.",
"p.p.p.p.p.p.p.p.p.p.p.p.p.p.                                                    p.p.p.p.p.p.p.p.p.p.p.p.p.p.",
"p.p.p.p.p.p.p.p.p.p.p.p.p.p.                                                    p.p.p.p.p.p.p.p.p.p.p.p.p.p.",
"p.p.p.p.p.p.p.                  . } } } } } } } } } } } } } } } } } } } } .                   p.p.p.p.p.p.p.",
"p.p.p.p.p.p.p.                  o p.p.p.p.p.p.p.p.p.p.p.p.p.p.p.p.p.p.p.p.o                   p.p.p.p.p.p.p.",
"p.p.p.p.p.p.p.                  o p.p.p.p.p.p.p.p.p.p.p.p.p.p.p.p.p.p.p.p.o                   p.p.p.p.p.p.p.",
"p.p.p.p.p.p.p.      + @ @ @ @ @ $ p.p.p.0.%.%.%.%.%.%.%.%.%.%.%.%.q.p.p.p.$ @ @ @ @ @ +       p.p.p.p.p.p.p.",
"p.p.p.              =.p.p.p.p.p.p.p.p.p._ Q Q ! ^ ^ ^ ^ ^ ^ ^ ^ ^ ` p.p.p.p.p.p.p.p.p.=.              p.p.p.",
"p.p.p.              =.p.p.p.p.p.p.p.p.p._ Q Q ! ^ ^ ^ ^ ^ ^ ^ ^ ^ ` p.p.p.p.p.p.p.p.p.=.              p.p.p.",
"p.p.p.              =.p.p.p.p.p.p.p.p.p._ Q Q ! ^ ^ ^ ^ ^ ^ ^ ^ ^ ` p.p.p.p.p.p.p.p.p.=.              p.p.p.",
"p.p.p.      + r.r.r.p.p.p.$.~ ~ ~ ~ ~ ~ W K K E E E E E E E E E E W ~ ~ ~ ~ ~ ~ $.p.p.p.r.r.r.+       p.p.p.",
"p.p.p.      @ p.p.p.p.p.p.+.K K K K K K K K K K K K K K K K K K K K K K K K K K +.p.p.p.p.p.p.@       p.p.p.",
"p.p.p.      @ p.p.p.p.p.p.+.K K K K K K K K K K K K K K K K K K K K K K K K K K +.p.p.p.p.p.p.@       p.p.p.",
"            @ p.p.p.@.' ' / J J J J J J J J J J J J J J J J J J J J H H H H H H R ' ' @.p.p.p.@       p.p.p.",
"            @ p.p.p.U G G G G G G G G G G G G G G G G G G G G G G G G G G F F F F G G Y p.p.p.@       p.p.p.",
"            @ p.p.p.Y G G G G G G G G G G G G G G G G G G G G G G G G G G F F F F G G Y p.p.p.@       p.p.p.",
"      X O O % p.p.p.U F F F F F F F F F F F F L T T T T T T L F F F F F F D D D F F F U p.p.p.@       p.p.p.",
"      { p.p.p.p.p.p.P S S S S S S S S S S S S ) p.p.p.p.p.p.) S S S S S S S S S S S S P p.p.p.@             ",
"      { p.p.p.p.p.p.P S S S S S S S S S S S S ) p.p.p.p.p.p.) S S S S S S S S S S S S P p.p.p.@             ",
"      { p.p.p.p.p.p.P S S S S S S S S S S S S ) p.p.p.p.p.p.) S S S S S S S S S S S S P p.p.p.@             ",
"      { p.p.9.I I I N m m m n n n m m m #.8.8.e.p.p.p.p.p.p.e.8.8.#.m m m m m m m n n V p.p.p.*.&.&.&       ",
"      { p.p.4.m m m m m m n c c c m m m 4.p.p.p.p.p.p.p.p.p.p.p.p.4.m m m m m m n c c V p.p.p.p.p.p.{       ",
"      { p.p.4.n m m m m m n c c c m m m 4.p.p.p.p.p.p.p.p.p.p.p.p.4.n n m m m m n c c V p.p.p.p.p.p.{       ",
"      { p.p.3.c c c c c c x x x v ( ( ( w.p.p.*.[ [ [ [ [ [ *.p.p.w.( ( ( M c c x x x b o.o.o.t.p.p.{       ",
"      { p.p.3.z z z z z z z z z B p.p.p.p.p.p.{             { p.p.p.p.p.p.B z z z z z z z z z 3.p.p.{       ",
"      { p.p.3.z z z z z z z z z B p.p.p.p.p.p.{             { p.p.p.p.p.p.B z z z z z z z z z 3.p.p.{       ",
"      { p.p.3.z z z z z z z z z B p.p.p.u.y.y.[             [ y.y.u.p.p.p.B z z z z z z z z z 3.p.p.{       ",
"      { p.p.1.d d d f f f d d d l p.p.p.@                         @ p.p.p.l d d d d d d d d d 1.p.p.{       ",
"      { p.p.1.d d d f f f d d d l p.p.p.@                         @ p.p.p.l d d d d d d d d d 1.p.p.{       ",
"      { p.p.1.d d d f f f d d d l p.p.p.@                         @ p.p.p.l d d d d d d d d d 1.p.p.{       ",
"      { p.p.1.s s s s s s s s s k p.p.p.@                         @ p.p.p.k s s s s s s s s s 1.p.p.{       ",
"      { p.p.1.a a a a a a a a a j p.p.p.@                         @ p.p.p.j a a a a a a a a a 1.p.p.{       ",
"      { p.p.1.a a a a a a a a a j p.p.p.@                         @ p.p.p.j a a a a a a a a a 1.p.p.{       ",
"      { p.p.>.r r r r r r r r r h p.p.p.@                         @ p.p.p.h r r r r r r r r r >.p.p.{       ",
"      { p.p.>.e e e e e e e e e g p.p.p.@                         @ p.p.p.g e e e e e e e e e >.p.p.{       ",
"      { p.p.>.e e e e e e e e e g p.p.p.@                         @ p.p.p.g e e e e e e e e e >.p.p.{       ",
"      { p.p.>.e e e e e e e e e g p.p.p.@                         @ p.p.p.g e e e e e e e e e >.p.p.{       ",
"      { p.p.:.q q q q q q q q q u p.p.p.u.y.y.[             [ y.y.u.p.p.p.u q q q q q q q q q :.p.p.{       ",
"      { p.p.:.0 0 0 0 0 0 0 0 0 u p.p.p.p.p.p.{             { p.p.p.p.p.p.u 0 0 0 0 0 0 0 0 0 :.p.p.{       ",
"      { p.p.:.0 0 0 0 0 0 0 0 0 u p.p.p.p.p.p.{             { p.p.p.p.p.p.u 0 0 0 0 0 0 0 0 0 :.p.p.{       ",
"      { p.p.-.5 5 5 9 9 9 9 9 9 w A A A 6.p.p.*.[ [ [ [ [ [ *.p.p.6.A A A w 9 9 9 9 9 9 5 5 5 -.p.p.{       ",
"      { p.p.-.3 3 3 4 4 4 4 4 4 4 4 4 4 -.p.p.p.p.p.p.p.p.p.p.p.p.-.4 4 4 4 4 4 4 4 4 4 3 3 3 -.p.p.{       ",
"      { p.p.-.3 3 3 4 4 4 4 4 4 4 4 4 4 -.p.p.p.p.p.p.p.p.p.p.p.p.-.4 4 4 4 4 4 4 4 4 4 3 3 3 -.p.p.{       ",
"      { p.p.<.i i i 6 3 3 3 3 3 3 3 3 3 X.,.,.7.p.p.p.p.p.p.7.,.,.X.4 4 4 3 3 3 3 3 3 6 i i i <.p.p.{       ",
"      { p.p.p.p.p.p.t < < < < < < < < < < < < C p.p.p.p.p.p.C < < < < < < < < < < < < t p.p.p.p.p.p.{       ",
"      { p.p.p.p.p.p.t < < < < < < < < < < < < C p.p.p.p.p.p.C < < < < < < < < < < < < t p.p.p.p.p.p.{       ",
"      { p.p.p.p.p.p.t < < < < < < < < < < < < C p.p.p.p.p.p.C < < < < < < < < < < < < t p.p.p.p.p.p.{       ",
"      X O O % p.p.p.7 > > > > > > > > > > > > 1 8 8 8 8 8 8 1 > > > > > > > > > > > > 7 p.p.p.% O O X       ",
"            @ p.p.p.7 : : : : : : : : : : : : : : : : : : : : : : : : : : : : : : : : 7 p.p.p.@             ",
"            @ p.p.p.7 : : : : : : : : : : : : : : : : : : : : : : : : : : : : : : : : 7 p.p.p.@             ",
"            @ p.p.p. .Z Z y ; ; ; ; ; ; ; ; ; ; ; ; ; ; ; ; ; ; ; ; ; ; ; ; ; ; y Z Z  .p.p.p.@             ",
"p.p.p.      @ p.p.p.p.p.p.| = = = = = = = = = = = = = = = = = = = = = = = = = = | p.p.p.p.p.p.@       p.p.p.",
"p.p.p.      @ p.p.p.p.p.p.| = = = = = = = = = = = = = = = = = = = = = = = = = = | p.p.p.p.p.p.@       p.p.p.",
"p.p.p.      + r.r.r.p.p.p...2 2 , = = = = = = = = = = = = = = = = - 2 2 2 2 2 2 ..p.p.p.r.r.r.+       p.p.p.",
"p.p.p.              =.p.p.p.p.p.5.* * * * * * * * * * * * * * * * p p.p.p.p.p.p.p.p.p.=.              p.p.p.",
"p.p.p.              =.p.p.p.p.p.5.* * * * * * * * * * * * * * * * p p.p.p.p.p.p.p.p.p.=.              p.p.p.",
"p.p.p.              =.p.p.p.p.p.5.* * * * * * * * * * * * * * * * p p.p.p.p.p.p.p.p.p.=.              p.p.p.",
"p.p.p.p.p.p.p.      + @ @ } p.p.i.O.O.O.O.O.O.O.O.O.O.O.O.O.O.O.O.;.p.p.p.$ @ @ @ @ @ +       p.p.p.p.p.p.p.",
"p.p.p.p.p.p.p.            ] p.p.p.p.p.p.p.p.p.p.p.p.p.p.p.p.p.p.p.p.p.p.p.o                   p.p.p.p.p.p.p.",
"p.p.p.p.p.p.p.            ] p.p.p.p.p.p.p.p.p.p.p.p.p.p.p.p.p.p.p.p.p.p.p.o                   p.p.p.p.p.p.p.",
"p.p.p.p.p.p.p.            # } } } } } } } } } } } } } } } } } } } } } } } .                   p.p.p.p.p.p.p.",
"p.p.p.p.p.p.p.p.p.p.                                                            p.p.p.p.p.p.p.p.p.p.p.p.p.p.",
"p.p.p.p.p.p.p.p.p.p.                                                            p.p.p.p.p.p.p.p.p.p.p.p.p.p.",
"p.p.p.p.p.p.p.p.p.p.                                                            p.p.p.p.p.p.p.p.p.p.p.p.p.p."
};
