/* XPM */
static const char *_[] = {
/* columns rows colors chars-per-pixel */
"36 64 82 1 ",
"  c black",
". c #2D2D2D",
"X c #444444",
"o c gray31",
"O c #555555",
"+ c #5B5B5B",
"@ c gray40",
"# c #717171",
"$ c #0119FF",
"% c #011FFF",
"& c #012BFF",
"* c #0134FF",
"= c #013BFF",
"- c #1D33FF",
"; c #0149FF",
": c #0151FF",
"> c #0155FF",
", c #015BFF",
"< c #015CFF",
"1 c #3447FF",
"2 c #344CFF",
"3 c #3455FF",
"4 c #345FFF",
"5 c #0167FF",
"6 c #016EFF",
"7 c #0173FF",
"8 c #3462FF",
"9 c #346DFF",
"0 c #3477FF",
"q c #3479FF",
"w c #4A5BFF",
"e c #0184FF",
"r c #0189FF",
"t c #0190FF",
"y c #3485FF",
"u c #348BFF",
"i c #348FFF",
"p c #349DFF",
"a c #01A2FF",
"s c #01A6FF",
"d c #01AEFF",
"f c #01BCFF",
"g c #34A1FF",
"h c #34A6FF",
"j c #34B3FF",
"k c #34B5FF",
"l c #34B8FF",
"z c #34BEFF",
"x c #01C0FF",
"c c #01C4FF",
"v c #01CDFF",
"b c #01D2FF",
"n c #01DAFF",
"m c #01DEFF",
"M c #34C9FF",
"N c #34CDFF",
"B c #39CEFF",
"V c #34D0FF",
"C c #34D6FF",
"Z c #34DBFF",
"A c #1DE2FF",
"S c #34E1FF",
"D c #34E5FF",
"F c #4AE8FF",
"G c gray60",
"H c #BBBBBB",
"J c #88EAFF",
"K c #9FEAFF",
"L c #AAEEFF",
"P c #BBF1FF",
"I c #C6C6C6",
"U c gray80",
"Y c #C7F4FF",
"T c #CCF2FF",
"R c #CCF8FF",
"E c #D2F6FF",
"W c #D7F5FF",
"Q c #D2F9FF",
"! c gray89",
"~ c #F4F4F4",
"^ c #F9F9F9",
"/ c None",
/* pixels */
"////                                ",
"////                                ",
"////                                ",
"///    +########################.   ",
"       U////////////////////////@   ",
"       U////////////////////////@   ",
"       U////////////////////////@   ",
"   +!!!^//QAAAAAAAAAAAAAAAAAF///@   ",
"   @//////RmmmmmmmmmmmmmmmmmD///@   ",
"   @//////RmmmmmmmmmmmmmmmmmD///@   ",
"   @///PLLJnnnnnnnnnnnnnnnnnS///@   ",
"   @///CvvvbbbbbbbvvvvbbbbbbZ///@   ",
"   @///CvvvbbbbbbbvvvvbbbbbbZ///@   ",
"   @///CvvvbbbbbbbvvvvbbbbbbZ///@   ",
"   @///EYYKcccccccxxxxccccccV///@   ",
"   @//////TxxxxxxxxxxxxxxxxxN///@   ",
"   @//////TxxxxxxxxxxxxxxxxxN///@   ",
"   oIII~//WBBBBBBBffffffffffM///@   ",
"       U//////////ddddddddddz///@   ",
"       U//////////ddddddddddz///@   ",
"       U//////////ddddddddddz///@   ",
"///    XOOOOOOH///ssssssssssl///@   ",
"////          G///aaaaaaaaaak///@   ",
"////          G///aaaaaaaaaak///@   ",
"////          G///aaaaaaaaaaj///@   ",
"///////////   G///tttttttttth///@   ",
"///////////   G///tttttttttth///@   ",
"///////////   G///tttttttttth///@   ",
"///////////   G///rrrrrrrrrrg///@   ",
"///////////   G///eeeeeeeeeep///@   ",
"///////////   G///eeeeeeeeeep///@   ",
"///////////   G///eeeeeeeeeep///@   ",
"///////////   G///7777777777i///@   ",
"///////////   G///7777777777i///@   ",
"///////////   G///7777777777i///@   ",
"///////////   G///6666666666u///@   ",
"///////////   G///5555555555y///@   ",
"///////////   G///5555555555y///@   ",
"///////////   G///5555555555y///@   ",
"///////////   G///>>>,<<<,>>q///@   ",
"///////////   G///>>>>,,,>>>0///@   ",
"///////////   G///>>>>,,,>>>0///@   ",
"///////////   G///::::>>>:::0///@   ",
"///////////   G///;;;;;;;;;;9///@   ",
"///////////   G///;;;;;;;;;;9///@   ",
"///////////   G///;;;;;;;;;;9///@   ",
"///////////   G///==========8///@   ",
"///////////   G///**=*******4///@   ",
"///////////   G///**********4///@   ",
"///////////   G///**********4///@   ",
"///////////   G///&&&&&&&&&&3///@   ",
"///////////   G///&&&&&&&&&&3///@   ",
"///////////   G///&&&&&&&&&&3///@   ",
"///////////   G///%%%%%%%%%%2///@   ",
"///////////   G///$$$$$$$$$$1///@   ",
"///////////   G///$$$$$$$$$$1///@   ",
"///////////   G///----------w///@   ",
"///////////   G/////////////////@   ",
"///////////   G/////////////////@   ",
"///////////   G/////////////////@   ",
"///////////   X#################.   ",
"///////////                         ",
"///////////                         ",
"///////////                         "
};
