/* XPM */
static const char *_[] = {
/* columns rows colors chars-per-pixel */
"47 64 168 2 ",
"   c black",
".  c gray6",
"X  c #131313",
"o  c #232323",
"O  c #2A2A2A",
"+  c gray18",
"@  c #323232",
"#  c #343434",
"$  c #3E3E3E",
"%  c #434343",
"&  c #494949",
"*  c #515151",
"=  c #565656",
"-  c gray36",
";  c #646464",
":  c #686868",
">  c #6F6F6F",
",  c #797979",
"<  c #0119FF",
"1  c #012BFF",
"2  c #1329FF",
"3  c #0131FF",
"4  c #0137FF",
"5  c #013AFF",
"6  c #043CFF",
"7  c #0B39FF",
"8  c #0149FF",
"9  c #1345FF",
"0  c #1C41FF",
"q  c #1548FF",
"w  c #0153FF",
"e  c #0157FF",
"r  c #015BFF",
"t  c #015DFF",
"y  c #1356FF",
"u  c #2957FF",
"i  c #0160FF",
"p  c #0167FF",
"a  c #0369FF",
"s  c #0E6FFF",
"d  c #1C66FF",
"f  c #166BFF",
"g  c #0173FF",
"h  c #017FFF",
"j  c #256DFF",
"k  c #3863FF",
"l  c #3679FF",
"z  c #0184FF",
"x  c #0188FF",
"c  c #0190FF",
"v  c #0196FF",
"b  c #1398FF",
"n  c #2587FF",
"m  c #01A1FF",
"M  c #0EA7FF",
"N  c #01A9FF",
"B  c #01AEFF",
"V  c #13A9FF",
"C  c #01B2FF",
"Z  c #01B4FF",
"A  c #13B2FF",
"S  c #13B9FF",
"D  c #13BCFF",
"F  c #37A8FF",
"G  c #37B6FF",
"H  c #37BEFF",
"J  c #538CFF",
"K  c #578FFF",
"L  c #5592FF",
"P  c #4BACFF",
"I  c #58A9FF",
"U  c #6EA1FF",
"Y  c #6EAFFF",
"T  c #6EB6FF",
"R  c #6EB9FF",
"E  c #01C0FF",
"W  c #01CFFF",
"Q  c #13C4FF",
"!  c #01D2FF",
"~  c #01D5FF",
"^  c #01D8FF",
"/  c #01DEFF",
"(  c #10D2FF",
")  c #13D5FF",
"_  c #13DAFF",
"`  c #2CC3FF",
"'  c #37C4FF",
"]  c #23D3FF",
"[  c #29D4FF",
"{  c #23D8FF",
"}  c #29D9FF",
"|  c #35DEFF",
" . c #01E0FF",
".. c #01EAFF",
"X. c #01EDFF",
"o. c #13E0FF",
"O. c #16E1FF",
"+. c #1CE1FF",
"@. c #01F0FF",
"#. c #2CE4FF",
"$. c #6EECFF",
"%. c #79E7FF",
"&. c #7DEEFF",
"*. c gray51",
"=. c #868686",
"-. c gray54",
";. c #929292",
":. c gray58",
">. c gray63",
",. c #A4A4A4",
"<. c #A9A9A9",
"1. c #AEAEAE",
"2. c #879BFF",
"3. c #80A4FF",
"4. c #94BFFF",
"5. c #B6BDFF",
"6. c #80C2FF",
"7. c #80C3FF",
"8. c #80C8FF",
"9. c #ABC9FF",
"0. c #B6C2FF",
"q. c #B6C6FF",
"w. c #BCC2FF",
"e. c #BEC9FF",
"r. c #AFD3FF",
"t. c #AFDCFF",
"y. c #B5DEFF",
"u. c #BAD9FF",
"i. c #BED9FF",
"p. c #83E9FF",
"a. c #B6E6FF",
"s. c #BAE6FF",
"d. c #B6E8FF",
"f. c #B6EDFF",
"g. c #BCFBFF",
"h. c #C0C0C0",
"j. c #D7D7D7",
"k. c gainsboro",
"l. c #C1C7FF",
"z. c #C2CFFF",
"x. c #CAD9FF",
"c. c #CDDBFF",
"v. c #C9DEFF",
"b. c #C0E3FF",
"n. c #CBE0FF",
"m. c #CFEDFF",
"M. c #DDE2FF",
"N. c #CAF2FF",
"B. c #C9FAFF",
"V. c #C9FCFF",
"C. c #D7F5FF",
"Z. c #DBF3FF",
"A. c #DBF6FF",
"S. c gray88",
"D. c #E4E4E4",
"F. c gray93",
"G. c #ECEEFF",
"H. c #E8F1FF",
"J. c gray95",
"K. c gray97",
"L. c #F2F8FF",
"P. c #F2F9FF",
"I. c #F7FBFF",
"U. c #F1FEFF",
"Y. c #F7FDFF",
"T. c #F9F9F9",
"R. c #F8FCFF",
"E. c None",
/* pixels */
"E.E.E.E.E.E.E.E.E.E.                                                      E.E.E.E.E.E.E.E.E.E.",
"E.E.E.E.E.E.E.E.E.E.                                                      E.E.E.E.E.E.E.E.E.E.",
"E.E.E.E.E.E.E.E.E.E.                                                      E.E.E.E.E.E.E.E.E.E.",
"E.E.E.E.                  - >.>.>.>.>.>.>.>.>.>.>.>.>.>.>.>.>.>.>.-             E.E.E.E.E.E.E.",
"E.E.E.                    ;.E.E.E.E.E.E.E.E.E.E.E.E.E.E.E.E.E.E.E.;.            E.E.E.E.E.E.E.",
"E.E.E.                    ;.E.E.E.E.E.E.E.E.E.E.E.E.E.E.E.E.E.E.E.;.            E.E.E.E.E.E.E.",
"E.E.E.      X % % % % % % 1.E.E.U.g.g.g.g.g.g.g.g.g.g.g.g.g.U.E.E.1.% % $       E.E.E.E.E.E.E.",
"E.E.E.      & E.E.E.E.E.E.E.E.E.V.@.@.@.@.@.@.X.............B.E.E.E.E.E.F.              E.E.E.",
"E.E.E.      & E.E.E.E.E.E.E.E.E.V.@.@.@.@.@.@.X.............B.E.E.E.E.E.F.              E.E.E.",
"E.E.E.      & E.E.E.E.E.E.E.E.E.V.@.@.@.@.@.@.X.............B.E.E.E.E.E.F.              E.E.E.",
"            & E.E.E.#.+.+.+.+.+.O. . . . . ./ / / / / / / / O.+.+.&.E.E.E.D.D.D.%       E.E.E.",
"            & E.E.E.o./ / / / / / / / / / / / / / / / / / / / / / $.E.E.E.E.E.E.&       E.E.E.",
"            & E.E.E.o./ / / / / / / / / / / / / / / / / / / / / / $.E.E.E.E.E.E.&       E.E.E.",
"      = =.=.<.E.E.E._ ^ ^ ^ ^ ^ ^ ^ ^ ^ ~ ~ ~ ~ ^ ^ ^ ^ ^ ^ ^ ^ ^ | %.%.p.E.E.E.&       E.E.E.",
"      ,.E.E.E.E.E.E.) ! ! ! ! ! ! ! ! ! W W W W ! ! ! ! ! ! ! ! ! ! ! ! ) E.E.E.&       E.E.E.",
"      ,.E.E.E.E.E.E.) ! ! ! ! ! ! ! ! ! W W W W ! ! ! ! ! ! ! ! ! ! ! ! ) E.E.E.&       E.E.E.",
"      ,.E.E.Y.C.C.C.( W ! ! W W W W W W ] [ [ [ } } { W W W W W W W W W ( E.E.E.&       E.E.E.",
"      ,.E.E.f.E E E E E E E E E E E E E A.E.E.E.E.E.A.E E E E E E E E E Q E.E.E.&       E.E.E.",
"      ,.E.E.f.E E E E E E E E E E E E E A.E.E.E.E.E.A.E E E E E E E E E Q E.E.E.&       E.E.E.",
"      ,.E.E.f.E E E E E E E E E E E E E A.E.E.E.E.E.A.E E E E E E E E E Q E.E.E.&       E.E.E.",
"      ,.E.E.d.C C C Z Z Z Z Z Z ` N.N.N.Y.E.E.E.E.E.A.C C C C C C Z Z Z D E.E.E.&       E.E.E.",
"      ,.E.E.d.B B B Z Z Z Z Z Z ' E.E.E.E.E.E.E.E.E.Z.B B B B B B C Z Z S E.E.E.&       E.E.E.",
"      ,.E.E.d.B B B Z Z Z Z Z Z ' E.E.E.E.E.E.E.E.E.Z.B B B B B B C Z Z S E.E.E.&       E.E.E.",
"      ,.E.E.a.N N N B B B B B B H E.E.E.E.E.E.E.E.E.Z.N N N N N N N B B A E.E.E.&       E.E.E.",
"      ,.E.E.a.m m m m m m m m m G E.E.E.E.E.E.E.E.E.Z.m m m m m m m m m V E.E.E.&       E.E.E.",
"      ,.E.E.a.m m m m m m m m m G E.E.E.E.E.E.E.E.E.Z.m m m m m m m m m V E.E.E.&       E.E.E.",
"      ,.E.E.s.M M M m m m m m m G E.E.E.E.E.E.R.P.P.m.m m m m m m m m m V E.E.E.&       E.E.E.",
"      ,.E.E.E.E.E.E.b c c c c c F E.E.E.E.E.E.8.c c c v v v c c c c c c b E.E.E.&       E.E.E.",
"      ,.E.E.E.E.E.E.b c c c c c F E.E.E.E.E.E.8.c c c v v v c c c c c c b E.E.E.&       E.E.E.",
"      ,.E.E.E.E.E.E.b c c c c c F E.E.E.E.E.E.8.c c c v v v c c c c c c b E.E.E.&       E.E.E.",
"      # * * *.E.E.E.y.t.t.t.t.t.b.E.E.E.E.E.E.6.x x x x x x x x x P t.t.y.E.E.E.&       E.E.E.",
"            & E.E.E.E.E.E.E.E.E.E.E.E.E.E.E.E.6.z z z z z z z z z R E.E.E.E.E.E.&       E.E.E.",
"            & E.E.E.E.E.E.E.E.E.E.E.E.E.E.E.E.6.z z z z z z z z z R E.E.E.E.E.E.&       E.E.E.",
"            @ 1.1.1.1.1.1.k.E.E.E.E.E.E.u.r.r.I h h h h h h h h h T E.E.T.1.1.1.@       E.E.E.",
"E.E.E.                    ;.E.E.E.E.E.E.n g g g g g g g g g g g g Y E.E.F.              E.E.E.",
"E.E.E.                    ;.E.E.E.E.E.E.n g g g g g g g g g g g g Y E.E.F.              E.E.E.",
"E.E.E.                    ;.E.E.E.E.E.E.n g g g g g g g g g g g g Y E.E.F.              E.E.E.",
"E.E.E.              S.J.J.T.E.E.n.s s s a p p p a a a a a p i.P.P.I.E.E.F.      E.E.E.E.E.E.E.",
"E.E.E.              F.E.E.E.E.E.v.p p p p p p p p p p p p p v.E.E.E.E.E.F.      E.E.E.E.E.E.E.",
"E.E.E.              F.E.E.E.E.E.v.p p p p p p p p p p p p p v.E.E.E.E.E.F.      E.E.E.E.E.E.E.",
"            O :.:.:.K.E.E.9.U U L i i i t t t t t t f 4.4.4.H.E.E.h.: : ;             E.E.E.E.",
"            & E.E.E.E.E.E.U r r r r r r e e e e e e j E.E.E.E.E.E.;.                    E.E.E.",
"            & E.E.E.E.E.E.U r r r r r r e e e e e e j E.E.E.E.E.E.;.                    E.E.E.",
"      o # # > E.E.E.c.x.x.K e e e e e e w w w d l l J E.E.E.E.E.E.<.# # # # # # .       E.E.E.",
"      ,.E.E.E.E.E.E.y 8 8 8 8 8 8 8 8 8 8 8 8 3.E.E.E.E.E.E.E.E.E.E.E.E.E.E.E.E.&             ",
"      ,.E.E.E.E.E.E.y 8 8 8 8 8 8 8 8 8 8 8 8 3.E.E.E.E.E.E.E.E.E.E.E.E.E.E.E.E.&             ",
"      ,.E.E.E.E.E.E.y 8 8 8 8 8 8 8 8 8 8 8 8 3.E.E.E.E.E.E.E.E.E.E.E.E.E.E.E.E.&             ",
"      ,.E.E.z.u u u 6 5 5 5 5 5 5 5 5 5 5 5 5 q u u u u u u u u u u u u k E.E.E.S.j.j.-.      ",
"      ,.E.E.q.4 4 4 4 4 4 4 4 4 4 4 4 4 4 4 4 4 4 4 4 4 4 4 4 4 4 4 4 4 9 E.E.E.E.E.E.,.      ",
"      ,.E.E.q.4 4 4 4 4 4 4 4 4 4 4 4 4 4 4 4 4 4 4 4 4 4 4 4 4 4 4 4 4 9 E.E.E.E.E.E.,.      ",
"      ,.E.E.q.3 3 3 3 3 3 3 3 3 3 3 3 3 3 3 3 3 3 3 3 3 3 3 3 3 3 3 3 3 7 2.2.2.M.E.E.,.      ",
"      ,.E.E.0.1 1 1 1 1 1 1 1 1 1 1 1 1 1 1 1 1 1 1 1 1 1 1 1 1 1 1 1 1 1 1 1 1 0.E.E.,.      ",
"      ,.E.E.0.1 1 1 1 1 1 1 1 1 1 1 1 1 1 1 1 1 1 1 1 1 1 1 1 1 1 1 1 1 1 1 1 1 0.E.E.,.      ",
"      ,.E.E.0.1 1 1 1 1 1 1 1 1 1 1 1 1 1 1 1 1 1 1 1 1 1 1 1 1 1 1 1 1 1 0 0 0 e.E.E.,.      ",
"      ,.E.E.5.< < < < < < < < < < < < < < < < < < < < < < < < < < < < < 2 E.E.E.E.E.E.,.      ",
"      ,.E.E.5.< < < < < < < < < < < < < < < < < < < < < < < < < < < < < 2 E.E.E.E.E.E.,.      ",
"      ,.E.E.5.< < < < < < < < < < < < < < < < < < < < < < < < < < < < < 2 E.E.E.E.E.E.,.      ",
"      ,.E.E.G.w.w.w.w.w.w.w.w.w.w.w.w.w.w.w.w.w.w.w.w.w.w.w.w.w.w.w.w.w.l.E.E.E., % % O       ",
"      ,.E.E.E.E.E.E.E.E.E.E.E.E.E.E.E.E.E.E.E.E.E.E.E.E.E.E.E.E.E.E.E.E.E.E.E.E.&             ",
"      ,.E.E.E.E.E.E.E.E.E.E.E.E.E.E.E.E.E.E.E.E.E.E.E.E.E.E.E.E.E.E.E.E.E.E.E.E.&             ",
"      : >.>.>.>.>.>.>.>.>.>.>.>.>.>.>.>.>.>.>.>.>.>.>.>.>.>.>.>.>.>.>.>.>.>.>.>.+             ",
"                                                                                        E.E.E.",
"                                                                                        E.E.E.",
"                                                                                        E.E.E."
};
