/* XPM */
static const char *_[] = {
/* columns rows colors chars-per-pixel */
"47 64 158 2 ",
"   c black",
".  c #131313",
"X  c gray9",
"o  c gray14",
"O  c #373737",
"+  c #3E3E3E",
"@  c #434343",
"#  c gray27",
"$  c #494949",
"%  c #515151",
"&  c #565656",
"*  c gray36",
"=  c gray42",
"-  c #767676",
";  c #0119FF",
":  c #012BFF",
">  c #0131FF",
",  c #0137FF",
"<  c #0C33FF",
"1  c #013AFF",
"2  c #0A38FF",
"3  c #133AFF",
"4  c #163CFF",
"5  c #0A40FF",
"6  c #0149FF",
"7  c #1345FF",
"8  c #1C41FF",
"9  c #1348FF",
"0  c #0152FF",
"q  c #0157FF",
"w  c #015BFF",
"e  c #015EFF",
"r  c #1356FF",
"t  c #2C4FFF",
"y  c #2352FF",
"u  c #2957FF",
"i  c #355CFF",
"p  c #0160FF",
"a  c #0167FF",
"s  c #0168FF",
"d  c #0E6FFF",
"f  c #1363FF",
"g  c #1367FF",
"h  c #136BFF",
"j  c #0173FF",
"k  c #017FFF",
"l  c #1372FF",
"z  c #137DFF",
"x  c #2C6FFF",
"c  c #2079FF",
"v  c #3770FF",
"b  c #377BFF",
"n  c #377EFF",
"m  c #6E7CFF",
"M  c #0184FF",
"N  c #0188FF",
"B  c #1388FF",
"V  c #138DFF",
"C  c #0190FF",
"Z  c #1390FF",
"A  c #1398FF",
"S  c #2587FF",
"D  c #3782FF",
"F  c #3586FF",
"G  c #2591FF",
"H  c #2596FF",
"J  c #2599FF",
"K  c #01A2FF",
"L  c #0EA7FF",
"P  c #01A9FF",
"I  c #01AEFF",
"U  c #01B2FF",
"Y  c #01B4FF",
"T  c #0FB6FF",
"R  c #13B4FF",
"E  c #25A0FF",
"W  c #2CBFFF",
"Q  c #37B6FF",
"!  c #37BBFF",
"~  c #37BFFF",
"^  c #428EFF",
"/  c #6E86FF",
"(  c #7D93FF",
")  c #7996FF",
"_  c #01C0FF",
"`  c #01CAFF",
"'  c #01CCFF",
"]  c #01D2FF",
"[  c #01D5FF",
"{  c #01D8FF",
"}  c #01DEFF",
"|  c #0AD9FF",
" . c #10D2FF",
".. c #13D5FF",
"X. c #13DAFF",
"o. c #23D7FF",
"O. c #23D8FF",
"+. c #29D9FF",
"@. c #01E0FF",
"#. c #0CE1FF",
"$. c #13E0FF",
"%. c #16E1FF",
"&. c #1CE1FF",
"*. c #01F0FF",
"=. c #2CE4FF",
"-. c #6CD0FF",
";. c #76D3FF",
":. c #79E7FF",
">. c #6EF6FF",
",. c #808080",
"<. c #868686",
"1. c #929292",
"2. c gray58",
"3. c #9A9A9A",
"4. c gray63",
"5. c #A4A4A4",
"6. c #A9A9A9",
"7. c #AEAEAE",
"8. c #B2B2B2",
"9. c gray71",
"0. c #839DFF",
"q. c #8BDAFF",
"w. c #B6C7FF",
"e. c #BCC2FF",
"r. c #B6CBFF",
"t. c #B6CFFF",
"y. c #B6D2FF",
"u. c #B6D4FF",
"i. c #BAD6FF",
"p. c #B6E4FF",
"a. c #BAE6FF",
"s. c #B6EAFF",
"d. c #B6EDFF",
"f. c #B6F1FF",
"g. c #BCFBFF",
"h. c #C9CEFF",
"j. c #CAD9FF",
"k. c #D9DCFF",
"l. c #D9E1FF",
"z. c #DBE5FF",
"x. c #CAF2FF",
"c. c #C9FCFF",
"v. c #D7F5FF",
"b. c #DBF6FF",
"n. c #D9F8FF",
"m. c #D9FDFF",
"M. c #E4E4E4",
"N. c gray93",
"B. c gray95",
"V. c #F4F4F4",
"C. c #F1F2FF",
"Z. c #F2F8FF",
"A. c #F2F9FF",
"S. c #F4FAFF",
"D. c #F7FAFF",
"F. c #F1FEFF",
"G. c #F7FDFF",
"H. c None",
/* pixels */
"H.H.H.H.H.H.H.H.H.H.                                                            H.H.H.H.H.H.H.",
"H.H.H.H.H.H.H.H.H.H.                                                            H.H.H.H.H.H.H.",
"H.H.H.H.H.H.H.H.H.H.                                                            H.H.H.H.H.H.H.",
"H.H.H.H.                  * 4.4.4.4.4.4.4.4.4.4.4.4.4.4.4.4.4.4.4.4.4.4.2.            H.H.H.H.",
"H.H.H.                    1.H.H.H.H.H.H.H.H.H.H.H.H.H.H.H.H.H.H.H.H.H.H.N.              H.H.H.",
"H.H.H.                    1.H.H.H.H.H.H.H.H.H.H.H.H.H.H.H.H.H.H.H.H.H.H.N.              H.H.H.",
"H.H.H.      . @ @ @ @ @ @ 7.H.H.F.g.g.g.g.g.g.g.g.g.g.g.g.g.g.g.g.m.H.H.B.@ @ @ .       H.H.H.",
"H.H.H.      $ H.H.H.H.H.H.H.H.H.c.*.*.*.*.*.*.*.*.*.*.*.*.*.*.*.*.>.H.H.H.H.H.H.$             ",
"H.H.H.      $ H.H.H.H.H.H.H.H.H.c.*.*.*.*.*.*.*.*.*.*.*.*.*.*.*.*.>.H.H.H.H.H.H.$             ",
"H.H.H.      $ H.H.H.H.H.H.H.H.H.c.*.*.*.*.*.*.*.*.*.*.*.*.*.*.*.*.>.H.H.H.H.H.H.$             ",
"            $ H.H.H.=.&.&.&.&.&.%.@.@.@.@.@.@.@.@.@.@.@.@.@.@.@.@.#.&.&.=.H.H.H.N.M.M.1.      ",
"            $ H.H.H.$.} } } } } } } } } } } } } } } } } } } } } } } } } $.H.H.H.H.H.H.5.      ",
"            $ H.H.H.$.} } } } } } } } } } } } } } } } } } } } } } } } } $.H.H.H.H.H.H.5.      ",
"      & <.<.6.H.H.H.X.{ { { { { { { { { { { { { { { [ [ [ [ [ [ [ [ { { | :.:.:.n.H.H.5.      ",
"      5.H.H.H.H.H.H...] ] ] ] ] ] ] ] ] ] ] ] ] ] ] ] ' ' ' ' ' ' ' ] ] ] ] ] ] f.H.H.5.      ",
"      5.H.H.H.H.H.H...] ] ] ] ] ] ] ] ] ] ] ] ] ] ] ] ' ' ' ' ' ' ' ] ] ] ] ] ] f.H.H.5.      ",
"      5.H.H.G.v.v.v. .] ' ' ' ' ' ' ' ' O.+.+.+.+.+.o.` ` ` ` ` ` ' ' ' ' ' ] ] f.H.H.5.      ",
"      5.H.H.d._ _ _ _ _ _ _ _ _ _ _ _ _ b.H.H.H.H.H.b._ _ _ _ _ _ _ _ _ _ _ _ _ d.H.H.5.      ",
"      5.H.H.d._ _ _ _ _ _ _ _ _ _ _ _ _ b.H.H.H.H.H.b._ _ _ _ _ _ _ _ _ _ _ _ _ d.H.H.5.      ",
"      5.H.H.d._ _ _ _ _ _ _ _ _ _ _ _ _ b.H.H.H.H.H.b._ _ _ _ _ _ _ _ _ _ _ _ _ d.H.H.5.      ",
"      5.H.H.A.x.x.x.T U U U U U o.x.x.x.D.H.H.H.H.H.G.x.x.x.W U U U U U U Y Y Y s.H.H.5.      ",
"      5.H.H.H.H.H.H.R I I I I I +.H.H.H.H.H.H.H.H.H.H.H.H.H.~ I I I I I I Y Y Y s.H.H.5.      ",
"      5.H.H.H.H.H.H.R I I I I I +.H.H.H.H.H.H.H.H.H.H.H.H.H.~ I I I I I I Y Y Y s.H.H.5.      ",
"      * 2.2.8.H.H.H.;.-.-.-.-.-.q.H.H.H.H.H.H.H.H.H.H.H.H.H.! P P P P P P I I I p.H.H.5.      ",
"            $ H.H.H.H.H.H.H.H.H.H.H.H.H.H.H.H.H.H.H.H.H.H.H.Q K K K K K K K K K p.H.H.5.      ",
"            $ H.H.H.H.H.H.H.H.H.H.H.H.H.H.H.H.H.H.H.H.H.H.H.Q K K K K K K K K K p.H.H.5.      ",
"            # B.B.B.B.B.B.B.B.B.V.H.H.H.D.A.A.A.A.A.A.A.A.A.Q K K K K K K L L L a.H.H.5.      ",
"H.H.H.                          O H.H.H.E C C C C C C C C C C C C C C C A H.H.H.H.H.H.5.      ",
"H.H.H.                          O H.H.H.E C C C C C C C C C C C C C C C A H.H.H.H.H.H.5.      ",
"H.H.H.                          O H.H.H.E C C C C C C C C C C C C C C C A H.H.H.H.H.H.5.      ",
"H.H.H.                          O H.H.H.J N N N N N N N N N N N N N N N Z H.H.H.,.% % O       ",
"H.H.H.                          O H.H.H.H M M M M M M M M M M M M M M M V H.H.H.$             ",
"H.H.H.                          O H.H.H.H M M M M M M M M M M M M M M M V H.H.H.$             ",
"H.H.H.      X % % % % % % % % % - H.H.H.G k k k k k k k k k k k k k k k B H.H.H.,.% % O       ",
"H.H.H.      $ H.H.H.H.H.H.H.H.H.H.H.H.H.S j j j j j j j j j j j j j j j z H.H.H.H.H.H.5.      ",
"H.H.H.      $ H.H.H.H.H.H.H.H.H.H.H.H.H.S j j j j j j j j j j j j j j j z H.H.H.H.H.H.5.      ",
"H.H.H.      $ H.H.H.H.H.H.H.H.H.H.H.H.H.S j j j j j j j j j j j j j j j z H.H.H.H.H.H.5.      ",
"H.H.H.      $ H.H.H.c d d d d d ^ H.H.H.D.A.A.A.A.A.A.A.A.A.F a s s s s s d d d i.H.H.5.      ",
"H.H.H.      $ H.H.H.l a a a a a F H.H.H.H.H.H.H.H.H.H.H.H.H.F a a a a a a a a a u.H.H.5.      ",
"H.H.H.      $ H.H.H.l a a a a a F H.H.H.H.H.H.H.H.H.H.H.H.H.F a a a a a a a a a u.H.H.5.      ",
"H.H.H.      $ H.H.H.h p p e e e n H.H.H.H.H.H.9.= = ,.H.H.H.D p p p p p p p p p y.H.H.5.      ",
"H.H.H.      $ H.H.H.g w w w q q b H.H.H.H.H.H.,.    o H.H.H.n w w w w w w w w w y.H.H.5.      ",
"H.H.H.      $ H.H.H.g w w q q q b H.H.H.H.H.H.,.    o H.H.H.n w w w w w w w w w y.H.H.5.      ",
"H.H.H.      $ H.H.H.f q q q 0 0 x j.j.j.D.H.H.3.O O % H.H.H.b q q q q q q q q q t.H.H.5.      ",
"H.H.H.      $ H.H.H.r 6 6 6 6 6 6 6 6 6 z.H.H.H.H.H.H.H.H.H.v 6 6 6 6 6 6 6 6 6 r.H.H.5.      ",
"H.H.H.      $ H.H.H.r 6 6 6 6 6 6 6 6 6 z.H.H.H.H.H.H.H.H.H.v 6 6 6 6 6 6 6 6 6 r.H.H.5.      ",
"H.H.H.      $ H.H.H.r 6 6 6 6 6 6 6 6 6 z.H.H.H.H.H.H.H.H.H.v 6 6 6 6 6 6 6 6 6 r.H.H.5.      ",
"H.H.H.      $ H.H.H.9 1 1 1 1 1 1 1 1 1 y u u u u u u u u u 5 1 1 1 1 1 1 1 1 1 w.H.H.5.      ",
"H.H.H.      $ H.H.H.7 , , , , , , , , , , , , , , , , , , , , , , , , , , , , , w.H.H.5.      ",
"H.H.H.      $ H.H.H.7 , , , , , , , , , , , , , , , , , , , , , , , , , , , , , w.H.H.5.      ",
"H.H.H.      $ H.H.H.0.) ) i > > > > > > > > > > > > > > > > > > > > > > 2 ) ) ) l.H.H.5.      ",
"H.H.H.      $ H.H.H.H.H.H./ : : : : : : : : : : : : : : : : : : : : : : 3 H.H.H.H.H.H.5.      ",
"H.H.H.      $ H.H.H.H.H.H./ : : : : : : : : : : : : : : : : : : : : : : 3 H.H.H.H.H.H.5.      ",
"H.H.H.      @ M.M.M.H.H.H.( 8 8 4 : : : : : : : : : : : : : : : : < 8 8 t H.H.H.N.M.M.1.      ",
"H.H.H.              N.H.H.H.H.H.h.; ; ; ; ; ; ; ; ; ; ; ; ; ; ; ; m H.H.H.H.H.H.$             ",
"H.H.H.              N.H.H.H.H.H.h.; ; ; ; ; ; ; ; ; ; ; ; ; ; ; ; m H.H.H.H.H.H.$             ",
"H.H.H.              N.H.H.H.H.H.h.; ; ; ; ; ; ; ; ; ; ; ; ; ; ; ; m H.H.H.H.H.H.$             ",
"H.H.H.H.H.H.H.      + @ @ 7.H.H.C.e.e.e.e.e.e.e.e.e.e.e.e.e.e.e.e.k.H.H.B.@ @ @ .       H.H.H.",
"H.H.H.H.H.H.H.            1.H.H.H.H.H.H.H.H.H.H.H.H.H.H.H.H.H.H.H.H.H.H.N.              H.H.H.",
"H.H.H.H.H.H.H.            1.H.H.H.H.H.H.H.H.H.H.H.H.H.H.H.H.H.H.H.H.H.H.N.              H.H.H.",
"H.H.H.H.H.H.H.            * 4.4.4.4.4.4.4.4.4.4.4.4.4.4.4.4.4.4.4.4.4.4.2.            H.H.H.H.",
"H.H.H.H.H.H.H.H.H.H.                                                            H.H.H.H.H.H.H.",
"H.H.H.H.H.H.H.H.H.H.                                                            H.H.H.H.H.H.H.",
"H.H.H.H.H.H.H.H.H.H.                                                            H.H.H.H.H.H.H."
};
