/* XPM */
static const char *_[] = {
/* columns rows colors chars-per-pixel */
"60 64 132 2 ",
"   c black",
".  c #1E1E1E",
"X  c gray13",
"o  c #282828",
"O  c #323232",
"+  c #393939",
"@  c #464646",
"#  c #4B4B4B",
"$  c #555555",
"%  c #5A5A5A",
"&  c #5D5D5D",
"*  c #646464",
"=  c DimGray",
"-  c #717171",
";  c gray47",
":  c gray50",
">  c #0119FF",
",  c #011FFF",
"<  c #012BFF",
"1  c #0137FF",
"2  c #013BFF",
"3  c #1D33FF",
"4  c #0149FF",
"5  c #0151FF",
"6  c #0155FF",
"7  c #015BFF",
"8  c #015CFF",
"9  c #1054FF",
"0  c #105BFF",
"q  c #105FFF",
"w  c #0167FF",
"e  c #016EFF",
"r  c #1061FF",
"t  c #1066FF",
"y  c #0173FF",
"u  c #1070FF",
"i  c #0184FF",
"p  c #0189FF",
"a  c #0190FF",
"s  c #1F92FF",
"d  c #1F97FF",
"f  c #1F9DFF",
"g  c #2B9DFF",
"h  c #01A2FF",
"j  c #01A6FF",
"k  c #01A8FF",
"l  c #01AEFF",
"z  c #10ABFF",
"x  c #01B2FF",
"c  c #01B4FF",
"v  c #01BCFF",
"b  c #2EBCFF",
"n  c #549BFF",
"m  c #4CA8FF",
"M  c #5CA0FF",
"N  c #6DA9FF",
"B  c #75AEFF",
"V  c #01C3FF",
"C  c #01C4FF",
"Z  c #01CCFF",
"A  c #01D2FF",
"S  c #01D8FF",
"D  c #01DEFF",
"F  c #1FDCFF",
"G  c #29CBFF",
"H  c #2ECBFF",
"J  c #39CEFF",
"K  c #29DDFF",
"L  c #1DE2FF",
"P  c #2EE4FF",
"I  c #3DE6FF",
"U  c #56C1FF",
"Y  c #5CD7FF",
"T  c #45E7FF",
"R  c #52E9FF",
"E  c gray52",
"W  c #8E8E8E",
"Q  c #AAAAAA",
"!  c #BBBBBB",
"~  c #BCBCBC",
"^  c #81A0FF",
"/  c #8EBBFF",
"(  c #98B2FF",
")  c #95BFFF",
"_  c #A5AEFF",
"`  c #A5B0FF",
"'  c #A5B4FF",
"]  c #AFB7FF",
"[  c #A5B8FF",
"{  c #8ECEFF",
"}  c #96C5FF",
"|  c #82D7FF",
" . c #93D5FF",
".. c #A5CEFF",
"X. c #A5D4FF",
"o. c #A5D5FF",
"O. c #A5D8FF",
"+. c #A5DEFF",
"@. c #A5E0FF",
"#. c #A5E5FF",
"$. c #AAE6FF",
"%. c #A5E9FF",
"&. c #A5EDFF",
"*. c #AAEEFF",
"=. c #B4F0FF",
"-. c #C3C3C3",
";. c #C6C6C6",
":. c #C8C8C8",
">. c #D2D2D2",
",. c #C3C9FF",
"<. c #C3CDFF",
"1. c #CACFFF",
"2. c #C3D0FF",
"3. c #C7D7FF",
"4. c #C3DEFF",
"5. c #CAD9FF",
"6. c #C3E3FF",
"7. c #C3E5FF",
"8. c #C3E9FF",
"9. c #D2E6FF",
"0. c gray89",
"q. c gray92",
"w. c gray93",
"e. c #E3F3FF",
"r. c #E4F3FF",
"t. c #E6F4FF",
"y. c #E1F9FF",
"u. c #E6FAFF",
"i. c gray94",
"p. c gray96",
"a. c #F8F8F8",
"s. c None",
/* pixels */
"s.s.s.s.s.s.s.s.s.s.s.s.s.s.s.s.s.s.s.s.s.                                                  s.s.s.s.s.s.s.s.s.s.s.s.s.s.",
"s.s.s.s.s.s.s.s.s.s.s.s.s.s.s.s.s.s.s.s.s.                                                  s.s.s.s.s.s.s.s.s.s.s.s.s.s.",
"s.s.s.s.s.s.s.s.s.s.s.s.s.s.s.s.s.s.s.s.s.                                                  s.s.s.s.s.s.s.s.s.s.s.s.s.s.",
"s.s.s.s.s.s.s.s.s.s.s.s.s.s.s.s.s.s.s.s.s.      X - - - - - - - - - - - - - - - - - o       s.s.s.s.s.s.s.s.s.s.s.s.s.s.",
"s.s.s.s.s.s.s.s.s.s.s.s.s.s.s.s.s.s.            # s.s.s.s.s.s.s.s.s.s.s.s.s.s.s.s.s.%             s.s.s.s.s.s.s.s.s.s.s.",
"s.s.s.s.s.s.s.s.s.s.s.s.s.s.s.s.s.s.            # s.s.s.s.s.s.s.s.s.s.s.s.s.s.s.s.s.%             s.s.s.s.s.s.s.s.s.s.s.",
"s.s.s.s.s.s.s.s.s.s.s.s.s.s.s.s.s.s.            # s.s.s.s.s.s.s.s.s.s.s.s.s.s.s.s.s.%             s.s.s.s.s.s.s.s.s.s.s.",
"s.s.s.s.s.s.s.s.s.s.s.s.s.s.              ! 0.0.q.s.s.s.R L L L L L L L L L T s.s.s.w.0.0.:.      s.s.s.s.s.s.s.s.s.s.s.",
"s.s.s.s.s.s.s.s.s.s.s.s.s.s.              >.s.s.s.s.s.s.I D D D D D D D D D P s.s.s.s.s.s.0.      s.s.s.s.s.s.s.s.s.s.s.",
"s.s.s.s.s.s.s.s.s.s.s.s.s.s.              >.s.s.s.s.s.s.I D D D D D D D D D P s.s.s.s.s.s.0.      s.s.s.s.s.s.s.s.s.s.s.",
"s.s.s.s.s.s.s.s.s.s.s.s.s.s.      . $ $ $ 0.s.s.u.*.*.*.K S S S S S S S S S F *.*.*.y.s.s.0.      s.s.s.s.s.s.s.s.s.s.s.",
"s.s.s.s.s.s.s.s.s.s.s.s.s.s.      % s.s.s.s.s.s.=.Z Z Z Z Z Z Z A A A Z Z Z Z Z Z Z &.s.s.0.      s.s.s.s.s.s.s.s.s.s.s.",
"s.s.s.s.s.s.s.s.s.s.s.s.s.s.      % s.s.s.s.s.s.=.Z Z Z Z Z Z Z A A A Z Z Z Z Z Z Z &.s.s.0.      s.s.s.s.s.s.s.s.s.s.s.",
"s.s.s.s.s.s.s.s.s.s.s.s.s.s.      % s.s.s.s.s.s.=.Z Z Z Z Z Z Z A A A Z Z Z Z Z Z Z &.s.s.0.      s.s.s.s.s.s.s.s.s.s.s.",
"s.s.s.s.s.s.s.s.s.s.s.            % s.s.s.Y J J G V V V V V V V C C C V V V V V V V %.s.s.0.      s.s.s.s.s.s.s.s.s.s.s.",
"s.s.s.s.s.s.s.s.s.s.s.            % s.s.s.H V V V V V V V V V V V V V V V V V V V V %.s.s.0.      s.s.s.s.s.s.s.s.s.s.s.",
"s.s.s.s.s.s.s.s.s.s.s.            % s.s.s.H V V V V V V V V V V V V V V V V V V V V %.s.s.0.      s.s.s.s.s.s.s.s.s.s.s.",
"s.s.s.s.s.s.s.s.s.s.        O + + : s.s.s.H v v v v v v v v v v v v v v v v v v v v %.s.s.0.      s.s.s.s.s.s.s.s.s.s.s.",
"s.s.s.s.s.s.s.              0.s.s.s.s.s.s.b l l l l l l x x c x l l l x c c c c c c #.s.s.0.      s.s.s.s.s.s.s.s.s.s.s.",
"s.s.s.s.s.s.s.              0.s.s.s.s.s.s.b l l l l l l x c c x l l l x c c c x c c #.s.s.0.      s.s.s.s.s.s.s.s.s.s.s.",
"s.s.s.s.s.s.s.              0.s.s.s.s.s.s.b l l l l l l x c c x l l l x c c c c c c #.s.s.0.      s.s.s.s.s.s.s.s.s.s.s.",
"s.s.s.s.s.s.s.      @ Q Q Q p.s.s.8.U U U z j j j j j j | $.$.| j j j j k k k k k k @.s.s.0.      s.s.s.s.s.s.s.s.s.s.s.",
"s.s.s.s.s.s.s.      = s.s.s.s.s.s.+.h h h h h h h h h h 8.s.s.8.h h h h h h h h h h +.s.s.0.      s.s.s.s.s.s.s.s.s.s.s.",
"s.s.s.s.s.s.s.      = s.s.s.s.s.s.+.h h h h h h h h h h 8.s.s.8.h h h h h h h h h h +.s.s.0.      s.s.s.s.s.s.s.s.s.s.s.",
"s.s.s.s.s.s.s.      = s.s.s.t.e.e. .h h h h h h h h h h 8.s.s.8.h h h h h h h h h h +.s.s.0.      s.s.s.s.s.s.s.s.s.s.s.",
"s.s.s.s.            = s.s.s.f a a a a a a a a a a a a a 7.s.s.7.a a a a a a a a a a O.s.s.0.      s.s.s.s.s.s.s.s.s.s.s.",
"s.s.s.s.            = s.s.s.f a a a a a a a a a a a a a 7.s.s.7.a a a a a a a a a a O.s.s.0.      s.s.s.s.s.s.s.s.s.s.s.",
"s.s.s.s.            = s.s.s.f a a a a a a a a a a a a a 7.s.s.7.a a a a a a a a a a O.s.s.0.      s.s.s.s.s.s.s.s.s.s.s.",
"              E W W ~ s.s.s.d p p p p p p p p p g { { { r.s.s.6.p p p p p p p p p p o.s.s.0.                            ",
"              i.s.s.s.s.s.s.s i i i i i i i i i m s.s.s.s.s.s.6.i i i i i i i i i i o.s.s.0.                            ",
"              i.s.s.s.s.s.s.s i i i i i i i i i m s.s.s.s.s.s.6.i i i i i i i i i i o.s.s.0.                            ",
"              i.s.s.s.s.s.s.s i i i i i i i i i m s.s.s.s.s.s.6.i i i i i i i i i i o.s.s.0.                            ",
"      ; s.s.s.s.s.s.} y y y y y y y y y y 9.s.s.s.s.s.s.s.s.s.4.y y y y y y y y y y ..s.s.s.s.s.s.s.s.s.s.s.s.s.;       ",
"      ; s.s.s.s.s.s.} y y y y y y y y y y 9.s.s.s.s.s.s.s.s.s.4.y y y y y y y y y y ..s.s.s.s.s.s.s.s.s.s.s.s.s.;       ",
"      ; s.s.s.s.s.s.} y y y y y y y y y y 9.s.s.s.s.s.s.s.s.s.4.y y y y y y y y y y ..s.s.s.s.s.s.s.s.s.s.s.s.s.;       ",
"      ; s.s.s.) / / n e e e e e e e e e e B / / / / / / / / / N e e e e e e e e e e M / / / / / / / / / ) s.s.s.;       ",
"      ; s.s.s.u w w w w w w w w w w w w w w w w w w w w w w w w w w w w w w w w w w w w w w w w w w w w u s.s.s.;       ",
"      ; s.s.s.u w w w w w w w w w w w w w w w w w w w w w w w w w w w w w w w w w w w w w w w w w w w w u s.s.s.;       ",
"      ; s.s.s.u w w w w w w w w w w w w w w w w w w w w w w w w w w w w w w w w w w w w w w w w w w w w u s.s.s.;       ",
"      ; s.s.s.t 8 8 8 8 8 8 8 8 8 7 6 6 6 7 8 8 8 8 8 8 8 8 8 8 8 8 8 7 6 6 6 6 6 6 6 6 6 7 8 8 8 7 6 6 r s.s.s.;       ",
"      ; s.s.s.t 7 7 7 7 7 7 7 7 7 7 6 6 6 7 7 7 7 7 7 7 7 7 7 7 7 7 7 6 6 6 6 6 6 6 6 6 6 6 7 7 7 6 6 6 q s.s.s.;       ",
"      ; s.s.s.t 7 7 7 7 7 7 7 7 7 7 6 6 6 7 7 7 7 7 7 7 7 7 7 7 7 7 7 6 6 6 6 6 6 6 6 6 6 6 7 7 7 6 6 6 q s.s.s.;       ",
"      ; s.s.s.q 6 6 6 6 6 6 6 6 6 6 5 5 5 6 6 6 6 6 6 6 6 6 6 6 6 6 6 5 5 5 5 5 5 5 5 5 5 5 6 6 6 5 5 5 0 s.s.s.;       ",
"      ; s.s.s.9 4 4 4 4 4 4 4 4 4 4 4 4 4 4 4 4 4 4 4 4 4 4 4 4 4 4 4 4 4 4 4 4 4 4 4 4 4 4 4 4 4 4 4 4 9 s.s.s.;       ",
"      ; s.s.s.9 4 4 4 4 4 4 4 4 4 4 4 4 4 4 4 4 4 4 4 4 4 4 4 4 4 4 4 4 4 4 4 4 4 4 4 4 4 4 4 4 4 4 4 4 9 s.s.s.;       ",
"      ; s.s.s.9 4 4 4 4 4 4 4 4 4 4 4 4 4 4 4 4 4 4 4 4 4 4 4 4 4 4 4 4 4 4 4 4 4 4 4 4 4 4 4 4 4 4 4 4 9 s.s.s.;       ",
"      ; s.s.s.5.3.3.3.3.3.3.3.3.3.3.3.3.3.3.3.3.3.3.3.3.3.3.3.( 2 2 2 2 2 2 2 2 2 2 ^ 3.3.3.3.3.3.3.3.3.5.s.s.s.;       ",
"      ; s.s.s.s.s.s.s.s.s.s.s.s.s.s.s.s.s.s.s.s.s.s.s.s.s.s.s.2.1 1 1 1 1 1 1 1 1 1 [ s.s.s.s.s.s.s.s.s.s.s.s.s.;       ",
"      ; s.s.s.s.s.s.s.s.s.s.s.s.s.s.s.s.s.s.s.s.s.s.s.s.s.s.s.2.1 1 1 1 1 1 1 1 1 1 [ s.s.s.s.s.s.s.s.s.s.s.s.s.;       ",
"      & ;.;.;.;.;.;.;.;.;.;.;.;.;.;.;.;.;.;.;.;.;.;.;.;.i.s.s.<.1 1 1 1 1 1 1 1 1 1 ' s.s.a.;.;.;.;.;.;.;.;.;.;.&       ",
"                                                        -.s.s.<.< < < < < < < < < < ' s.s.0.                            ",
"                                                        -.s.s.<.< < < < < < < < < < ' s.s.0.                            ",
"                                                        -.s.s.<.< < < < < < < < < < ' s.s.0.                            ",
"s.s.s.s.s.s.s.s.s.s.s.s.s.s.s.s.s.s.s.s.s.s.s.s.        -.s.s.,., , , , , , , , , , ` s.s.0.        s.s.s.s.s.s.s.s.s.s.",
"s.s.s.s.s.s.s.s.s.s.s.s.s.s.s.s.s.s.s.s.s.s.s.s.s.      -.s.s.,.> > > > > > > > > > _ s.s.0.      s.s.s.s.s.s.s.s.s.s.s.",
"s.s.s.s.s.s.s.s.s.s.s.s.s.s.s.s.s.s.s.s.s.s.s.s.s.      -.s.s.,.> > > > > > > > > > _ s.s.0.      s.s.s.s.s.s.s.s.s.s.s.",
"s.s.s.s.s.s.s.s.s.s.s.s.s.s.s.s.s.s.s.s.s.s.s.s.s.      -.s.s.1.3 3 3 3 3 3 3 3 3 3 ] s.s.0.      s.s.s.s.s.s.s.s.s.s.s.",
"s.s.s.s.s.s.s.s.s.s.s.s.s.s.s.s.s.s.s.s.s.s.s.s.s.      -.s.s.s.s.s.s.s.s.s.s.s.s.s.s.s.s.0.      s.s.s.s.s.s.s.s.s.s.s.",
"s.s.s.s.s.s.s.s.s.s.s.s.s.s.s.s.s.s.s.s.s.s.s.s.s.      -.s.s.s.s.s.s.s.s.s.s.s.s.s.s.s.s.0.      s.s.s.s.s.s.s.s.s.s.s.",
"s.s.s.s.s.s.s.s.s.s.s.s.s.s.s.s.s.s.s.s.s.s.s.s.s.      -.s.s.s.s.s.s.s.s.s.s.s.s.s.s.s.s.0.      s.s.s.s.s.s.s.s.s.s.s.",
"s.s.s.s.s.s.s.s.s.s.s.s.s.s.s.s.s.s.s.s.s.s.s.s.s.      $ - - - - - - - - - - - - - - - - *       s.s.s.s.s.s.s.s.s.s.s.",
"s.s.s.s.s.s.s.s.s.s.s.s.s.s.s.s.s.s.s.s.s.s.s.s.s.                                                s.s.s.s.s.s.s.s.s.s.s.",
"s.s.s.s.s.s.s.s.s.s.s.s.s.s.s.s.s.s.s.s.s.s.s.s.s.                                                s.s.s.s.s.s.s.s.s.s.s.",
"s.s.s.s.s.s.s.s.s.s.s.s.s.s.s.s.s.s.s.s.s.s.s.s.s.                                                s.s.s.s.s.s.s.s.s.s.s."
};
