/* XPM */
static const char *_[] = {
/* columns rows colors chars-per-pixel */
"46 64 121 2 ",
"   c black",
".  c gray5",
"X  c gray11",
"o  c #272727",
"O  c #343434",
"+  c #555555",
"@  c gray36",
"#  c #606060",
"$  c DimGray",
"%  c #717171",
"&  c #767676",
"*  c #0119FF",
"=  c #011FFF",
"-  c #012BFF",
";  c #0137FF",
":  c #013BFF",
">  c #1D33FF",
",  c #153BFF",
"<  c #0149FF",
"1  c #1546FF",
"2  c #154AFF",
"3  c #0151FF",
"4  c #0155FF",
"5  c #1557FF",
"6  c #155EFF",
"7  c #2C5AFF",
"8  c #315DFF",
"9  c #0167FF",
"0  c #016EFF",
"q  c #1562FF",
"w  c #1564FF",
"e  c #0173FF",
"r  c #1573FF",
"t  c #1579FF",
"y  c #157EFF",
"u  c #3963FF",
"i  c #3574FF",
"p  c #697DFF",
"a  c #0184FF",
"s  c #0189FF",
"d  c #158DFF",
"f  c #0190FF",
"g  c #2482FF",
"h  c #01A2FF",
"j  c #01A6FF",
"k  c #01AEFF",
"l  c #01BCFF",
"z  c #24ADFF",
"x  c #28B0FF",
"c  c #4F89FF",
"v  c #4F96FF",
"b  c #4F9EFF",
"n  c #7689FF",
"m  c #7B9BFF",
"M  c #46A8FF",
"N  c #42BBFF",
"B  c #72B1FF",
"V  c #72BBFF",
"C  c #01C0FF",
"Z  c #01C4FF",
"A  c #01CCFF",
"S  c #15C5FF",
"D  c #15C9FF",
"F  c #01D2FF",
"G  c #01D8FF",
"H  c #01DEFF",
"J  c #15D5FF",
"K  c #15DDFF",
"L  c #2CCAFF",
"P  c #39CEFF",
"I  c #15E1FF",
"U  c #1DE2FF",
"Y  c #2FE4FF",
"T  c #56C1FF",
"R  c #49D2FF",
"E  c #7DC0FF",
"W  c #70CBFF",
"Q  c #B1B1B1",
"!  c #B9B9B9",
"~  c #9DA7FF",
"^  c #9DADFF",
"/  c #9DB2FF",
"(  c #A8B0FF",
")  c #AAB8FF",
"_  c #B1B8FF",
"`  c #B1BEFF",
"'  c #9DC9FF",
"]  c #9DD0FF",
"[  c #9DD4FF",
"{  c #9DDAFF",
"}  c #9DDDFF",
"|  c #AAC2FF",
" . c #B1C7FF",
".. c #BAC0FF",
"X. c #9DE0FF",
"o. c #9DE7FF",
"O. c #9DEBFF",
"+. c #9DF2FF",
"@. c #A8F4FF",
"#. c gray77",
"$. c #CBCBCB",
"%. c gray82",
"&. c #D8D8D8",
"*. c #C4D5FF",
"=. c #C4DFFF",
"-. c #CBDAFF",
";. c #C9E1FF",
":. c #C4ECFF",
">. c #D8E3FF",
",. c #DEE4FF",
"<. c #DEEDFF",
"1. c gray89",
"2. c gray92",
"3. c #EEEEEE",
"4. c #E3F3FF",
"5. c #EBF1FF",
"6. c gray95",
"7. c #F2F6FF",
"8. c #F4FAFF",
"9. c #FBFBFB",
"0. c None",
/* pixels */
"0.0.0.0.                                                                                    ",
"0.0.0.0.                                                                                    ",
"0.0.0.0.                                                                                    ",
"0.0.0.0.      $ % % % % % % % % % % % % % % % % % % % % % % % % % % % % % % % % % % O       ",
"0.0.0.0.      2.0.0.0.0.0.0.0.0.0.0.0.0.0.0.0.0.0.0.0.0.0.0.0.0.0.0.0.0.0.0.0.0.0.0.&       ",
"0.0.0.0.      2.0.0.0.0.0.0.0.0.0.0.0.0.0.0.0.0.0.0.0.0.0.0.0.0.0.0.0.0.0.0.0.0.0.0.&       ",
"0.0.0.0.      2.0.0.0.0.0.0.0.0.0.0.0.0.0.0.0.0.0.0.0.0.0.0.0.0.0.0.0.0.0.0.0.0.0.0.&       ",
"0.0.0.0.      2.0.0.@.U U U U U U U U U U U U U U U U U U U U U U U U U U U Y 0.0.0.&       ",
"0.0.0.0.      2.0.0.+.H H H H H H H H H H H H H H H H H H H H H H H H H H H I 0.0.0.&       ",
"0.0.0.0.      2.0.0.+.H H H H H H H H H H H H H H H H H H H H H H H H H H H I 0.0.0.&       ",
"0.0.0.0.      2.0.0.+.G G G G G G G G G G G G G G G G G G G G G G G G G G G K 0.0.0.&       ",
"0.0.0.0.      2.0.0.O.A A A A A A A A A A A A A A F F F A A A A F F F F F F J 0.0.0.&       ",
"0.0.0.0.      2.0.0.O.A A A A A A A A A A A A A A F F F A A A A F F F F F F J 0.0.0.&       ",
"0.0.0.0.      2.0.0.O.A A A A A A A A A A A A A A F F F A A A A F F F F F F J 0.0.0.&       ",
"0.0.0.0.      2.0.0.O.C C C C C C C C C C C C C C Z Z Z C C C C Z Z Z Z Z Z D 0.0.0.&       ",
"0.0.0.0.      2.0.0.o.C C C C C C C C C C C C C C C C C C C C C C C C C C C S 0.0.0.&       ",
"0.0.0.0.      2.0.0.o.C C C C C C C C C C C C C C C C C C C C C C C C C C C S 0.0.0.&       ",
"0.0.0.0.      2.0.0.o.l l l l l l l l l l L P P P P P P P P P P P P P P P P R 0.0.0.&       ",
"0.0.0.0.      2.0.0.X.k k k k k k k k k k :.0.0.0.0.0.0.0.0.0.0.0.0.0.0.0.0.0.0.0.0.&       ",
"0.0.0.0.      2.0.0.X.k k k k k k k k k k :.0.0.0.0.0.0.0.0.0.0.0.0.0.0.0.0.0.0.0.0.&       ",
"0.0.0.0.      2.0.0.X.k k k k k k k k k k :.0.0.0.0.0.0.0.0.0.0.0.0.0.0.0.0.0.0.0.0.&       ",
"0.0.0.0.      2.0.0.} j j j j j j j j j j N T T T T T T T T T W 0.0.0.0.0.0.6.+ + + o       ",
"0.0.0.0.      2.0.0.{ h h h h h h h h h h h h h h h h h h h h x 0.0.0.0.0.0.2.              ",
"0.0.0.0.      2.0.0.{ h h h h h h h h h h h h h h h h h h h h x 0.0.0.0.0.0.2.              ",
"0.0.0.0.      2.0.0.{ h h h h h h h h h h h h h h h h h h h h z 4.4.4.8.0.0.3.X X X .       ",
"0.0.0.0.      2.0.0.[ f f f f f f f f f f f f f f f f f f f f f f f f [ 0.0.0.0.0.0.&       ",
"0.0.0.0.      2.0.0.[ f f f f f f f f f f f f f f f f f f f f f f f f [ 0.0.0.0.0.0.&       ",
"0.0.0.0.      2.0.0.[ f f f f f f f f f f f f f f f f f f f f f f f f [ 0.0.0.0.0.0.&       ",
"0.0.0.0.      2.0.0.] s s s s s s s s s s s s s s s s s s s s s s s s M V V E 0.0.0.&       ",
"0.0.0.0.      2.0.0.] a a a a a a a a a a a a a a a a a a a a a a a a a a a d 0.0.0.&       ",
"0.0.0.0.      2.0.0.] a a a a a a a a a a a a a a a a a a a a a a a a a a a d 0.0.0.&       ",
"0.0.0.0.      2.0.0.] a a a a a a a a a a a a a a a a a a a a a a a a a a a d 0.0.0.&       ",
"0.0.0.0.      2.0.0.' e e e e e e b 0.0.0.0.0.0.=.e e e e e e e e e e e e e y 0.0.0.&       ",
"0.0.0.0.      2.0.0.' e e e e e e b 0.0.0.0.0.0.=.e e e e e e e e e e e e e y 0.0.0.&       ",
"0.0.0.0.      2.0.0.' e e e e e e b 0.0.0.0.0.0.=.e e e e e e e e e e e e e y 0.0.0.&       ",
"0.0.0.        2.0.0.;.B B B B B B ' 0.0.0.0.0.0.<.B B B g 0 0 0 0 0 0 0 0 0 t 0.0.0.&       ",
"              2.0.0.0.0.0.0.0.0.0.0.0.0.0.0.0.0.0.0.0.0.v 9 9 9 9 9 9 9 9 9 r 0.0.0.&       ",
"              2.0.0.0.0.0.0.0.0.0.0.0.0.0.0.0.0.0.0.0.0.v 9 9 9 9 9 9 9 9 9 r 0.0.0.&       ",
"              2.0.0.0.0.0.0.0.0.0.0.0.0.0.0.0.0.0.0.0.0.v 9 9 9 9 9 9 9 9 9 r 0.0.0.&       ",
"      $ 1.1.1.0.0.0.0.0.0.0.0.0.0.! X X X $.0.0.0.0.0.0.c 4 4 4 4 4 4 4 4 4 w 0.0.0.&       ",
"      & 0.0.0.0.0.0.0.0.0.0.0.0.0.Q       #.0.0.0.0.0.0.c 4 4 4 4 4 4 4 4 4 q 0.0.0.&       ",
"      & 0.0.0.0.0.0.0.0.0.0.0.0.0.Q       #.0.0.0.0.0.0.c 4 4 4 4 4 4 4 4 4 q 0.0.0.&       ",
"      & 0.0.0. .| | | | | | 7.0.0.$.+ + + &.0.0.5.| | | i 3 3 3 3 3 3 3 3 3 6 0.0.0.&       ",
"      & 0.0.0.5 < < < < < < >.0.0.0.0.0.0.0.0.0.*.< < < < < < < < < < < < < 5 0.0.0.&       ",
"      & 0.0.0.5 < < < < < < >.0.0.0.0.0.0.0.0.0.*.< < < < < < < < < < < < < 5 0.0.0.&       ",
"      & 0.0.0.5 < < < < < < >.0.0.0.0.0.0.0.0.0.*.< < < < < < < < < < < < < 5 0.0.0.&       ",
"      & 0.0.0.2 : : : : : : 8 u u u u u u u u u 7 : : : : : : : : : : m *.*.-.0.0.0.&       ",
"      & 0.0.0.1 ; ; ; ; ; ; ; ; ; ; ; ; ; ; ; ; ; ; ; ; ; ; ; ; ; ; ; / 0.0.0.0.0.0.&       ",
"      & 0.0.0.1 ; ; ; ; ; ; ; ; ; ; ; ; ; ; ; ; ; ; ; ; ; ; ; ; ; ; ; / 0.0.0.0.0.0.&       ",
"      & 0.0.0.1 ; ; ; ; ; ; ; ; ; ; ; ; ; ; ; ; ; ; ; ; ; ; ; ; ; ; ; / 0.0.9.#.#.#.@       ",
"      & 0.0.0., - - - - - - - - - - - - - - - - - - - - - - - - - - - ^ 0.0.2.              ",
"      & 0.0.0., - - - - - - - - - - - - - - - - - - - - - - - - - - - ^ 0.0.2.              ",
"      & 0.0.0., - - - - - - - - - - - - - - - - - - - - - - - - - - - ^ 0.0.2.              ",
"      & 0.0.0.` ) ) p = = = = = = = = = = = = = = = = = n ) ) ) ) ) ) ,.0.0.2.        0.0.0.",
"      & 0.0.0.0.0.0.~ * * * * * * * * * * * * * * * * * _ 0.0.0.0.0.0.0.0.0.2.      0.0.0.0.",
"      & 0.0.0.0.0.0.~ * * * * * * * * * * * * * * * * * _ 0.0.0.0.0.0.0.0.0.2.      0.0.0.0.",
"      $ 1.1.1.0.0.0.( > > > > > > > > > > > > > > > > > ..0.0.9.1.1.1.1.1.1.%.      0.0.0.0.",
"              2.0.0.0.0.0.0.0.0.0.0.0.0.0.0.0.0.0.0.0.0.0.0.0.&.                    0.0.0.0.",
"              2.0.0.0.0.0.0.0.0.0.0.0.0.0.0.0.0.0.0.0.0.0.0.0.&.                    0.0.0.0.",
"              2.0.0.0.0.0.0.0.0.0.0.0.0.0.0.0.0.0.0.0.0.0.0.0.&.                    0.0.0.0.",
"0.0.0.        $ % % % % % % % % % % % % % % % % % % % % % % % #         0.0.0.0.0.0.0.0.0.0.",
"0.0.0.0.                                                              0.0.0.0.0.0.0.0.0.0.0.",
"0.0.0.0.                                                              0.0.0.0.0.0.0.0.0.0.0.",
"0.0.0.0.                                                              0.0.0.0.0.0.0.0.0.0.0."
};
