/* XPM */
static const char *_[] = {
/* columns rows colors chars-per-pixel */
"50 64 122 2 ",
"   c black",
".  c #181818",
"X  c gray11",
"o  c #202020",
"O  c gray14",
"+  c #313131",
"@  c #393939",
"#  c gray24",
"$  c #414141",
"%  c #494949",
"&  c #515151",
"*  c #555555",
"=  c #5D5D5D",
"-  c #6D6D6D",
";  c #717171",
":  c gray49",
">  c #0119FF",
",  c #011FFF",
"<  c #012BFF",
"1  c #0137FF",
"2  c #013BFF",
"3  c #1D33FF",
"4  c #0941FF",
"5  c #0149FF",
"6  c #0151FF",
"7  c #0157FF",
"8  c #015BFF",
"9  c #015CFF",
"0  c #314BFF",
"q  c #2152FF",
"w  c #0167FF",
"e  c #016EFF",
"r  c #1965FF",
"t  c #0173FF",
"y  c #1177FF",
"u  c #2563FF",
"i  c #256AFF",
"p  c #256FFF",
"a  c #3963FF",
"s  c #2572FF",
"d  c #2574FF",
"f  c #257DFF",
"g  c #4A5BFF",
"h  c #5E6DFF",
"j  c #0184FF",
"k  c #0189FF",
"l  c #0190FF",
"z  c #2582FF",
"x  c #2587FF",
"c  c #2197FF",
"v  c #01A2FF",
"b  c #01A6FF",
"n  c #01A8FF",
"m  c #01AEFF",
"M  c #01B1FF",
"N  c #01B4FF",
"B  c #01BCFF",
"V  c #4AB0FF",
"C  c #42B8FF",
"Z  c #4ABDFF",
"A  c #72B1FF",
"S  c #72BBFF",
"D  c #01C0FF",
"F  c #01C4FF",
"G  c #01CCFF",
"H  c #19C4FF",
"J  c #19C8FF",
"K  c #01D2FF",
"L  c #01D8FF",
"P  c #01DEFF",
"I  c #39CEFF",
"U  c #1DE2FF",
"Y  c #4AC5FF",
"T  c #4ADFFF",
"R  c #6ED1FF",
"E  c #4AE5FF",
"W  c #4AE7FF",
"Q  c #5EEAFF",
"!  c #6EE2FF",
"~  c #8E8E8E",
"^  c #929292",
"/  c gray62",
"(  c #AAAAAA",
")  c #B6B6B6",
"_  c #8EAAFF",
"`  c #92A2FF",
"'  c #92B1FF",
"]  c #AAB8FF",
"[  c #AAC2FF",
"{  c #B6C2FF",
"}  c #B6C6FF",
"|  c #B6DCFF",
" . c #AAE6FF",
".. c #AAEEFF",
"X. c gray76",
"o. c #C6C6C6",
"O. c gray86",
"+. c #C7D7FF",
"@. c #CFDCFF",
"#. c #DBDEFF",
"$. c #C7EDFF",
"%. c #DFE2FF",
"&. c #DBE5FF",
"*. c #D7EBFF",
"=. c #C7F5FF",
"-. c #CFF0FF",
";. c #CFF5FF",
":. c #D7F2FF",
">. c #DBF6FF",
",. c #D7F8FF",
"<. c gray89",
"1. c #E7E7E7",
"2. c gray92",
"3. c #EFEFEF",
"4. c #E7EBFF",
"5. c #E3F3FF",
"6. c #EBF6FF",
"7. c #E3F8FF",
"8. c #F3F3F3",
"9. c gray97",
"0. c #F7FBFF",
"q. c None",
/* pixels */
"q.q.q.q.q.q.q.q.q.q.q.q.q.q.q.q.q.q.                                                  q.q.q.q.q.q.q.",
"q.q.q.q.q.q.q.q.q.q.q.q.q.q.q.q.q.q.                                                  q.q.q.q.q.q.q.",
"q.q.q.q.q.q.q.q.q.q.q.q.q.q.q.q.q.q.                                                  q.q.q.q.q.q.q.",
"q.q.q.q.q.q.q.q.q.q.q.q.q.q.q.q.q.        $ ; ; ; ; ; ; ; ; ; ; ; ; ; ; ; ; ; o       q.q.q.q.q.q.q.",
"q.q.q.q.q.q.q.q.q.q.q.q.q.q.              ^ q.q.q.q.q.q.q.q.q.q.q.q.q.q.q.q.q.%       q.q.q.q.q.q.q.",
"q.q.q.q.q.q.q.q.q.q.q.q.q.q.              ^ q.q.q.q.q.q.q.q.q.q.q.q.q.q.q.q.q.%       q.q.q.q.q.q.q.",
"q.q.q.q.q.q.q.q.q.q.q.q.q.q.              ^ q.q.q.q.q.q.q.q.q.q.q.q.q.q.q.q.q.%       q.q.q.q.q.q.q.",
"q.q.q.q.q.q.q.q.q.q.q.            o <.<.<.8.q.q.q.U U U U U U U U U U Q q.q.q.%       q.q.q.q.q.q.q.",
"q.q.q.q.q.q.q.q.q.q.q.            O q.q.q.q.q.q.q.P P P P P P P P P P E q.q.q.%       q.q.q.q.q.q.q.",
"q.q.q.q.q.q.q.q.q.q.q.            O q.q.q.q.q.q.q.P P P P P P P P P P E q.q.q.%       q.q.q.q.q.q.q.",
"q.q.q.q.q.q.q.q.q.q.        # * * - q.q.q.;.......L L L L L L L L L L E q.q.q.%       q.q.q.q.q.q.q.",
"q.q.q.q.q.q.q.              ) q.q.q.q.q.q.! G G G G G G G K K K K K K T q.q.q.%       q.q.q.q.q.q.q.",
"q.q.q.q.q.q.q.              ) q.q.q.q.q.q.! G G G G G G G K K K K K K T q.q.q.%       q.q.q.q.q.q.q.",
"q.q.q.q.q.q.q.              ) q.q.q.q.q.q.! G G G G G G G K K K K K K T q.q.q.%       q.q.q.q.q.q.q.",
"q.q.q.q.q.q.q.      @ o.o.o.3.q.q.7.I I I J D D D D D D F F F F ..=.=.,.q.q.q.%       q.q.q.q.q.q.q.",
"q.q.q.q.q.q.q.      % q.q.q.q.q.q.>.D D D D D D D D D D D D D D >.q.q.q.q.q.q.%       q.q.q.q.q.q.q.",
"q.q.q.q.q.q.q.      % q.q.q.q.q.q.>.D D D D D D D D D D D D D D >.q.q.q.q.q.q.%       q.q.q.q.q.q.q.",
"q.q.q.q.q.q.q.      % q.q.q.:.$.$. .B B B B B B B B B B H I I I 7.q.q.3.o.o.o.@       q.q.q.q.q.q.q.",
"q.q.q.q.            % q.q.q.Y m m m m m m M N N N m m m R q.q.q.q.q.q.)               q.q.q.q.q.q.q.",
"q.q.q.q.            % q.q.q.Y m m m m m m M N N N m m m R q.q.q.q.q.q.)               q.q.q.q.q.q.q.",
"q.q.q.q.            % q.q.q.Y m m m m m m M N N N m m m R q.q.q.q.q.q.)               q.q.q.q.q.q.q.",
"q.q.q.q.      ^ ( ( X.q.q.q.Z b b b b b b b n n n  . . .-.q.q.q.q.q.q.1.( ( ( +             q.q.q.q.",
"q.q.q.q.      O.q.q.q.q.q.q.Z v v v v v v v v v v q.q.q.q.q.q.q.q.q.q.q.q.q.q.%             q.q.q.q.",
"q.q.q.q.      O.q.q.q.q.q.q.Z v v v v v v v v v v q.q.q.q.q.q.q.q.q.q.q.q.q.q.%             q.q.q.q.",
"q.q.q.q.      O.q.q.0.5.5.5.C v v v v v v v v v v 5.5.5.5.5.5.5.5.5.5.6.q.q.q.= X X .       q.q.q.q.",
"              O.q.q.| l l l l l l l l l l l l l l l l l l l l l l l l V q.q.q.q.q.q.O.              ",
"              O.q.q.| l l l l l l l l l l l l l l l l l l l l l l l l V q.q.q.q.q.q.O.              ",
"              O.q.q.| l l l l l l l l l l l l l l l l l l l l l l l l V q.q.q.q.q.q.O.              ",
"      # ~ ~ ~ 3.q.q.| k k k k k k k k k k k k k k k k k k k k k k k k c S S S *.q.q.3.~ ~ ~ #       ",
"      - q.q.q.q.q.q.| j j j j j j j j j j j j j j j j j j j j j j j j j j j j | q.q.q.q.q.q.-       ",
"      - q.q.q.q.q.q.| j j j j j j j j j j j j j j j j j j j j j j j j j j j j | q.q.q.q.q.q.-       ",
"      - q.q.q.q.q.q.| j j j j j j j j j j j j j j j j j j j j j j j j j j j j | q.q.q.q.q.q.-       ",
"      - q.q.q.x t t t t t t t t t t t t t t t t t t t t t t t t t t t t t t t t t t x q.q.q.-       ",
"      - q.q.q.x t t t t t t t t t t t t t t t t t t t t t t t t t t t t t t t t t t x q.q.q.-       ",
"      - q.q.q.x t t t t t t t t t t t t t t t t t t t t t t t t t t t t t t t t t t x q.q.q.-       ",
"      - q.q.q.z e e e e e e e e e y A A A A A A A A A A A A A A y e e e e e e e e e z q.q.q.-       ",
"      - q.q.q.f w w w w w w w w w f q.q.q.q.q.q.q.q.q.q.q.q.q.q.f w w w w w w w w w f q.q.q.-       ",
"      - q.q.q.f w w w w w w w w w f q.q.q.q.q.q.q.q.q.q.q.q.q.q.f w w w w w w w w w f q.q.q.-       ",
"      - q.q.q.f w w w w w w w w w f q.q.q.q.q.q.q.q.q.q.q.q.q.q.f w w w w w w w w w f q.q.q.-       ",
"      - q.q.q.p 7 7 7 7 7 7 8 9 9 d q.q.q.: X X X q.q.q.q.q.q.q.d 9 9 9 9 9 9 8 7 7 p q.q.q.-       ",
"      - q.q.q.p 7 7 7 7 7 7 8 8 8 s q.q.q.-       q.q.q.q.q.q.q.s 8 8 8 8 8 8 7 7 7 p q.q.q.-       ",
"      - q.q.q.p 7 7 7 7 7 7 8 8 8 s q.q.q.-       q.q.q.q.q.q.q.s 8 8 8 8 8 8 7 7 7 p q.q.q.-       ",
"      - q.q.q.i 6 6 6 6 6 6 7 7 7 p q.q.q./ * * * q.q.q.&.[ [ [ r 7 7 7 7 7 7 6 6 6 i q.q.q.-       ",
"      - q.q.q.u 5 5 5 5 5 5 5 5 5 u q.q.q.q.q.q.q.q.q.q.' 5 5 5 5 5 5 5 5 5 5 5 5 5 u q.q.q.-       ",
"      - q.q.q.u 5 5 5 5 5 5 5 5 5 u q.q.q.q.q.q.q.q.q.q.' 5 5 5 5 5 5 5 5 5 5 5 5 5 u q.q.q.-       ",
"      - q.q.q.u 5 5 5 5 5 5 5 5 5 u q.q.q.q.q.q.q.q.q.q.' 5 5 5 5 5 5 5 5 5 5 5 5 5 u q.q.q.-       ",
"      - q.q.q.@.+.+._ 2 2 2 2 2 2 4 a a a a a a a a a a q 2 2 2 2 2 2 2 2 2 2 _ +.+.@.q.q.q.-       ",
"      - q.q.q.q.q.q.} 1 1 1 1 1 1 1 1 1 1 1 1 1 1 1 1 1 1 1 1 1 1 1 1 1 1 1 1 } q.q.q.q.q.q.-       ",
"      - q.q.q.q.q.q.} 1 1 1 1 1 1 1 1 1 1 1 1 1 1 1 1 1 1 1 1 1 1 1 1 1 1 1 1 } q.q.q.q.q.q.-       ",
"      * o.o.o.9.q.q.} 1 1 1 1 1 1 1 1 1 1 1 1 1 1 1 1 1 1 1 1 1 1 1 1 1 1 1 1 } q.q.9.o.o.o.*       ",
"              O.q.q.{ < < < < < < < < < < < < < < < < < < < < < < < < < < < < { q.q.O.              ",
"              O.q.q.{ < < < < < < < < < < < < < < < < < < < < < < < < < < < < { q.q.O.              ",
"              O.q.q.{ < < < < < < < < < < < < < < < < < < < < < < < < < < < < { q.q.O.              ",
"q.q.q.        O.q.q.4.] ] ] 0 , , , , , , , , , , , , , , , , , ` ] ] ] ] ] ] 4.q.q.O.        q.q.q.",
"q.q.q.q.      O.q.q.q.q.q.q.g > > > > > > > > > > > > > > > > > #.q.q.q.q.q.q.q.q.q.O.      q.q.q.q.",
"q.q.q.q.      O.q.q.q.q.q.q.g > > > > > > > > > > > > > > > > > #.q.q.q.q.q.q.q.q.q.O.      q.q.q.q.",
"q.q.q.q.      X.<.<.2.q.q.q.h 3 3 3 3 3 3 3 3 3 3 3 3 3 3 3 3 3 %.q.q.9.<.<.<.<.<.<.X.      q.q.q.q.",
"q.q.q.q.            % q.q.q.q.q.q.q.q.q.q.q.q.q.q.q.q.q.q.q.q.q.q.q.q.)                     q.q.q.q.",
"q.q.q.q.            % q.q.q.q.q.q.q.q.q.q.q.q.q.q.q.q.q.q.q.q.q.q.q.q.)                     q.q.q.q.",
"q.q.q.q.            % q.q.q.q.q.q.q.q.q.q.q.q.q.q.q.q.q.q.q.q.q.q.q.q.)                     q.q.q.q.",
"q.q.q.q.q.q.q.      o ; ; ; ; ; ; ; ; ; ; ; ; ; ; ; ; ; ; ; ; ; ; ; ; &         q.q.q.q.q.q.q.q.q.q.",
"q.q.q.q.q.q.q.                                                                q.q.q.q.q.q.q.q.q.q.q.",
"q.q.q.q.q.q.q.                                                                q.q.q.q.q.q.q.q.q.q.q.",
"q.q.q.q.q.q.q.                                                                q.q.q.q.q.q.q.q.q.q.q."
};
