/* XPM */
static const char *_[] = {
/* columns rows colors chars-per-pixel */
"50 64 109 2 ",
"   c black",
".  c #0C0C0C",
"X  c gray8",
"o  c #181818",
"O  c #202020",
"+  c gray14",
"@  c #282828",
"#  c #313131",
"$  c #393939",
"%  c #414141",
"&  c #494949",
"*  c #515151",
"=  c #555555",
"-  c gray38",
";  c #6D6D6D",
":  c #717171",
">  c #0119FF",
",  c #011FFF",
"<  c #012BFF",
"1  c #0137FF",
"2  c #013BFF",
"3  c #1D33FF",
"4  c #0149FF",
"5  c #0151FF",
"6  c #0155FF",
"7  c #015BFF",
"8  c #015CFF",
"9  c #315EFF",
"0  c #0167FF",
"q  c #0D64FF",
"w  c #016EFF",
"e  c #1D6DFF",
"r  c #0173FF",
"t  c #256DFF",
"y  c #3963FF",
"u  c #4A5BFF",
"i  c #4A5FFF",
"p  c #4A68FF",
"a  c #4A6EFF",
"s  c #5E6DFF",
"d  c #4A70FF",
"f  c #0184FF",
"g  c #0189FF",
"h  c #0190FF",
"j  c #01A2FF",
"k  c #01A6FF",
"l  c #09A4FF",
"z  c #01A8FF",
"x  c #01AEFF",
"c  c #1DACFF",
"v  c #01B2FF",
"b  c #01B4FF",
"n  c #01BDFF",
"m  c #5692FF",
"M  c #6E8DFF",
"N  c #6E97FF",
"B  c #7290FF",
"V  c #4AA7FF",
"C  c #4AABFF",
"Z  c #4AB0FF",
"A  c #6EA8FF",
"S  c #6EAFFF",
"D  c #01C0FF",
"F  c #01C4FF",
"G  c #01CCFF",
"H  c #01D2FF",
"J  c #01DAFF",
"K  c #01DEFF",
"L  c #21C7FF",
"P  c #25C9FF",
"I  c #25CCFF",
"U  c #29C9FF",
"Y  c #39CEFF",
"T  c #25D8FF",
"R  c #25DFFF",
"E  c #1DE2FF",
"W  c #25E3FF",
"Q  c #3DE6FF",
"!  c #56D5FF",
"~  c #7AE9FF",
"^  c #868686",
"/  c #8E8E8E",
"(  c #929292",
")  c #9A9A9A",
"_  c #B6B6B6",
"`  c #8EA6FF",
"'  c #82CFFF",
"]  c #92D7FF",
"[  c #92DAFF",
"{  c #92DFFF",
"}  c #B6E4FF",
"|  c #BEE7FF",
" . c #B6E8FF",
".. c #AAF0FF",
"X. c #B6F2FF",
"o. c #B6F6FF",
"O. c #BEF7FF",
"+. c #CECECE",
"@. c gray86",
"#. c #DFDFDF",
"$. c #DBE5FF",
"%. c #DBE8FF",
"&. c #DFEAFF",
"*. c gray89",
"=. c #E7E7E7",
"-. c #E7EFFF",
";. c #E3F3FF",
":. c #FBFBFB",
">. c None",
/* pixels */
"                                                                                            >.>.>.>.",
"                                                                                            >.>.>.>.",
"                                                                                            >.>.>.>.",
"      # : : : : : : : : : : : : : : : : : : : : : : : : : : : : : : : : : : : : : : -         >.>.>.",
"      ; >.>.>.>.>.>.>.>.>.>.>.>.>.>.>.>.>.>.>.>.>.>.>.>.>.>.>.>.>.>.>.>.>.>.>.>.>.>.@.              ",
"      ; >.>.>.>.>.>.>.>.>.>.>.>.>.>.>.>.>.>.>.>.>.>.>.>.>.>.>.>.>.>.>.>.>.>.>.>.>.>.@.              ",
"      ; >.>.>.>.>.>.>.>.>.>.>.>.>.>.>.>.>.>.>.>.>.>.>.>.>.>.>.>.>.>.>.>.>.>.>.>.>.>.@.              ",
"      ; >.>.>.Q E E E E E E E E E E E E E E E E E E E E E E E E E E E E E E E O.>.>.:.*.*.*.-       ",
"      ; >.>.>.W K K K K K K K K K K K K K K K K K K K K K K K K K K K K K K K o.>.>.>.>.>.>.;       ",
"      ; >.>.>.W K K K K K K K K K K K K K K K K K K K K K K K K K K K K K K K o.>.>.>.>.>.>.;       ",
"      ; >.>.>.R J J J J J J J J J J J J J J J J J J J J J J J J J J J J J J J ~ ....X.>.>.>.;       ",
"      ; >.>.>.T H H H H H H H H H H H H H H H H H G G G G H H H H H H H G G G H H H T >.>.>.;       ",
"      ; >.>.>.T H H H H H H H H H H H H H H H H H G G G G H H H H H H H G G G H H H T >.>.>.;       ",
"      ; >.>.>.T H H H H H H H H H H H H H H H H H G G G G H H H H H H H G G G H H H T >.>.>.;       ",
"      ; >.>.>.I F F F F F F F F F F F F F F F F F D D D D F F F F F F F D D D F F F I >.>.>.;       ",
"      ; >.>.>.P D D D D D D D D D D D D D D D D D D D D D D D D D D D D D D D D D D P >.>.>.;       ",
"      ; >.>.>.P D D D D D D D D D D D D D D D D D D D D D D D D D D D D D D D D D D P >.>.>.;       ",
"      ; >.>.>.! Y Y Y Y Y Y Y Y Y Y Y Y Y Y Y Y Y Y Y Y L n n n n n n n n n n U Y Y ! >.>.>.;       ",
"      ; >.>.>.>.>.>.>.>.>.>.>.>.>.>.>.>.>.>.>.>.>.>.>.>.{ b b b b b b v x x x  .>.>.>.>.>.>.;       ",
"      ; >.>.>.>.>.>.>.>.>.>.>.>.>.>.>.>.>.>.>.>.>.>.>.>.{ b b b b b b v x x x  .>.>.>.>.>.>.;       ",
"      ; >.>.>.>.>.>.>.>.>.>.>.>.>.>.>.>.>.>.>.>.>.>.>.>.{ b b b b b b v x x x  .>.>.>.>.>.>.;       ",
"      + = = = = = = = = = = = = = = = = = _ >.>.>.>.>.>.[ z z z z z z k k k k } >.>.=.= = = +       ",
"                                          ( >.>.>.>.>.>.] j j j j j j j j j j } >.>.@.              ",
"                                          ( >.>.>.>.>.>.] j j j j j j j j j j } >.>.@.              ",
"                                          ( >.>.>.;.;.;.' j j j j j j l c c c | >.>.@.              ",
">.>.>.>.>.>.>.>.>.>.>.>.>.>.              ( >.>.>.h h h h h h h h h h Z >.>.>.>.>.>.@.      >.>.>.>.",
">.>.>.>.>.>.>.>.>.>.>.>.>.>.              ( >.>.>.h h h h h h h h h h Z >.>.>.>.>.>.@.      >.>.>.>.",
">.>.>.>.>.>.>.>.>.>.>.>.>.>.              ( >.>.>.h h h h h h h h h h Z >.>.>.>.>.>.@.      >.>.>.>.",
">.>.>.>.>.>.>.>.>.>.>.>.>.>.      X / / / +.>.>.>.g g g g g g g g g g C >.>.>.) : : -       >.>.>.>.",
">.>.>.>.>.>.>.>.>.>.>.>.>.>.      + >.>.>.>.>.>.>.f f f f f f f f f f V >.>.>.&             >.>.>.>.",
">.>.>.>.>.>.>.>.>.>.>.>.>.>.      + >.>.>.>.>.>.>.f f f f f f f f f f V >.>.>.&             >.>.>.>.",
">.>.>.>.>.>.>.>.>.>.>.>.>.>.      + >.>.>.>.>.>.>.f f f f f f f f f f V >.>.>.&             >.>.>.>.",
">.>.>.>.>.>.>.>.>.>.>.            + >.>.>.S r r r r r r r r r r %.>.>.>.>.>.>.&       >.>.>.>.>.>.>.",
">.>.>.>.>.>.>.>.>.>.>.            + >.>.>.S r r r r r r r r r r %.>.>.>.>.>.>.&       >.>.>.>.>.>.>.",
">.>.>.>.>.>.>.>.>.>.>.            + >.>.>.S r r r r r r r r r r %.>.>.>.>.>.>.&       >.>.>.>.>.>.>.",
">.>.>.>.>.>.>.>.>.>.>.      * : : ^ >.>.>.S w w w w w w w w w w %.>.>.#./ / / @       >.>.>.>.>.>.>.",
">.>.>.>.>.>.>.>.>.>.>.      _ >.>.>.>.>.>.A 0 0 0 0 0 0 0 0 0 0 %.>.>._               >.>.>.>.>.>.>.",
">.>.>.>.>.>.>.>.>.>.>.      _ >.>.>.>.>.>.A 0 0 0 0 0 0 0 0 0 0 %.>.>._               >.>.>.>.>.>.>.",
">.>.>.>.>.>.>.>.>.>.>.      _ >.>.>.>.>.>.A 0 0 0 0 0 0 0 0 0 0 %.>.>._               >.>.>.>.>.>.>.",
">.>.>.>.>.>.>.              _ >.>.&.e e e q 8 8 8 6 6 6 7 8 8 8 %.>.>._       >.>.>.>.>.>.>.>.>.>.>.",
">.>.>.>.>.>.>.              _ >.>.%.7 7 7 7 7 7 7 6 6 6 7 7 7 7 %.>.>._       >.>.>.>.>.>.>.>.>.>.>.",
">.>.>.>.>.>.>.              _ >.>.%.7 7 7 7 7 7 7 6 6 6 7 7 7 7 %.>.>._       >.>.>.>.>.>.>.>.>.>.>.",
">.>.>.>.>.>.>.      o = = = +.>.>.$.6 6 6 6 6 6 6 5 5 5 t m m m -.>.>._       >.>.>.>.>.>.>.>.>.>.>.",
">.>.>.>.>.>.>.      & >.>.>.>.>.>.$.4 4 4 4 4 4 4 4 4 4 N >.>.>.>.>.>._       >.>.>.>.>.>.>.>.>.>.>.",
">.>.>.>.>.>.>.      & >.>.>.>.>.>.$.4 4 4 4 4 4 4 4 4 4 N >.>.>.>.>.>._       >.>.>.>.>.>.>.>.>.>.>.",
">.>.>.>.>.>.>.      & >.>.>.>.>.>.$.4 4 4 4 4 4 4 4 4 4 N >.>.>.>.>.>._       >.>.>.>.>.>.>.>.>.>.>.",
">.>.>.>.>.>.>.      & >.>.>.B y y 9 2 2 2 2 2 2 2 2 2 2 M >.>.>.= $ $ @       >.>.>.>.>.>.>.>.>.>.>.",
">.>.>.>.>.>.>.      & >.>.>.d 1 1 1 1 1 1 1 1 1 1 1 1 1 M >.>.>.+             >.>.>.>.>.>.>.>.>.>.>.",
">.>.>.>.>.>.>.      & >.>.>.d 1 1 1 1 1 1 1 1 1 1 1 1 1 M >.>.>.+             >.>.>.>.>.>.>.>.>.>.>.",
">.>.>.>.>.>.>.      & >.>.>.a 1 1 1 1 1 1 1 1 1 1 y y y ` >.>.>.+             >.>.>.>.>.>.>.>.>.>.>.",
">.>.>.>.>.>.>.      & >.>.>.p < < < < < < < < < < >.>.>.>.>.>.>.+       >.>.>.>.>.>.>.>.>.>.>.>.>.>.",
">.>.>.>.>.>.>.      & >.>.>.p < < < < < < < < < < >.>.>.>.>.>.>.+       >.>.>.>.>.>.>.>.>.>.>.>.>.>.",
">.>.>.>.>.>.>.      & >.>.>.p < < < < < < < < < < >.>.>.>.>.>.>.+       >.>.>.>.>.>.>.>.>.>.>.>.>.>.",
">.>.>.>.>.>.>.      & >.>.>.i , , , , , , , , , , >.>.>._ = = = .       >.>.>.>.>.>.>.>.>.>.>.>.>.>.",
">.>.>.>.>.>.>.      & >.>.>.u > > > > > > > > > > >.>.>.(               >.>.>.>.>.>.>.>.>.>.>.>.>.>.",
">.>.>.>.>.>.>.      & >.>.>.u > > > > > > > > > > >.>.>.(               >.>.>.>.>.>.>.>.>.>.>.>.>.>.",
">.>.>.>.>.>.>.      & >.>.>.s 3 3 3 3 3 3 3 3 3 3 >.>.>.(               >.>.>.>.>.>.>.>.>.>.>.>.>.>.",
">.>.>.>.>.>.>.      & >.>.>.>.>.>.>.>.>.>.>.>.>.>.>.>.>.(       >.>.>.>.>.>.>.>.>.>.>.>.>.>.>.>.>.>.",
">.>.>.>.>.>.>.      & >.>.>.>.>.>.>.>.>.>.>.>.>.>.>.>.>.(       >.>.>.>.>.>.>.>.>.>.>.>.>.>.>.>.>.>.",
">.>.>.>.>.>.>.      & >.>.>.>.>.>.>.>.>.>.>.>.>.>.>.>.>.(       >.>.>.>.>.>.>.>.>.>.>.>.>.>.>.>.>.>.",
">.>.>.>.>.>.>.      O : : : : : : : : : : : : : : : : : %       >.>.>.>.>.>.>.>.>.>.>.>.>.>.>.>.>.>.",
">.>.>.>.>.>.>.                                                  >.>.>.>.>.>.>.>.>.>.>.>.>.>.>.>.>.>.",
">.>.>.>.>.>.>.                                                  >.>.>.>.>.>.>.>.>.>.>.>.>.>.>.>.>.>.",
">.>.>.>.>.>.>.                                                  >.>.>.>.>.>.>.>.>.>.>.>.>.>.>.>.>.>."
};
