/* XPM */
static const char *_[] = {
/* columns rows colors chars-per-pixel */
"51 64 112 2 ",
"   c black",
".  c gray5",
"X  c gray18",
"o  c gray20",
"O  c gray21",
"+  c #434343",
"@  c #515151",
"#  c gray40",
"$  c DimGray",
"%  c #0119FF",
"&  c #012BFF",
"*  c #0131FF",
"=  c #0137FF",
"-  c #013AFF",
";  c #0149FF",
":  c #1C41FF",
">  c #194BFF",
",  c #0152FF",
"<  c #0157FF",
"1  c #015BFF",
"2  c #015FFF",
"3  c #2957FF",
"4  c #2C5CFF",
"5  c #3455FF",
"6  c #345AFF",
"7  c #345FFF",
"8  c #0160FF",
"9  c #0167FF",
"0  c #0168FF",
"q  c #0173FF",
"w  c #017FFF",
"e  c #4967FF",
"r  c #496EFF",
"t  c #0184FF",
"y  c #0188FF",
"u  c #0190FF",
"i  c #248FFF",
"p  c #3199FF",
"a  c #319DFF",
"s  c #349DFF",
"d  c #01A2FF",
"f  c #09A5FF",
"g  c #0EA7FF",
"h  c #01A9FF",
"j  c #01AEFF",
"k  c #01B2FF",
"l  c #01B7FF",
"z  c #34B5FF",
"x  c #34BAFF",
"c  c #34BEFF",
"v  c #3EB9FF",
"b  c #7996FF",
"n  c #51ABFF",
"m  c #74BCFF",
"M  c #01C0FF",
"N  c #01CAFF",
"B  c #01CCFF",
"V  c #01D2FF",
"C  c #01D5FF",
"Z  c #01D8FF",
"A  c #01DEFF",
"S  c #19D3FF",
"D  c #34C1FF",
"F  c #34C5FF",
"G  c #34CDFF",
"H  c #29D5FF",
"J  c #29D9FF",
"K  c #34D6FF",
"L  c #01E0FF",
"P  c #1CE1FF",
"I  c #01F0FF",
"U  c #59C5FF",
"Y  c #49DEFF",
"T  c #79E4FF",
"R  c #868686",
"E  c #8E8E8E",
"W  c gray60",
"Q  c gray62",
"!  c gray63",
"~  c #AEAEAE",
"^  c gray75",
"/  c #94ABFF",
"(  c #99AAFF",
")  c #99B6FF",
"_  c #A4B3FF",
"`  c #99C7FF",
"'  c #99D3FF",
"]  c #94D8FF",
"[  c #99DFFF",
"{  c #BCC2FF",
"}  c #AFD3FF",
"|  c #99E0FF",
" . c #99E6FF",
".. c #94EAFF",
"X. c #99F2FF",
"o. c #A4F3FF",
"O. c #BCFBFF",
"+. c gray80",
"@. c #D7D7D7",
"#. c #CAD9FF",
"$. c #CCDBFF",
"%. c #CCDDFF",
"&. c #CCE1FF",
"*. c #D7E2FF",
"=. c #E4E4E4",
"-. c #EAF0FF",
";. c #EFF6FF",
":. c #F2F8FF",
">. c #F7F9FF",
",. c gray98",
"<. c #FAFCFF",
"1. c None",
/* pixels */
"1.1.1.1.1.1.1.1.1.1.                                                              1.1.1.1.1.1.1.1.1.1.",
"1.1.1.1.1.1.1.1.1.1.                                                              1.1.1.1.1.1.1.1.1.1.",
"1.1.1.1.1.1.1.1.1.1.                                                              1.1.1.1.1.1.1.1.1.1.",
"1.1.1.1.1.1.1.            + ! ! ! ! ! ! ! ! ! ! ! ! ! ! ! ! ! ! ! ! ! ! ! +             1.1.1.1.1.1.1.",
"1.1.1.1.1.1.1.            # 1.1.1.1.1.1.1.1.1.1.1.1.1.1.1.1.1.1.1.1.1.1.1.#             1.1.1.1.1.1.1.",
"1.1.1.1.1.1.1.            # 1.1.1.1.1.1.1.1.1.1.1.1.1.1.1.1.1.1.1.1.1.1.1.#             1.1.1.1.1.1.1.",
"1.1.1.1.1.1.1.      O + + E 1.1.1.O.O.O.O.O.O.O.O.O.O.O.O.O.O.O.O.O.1.1.1.E + + O       1.1.1.1.1.1.1.",
"1.1.1.              +.1.1.1.1.1.1.I I I I I I I I I I I I I I I I I 1.1.1.1.1.1.+.              1.1.1.",
"1.1.1.              +.1.1.1.1.1.1.I I I I I I I I I I I I I I I I I 1.1.1.1.1.1.+.              1.1.1.",
"1.1.1.              +.1.1.1.1.1.1.I I I I I I I I I I I I I I I I I 1.1.1.1.1.1.+.              1.1.1.",
"1.1.1.      X =.=.=.,.1.1.o.P P P L L L L L L L L L L L L L L L L L P P P o.1.1.,.=.=.=.X       1.1.1.",
"1.1.1.      o 1.1.1.1.1.1.X.A A A A A A A A A A A A A A A A A A A A A A A X.1.1.1.1.1.1.o       1.1.1.",
"1.1.1.      o 1.1.1.1.1.1.X.A A A A A A A A A A A A A A A A A A A A A A A X.1.1.1.1.1.1.o       1.1.1.",
"1.1.1.      o 1.1.1...T T Y C C C C C C C Z Z Z Z Z Z C C C C Z Z Z Z Z Z Y T T ..1.1.1.o       1.1.1.",
"1.1.1.      o 1.1.1.K B B B B B B B B B V V V V V V V B B B B V V V V V V B B B K 1.1.1.o       1.1.1.",
"1.1.1.      o 1.1.1.K B B B B B B B B B V V V V V V V B B B B V V V V V V B B B K 1.1.1.o       1.1.1.",
"1.1.1.      o 1.1.1.K N N N N N N N N N S J J J J J J H H H S B B B B B B B N N K 1.1.1.o       1.1.1.",
"1.1.1.      o 1.1.1.G M M M M M M M M M  .1.1.1.1.1.1.1.1.1. .M M M M M M M M M G 1.1.1.o       1.1.1.",
"1.1.1.      o 1.1.1.G M M M M M M M M M  .1.1.1.1.1.1.1.1.1. .M M M M M M M M M G 1.1.1.o       1.1.1.",
"1.1.1.      o 1.1.1.G M M M M M M M M M  .1.1.1.1.1.1.1.1.1. .M M M M M M M M M G 1.1.1.o       1.1.1.",
"1.1.1.      o 1.1.1.D k k k l l l k k k | 1.1.1.1.1.1.1.1.1.| k k k k k k l l l F 1.1.1.o       1.1.1.",
"1.1.1.      o 1.1.1.c j j k l l l j j j [ 1.1.1.1.1.1.1.1.1.[ j j j j j j k l l D 1.1.1.o       1.1.1.",
"1.1.1.      o 1.1.1.c j j k l l l j j j [ 1.1.1.1.1.1.1.1.1.[ j j j j j j k l l D 1.1.1.o       1.1.1.",
"1.1.1.      o 1.1.1.x h h h j j j h h h U ] ] ] ] ] ] ] ] ] U h h h h h h h j j c 1.1.1.o       1.1.1.",
"1.1.1.      o 1.1.1.z d d d d d d d d d d d d d d d d d d d d d d d d d d d d d z 1.1.1.o       1.1.1.",
"1.1.1.      o 1.1.1.z d d d d d d d d d d d d d d d d d d d d d d d d d d d d d z 1.1.1.o       1.1.1.",
"1.1.1.      o 1.1.1.v g g f d d d d d d d d d d d d d d d d d d d d d d d f g g v 1.1.1.o       1.1.1.",
"            o 1.1.1.1.1.1.' u u u u u u u u u u u u u u u u u u u u u u u ' 1.1.1.1.1.1.o             ",
"            o 1.1.1.1.1.1.' u u u u u u u u u u u u u u u u u u u u u u u ' 1.1.1.1.1.1.o             ",
"            o 1.1.1.1.1.1.' u u u u u u u u u u u u u u u u u u u u u u u ' 1.1.1.1.1.1.o             ",
"      $ ~ ~ ^ 1.1.1.m n n a y y y y y y y y y y y y y y y y y y y y y y y a n n m 1.1.1.^ ~ ~ $       ",
"      W 1.1.1.1.1.1.s t t t t t t t t t t t t t t t t t t t t t t t t t t t t t s 1.1.1.1.1.1.W       ",
"      W 1.1.1.1.1.1.s t t t t t t t t t t t t t t t t t t t t t t t t t t t t t s 1.1.1.1.1.1.W       ",
"      W 1.1.;.} } } i w w w w w w w w w p n n n n n n n n n p w w w w w w w w w i } } } ;.1.1.W       ",
"      W 1.1.&.q q q q q q q q q q q q q ` 1.1.1.1.1.1.1.1.1.` q q q q q q q q q q q q q &.1.1.W       ",
"      W 1.1.&.q q q q q q q q q q q q q ` 1.1.1.1.1.1.1.1.1.` q q q q q q q q q q q q q &.1.1.W       ",
"      W 1.1.&.q q q q q q q q q q q q q ` 1.1.1.1.1.1.1.1.1.` q q q q q q q q q q q q q &.1.1.W       ",
"      W 1.1.&.0 0 0 0 0 0 0 0 0 0 :.:.:.<.1.1.+.. . . +.1.1.<.:.:.:.0 0 0 0 0 0 0 0 0 0 &.1.1.W       ",
"      W 1.1.&.9 9 9 9 9 9 9 9 9 9 1.1.1.1.1.1.+.      +.1.1.1.1.1.1.9 9 9 9 9 9 9 9 9 9 &.1.1.W       ",
"      W 1.1.&.9 9 9 9 9 9 9 9 9 9 1.1.1.1.1.1.+.      +.1.1.1.1.1.1.9 9 9 9 9 9 9 9 9 9 &.1.1.W       ",
"      W 1.1.%.8 8 8 8 8 8 2 2 2 2 1.1.1.1.1.1.+.      +.1.1.1.1.1.1.8 8 8 2 2 2 2 8 8 8 %.1.1.W       ",
"      W 1.1.%.1 1 1 1 1 1 1 < < < 1.1.1.1.1.1.+.      +.1.1.1.1.1.1.1 1 1 < < < < 1 1 1 %.1.1.W       ",
"      W 1.1.%.1 1 1 1 1 1 1 < < < 1.1.1.1.1.1.+.      +.1.1.1.1.1.1.1 1 1 < < < < 1 1 1 %.1.1.W       ",
"      W 1.1.%.< < < < < < < , , , #.#.#.-.1.1.@.O O O @.1.1.-.#.#.#.< < < < , , , < < < %.1.1.W       ",
"      W 1.1.$.; ; ; ; ; ; ; ; ; ; ; ; ; ) 1.1.1.1.1.1.1.1.1.) ; ; ; ; ; ; ; ; ; ; ; ; ; $.1.1.W       ",
"      W 1.1.$.; ; ; ; ; ; ; ; ; ; ; ; ; ) 1.1.1.1.1.1.1.1.1.) ; ; ; ; ; ; ; ; ; ; ; ; ; $.1.1.W       ",
"      W 1.1.$.; ; ; ; ; ; ; ; ; ; ; ; ; ) 1.1.1.1.1.1.1.1.1.) ; ; ; ; ; ; ; ; ; ; ; ; ; $.1.1.W       ",
"      W 1.1.>.*.*.*.4 - - - - - - - - - > 3 3 3 3 3 3 3 3 3 > - - - - - - - - - 4 *.*.*.>.1.1.W       ",
"      W 1.1.1.1.1.1.7 = = = = = = = = = = = = = = = = = = = = = = = = = = = = = 7 1.1.1.1.1.1.W       ",
"      W 1.1.1.1.1.1.7 = = = = = = = = = = = = = = = = = = = = = = = = = = = = = 7 1.1.1.1.1.1.W       ",
"      @ R R Q 1.1.1./ b b r * * * * * * * * * * * * * * * * * * * * * * * * * * 6 1.1.1.Q R R @       ",
"            o 1.1.1.1.1.1.( & & & & & & & & & & & & & & & & & & & & & & & & & & 5 1.1.1.o             ",
"            o 1.1.1.1.1.1.( & & & & & & & & & & & & & & & & & & & & & & & & & & 5 1.1.1.o             ",
"            X =.=.=.,.1.1._ : : : & & & & & & & & & & & & & & & & & : : : : : : e 1.1.1.o             ",
"1.1.1.              +.1.1.1.1.1.1.% % % % % % % % % % % % % % % % % 1.1.1.1.1.1.1.1.1.1.o       1.1.1.",
"1.1.1.              +.1.1.1.1.1.1.% % % % % % % % % % % % % % % % % 1.1.1.1.1.1.1.1.1.1.o       1.1.1.",
"1.1.1.              +.1.1.1.1.1.1.% % % % % % % % % % % % % % % % % 1.1.1.1.1.1.1.1.1.1.o       1.1.1.",
"1.1.1.1.1.1.1.      O + + E 1.1.1.{ { { { { { { { { { { { { { { { { 1.1.1.E + + + + + + .       1.1.1.",
"1.1.1.1.1.1.1.            # 1.1.1.1.1.1.1.1.1.1.1.1.1.1.1.1.1.1.1.1.1.1.1.#                     1.1.1.",
"1.1.1.1.1.1.1.            # 1.1.1.1.1.1.1.1.1.1.1.1.1.1.1.1.1.1.1.1.1.1.1.#                     1.1.1.",
"1.1.1.1.1.1.1.            + ! ! ! ! ! ! ! ! ! ! ! ! ! ! ! ! ! ! ! ! ! ! ! +                   1.1.1.1.",
"1.1.1.1.1.1.1.1.1.1.                                                              1.1.1.1.1.1.1.1.1.1.",
"1.1.1.1.1.1.1.1.1.1.                                                              1.1.1.1.1.1.1.1.1.1.",
"1.1.1.1.1.1.1.1.1.1.                                                              1.1.1.1.1.1.1.1.1.1."
};
