/* XPM */
static const char *_[] = {
/* columns rows colors chars-per-pixel */
"47 64 135 2 ",
"   c black",
".  c #090909",
"X  c gray5",
"o  c #131313",
"O  c gray12",
"+  c #373737",
"@  c #3A3A3A",
"#  c #434343",
"$  c #494949",
"%  c gray32",
"&  c #565656",
"*  c gray36",
"=  c gray42",
"-  c gray49",
";  c #0119FF",
":  c #0129FF",
">  c #0131FF",
",  c #0137FF",
"<  c #0E35FF",
"1  c #013AFF",
"2  c #073EFF",
"3  c #0149FF",
"4  c #1240FF",
"5  c #1C41FF",
"6  c #0152FF",
"7  c #0157FF",
"8  c #015AFF",
"9  c #015FFF",
"0  c #2549FF",
"q  c #2957FF",
"w  c #3C5CFF",
"e  c #0160FF",
"r  c #0167FF",
"t  c #0168FF",
"y  c #0173FF",
"u  c #017FFF",
"i  c #1372FF",
"p  c #137DFF",
"a  c #2563FF",
"s  c #6E7CFF",
"d  c #0782FF",
"f  c #0184FF",
"g  c #0188FF",
"h  c #0190FF",
"j  c #01A2FF",
"k  c #01A9FF",
"l  c #01AEFF",
"z  c #01B2FF",
"x  c #01B7FF",
"c  c #37B6FF",
"v  c #37BBFF",
"b  c #37BFFF",
"n  c #4089FF",
"m  c #4B90FF",
"M  c #6A84FF",
"N  c #6E85FF",
"B  c #6E97FF",
"V  c #6598FF",
"C  c #6E9FFF",
"Z  c #7996FF",
"A  c #46A6FF",
"S  c #51ABFF",
"D  c #6EA1FF",
"F  c #68A5FF",
"G  c #6EA8FF",
"H  c #01C0FF",
"J  c #01CAFF",
"K  c #01CCFF",
"L  c #01D2FF",
"P  c #01D5FF",
"I  c #01D8FF",
"U  c #01DEFF",
"Y  c #10D2FF",
"T  c #13D5FF",
"R  c #13DAFF",
"E  c #23D7FF",
"W  c #29D9FF",
"Q  c #01E0FF",
"!  c #13E0FF",
"~  c #16E1FF",
"^  c #1CE1FF",
"/  c #01F0FF",
"(  c #2CE4FF",
")  c gray51",
"_  c #868686",
"`  c gray54",
"'  c #929292",
"]  c gray59",
"[  c gray63",
"{  c #A4A4A4",
"}  c #A9A9A9",
"|  c #AEAEAE",
" . c #BBBBBB",
".. c #808CFF",
"X. c #879BFF",
"o. c #80ADFF",
"O. c #94BFFF",
"+. c #A9BEFF",
"@. c #9CC4FF",
"#. c #BCC2FF",
"$. c #BAC6FF",
"%. c #B6DFFF",
"&. c #B6E7FF",
"*. c #B6EAFF",
"=. c #B6EDFF",
"-. c #BCFBFF",
";. c gray78",
":. c gray79",
">. c #D7D7D7",
",. c gray86",
"<. c #C9D4FF",
"1. c #C2DAFF",
"2. c #CAD9FF",
"3. c #D1DBFF",
"4. c #D1DEFF",
"5. c #D9DCFF",
"6. c #CDE7FF",
"7. c #D7E2FF",
"8. c #DEE1FF",
"9. c #DBEFFF",
"0. c #CAF2FF",
"q. c #C9FCFF",
"w. c #D7F5FF",
"e. c #DBF6FF",
"r. c #E4E4E4",
"t. c gray91",
"y. c gray93",
"u. c #E2E8FF",
"i. c #E8EFFF",
"p. c #F4F4F4",
"a. c #F2F9FF",
"s. c #F1FEFF",
"d. c #F7FDFF",
"f. c #FBFBFB",
"g. c None",
/* pixels */
"g.g.g.g.g.g.g.g.g.g.                                                      g.g.g.g.g.g.g.g.g.g.",
"g.g.g.g.g.g.g.g.g.g.                                                      g.g.g.g.g.g.g.g.g.g.",
"g.g.g.g.g.g.g.g.g.g.                                                      g.g.g.g.g.g.g.g.g.g.",
"g.g.g.g.                  * [ [ [ [ [ [ [ [ [ [ [ [ [ [ [ [ [ [ [ *                   g.g.g.g.",
"g.g.g.                    ' g.g.g.g.g.g.g.g.g.g.g.g.g.g.g.g.g.g.g.'                     g.g.g.",
"g.g.g.                    ' g.g.g.g.g.g.g.g.g.g.g.g.g.g.g.g.g.g.g.'                     g.g.g.",
"g.g.g.      o # # # # # # | g.g.s.-.-.-.-.-.-.-.-.-.-.-.-.-.s.g.g.| # # # # # # o       g.g.g.",
"g.g.g.      $ g.g.g.g.g.g.g.g.g.q./ / / / / / / / / / / / / q.g.g.g.g.g.g.g.g.g.$       g.g.g.",
"g.g.g.      $ g.g.g.g.g.g.g.g.g.q./ / / / / / / / / / / / / q.g.g.g.g.g.g.g.g.g.$       g.g.g.",
"g.g.g.      $ g.g.g.g.g.g.g.g.g.q./ / / / / / / / / / / / / q.g.g.g.g.g.g.g.g.g.$       g.g.g.",
"            $ g.g.g.( ^ ^ ^ ^ ^ ~ Q Q Q Q Q Q Q Q Q Q Q Q Q ~ ^ ^ ^ ^ ^ ( g.g.g.$             ",
"            $ g.g.g.! U U U U U U U U U U U U U U U U U U U U U U U U U ! g.g.g.$             ",
"            $ g.g.g.! U U U U U U U U U U U U U U U U U U U U U U U U U ! g.g.g.$             ",
"      & _ _ } g.g.g.R I I I I I I I I I I I I I I I P P P P P I I I I I R g.g.g.} _ _ &       ",
"      { g.g.g.g.g.g.T L L L L L L L L L L L L L L L L K K K L L L L L L T g.g.g.g.g.g.{       ",
"      { g.g.g.g.g.g.T L L L L L L L L L L L L L L L L K K K L L L L L L T g.g.g.g.g.g.{       ",
"      { g.g.d.w.w.w.Y L K K K K K K K K E W W W W W E J J J K K K K K K Y w.w.w.d.g.g.{       ",
"      { g.g.=.H H H H H H H H H H H H H e.g.g.g.g.g.e.H H H H H H H H H H H H H =.g.g.{       ",
"      { g.g.=.H H H H H H H H H H H H H e.g.g.g.g.g.e.H H H H H H H H H H H H H =.g.g.{       ",
"      { g.g.=.H H H H H H H H H H H H H e.g.g.g.g.g.e.H H H H H H H H H H H H H =.g.g.{       ",
"      { g.g.*.x x x z z z z z z E 0.0.0.d.g.g.g.g.g.d.0.0.0.E z z z z z z x x x *.g.g.{       ",
"      { g.g.*.x x x l l l l l l W g.g.g.g.g.g.g.g.g.g.g.g.g.b l l l l l l x x x *.g.g.{       ",
"      { g.g.*.x x x l l l l l l W g.g.g.g.g.g.g.g.g.g.g.g.g.b l l l l l l x x x *.g.g.{       ",
"      { g.g.&.l l l k k k k k k v g.g.g.g.g.g.g.g.g.g.g.g.g.v k k k k k k l l l &.g.g.{       ",
"      { g.g.&.j j j j j j j j j c g.g.g.g.g.g.g.g.g.g.g.g.g.c j j j j j j j j j &.g.g.{       ",
"      { g.g.&.j j j j j j j j j c g.g.g.g.g.g.g.g.g.g.g.g.g.c j j j j j j j j j &.g.g.{       ",
"      { g.g.&.j j j j j j j j j c a.a.a.g.g.g.g.g.g.g.a.a.a.c j j j j j j j j j &.g.g.{       ",
"      { g.g.%.h h h h h h h h h h h h h 9.g.g.g.g.g.9.h h h h h h h h h h h h h %.g.g.{       ",
"      { g.g.%.h h h h h h h h h h h h h 9.g.g.g.g.g.9.h h h h h h h h h h h h h %.g.g.{       ",
"      { g.g.%.h h h h h h h h h h h h h 9.g.g.g.g.g.9.h h h h h h h h h h h h h %.g.g.{       ",
"      { g.g.%.g g g g g g g g g g g g g A S S S S S A g g g g g g g g g g f g g %.g.g.{       ",
"      { g.g.%.f f f f f f f f f f f f f f f f f f f f f f f f f f f f f f f f f %.g.g.{       ",
"      { g.g.%.f f f f f f f f f f f f f f f f f f f f f f f f f f f f f f f f f %.g.g.{       ",
"      { g.g.6.S S S d u u u u u u u u u u u u u u u u u u u u u u u u u d S S S 6.g.g.{       ",
"      { g.g.g.g.g.g.p y y y y y y y y y y y y y y y y y y y y y y y y y p g.g.g.g.g.g.{       ",
"      { g.g.g.g.g.g.p y y y y y y y y y y y y y y y y y y y y y y y y y p g.g.g.g.g.g.{       ",
"      { g.g.g.g.g.g.p y y y y y y y y y y y y y y y y y y y y y y y y y p g.g.g.g.g.g.{       ",
"      . X X % g.g.g.a.a.a.F t t t t t t t t t t t t t t t t t t t t t t i g.g.g.% X X .       ",
"            $ g.g.g.g.g.g.G r r r r r r r r r r r r r r r r r r r r r r i g.g.g.$             ",
"            $ g.g.g.g.g.g.G r r r r r r r r r r r r r r r r r r r r r r i g.g.g.$             ",
"g.g.g.      O = = = p.g.g.1.O.O.O.O.O.O.O.O.O.m e 9 9 9 9 9 9 e e n O.O.@.g.g.g.$       g.g.g.",
"g.g.g.              y.g.g.g.g.g.g.g.g.g.g.g.g.o.8 8 8 7 7 7 8 8 8 D g.g.g.g.g.g.$       g.g.g.",
"g.g.g.              y.g.g.g.g.g.g.g.g.g.g.g.g.o.8 8 8 7 7 7 8 8 8 D g.g.g.g.g.g.$       g.g.g.",
"g.g.g.               .:.:.t.g.g.g.g.g.g.4.2.2.V 7 7 7 6 6 6 7 7 7 C g.g.f.:.:.:.@       g.g.g.",
"g.g.g.g.g.g.g.            ' g.g.g.g.g.g.a 3 3 3 3 3 3 3 3 3 3 3 3 B g.g.y.              g.g.g.",
"g.g.g.g.g.g.g.            ' g.g.g.g.g.g.a 3 3 3 3 3 3 3 3 3 3 3 3 B g.g.y.              g.g.g.",
"g.g.g.g.g.g.g.            ' g.g.g.g.g.g.a 3 3 3 3 3 3 3 3 3 3 3 3 B g.g.y.              g.g.g.",
"g.g.g.g.g.g.g.      ;.>.>.y.g.g.3.q q q 2 1 1 1 1 1 1 1 1 1 +.7.7.i.g.g.y.      g.g.g.g.g.g.g.",
"g.g.g.g.g.g.g.      y.g.g.g.g.g.<., , , , , , , , , , , , , <.g.g.g.g.g.y.      g.g.g.g.g.g.g.",
"g.g.g.g.g.g.g.      y.g.g.g.g.g.<., , , , , , , , , , , , , <.g.g.g.g.g.y.      g.g.g.g.g.g.g.",
"g.g.g.g.g.g.g.      y.g.g.$.X.X.M > > > > > > > > > 4 Z Z Z u.g.g.:._ _ -       g.g.g.g.g.g.g.",
"g.g.g.g.g.g.g.      y.g.g.N : : : : : : : : : : : : 0 g.g.g.g.g.g.'             g.g.g.g.g.g.g.",
"g.g.g.g.g.g.g.      y.g.g.N : : : : : : : : : : : : 0 g.g.g.g.g.g.'             g.g.g.g.g.g.g.",
"g.g.g.g.g.g.g.      y.g.g.N : : : : : : : : : < 5 5 w g.g.g.t.r.r.)             g.g.g.g.g.g.g.",
"g.g.g.g.g.g.g.      y.g.g.s ; ; ; ; ; ; ; ; ; ..g.g.g.g.g.g.+             g.g.g.g.g.g.g.g.g.g.",
"g.g.g.g.g.g.g.      y.g.g.s ; ; ; ; ; ; ; ; ; ..g.g.g.g.g.g.+             g.g.g.g.g.g.g.g.g.g.",
"g.g.g.g.g.g.g.      y.g.g.s ; ; ; ; ; ; ; ; ; ..g.g.g.g.g.g.+             g.g.g.g.g.g.g.g.g.g.",
"g.g.g.g.g.g.g.      y.g.g.5.#.#.#.#.#.#.#.#.#.8.g.g.r.# # # X       g.g.g.g.g.g.g.g.g.g.g.g.g.",
"g.g.g.g.g.g.g.      y.g.g.g.g.g.g.g.g.g.g.g.g.g.g.g.,.              g.g.g.g.g.g.g.g.g.g.g.g.g.",
"g.g.g.g.g.g.g.      y.g.g.g.g.g.g.g.g.g.g.g.g.g.g.g.,.              g.g.g.g.g.g.g.g.g.g.g.g.g.",
"g.g.g.g.g.g.g.      ] [ [ [ [ [ [ [ [ [ [ [ [ [ [ [ `             g.g.g.g.g.g.g.g.g.g.g.g.g.g.",
"g.g.g.g.g.g.g.                                              g.g.g.g.g.g.g.g.g.g.g.g.g.g.g.g.g.",
"g.g.g.g.g.g.g.                                              g.g.g.g.g.g.g.g.g.g.g.g.g.g.g.g.g.",
"g.g.g.g.g.g.g.                                              g.g.g.g.g.g.g.g.g.g.g.g.g.g.g.g.g."
};
