/* XPM */
static const char *block[] = {
/* columns rows colors chars-per-pixel */
"64 64 135 2 ",
"   c #1C1A16",
".  c #1E1C19",
"X  c #201C17",
"o  c #211E1A",
"O  c #2D2617",
"+  c #25221D",
"@  c #2A251D",
"#  c #2E291E",
"$  c #332B1D",
"%  c #392F1C",
"&  c #3E3217",
"*  c #3D321C",
"=  c #262521",
"-  c #292622",
";  c #2C2925",
":  c #252628",
">  c #27282A",
",  c #2E2C29",
"<  c #322D25",
"1  c #392E24",
"2  c #312E2A",
"3  c #363026",
"4  c #3C3324",
"5  c #34322D",
"6  c #3A352C",
"7  c #3E382D",
"8  c #2E2E31",
"9  c #2F3031",
"0  c #363531",
"q  c #393732",
"w  c #3B3935",
"e  c #3D3C39",
"r  c #453717",
"t  c #43361D",
"y  c #47391F",
"u  c #4C3C1D",
"i  c #523F1D",
"p  c #433524",
"a  c #493426",
"s  c #453A25",
"d  c #4B3D24",
"f  c #423529",
"g  c #433A2A",
"h  c #4D3F2F",
"j  c #513E23",
"k  c #423D34",
"l  c #4C3D31",
"z  c #403E3A",
"x  c #55421D",
"c  c #5B461F",
"v  c #62471F",
"b  c #664C1F",
"n  c #684C1F",
"m  c #77581F",
"M  c #79581F",
"N  c #4B4026",
"B  c #4E422A",
"V  c #544324",
"C  c #5A4523",
"Z  c #5C4925",
"A  c #53452B",
"S  c #59452C",
"D  c #5C4A2A",
"F  c #464037",
"G  c #4B4132",
"H  c #44423D",
"J  c #494338",
"K  c #534432",
"L  c #534933",
"P  c #5C4D31",
"I  c #594F3B",
"U  c #5F5339",
"Y  c #634C25",
"T  c #644F28",
"R  c #6F5221",
"E  c #665229",
"W  c #6A532B",
"Q  c #735B2B",
"!  c #785A2D",
"~  c #675534",
"^  c #695736",
"/  c #62553B",
"(  c #64583E",
")  c #775E30",
"_  c #705F3A",
"`  c #7A602D",
"'  c #7A6336",
"]  c #70603E",
"[  c #7A6539",
"{  c #3E3F40",
"}  c #454543",
"|  c #494742",
" . c #4D4B46",
".. c #464748",
"X. c #474848",
"o. c #4F4F4C",
"O. c #4D4C49",
"+. c #504F4C",
"@. c #53524C",
"#. c #836627",
"$. c #80642A",
"%. c #84672B",
"&. c #86622E",
"*. c #8A642D",
"=. c #86682B",
"-. c #85692D",
";. c #87692C",
":. c #8E6F2B",
">. c #8A6E2F",
",. c #8F6F2E",
"<. c #93692E",
"1. c #937028",
"2. c #937029",
"3. c #91702A",
"4. c #94722B",
"5. c #9B782D",
"6. c #866B30",
"7. c #8A6E36",
"8. c #816839",
"9. c #8B7038",
"0. c #957636",
"q. c #9A7830",
"w. c #9E7A30",
"e. c #96783F",
"r. c #9D7E3D",
"t. c #A1813E",
"y. c #AB873B",
"u. c #AB883B",
"i. c #B18B3B",
"p. c #B08B3D",
"a. c #9E8041",
"s. c #AA8843",
"d. c #AD8A41",
"f. c #B59245",
"g. c #BB9543",
/* pixels */
"2 2 , 5 5 5 , 9 0 0 0 0 , q q 0 0 0 q 0 0 0 0 w e e e e e z e H H } } } } } } } e } |  .} } O.+.o.} } O.@.O...X.| e e e H } e } ",
"2 , ; + = ; p s < - 3 s s < ; < s s < ; ; s s ; , 4 3 5 w w e w q H H } w 2 7 G A k 0 5 K L q 0 g K g 6 0 k K B 6 2 7 5 < z z z ",
"2 ; + = $ #.2.S ; s 2.4.A > B 2.%.B ; Z ;.$.g ; E q.W 2 5 e q - ; q } w 5 w ' i.9.e k 0.d._ 0 G u.p.U e L t.y.P 0 ^ 7.g , < H  .",
", < < - * Q A > g :.5.A , B ;.>.g , D ,.;.g 5 W w.6.k 0 5 5 z 6 < z w 5 w [ e.[ e J r.g.] { I a.f.( { ( s.d./ e ^ 8.L k q < 6 | ",
", < < < < 2 ; # i Z s = < x t < : $ c V < : t c V < - 5 w 5 5 5 5 5 5 q g d D 2 , C Q B , 5 E ) A 2 7 T ` B , g Y g 6 z z w 6 z ",
"; < ; , 2 < + + + o = - - = = = ; ; = - ; ; ; = = ; , o 2 w 0 0 0 q q 5 @ - ; , < 2 ; ; 5 5 2 , 2 5 5 2 , 2 3 5 ; + w z w q 6 H ",
"; < ; , ; + @ ; 5 q q 5 q w q 5 q q q 5 5 6 5 5 w 5 w H + + + + + + + + 2 q w w w H H z z e H H w w z H H z z z H k @ q q 6 7 H ",
", ; ; , ; + , + ; 5 5 5 5 5 0 5 5 5 2 2 5 5 5 5 5 ; + q q ; 6 5 5 5 5 ; 5 @ , w 0 w w 0 0 q w e e w w w w 5 0 < ; F f < w q 7 H ",
", < + ; < + 5 < , 5 5 5 5 5 0 0 5 5 5 5 0 0 q 5 5 5 < 5 2 , w w w 0 5 ; w 5 5 e e w 0 w w w q q e e e w 0 0 5 6 5 7 4 1 4 < 6 H ",
"; < - ; < + 2 5 5 5 5 5 5 5 5 5 2 5 5 5 5 5 5 5 5 5 w q 2 ; w 0 0 0 5 @ q e w e z e w e H e w w e w e e w 0 q q k l 4 1 k 5 6 z ",
"; ; , 2 2 + 2 2 5 5 2 2 5 5 5 5 5 5 5 5 5 5 5 5 5 q w 0 < ; 0 0 0 q 5 @ 0 0 w e e e e e e e w w w q 0 e w q z H K *.a < H z 6 z ",
"; , ; , , + , ; 2 2 2 5 5 5 5 5 5 5 5 5 5 5 5 5 5 0 q 0 2 ; 0 0 q 0 5 ; w w e e w w e e e w q 0 0 0 0 w w q w z K <.a < H w 6 z ",
"; ; < 2 ; + , , 5 2 , , , 2 5 5 5 5 5 5 5 5 5 5 5 2 5 0 2 ; 0 0 0 0 5 ; q 0 q w w w w q w 0 0 q q w w e w q w w K <.a < z w 5 w ",
"; ; ; , ; + , , 2 2 , , , 2 5 2 5 5 5 5 5 2 2 5 2 , 2 5 2 ; 0 0 q q 5 ; q 0 0 0 w w q 0 0 0 0 q q w w w 0 w w w K <.a < w 6 5 w ",
"; ; ; 2 ; + , , ; , , ; ; 2 2 2 2 2 2 2 5 2 , 2 5 2 2 5 2 - 0 0 q 0 5 - 0 0 0 5 5 0 0 5 5 5 0 w w w e q 0 0 w w G *.a < w w 4 z ",
"; ; 2 2 ; + ; ; ; ; , , , , ; , , , , 2 , , , 2 5 5 2 5 < - 5 5 0 0 5 - , 5 5 2 5 5 5 5 0 5 0 w w w w w 0 0 q q l &.a < w 6 5 w ",
"; ; + ; , + ; ; ; ; , , , , , , , , , , , , 5 5 5 5 5 5 2 ; 0 5 0 q 2 ; 0 5 0 5 5 5 5 0 0 5 0 q w w w q 5 q w q l &.f < 5 < < w ",
"; < @ = ; + ; ; ; ; , , ; , , , ; , 2 2 2 2 5 5 5 5 5 5 , ; 5 5 5 0 2 ; 0 5 5 5 5 5 5 0 5 5 0 0 q q w q 5 w q q h *.f < 5 ; < 0 ",
"; ; ; ; ; + ; ; ; ; ; ; , ; ; ; , , 2 2 2 2 2 , 2 5 2 , ; = 5 5 2 5 2 - 5 5 5 5 5 5 5 5 5 5 0 q q 5 5 0 5 5 q q S ! 3 < q 5 < 5 ",
"; ; - ; ; + ; ; ; ; ; , ; ; ; ; , , 2 2 2 2 5 2 5 5 2 5 , = 5 5 , 5 2 - 0 5 5 5 5 5 5 5 0 0 0 0 0 5 5 0 5 0 0 h W l < ; 0 5 2 q ",
"; ; - ; ; + ; ; ; - ; ; ; ; ; , , 2 2 2 5 2 5 5 5 5 5 5 , = , 5 2 5 < - 0 5 5 5 5 5 5 5 0 0 5 5 5 5 5 5 0 0 k W l q < ; 0 5 2 w ",
"; ; - ; - + + + - ; ; ; ; ; , , ; , 2 2 5 2 2 2 2 2 - ; ; = 2 2 2 5 ; - ; - 5 5 2 5 5 5 5 5 5 5 2 5 0 5 5 , A D 2 5 < ; q 5 2 0 ",
"; ; ; ; , . - + ; ; ; ; ; ; ; ; ; , 2 , , , , , ; , ; - + ; , , 2 , 5 + ; - 2 5 5 , 5 5 5 5 5 5 5 5 0 5 5 0 S A , 2 @ ; 5 5 2 0 ",
"; - ; - 5 ; . ; ; ; , ; ; ; , 2 2 2 2 ; ; 2 2 , , 2 5 + @ , ; , 5 , , 5 + 2 5 2 5 5 2 5 5 5 5 5 0 5 5 5 5 8 D D 0 - @ 5 5 5 < 0 ",
"; ; - ; - 5 ; . = = - = = = = ; ; ; ; - ; , ; ; ; ; + - 2 ; , 2 2 , ; 5 5 + ; ; ; ; ; ; ; , , ; , - = ; ; ; 4 g - @ 5 5 0 5 < q ",
"- , < - ; = 5 ; . + + o + + + + + + + + + + + + + + ; 2 2 2 , 2 , , , , 2 5 + @ - - - - @ = - - - - @ @ - @ - - @ 2 5 5 5 < 2 2 ",
"; - , < - ; ; - - , , < < 2 2 , , , , , 2 2 5 5 5 5 2 2 < , 3 3 4 5 , 6 4 5 7 6 5 6 5 6 6 6 5 5 5 5 5 5 5 2 D C = , , 2 < 5 5 , ",
"; ; - ; ; ; ; + = ; ; ; ; ; ; ; ; ; ; ; , < C : 4 d : d Z , d V C p V V C d p 7 , d 5 , 2 5 2 , , , , , 2 ; Y v o 2 , ; 5 5 5 5 ",
"- - ; - , ; ; + + ; ; ; ; , ; ; ; ; , 2 , 2 Z s C N - V C g > V 4 ; Z 5 5 7 s d s D 5 5 2 , Z 4 , 2 , 5 2 ; Y c + 2 ; < 5 5 5 5 ",
"- = + = ; - ; + + - ; ; ; ; ; ; ; ; , , , 2 Z V V 4 3 V d A ; d 4 , Z 2 , 2 d V d V 5 5 , s V a 2 2 2 , 2 > Z C + , ; 5 ; ; 5 5 ",
"; = + - - - ; + + ; ; ; ; ; ; ; ; ; ; ; ; < C : 4 s d d 4 V 2 d 4 ; Y C C d d g , d 5 5 5 C B d 4 , 2 , 5 , Z C o ; ; , - ; ; 5 ",
"= , - + ; - - + + ; ; ; ; , ; ; ; ; ; ; ; , 3 ; < 4 < - ; < , 3 3 , 5 s g 5 3 3 2 7 5 , d 7 B g a 4 , 5 5 , C V o , ; 2 2 - , 5 ",
"- - ; ; ; + - + + ; - ; ; ; ; ; ; ; ; ; ; ; - ; ; ; 3 3 < 3 < 3 < 3 4 < < , 2 , 2 , , 3 d > s 4 2 d , 5 5 , C V + 2 ; , 5 5 2 2 ",
"= - - ; + + ; + + - - ; ; ; ; ; ; ; ; - ; ; ; ; ; < d 4 p d 3 V s p 4 3 4 ; 2 2 < , ; p V s j d s d 5 2 5 , C x o 2 ; ; 5 5 5 5 ",
"= - ; + + - ; + + ; ; ; ; ; ; ; ; , ; ; , , ; ; ; < p ; s 4 4 3 s 4 4 < s < , , , ; , 2 5 5 5 5 2 2 , ; ; ; V i o 2 ; 2 2 5 2 , ",
"; ; + + ; - = o + = = ; ; ; - = - ; ; - - ; ; - - ; ; , ; ; , ; , , < , , < ; - ; ; ; ; ; ; ; ; - = : - - ; 4 % o 2 , , 5 ; 2 2 ",
"- + + - - - + o . . o o o o o o o o o o o + + + + + + 2 , ; ; , < , , , ; + o + + + + + + + + + + + + + + + + @ + + 2 ; , 2 ; 2 ",
"- + + = - + o + ; - - - ; ; ; ; ; ; ; ; ; , , ; ; 5 ; + 2 ; ; , ; ; ; , + + , 2 ; ; < 2 2 2 5 5 5 5 2 < ; ; 4 7 5 o + 2 ; , - ; ",
"; - = = + o o + - - - - - - = ; ; - - - ; ; ; - ; - 2 ; + , ; ; ; ; ; + . - ; ; ; ; ; , ; ; ; ; , ; ; , 2 ; d p , 5 o - , ; - , ",
"- = = ; + o + o = ; ; - = - ; ; ; - - - ; ; ; ; ; ; X 2 - + ; ; ; ; = o + + ; ; , ; 2 , , ; , , , 2 2 2 5 , j d ; 2 ; + , ; ; , ",
"- = + - + o - + - - - - - ; ; ; ; - - - ; ; ; ; - ; ; - ; + ; ; ; ; @ + ; - ; ; ; , , < ; ; , 2 2 2 2 2 , ; C C ; < @ + , ; - , ",
"- + + = + . - - - ; ; - ; ; ; ; - ; ; - ; ; ; ; ; ; ; ; - + ; ; ; ; - + ; ; ; ; ; ; ; , ; ; , , , , 2 , , ; 1 M s , - + ; ; - ; ",
"- + + = + . - - - ; ; - ; ; ; - - - - - ; ; ; ; ; ; ; ; - + ; ; ; ; - + ; ; ; ; ; ; ; ; ; , , , ; ; ; ; ; ; ; f m g - + ; ; - ; ",
"= + o + + . - - ; ; - - - - - - - - - - - ; ; ; - ; ; ; @ + ; ; ; ; - + ; ; ; ; ; ; , ; ; ; , , ; ; ; ; , ; < , a R = + + + - ; ",
"- + + + + o - - - - - = = - - = - - - - - - ; ; - - ; ; = + ; - ; ; - + ; ; ; ; ; , ; ; ; ; ; ; ; ; ; ; ; ; ; , 1 n - + ; @ - ; ",
"- + = = + . = = - - + = = = = = - - - - = = - ; ; - ; ; = + ; - ; ; - + ; ; ; ; ; ; ; ; - ; ; ; ; ; ; ; ; ; ; ; 1 b - + ; ; - ; ",
"- + + - + . = - - = + + = = = - - - - = = = - ; ; ; - ; + + ; - ; ; - + ; - ; ; ; ; ; - ; ; ; ; ; ; ; ; ; ; ; ; < C - + ; ; - ; ",
"- + + = + . - = - - = = = - - - = = - = - - - - ; - - ; + + ; - ; ; + o ; ; ; ; 4 < < 4 4 u d p p p 4 4 4 ; ; ; < j @ + ; ; + - ",
"= + + = + . = = = = = = - - = = = = - = - - = - - = - ; + + - = ; - + o ; ; ; ; < p 4 y t u y i i t y t * ; ; ; < C + + ; - + ; ",
"= + + = + . = = = = = = - - = = = = = = = - - - - - - ; + o - - - ; + o ; - ; ; ; ; ; ; ; ; ; ; < ; ; # < ; ; ; < C + + ; - + ; ",
"- + + = + . = + = = = = = = = = = = = - = - - = - ; - - + o - = - ; + + ; ; ; ; < < < < $ < ; ; < < ; - = ; ; ; < x + + ; ; = ; ",
"- + . + + . = + = = = = = = = = = = = = = = - - - - - = + + ; - - ; + + ; - ; - ; ; ; ; ; ; ; ; ; ; ; ; - - ; ; ; < + + + + + ; ",
"= + . + + . = = = = + + + = = = = = = = - - ; - ; - = = + o - - - ; + + ; - - - - ; ; = - ; ; - - - - ; - ; - ; - - + + + o @ ; ",
"= + + + o . = o + + + = + + - - = = = = = - - - ; + o = + + - - - - + + - + = = - - - = - - ; = = - - ; ; ; ; + + ; + o - - = ; ",
"= + + + +   + o o + + + + = = - - = - - = = - - - + o + .   . . . . .   = o + ; - - - - ; - - = = - - ; - ; ; + + - o + ; - + ; ",
"= + + + - -   + + = + + = - = = - - - = = - - - = - + . o + + + + + - +   - - ; - - - - - - = - ; ; - - ; ; - ; - o + ; ; - + ; ",
"= + + = + = -                 .         . .     . o . o - - - - - - - 2 - . o . . . o o . . . o o .   . o o . . o + ; ; ; - + ; ",
"= + + o + + - @ O @ = @ @ % # + @ $ % # = $ * r ; - @ - - + + - @ ; - = , ; - ; $ * ; - < $ $ ; - < * < ; ; $ $ $ - = = + - @ ; ",
"= + . . o = @ & % = + * r t = @ u x * = # x c t = $ r # + + - o + = ; - - = $ u t < = * C y ; = * u x ; = * u t ; - 4 + o o + ; ",
"+ = + . + * * * + + & * $ = @ * r % = $ i t # = $ u t + + - - o o + - ; = # u u < = * c V ; = * u y ; = % * * - ; y x $ + + ; ; ",
"+ + - + @ $ @ + + @ @ @ + + @ @ @ + + $ @ + + + $ @ @ + = = - - + ; ; - ; # # @ - # % % ; - # $ # - - @ $ @ - = $ % $ < - ; ; ; ",
"= = + = = = = = - = = = + = = = = = = = - = = - = = = - = = = = - ; ; - - - - ; ; - : - ; ; ; - - ; ; - ; ; ; ; - ; ; ; ; ; ; ; ",
"= = = = + + = = = - + = = = = = = = = - = = = = = = - - - - - - - ; ; ; ; - - - - - - - - - - - ; - - ; ; ; ; - ; ; ; ; ; ; - ; ",
"- - = = + + = = = - = = = = = = = = = = = = = = - - - - - - - - ; - ; ; ; ; ; ; ; ; ; ; - ; ; ; - ; ; ; ; ; ; ; ; ; ; ; ; ; ; ; "
};
