/* XPM */
static char *_b34b49cf102451ebff220896430266326a2EkYRxiHftv3Y[] = {
/* columns rows colors chars-per-pixel */
"64 64 191 2 ",
"   c #020202",
".  c #070708",
"X  c #0C0C0D",
"o  c #0F0F10",
"O  c #0F1010",
"+  c #131314",
"@  c #1C1C16",
"#  c #161719",
"$  c #171819",
"%  c #1A1B1C",
"&  c #350E10",
"*  c #221E1B",
"=  c #1E201C",
"-  c #24221E",
";  c #26281E",
":  c #1D1E21",
">  c #221F20",
",  c #221F28",
"<  c #261B39",
"1  c #291E3B",
"2  c #1F2022",
"3  c #232424",
"4  c #292723",
"5  c #272823",
"6  c #2B2A26",
"7  c #252629",
"8  c #29262D",
"9  c #27282B",
"0  c #2D2D29",
"q  c #3A2526",
"w  c #302E2A",
"e  c #2F302C",
"r  c #31302C",
"t  c #2B2534",
"y  c #272E34",
"u  c #2C2E31",
"i  c #2C233B",
"p  c #332D39",
"a  c #2F3034",
"s  c #2A323B",
"d  c #313235",
"f  c #3A3736",
"g  c #33353A",
"h  c #36383D",
"j  c #3A3B3E",
"k  c #6C1519",
"l  c #463B3D",
"z  c #583032",
"x  c #6E373B",
"c  c #733135",
"v  c #42413F",
"b  c #362A47",
"n  c #2C3642",
"m  c #3B3D42",
"M  c #333949",
"N  c #463F43",
"B  c #493D41",
"V  c #442F5E",
"C  c #46365E",
"Z  c #472F61",
"A  c #443261",
"S  c #4E3B61",
"D  c #503E64",
"F  c #5A3D75",
"G  c #5C3C7D",
"H  c #613C7F",
"J  c #3F4248",
"K  c #2D4459",
"L  c #35495C",
"P  c #2A4660",
"I  c #2D4B64",
"U  c #2E4C6A",
"Y  c #334D63",
"T  c #314D68",
"R  c #38526A",
"E  c #444345",
"W  c #4E4745",
"Q  c #42454B",
"!  c #46484E",
"~  c #4B494B",
"^  c #544948",
"/  c #474A50",
"(  c #4A4D54",
")  c #504C51",
"_  c #4D5057",
"`  c #4E5259",
"'  c #575558",
"]  c #52555C",
"[  c #5D565C",
"{  c #56595F",
"}  c #76565D",
"|  c #545760",
" . c #565961",
".. c #595D65",
"X. c #5B5F68",
"o. c #5E407C",
"O. c #5D6067",
"+. c #5E616A",
"@. c #636163",
"#. c #61656E",
"$. c #6B676B",
"%. c #68686B",
"&. c #79636B",
"*. c #636771",
"=. c #656973",
"-. c #696D76",
";. c #6A607A",
":. c #6A6F79",
">. c #7D6C74",
",. c #6E7077",
"<. c #6D727C",
"1. c #71757E",
"2. c #7A767B",
"3. c #9C1E22",
"4. c #892326",
"5. c #923438",
"6. c #8B3B40",
"7. c #8F454A",
"8. c #90555B",
"9. c #A65A5C",
"0. c #866F77",
"q. c #593F81",
"w. c #623C81",
"e. c #3D668C",
"r. c #3D6E93",
"t. c #674688",
"y. c #72548B",
"u. c #674A90",
"i. c #6A4C92",
"p. c #77479F",
"a. c #754A9B",
"s. c #7E589E",
"d. c #446586",
"f. c #42668B",
"g. c #5E7488",
"h. c #416E94",
"j. c #477399",
"k. c #49799F",
"l. c #727681",
"z. c #757A84",
"x. c #797C85",
"c. c #7A7E89",
"v. c #7B4BA3",
"b. c #8B7B84",
"n. c #7E8086",
"m. c #7E828B",
"M. c #818081",
"N. c #81858E",
"B. c #828691",
"V. c #868A93",
"C. c #898D96",
"Z. c #8B8E98",
"A. c #938A93",
"S. c #8E919A",
"D. c #959092",
"F. c #91949D",
"G. c #A3919C",
"H. c #9497A0",
"J. c #969AA2",
"K. c #999DA5",
"L. c #9C9FA8",
"P. c #A39CA7",
"I. c #9CA0A7",
"U. c #9EA1A9",
"Y. c #A2A5AC",
"T. c #A5A8AF",
"R. c #A6A9B0",
"E. c #ABADB4",
"W. c #B2A9B1",
"Q. c #ADB0B7",
"!. c #AFB2B8",
"~. c #B2B5BB",
"^. c #B6B9BE",
"/. c #D58182",
"(. c #D19EA5",
"). c #BABCC2",
"_. c #C1BDC8",
"`. c #BDC0C5",
"'. c #C3C5CA",
"]. c #C6C8CD",
"[. c #C9CBCF",
"{. c #D6C5CA",
"}. c #CBCDD2",
"|. c #CED0D5",
" X c #D9DBDE",
".X c #DCDDE1",
"XX c #DFE1E3",
"oX c #E2E3E5",
"OX c #E5E5E9",
"+X c #EBECED",
"@X c #EFF0F0",
/* pixels */
"0 0 0 0 0 0 6 0 0 0 0 0 0 0 3 n R 4 0 0 6 6 0 0 0 0 w 0 6 6 0 6 4 r 0 0 r 0 0 0 0 0 0 0 e e 6 t F 3 6 r 0 0 0 0 0 0 0 0 0 0 0 0 ",
"0 0 0 0 0 6 6 6 6 0 6 6 0 0 - K k.3 w 6 6 6 6 6 0 0 0 6 6 6 0 6 3 r 0 0 r 0 0 0 0 0 0 0 0 e 5 i a.7 6 0 0 6 6 0 0 0 0 0 0 0 0 0 ",
"0 0 0 0 0 0 6 6 6 6 6 6 6 0 * K j.3 w 6 6 6 6 6 6 0 0 6 6 6 0 4 3 r 0 0 0 0 0 0 0 0 0 6 0 e 4 i a., 5 0 0 0 6 6 0 0 0 0 0 0 0 0 ",
"0 0 0 0 0 0 6 6 6 0 0 6 6 6 * K j.: 0 6 6 6 6 6 6 0 0 =.:.c.c.Z.S.N.z.<.:.j 0 0 0 0 6 6 0 0 4 1 a.8 4 0 0 6 6 6 0 0 6 0 0 6 0 0 ",
"0 0 0 6 6 6 6 6 0 0 0 6 6 6 3 P h.: 0 6 6 6 6 6 6 6 0 ..U.O.m.V.n.V.B.Y.1.j 0 0 0 6 6 0 0 0 4 1 a.t 3 6 0 6 6 6 6 6 0 6 0 0 0 0 ",
"0 6 6 6 6 6 6 6 6 6 6 6 6 6 > I r.: 0 6 6 6 6 6 d j %. .` _ z.Y.Q.F.*.a =.E E f 0 0 0 0 0 0 4 1 a.t 3 0 0 6 6 6 6 0 6 6 0 0 0 0 ",
"0 6 6 0 6 6 6 6 6 6 6 6 6 6 > I r.: 0 6 6 6 {  .N.U.=.] <._ 8 l.B.m ( g =.Q S.F.x...d 0 0 0 4 1 p.t 3 0 0 6 6 6 6 0 6 0 0 0 0 0 ",
"4 4 4 4 6 6 6 6 6 6 6 6 6 4 3 U e.: 0 6 ( C.R.B.#. XU._ V...u Q ] `  .J l.:.|.!.O.R.U...d 0 6 < v.i - 6 0 6 6 6 6 0 0 6 4 6 4 4 ",
"6 0 0 6 4 4 3 3 3 3 3 4 3 0 4 T k.$ ` B.).R. X@X-.m.m.Q Y...| h O.m =.Q c.` U.z.U.+X[.~.K.:.E < v.i 0 6 6 4 4 4 4 4 6 4 0 0 0 0 ",
"4 * - - - % % % % % % % % 3 m Q g.z.Y.Y.].OXXXV.` 3 3 g E.c.z.B.Z.z.<.-.c.% 8 3 l.).+X+X!.U.V.] m Q 5 = @ @ @ @ @ @ @ @ @ @ @ 3 ",
"M d.d.f.f.f.e.f.f.f.f.f.f._ [.m./ V.E.}.^.z.( 7 % 3 8 0 7 9 8 d g u 8 7 8 8 8 % 2 m O.H.|.'.K.m =.+XS.t.H w.w.w.w.q.G G G G o.b ",
"n T T T U U U U U U U T O.oXK.` z./ H.l.! 8 # 8 u 2 $ $ a  .n.( u x.x.! + $ % 7 a $ 3 m #.N.Q =.z.z.).Y.Z Z V V V V V V A A C a ",
"3 - - - * * - 4 4 4 3 =.Y.[.Y./ -.z.# 3 $ % 8 3 : u 1.V.U.~.U.....z.U.H.B.m.E : 3 7 3 # 7 $ #.N.] S.'.F.H.; - - ; ; - - - - - 4 ",
"0 0 0 0 0 0 0 0 0 0 =.).N.n...*.=.x.m . 3 % + a O.B.S.T.~..XV.B.c.<.OX[.E.U.Z.z.] 3 $ 3 + X N.-.+.1.,.*.m.K.0 0 0 0 0 0 0 0 0 0 ",
"6 6 6 6 6 6 6 6 6 6 %.] =. .J J Z.! + % + m m.S.U.Y.F.m.#...H.F.l.K.#.O.z.Z.R.Y.H.B.=.+ # % % V.` O.` O.+.a 6 6 6 6 6 6 6 0 0 0 ",
"6 6 6 6 6 6 6 6 6 6 B._ m m.c...J # # % 1.Z.H.R.K.-. .=. .=.!.R.x.~.+.O.X.*...<.R.U.S.N.h # % % X._ S.X.m 1.-.6 6 6 0 0 0 0 6 6 ",
"6 6 6 6 6 6 6 6 6 _ Y.).}.g g : % $ : l.V.F.x. .V.9 a h u z.^.'.F.~.#.:.d d 3 c.<. .H.F.V.Q o $ + <.: S.|.R.V.6 6 0 0 0 6 6 6 6 ",
"6 6 6 6 6 6 6 6 6 N.J.`.].! % % # 2 N.m.Z.` m.g $ g h Q #.<.~.R.c.~.=.l.m m m 8 % l.J Z.V.N.{ # # # 9 V. XY.H.! 4 6 0 6 6 6 5 6 ",
"6 6 6 6 6 6 6 3 ..H.Y.oXz.8 # + # c.B.Z.` m 2 d 8 J d =.l.:.).R.B.^.E...V.d d ! u u J m V.V.m.7 + % %  . X).H.F.6 6 6 6 6 6 6 6 ",
"6 6 6 6 6 6 6 6 =.V. X].( # % o E z.Y.-.u h  .1.( ( S...H.~.E.Y.m.^.J.Y. .B.z.2 #.*.m h u K.B.O.  # $ d S.OXR.m.j 6 6 6 6 6 6 6 ",
"6 6 6 6 6 6 6 6 O.Y.S.<.7 % # . =.V.z.1.B.=./ ( _ -.1.).m.m U.S.<.K.( / ).V./ x.Q J  .B.=...Z.l.d # : # ` z.[.=.Q 6 6 6 6 6 6 6 ",
"0 6 6 6 6 6 6 _ B.Q.z.g o # $ m z.K./  .7 m ( a 3 ( ..m.( _ Q.K.-.R.] ( <.l.` ! 9 Q / u Q  .Z.V.O.o + X 3 X.~.U.] 6 6 0 6 6 6 6 ",
"0 0 6 6 6 r L.E.^.Q.-.Q g :   ( B.x.Q 3 / Q ..F.! ..a =.H.:.E.K.l.!.=.Z.O.m O.+.Q ( d h 3 g ..S.:.  + d m ` U.^.E.Q.X.6 6 4 6 0 ",
"0 0 6 6 6 m B.Z.^.U.<. .m : . ( <.#.3 3 h g #.J.Y.l.] m  .z.R.B.O.Y.c.:.g ( ] F.Y.c.g m d # N.l. .+ # 9 ` O.F.Q.K.F.*.6 6 6 6 0 ",
"0 0 6 6 6 6 Q +.S.F.S.]  .X 2 ! J Q 7 9 h g Q m ( <.#.Z.|.).1.( Q O.Y.}.Z.O.=.*.! Q g m d % ] ` g 8 # g =.Z.F.F.] =.v 6 6 6 6 0 ",
"0 0 0 0 0 0 _ ! *.|.-.#.m   X ( g g % 8 a m u / ( O.Q.-. .O...#.! E ! _ ] Q.V.m ` 7 J m g 3 Q Q ( $   Q _ x.|.x.x.Q f 0 0 0 0 0 ",
"4 4 4 4 4 4 ] J h V.] u Q   X J g m $ 9 d J ] u ( R.N.Q ~ ..N.Q ! l.g f m ` U.~.8 a :.u d : ! Q Q #   / ` g V.#.7 / f 4 4 4 4 4 ",
"4 4 4 4 3 3 ] ] m x.( ! Q . X m a m $ 8 m 1.g ! m.( ) Y.W.A.l ] ] B P.0.2.N Q *.z.m h <.8 3 / / g %   / ..J x. .J ( d 3 3 3 3 3 ",
"0 0 0 6 6 0 d u m J h Q / # . 0 a m % ! { 3 h #.] j ^ x 6.c &.E ' b.c 5.k z / 0 ] u g ` <.0 ( / 8 #   8 u g m m h g E 6 0 0 0 6 ",
"0 0 6 6 6 h F.^.|.XXY.<._ m % g h m =.<.7 d u c.h w } 7./.(.x OXH.z 9./.5.z f g ( F.m 3 <.m.( / 8 3 d ! #.Z.}.OX'.H.m.6 6 6 6 6 ",
"0 0 0 6 6 0 Q ( X.O./ m 3 $   7 ] a ! Q 8 ] m m.d 8 _.8.5.4.0.J.%.^ 4.3.7.>.w 8 Q ] 7 a 8 J J ` a + # 2 u Q  .#. .Q 6 0 0 6 6 0 ",
"0 0 6 6 6 6 6 m z.B./ d X X   j *.d / 3 3 F. .j 7 Q B b.{..XE.m u [ G.} } & m 3 8 V.O.: $ Q j ..Q O X o % m =.N...6 0 0 0 6 6 6 ",
"0 0 6 6 6 6 6 ..H.`.V.Q # O   ] =.a d $ 7 c.] Q g 3 ~ B $.[ ' @.@.2.q l q { 6 3 g <.K.: 7 % a .. .+ X + 8 <.R.^.c.6 6 0 0 0 6 6 ",
"0 0 6 6 6 6 6 ..Y. XN.J # +   O.*.u 7 : O.-.a =.m 7 u ..E M.D.,.W $.@.' u m 3 3  .....] a # J  . .+ X + 8 #.'.[.z.6 6 6 6 6 6 6 ",
"6 0 6 6 6 6 6 ] S.^.N.m % + X :.=.m 8 O.u ] #  .] 7 7 ( { j l w # @ f ^ { 7 3 a  .! : 9 ..! h #.+.# + + 0 O.~.Y.<.6 6 6 6 6 6 6 ",
"6 6 6 6 6 6 6 _ H.S.*.h % # o =.l.! J ! 8 3 !  ...Q 3 3 { m 6 j d l E m.u 3 7 ..X.7 j 7 a Q ` =.*.$ + + 8 ] Z.S.<.6 6 6 6 6 6 6 ",
"6 6 6 6 6 6 6 ` B.S.-.J $ # + *.=./ Q : : / 3 # !  .Q $ 7 S.@.@.W ^ ! J g 7  ...8 $ 8 ( % d ! O.O.# # + a X.B.H.<.6 6 6 6 6 6 6 ",
"6 6 6 6 6 6 6 ( F.R.=.m $ $ o O.*.h u + h g 9 % % !  .` m 8 =.u 3 3 m J ] ` ] : : 3 9 ] 3 + J  .] + + # u  .K.U.<.6 6 6 6 6 6 6 ",
"6 6 6 6 6 6 6 J Z.).:.m $ +   =.O.u : # : <.#.<.#.: % { l.1.=.m m { -.x.<.8 # m :.#.h j + + Q  . .o X + u  .K.~.=.6 6 6 6 6 0 0 ",
"6 0 6 0 0 6 6 J V.`.:.m # + 3 ] ( 8 ! % + + 3 8 d ! ] a % Q B.Q 3 O.1.8 2 ` ( m 8 3 $ o # 0 m ] Q a : + 9  .Y.^.*.6 6 0 0 0 0 6 ",
"0 0 0 6 6 0 0 m B.).-.g + + % ! u : m / O.l.a + # m ` =.#.9 ] ( 7 ] 8 / :...J u + % ..*.( Q u ( m 3 # X 7 ] K.^.X.0 0 0 0 0 0 6 ",
"3 * * * * * - g m.~.#.u + X $ O.9 % 8 # % a -.8 ! 7 % % V.=.]  .u  .m Y.8 $ % m m ../ 3 $ : : m ] 3   X 2 ( S.Q. .- @ % = - - 4 ",
"M R T T T I I d z.U.` 7 X + $ _ 3 % m Q ` ` u h / m g g Q d ..` u ..d ..2 h _ % J _ 2 O.Q m 3 g Q 7 . X % J m.H.( S S D D D S p ",
"L h.h.r.r.r.r.! <.K._ 3 + # # ! 3 9 m d # 7 j 3 ( 8 9 g / m Q O.{ d d O.a % u ( ! =.# 7 j a u h j 7 . + $ m z.F.] ;.i.u.u.u.u.b ",
"6 4 4 7 4 3 3 ( K.).1.d # $ $ h 7 u m + d m % + % m h % *.J m.+.m Y.h ] % g m h + + h h : % Q m u 3 # # 3 ] ~.).-.0 3 3 4 6 5 0 ",
"0 0 0 0 6 6 ] u Q O.g % $ % + 7 7 g ] a 9 9 + # 3 g g ..( -.<.N.#.] Y.Q *.m a g % + # 8 u j / m % $ % # $ 9 ] ..u / { 4 0 0 0 6 ",
"6 6 4 6 6 ] I.K.H.H.K.m.N.] m : m / ` ] X.] ..O.( Q Q *.m.m.Q S.1.( ] ^. .Q / / ] #.! ..{ ] ( J % g ! l.m.H.U.J.U.U.H.6 6 6 0 0 ",
"0 0 0 0 6 ( z.<.1.c.O.] ` Q u 9 / m.m.1.Z.S.c.N.x.V.N.H.O.! _ z.O.h ( ] F.Z.V.Z.x.N.F.<.x.l.m...a 7 J ( ] ..1.1.1.z.x.6 6 0 0 0 ",
"0 6 6 6 6 J S.c.).H.<._ ..m 7 u m Q m ( J ( m ` _ J / ..Q ..<.z.] #.z.Q =.` m ] ( ( m ..! Q J / g 3 h ( ] *.B.Q.S.V.l.6 6 6 6 6 ",
"6 6 6 6 6 m B.z.Z.V.#.Q m a % 3 g g j g  .m ! ( m ( ` ` ( ( ` ] J { g  .Q ` ( m / m m Q h j g J u % 9 h Q { c.Z.c.N.:.6 6 6 6 6 ",
"0 0 6 6 6 j <.*.:.#.] m g 9 # # 3 3 2 3 7 u 8 9 8 9 9 a / 8 m j g h j d O.8 8 7 8 u u 8 2 3 7 3 % + % d h ! #.#.<.:. .6 6 6 6 6 ",
"0 6 6 6 6 g Q _ ` ( m 0 % # + % y 3 3 3 3 3 3 3 3 3 3 3 3 3 3 3 3 3 3 3 3 3 3 3 3 3 3 3 3 3 2 3 8   X % 7 g / ` _ ( J 6 6 0 6 0 ",
"0 0 6 6 6 ~ ] ` ` j ! h m m 8 Y k.3 w 6 6 6 6 6 0 6 6 6 0 0 6 4 3 0 0 0 0 0 0 6 0 6 6 0 0 0 5 b s.8 8 j m m m j  .O.m 0 0 0 0 0 ",
"0 0 6 6 6 0 0 0 0 6 6 6 6 0 - Y k.3 w 6 0 0 0 0 0 6 6 6 6 0 6 6 4 0 6 0 0 0 6 6 0 0 0 0 0 0 4 b s.8 0 0 0 0 6 6 6 0 6 6 6 0 0 0 ",
"0 0 6 6 0 0 6 6 6 6 6 6 6 0 - L j.4 0 0 0 6 6 0 6 6 6 6 6 0 0 6 4 0 6 0 0 6 6 0 0 6 0 0 0 0 4 p y.7 6 0 0 0 0 6 0 0 6 6 6 6 0 0 ",
"0 6 0 0 0 0 0 0 6 6 6 6 6 0 4 u s 0 0 0 6 0 0 0 0 0 0 0 0 0 0 6 4 0 0 0 0 0 0 0 6 0 0 0 0 0 6 0 d 0 6 0 0 0 0 0 0 0 0 6 0 0 0 0 ",
"0 0 0 0 0 6 0 0 0 6 6 6 6 0 4 0 6 0 0 0 6 0 0 0 6 0 0 0 0 0 0 6 4 0 0 0 0 0 0 0 0 0 0 0 0 0 6 6 0 6 0 0 0 0 0 0 0 0 0 0 0 0 0 0 ",
"0 0 0 0 0 0 0 0 0 0 0 0 6 0 6 0 0 6 0 0 0 w 0 0 0 0 0 0 0 0 0 6 6 0 0 0 0 0 0 0 0 0 0 0 0 0 0 0 0 6 0 0 0 0 0 0 0 0 0 0 0 0 0 0 ",
"0 0 0 0 6 6 6 6 6 6 6 6 6 6 4 6 6 6 0 6 6 6 6 6 6 6 6 6 6 6 0 4 4 0 0 0 0 0 0 0 6 6 6 6 6 0 6 0 0 6 0 0 6 6 0 0 6 6 0 0 6 6 0 0 ",
"6 6 6 6 6 6 6 6 6 6 6 6 6 6 4 4 4 4 6 6 6 6 6 6 6 6 6 6 6 6 w 6 - 6 6 6 6 6 0 0 0 0 6 0 6 w 6 4 6 4 6 6 6 6 6 0 0 0 0 0 0 0 0 0 ",
"0 w 0 0 w w w 0 0 w 0 0 0 w 6 0 0 0 w 0 0 0 w 0 w w w 0 0 w w 0 6 r r w w w r r r r r w r r 0 0 0 6 0 0 0 0 0 w 0 0 0 0 0 w w e ",
"0 0 0 0 0 0 0 0 0 0 6 0 0 0 6 0 0 6 0 0 0 0 0 0 0 0 0 0 0 0 0 6 6 0 0 0 0 0 0 0 0 0 0 0 0 0 0 0 0 4 0 0 0 0 0 0 0 0 0 0 0 0 0 0 ",
"0 0 0 0 0 0 0 0 0 0 0 0 0 0 0 0 0 6 0 0 0 0 0 0 w 0 0 0 0 w 0 6 6 0 0 0 0 0 r 0 0 0 0 0 0 e 0 0 0 4 0 0 0 0 0 0 0 0 0 0 0 0 0 0 ",
"0 0 0 0 0 0 0 0 0 0 0 0 0 0 0 0 8 0 0 0 0 0 0 0 w w 0 0 0 w w 6 4 0 0 0 0 e r 0 0 0 0 0 0 e 0 0 0 4 0 0 0 0 0 0 0 0 0 0 0 0 0 0 "
};
