/* XPM */
static char *_21559e280ad42059d9a985fb5495291VY6atWzCSCTiVk3K[] = {
/* columns rows colors chars-per-pixel */
"64 64 161 2 ",
"   c #1C1C16",
".  c #191718",
"X  c #1D1C1B",
"o  c #221E1B",
"O  c #1E201C",
"+  c #24221E",
"@  c #29231E",
"#  c #26281E",
"$  c #1D1C22",
"%  c #221F20",
"&  c #221F28",
"*  c #241935",
"=  c #261B39",
"-  c #291E3B",
";  c #252522",
":  c #292723",
">  c #272823",
",  c #2B2A26",
"<  c #26242A",
"1  c #28262D",
"2  c #2D2D29",
"3  c #312C27",
"4  c #302E2A",
"5  c #2F302C",
"6  c #31302C",
"7  c #2B2534",
"8  c #262D37",
"9  c #2D2A33",
"0  c #2C233B",
"q  c #222D3B",
"w  c #2F2938",
"e  c #312D33",
"r  c #31263F",
"t  c #342D3C",
"y  c #2A323B",
"u  c #343332",
"i  c #37303A",
"p  c #403F3B",
"a  c #42423E",
"s  c #2C2641",
"d  c #332644",
"f  c #352A45",
"g  c #372A48",
"h  c #2C3642",
"j  c #273B4E",
"k  c #2D3C4A",
"l  c #383247",
"z  c #303B47",
"x  c #313D4E",
"c  c #273C51",
"v  c #293E54",
"b  c #253E58",
"n  c #3F3056",
"m  c #442F5E",
"M  c #453553",
"N  c #46365E",
"B  c #4A375C",
"V  c #4B385F",
"C  c #462F61",
"Z  c #443261",
"A  c #4E3B61",
"S  c #503E64",
"D  c #553B6A",
"F  c #563575",
"G  c #563D74",
"H  c #5A3D75",
"J  c #563C7C",
"K  c #5C3C7D",
"L  c #613C7F",
"P  c #2E4355",
"I  c #2C455B",
"U  c #344759",
"Y  c #344B5E",
"T  c #2B4660",
"R  c #2D4B64",
"E  c #2E4C6A",
"W  c #334D63",
"Q  c #314D68",
"!  c #375067",
"~  c #33526B",
"^  c #38546D",
"/  c #2F5579",
"(  c #335571",
")  c #385771",
"_  c #365972",
"`  c #395975",
"'  c #31577C",
"]  c #355C7B",
"[  c #3A5F7F",
"{  c #3A607E",
"}  c #464542",
"|  c #4A4A46",
" . c #4E4D4A",
".. c #52514D",
"X. c #535351",
"o. c #585754",
"O. c #595956",
"+. c #5F5E5B",
"@. c #615F5C",
"#. c #60605D",
"$. c #564275",
"%. c #554078",
"&. c #5E427A",
"*. c #62467C",
"=. c #66497F",
"-. c #6E6E6B",
";. c #787875",
":. c #593E81",
">. c #633D82",
",. c #365E80",
"<. c #3C6384",
"1. c #3B668A",
"2. c #3F698D",
"3. c #3D6D93",
"4. c #674B8B",
"5. c #6A498D",
"6. c #71498E",
"7. c #72548B",
"8. c #6E4290",
"9. c #674B90",
"0. c #6A4C92",
"q. c #704397",
"w. c #734C95",
"e. c #77479F",
"r. c #754A9B",
"t. c #794C9E",
"y. c #7C529D",
"u. c #7E589E",
"i. c #446585",
"p. c #41668B",
"a. c #446B8D",
"s. c #416E95",
"d. c #4D7495",
"f. c #437299",
"g. c #4D769A",
"h. c #47789E",
"j. c #48799F",
"k. c #7747A0",
"l. c #7E4EA6",
"z. c #7F56A1",
"x. c #4678A0",
"c. c #4879A3",
"v. c #81569D",
"b. c #8259A1",
"n. c #8352A9",
"m. c #895DAA",
"M. c #8C62AF",
"N. c #8B62B0",
"B. c #5385AD",
"V. c #538AB3",
"C. c #588AB2",
"Z. c #999997",
"A. c #9B9A98",
"S. c #A6A6A4",
"D. c #A9A8A6",
"F. c #ADACAB",
"G. c #E0E0DF",
"H. c gray88",
"J. c #EAE9E9",
"K. c #F4F4F4",
"L. c #FFFFFF",
/* pixels */
"2 2 2 2 2 2 , 2 2 2 2 2 2 2 ; h ^ : 2 2 , , 2 2 2 2 4 2 , , 2 , : 6 2 2 6 2 2 2 2 2 2 2 5 5 , 7 H ; , 6 2 2 2 2 2 2 2 2 2 2 2 2 ",
"2 2 2 2 2 , , , , 2 , , 2 2 + P j.; 4 , , , , , 2 2 2 , , , 2 , ; 6 2 2 6 2 2 2 2 2 2 2 2 5 > 0 r.< , 2 2 , , 2 2 2 2 2 2 2 2 2 ",
"2 2 2 2 2 2 , , , , , , , 2 o I f.; 4 , , , , , , 2 2 , , , 2 : ; 6 2 2 2 2 2 2 2 2 2 , 2 5 : 0 r.& > 2 2 2 , , 2 2 2 2 2 2 2 2 ",
"2 2 2 2 2 2 , , , 2 2 , , , o I f.$ 2 , , , , , , 2 2 2 2 2 2 : ; 6 2 2 2 2 2 2 2 2 , , 2 2 : - r.1 : 2 2 , , , 2 2 , 2 2 , 2 2 ",
"2 2 2 , , , , , 2 2 2 , , , ; T s.$ 4 , , , , , , , 2 , 2 2 2 : ; 6 2 2 2 2 2 2 2 , , 2 2 2 : - r.7 ; , 2 , , , , , 2 , 2 2 2 2 ",
"2 , , , , , , , , , , , , , % R 3.$ 2 , , , , , , , 2 2 2 2 2 : ; 6 2 2 2 2 2 2 2 2 2 2 2 2 : - r.7 ; 2 2 , , , , 2 , , 2 2 2 2 ",
"2 , , 2 , , , , , , , , , , % R 3.$ 2 , , , , , , 2 2 2 2 2 2 : + 2 2 2 2 2 , 2 2 2 2 2 2 2 : - e.7 ; 2 2 , , , , 2 , 2 2 2 2 2 ",
": : : : , , , , , , , , , : ; E 1.$ 2 , , , , , , 2 2 , , , 2 : + 2 2 2 2 , , , , , , 2 2 2 , = k.0 + , 2 , , , , 2 2 , : , : : ",
", 2 2 , : : ; ; ; ; ; : ; 2 : Q g.. 2 2 2 2 2 2 2 2 2 2 2 2 4 , : 6 4 6 2 2 2 4 6 2 4 6 6 u : = l.0 2 , , : : : : : , : 2 2 2 2 ",
": o + + + X X X X X X X X ; 2 q c.i.$ o X         ; ; ; ; ; : + X : ; ; : : : +       X O O * t.J 1 > O                       ; ",
"x i.i.p.p.p.2.p.p.p.p.p.p.a.j < q c.g.` ] ] ] [ W < : : : : ; + X : ; ; ; ; : w G H H H H K n.K 7 7 F >.L >.>.>.>.:.K K K K &.f ",
"h Q Q Q E E E E E E E Q Q [ C.v 2 y ( ' ' ' / ] W : , : : : , ; + , ; , , , : w G J J J J K m 7 7 q.w.m C C m m m m m m Z Z N e ",
"; + + + o o + : : : ; ; ; o b B.j 2 o X X X   .   + + + ; ; : + X ; + + + + ; +   X X X + + 2 7 8.6.$ > > # + + # # + + + + + : ",
"2 2 2 2 2 2 2 2 2 2 2 2 2 6 o ] a.$ , 2 2 2 2 4 2 , , , 2 2 4 , : 6 2 2 2 2 2 2 6 6 6 6 6 6 > d n.7 2 2 2 2 2 2 2 2 2 2 2 2 2 2 ",
", , , , , , , , , , , , , 2 ; ( 1.$ 2 , , , , , , ; : , , , 2 : : 2 2 , 2 2 , , , , , , , 2 : d r.w 6 2 2 , , , , , , , , 2 2 2 ",
", , , , , , , , , , , , , 2 o ( 1.$ 2 , , , , , , , ; , , , 2 ; : 2 2 2 2 2 , , , , , , , 2 ; d t.w 6 2 2 , , , , , 2 2 2 2 , , ",
", , , , , , , , , , , , , 2 + ( 1.$ , , , , , , , , , , , , 2 ; : 2 2 2 , , 2 2 , , 2 , , , ; d r.7 5 2 , , , , , 2 2 2 , , , , ",
", , , , , , , , , , , , , 2 + ~ 1.$ , , , , , , , , , , , , 2 : : 2 2 2 , , 2 2 2 2 2 2 , 2 + d r.7 2 2 , , , , : , 2 , , , > , ",
", , , , , , , ; , , : ; , 2 o Q 2.o , , ; , , , , , , , , , 2 : ; 2 , , 2 , , 2 2 2 2 2 , 2 + f r.< 2 , , , , , , , , , , , , , ",
", , , , , , , , , , , ; : , ; y k : , , , , , , , , , , , , , : ; 2 2 2 2 2 2 2 2 2 , , , 2 ; 9 M : , , , , , : , , , , , , , , ",
", , , , , , , , , , , : , , : : : : , , , , , , , , , , , , , : + 2 2 2 2 2 2 2 2 2 2 2 , , : : : , 2 , , , : : , , , , , , , , ",
"2 , , , , , , , : , , , , , ; : , : : , , , , , , , , , , , , : ; 2 2 2 2 2 2 2 2 2 2 2 , 2 : : : : 2 , , , : > , , , 2 , , , , ",
"2 2 , , , , , , , , , , , , ; ; : : : , , , , , , , , , , , , : : 2 , , , , , 2 2 2 2 , , 2 : : : : 2 , , , , : , , , , , : , 2 ",
"2 2 , , , , , , , , , , , , ; ; : : ; , , , , , , , , , , , , : : 2 , , , , 2 2 2 2 2 , , 2 : : : : 2 2 , , , , , , , , , , , 2 ",
"2 2 , , , , , , , , , , , , : ; : : , , , , , , , , , , u a  . . . .p u , , 2 2 2 2 2 , , , : : ; : , , , , , , , , , , , , , 2 ",
"2 2 2 2 2 2 , 2 , , 2 , , , : : : ; , 2 , 2 2 2 , 2 2 2 } -.Z.A.A.Z.-.} 2 2 2 2 2 2 2 2 , 2 : : : + , 2 , , , 2 2 2 2 2 2 2 2 2 ",
": : : : : : : : : : , ; ; : + , : : + : : : ; : ; : : : ..Z.H.J.J.G.Z...: , : : : , > > > : : : : 2 ; : : : : : : : : : : : : : ",
": : : : ; ; ; ; ; ; ; ; ; : + , ; , + : : ; ; ; ; ; ; ; o.S.K.L.L.K.S.X.; ; ; ; ; ; : : : : : : : , + : : : : : ; ; ; ; ; ; ; ; ",
"2 2 2 , , , , , , , , , , 2 : : : ; ; 2 , , , , , , , , O.S.K.L.L.K.S.O.2 2 2 2 2 2 , , , 2 , ; > : , , , , , , 2 2 , , 2 2 2 , ",
"2 2 , , , , , , , , , , , , , : : ; , , , , , : , , , , o.S.K.L.L.K.S.o., , 2 2 , , , , , , : ; : : , , , , , , , , , , , , , , ",
"2 2 2 , , , , , , , , , , , , : : ; , , , , , , , , , , } ;.D.F.F.D.;.| 2 , , , 2 2 2 , , , : : ; : , , , , , , , , 2 2 2 , , 2 ",
"2 2 , , , , , , , , , , , , , : : ; , , , , , , , , , , u | +.@.@.#.| u , , , , 2 2 2 , , , : : : : , , , , , , , , 2 2 2 , , , ",
"2 2 , , , , , , , , , , , , : : , : , , , , , , , , , , , , , , : 2 , , , , , 2 2 2 , , , , : > : : 2 , , , , , , , , 2 2 2 , , ",
"2 2 , , , , , , , , , , , , , : : , , , ; , , , , , , , , , , : : 2 , 2 2 , , 2 2 2 , , , ; : > : , 2 , , , , , , , , , , , , , ",
", 2 , , , , , , , , , , , 2 ; k U ; , , , , , , , , , , , , , : : , , , 2 , , , , , , , , , : 9 D 9 2 , , , , , , , , , , , , , ",
", , , , , , , , , , , , , 2 o ` a.o , , , , , : , , , , , , , ; : , , , 2 2 2 , , , , , , 2 : t v.w 2 2 , , , , , , , , , , , , ",
", , , , , , , , , , , , , 2 + ) <.o , , , , , : ; , , , 2 2 2 , : 2 , , , , 2 2 2 , , , , , : d y.w 2 2 , , , , , , , , , , , , ",
", , , , , , , , , , , , , 2 o ` 1.o , , , , , , : : , , , 2 2 : : 2 , , , , 2 2 , , : : , , : d y.9 2 2 , , , , , , , , , , , , ",
", , , , , , , , , , , , , 2 o _ 1.o , , , , , , , , , , , , 2 ; : 2 , , , 2 2 2 2 , , , , , : f y.7 2 2 , , , , , , , , , , 2 2 ",
", 2 , 2 2 , , , , , , , , 2 + ~ 1.X , , , , , , , , , , , , , ; : 2 , , , , 2 2 2 2 , , , 2 : g y.7 2 2 2 , , , 2 , , 2 2 2 2 , ",
"2 2 2 , , 2 2 2 2 2 2 2 2 5 X ] i.o , 4 2 2 2 2 2 , , , , , 2 , : 2 2 2 2 2 2 2 2 2 2 2 6 2 : f m.r e u 4 2 2 2 2 2 2 2 2 2 2 , ",
"; o o o o o + o + + + o ; o T V.k 3 @ o o o o   o ; ; : ; ; ; : + : : : : : : +         X O , e 5.b.7 : + + + + + +   X O + + : ",
"z ! Q Q Q R R R R R W Q Q { V.c : 8 ! ( ( ( ( ` Y 2 2 , , , 2 , : 2 , , , , , t *.&.&.&.&.=.A 9 e r.v.B V B B V V A A S S S A t ",
"Y s.s.3.3.3.3.s.s.s.s.s.s.a.k : q c.f.] ,.] ] <.W 2 , : , , , ; + , , , , , : t $.%.J J K :.N.&.9 i =.w.0.9.0.0.0.0.0.9.9.9.4.l ",
", : : < : ; ; ; ; ; ; ; ; : 4 8 j.<.$ ; ; ; + + @ , , , , , , ; : , , , , , , : # + + : : : s M.D u 6 : ; ; ; ; ; ; ; ; : , > 2 ",
"2 2 2 2 , , , , , , , , , 2 : Y B.$ 3 2 2 2 2 2 2 , 2 2 2 , 2 , , 2 2 2 2 2 2 2 2 2 2 6 4 6 : n m.7 2 ; , , , , , , , : 2 2 2 , ",
", , : , , , , , 2 2 , 2 2 : ; Y h.; 4 , , , , , , , , , , , , , : 2 , , , , 2 , , , , , 2 2 , f z.w : , , , , , , , 2 , , , 2 2 ",
"2 2 2 2 , , , , , , , , 2 : + Y x.; 4 , , , , , , , , , , 2 2 : : , , , , , 2 2 2 , , , 2 2 > f z.7 : , , , , , , , , , , 2 2 2 ",
"2 , , , , , , , , , , , 2 , + Y h.; 4 , , , , , , , , , , 2 2 , : , , , , , 2 2 2 2 , , 2 2 > f z.7 : , , , , , , , 2 , , , , , ",
", , , , , , , , , , , , , : + W h.; 4 , , , , , , , , , , , , , : , , , , , 2 2 2 , , , 2 2 > f z.7 : , , , , , , , , , , , , , ",
"2 2 , , , , , , , , , , , , + W h.; 4 , , , , , , , , , 2 , , ; : 2 2 2 2 2 2 2 , , , , 2 2 > f b.1 : , , , , , , , , , , , , , ",
"2 , , , , , , , , , , , , 2 + W j.; 4 , , , , , , , , , 2 2 2 , : 2 2 2 2 2 2 2 , , , 2 2 2 > f z.1 2 2 , , , , , 2 , , , 2 , 2 ",
"2 2 , , , , 2 2 2 , , , , 2 + W j.; 4 , , , , , 2 , , , 2 2 , : ; 2 2 2 2 2 2 , 2 , , 2 2 2 > g u.1 2 2 2 , , , 2 2 2 2 2 2 2 2 ",
"2 2 , , , 2 2 2 2 , , , , 2 + W j.; 4 , 2 2 2 2 2 , , , , 2 , , : 2 , 2 2 2 , , 2 2 2 2 2 2 : g u.1 2 2 2 , , , , 2 , , , 2 2 2 ",
"2 2 , , 2 2 , , , , , , , 2 + U d.: 2 2 2 , , 2 , , , , , 2 2 , : 2 , 2 2 , , 2 2 , 2 2 2 2 : t 7.< , 2 2 2 2 , 2 2 , , , , 2 2 ",
"2 , 2 2 2 2 2 2 , , , , , 2 : 9 y 2 2 2 , 2 2 2 2 2 2 2 2 2 2 , : 2 2 2 2 2 2 2 , 2 2 2 2 2 , 2 u 2 , 2 2 2 2 2 2 2 2 , 2 2 2 2 ",
"2 2 2 2 2 , 2 2 2 , , , , 2 : 2 , 2 2 2 , 2 2 2 , 2 2 2 2 2 2 , : 2 2 2 2 2 2 2 2 2 2 2 2 2 , , 2 , 2 2 2 2 2 2 2 2 2 2 2 2 2 2 ",
"2 2 2 2 2 2 2 2 2 2 2 2 , 2 , 2 2 , 2 2 2 4 2 2 2 2 2 2 2 2 2 , , 2 2 2 2 2 2 2 2 2 2 2 2 2 2 2 2 , 2 2 2 2 2 2 2 2 2 2 2 2 2 2 ",
"2 2 2 2 , , , , , , , , , , : , , , 2 , , , , , , , , , , , 2 : : 2 2 2 2 2 2 2 , , , , , 2 , 2 2 , 2 2 , , 2 2 , , 2 2 , , 2 2 ",
", , , , , , , , , , , , , , : : : : , , , , , , , , , , , , 4 , + , , , , , 2 2 2 2 , 2 , 4 , : , : , , , , , 2 2 2 2 2 2 2 2 2 ",
"2 4 2 2 4 4 4 2 2 4 2 2 2 4 , 2 2 2 4 2 2 2 4 2 4 4 4 2 2 4 4 2 , 6 6 4 4 4 6 6 6 6 6 4 6 6 2 2 2 , 2 2 2 2 2 4 2 2 2 2 2 4 4 5 ",
"2 2 2 2 2 2 2 2 2 2 , 2 2 2 , 2 2 , 2 2 2 2 2 2 2 2 2 2 2 2 2 , , 2 2 2 2 2 2 2 2 2 2 2 2 2 2 2 2 : 2 2 2 2 2 2 2 2 2 2 2 2 2 2 ",
"2 2 2 2 2 2 2 2 2 2 2 2 2 2 2 2 2 , 2 2 2 2 2 2 4 2 2 2 2 4 2 , , 2 2 2 2 2 6 2 2 2 2 2 2 5 2 2 2 : 2 2 2 2 2 2 2 2 2 2 2 2 2 2 ",
"2 2 2 2 2 2 2 2 2 2 2 2 2 2 2 2 1 2 2 2 2 2 2 2 4 4 2 2 2 4 4 , : 2 2 2 2 5 6 2 2 2 2 2 2 5 2 2 2 : 2 2 2 2 2 2 2 2 2 2 2 2 2 2 "
};
