/* XPM */
static char *_b49a921b1c34700c6a171536f859d74qmjc7j75tBCUwt9w[] = {
/* columns rows colors chars-per-pixel */
"64 64 188 2 ",
"   c #000000",
".  c #1C1C16",
"X  c #16161C",
"o  c #1D1C1B",
"O  c #221E1B",
"+  c #1E201C",
"@  c #2F2B00",
"#  c #353100",
"$  c #24221E",
"%  c #26281E",
"&  c #2D2A1D",
"*  c #312D1B",
"=  c #3B381B",
"-  c #1D1C22",
";  c #221F20",
":  c #221F28",
">  c #251A38",
",  c #291E3B",
"<  c #252522",
"1  c #292723",
"2  c #272823",
"3  c #2B2A26",
"4  c #26242A",
"5  c #28262D",
"6  c #2D2D29",
"7  c #312E22",
"8  c #302E2A",
"9  c #2F302C",
"0  c #343324",
"q  c #393724",
"w  c #3C3A26",
"e  c #31302C",
"r  c #2B2534",
"t  c #2C233B",
"y  c #262C38",
"u  c #2F2938",
"i  c #332D37",
"p  c #2A323B",
"a  c #343033",
"s  c #413D16",
"d  c #403E1E",
"f  c #413E22",
"g  c #4D4700",
"h  c #534D00",
"j  c #5A5300",
"k  c #47431E",
"l  c #4A461D",
"z  c #524C1F",
"x  c #55501F",
"c  c #5B571D",
"v  c #655E16",
"b  c #736B07",
"n  c #786F06",
"m  c #6B6417",
"M  c #6C661A",
"N  c #766D11",
"B  c #726B1B",
"V  c #7A7216",
"C  c #7C7419",
"Z  c #464422",
"A  c #484624",
"S  c #4D4920",
"D  c #514E22",
"F  c #565221",
"G  c #5D5821",
"H  c #5B4E38",
"J  c #7C7120",
"K  c #352A45",
"L  c #352846",
"P  c #293848",
"I  c #333949",
"U  c #273E56",
"Y  c #442F5E",
"T  c #49375D",
"R  c #4B385F",
"E  c #462F61",
"W  c #443261",
"Q  c #4E3B61",
"!  c #503E64",
"~  c #563975",
"^  c #5A3D75",
"/  c #563C7C",
"(  c #5C3C7D",
")  c #613C7F",
"_  c #2D4459",
"`  c #34495C",
"'  c #2B4660",
"]  c #2D4B64",
"[  c #2E4C6A",
"{  c #334D63",
"}  c #314D68",
"|  c #38526A",
" . c #2F5578",
".. c #375A77",
"X. c #31577C",
"o. c #365B7B",
"O. c #455956",
"+. c #67544D",
"@. c #586C55",
"#. c #757E40",
"$. c #5F407C",
"%. c #446268",
"&. c #607F6F",
"*. c #877C00",
"=. c #847B16",
"-. c #897F15",
";. c #857D19",
":. c #8D7D26",
">. c #897251",
",. c #8D687D",
"<. c #A07D67",
"1. c #748550",
"2. c #60817B",
"3. c #8E8400",
"4. c #948900",
"5. c #988C0D",
"6. c #898117",
"7. c #888019",
"8. c #9A8F14",
"9. c #9D9313",
"0. c #A69900",
"q. c #AB9E00",
"w. c #A19711",
"e. c #A49A11",
"r. c #A89D11",
"t. c #B2A500",
"y. c #B5A807",
"u. c #B6A90D",
"i. c #BBAE0C",
"p. c #BEB10A",
"a. c #BDAD14",
"s. c #8E8125",
"d. c #AAAA29",
"f. c #B3AC32",
"g. c #C6B806",
"h. c #C4B60B",
"j. c #C1B212",
"k. c #D4C505",
"l. c #DCCC05",
"z. c #D6C70A",
"x. c #D8C808",
"c. c #DFD009",
"v. c #D7C517",
"b. c #D9D31C",
"n. c #E0CF06",
"m. c #E3D204",
"M. c #ECDB03",
"N. c #F1DF03",
"B. c #F4DF0F",
"V. c #E8D411",
"C. c #F3E201",
"Z. c #F9E601",
"A. c #FFEC00",
"S. c #F5E40C",
"D. c #EFE310",
"F. c #C0C12C",
"G. c #91A14D",
"H. c #97AB5A",
"J. c #A9B042",
"K. c #A7856D",
"L. c #C5A845",
"P. c #CEB147",
"I. c #593E81",
"U. c #633D82",
"Y. c #3C668C",
"T. c #3D6D93",
"R. c #6E4D8C",
"E. c #6E4290",
"W. c #674B90",
"Q. c #6A4C92",
"!. c #75499A",
"~. c #754A9C",
"^. c #7E599E",
"/. c #456484",
"(. c #42668B",
"). c #446B8D",
"_. c #416E95",
"`. c #497499",
"'. c #47789E",
"]. c #49799F",
"[. c #7B4BA3",
"{. c #7F56A1",
"}. c #4879A3",
"|. c #845A91",
" X c #916B8B",
".X c #8254A6",
"XX c #6A8E80",
"oX c #5688AF",
/* pixels */
"6 6 6 6 6 6 3 6 6 6 6 6 6 6 < P | 1 6 6 3 3 6 6 6 6 8 6 3 3 6 3 1 e 6 6 e 6 6 6 6 6 6 6 9 9 3 r ^ < 3 e 6 6 6 6 6 6 6 6 6 6 6 6 ",
"6 6 6 6 6 3 3 3 3 6 3 3 6 6 $ _ ].< 8 3 3 3 3 3 6 6 6 3 3 3 6 3 < e 6 6 e 6 6 6 6 6 6 6 6 9 2 t ~.4 3 6 6 3 3 6 6 6 6 6 6 6 6 6 ",
"6 6 6 6 6 6 3 3 3 3 3 3 3 6 O _ `.< 8 3 3 3 3 3 3 6 6 3 3 3 6 1 < e 6 6 6 6 6 6 6 6 6 3 6 9 1 t !.: 2 6 6 6 3 3 6 6 6 6 6 6 6 6 ",
"6 6 6 6 6 6 3 3 3 6 6 3 3 3 O _ `.- 6 3 3 3 3 3 3 6 6 6 6 6 6 1 < e 6 6 6 6 6 6 6 6 3 3 6 6 1 , !.5 1 6 6 3 3 3 6 6 3 6 6 3 6 6 ",
"6 6 6 3 3 3 3 3 6 6 6 3 3 3 < ' _.- 6 3 3 3 3 3 3 3 6 3 6 6 6 1 < e 6 6 6 6 6 6 6 3 3 6 6 6 1 , ~.r < 3 6 3 3 3 3 3 6 3 6 6 6 6 ",
"6 3 3 3 3 3 3 3 3 3 3 3 3 3 ; ] T.- 6 3 3 3 3 3 3 3 6 6 6 6 6 1 < e 6 6 6 6 6 6 6 6 6 6 6 6 1 , ~.r < 6 6 3 3 3 3 6 3 3 6 6 6 6 ",
"6 3 3 6 3 3 3 3 3 3 3 3 3 3 ; ] T.- 6 3 3 3 3 3 3 6 6 6 6 6 6 1 $ 6 6 6 6 6 3 6 6 6 6 6 6 6 1 , ~.r < 6 6 3 3 3 3 6 3 6 6 6 6 6 ",
"1 1 1 1 3 3 3 3 3 3 3 3 3 1 < [ Y.- 6 3 3 3 3 3 3 6 6 3 3 3 6 1 $ 6 6 6 6 3 3 3 3 3 3 6 6 6 3 > [.t $ 3 6 3 3 3 3 6 6 3 1 3 1 1 ",
"3 6 6 3 1 1 < < < < < 1 < 6 1 } `.X 6 6 6 6 6 6 6 6 6 6 6 6 8 3 1 e 8 e 6 6 6 8 e 6 8 e e a 1 > [.t 6 3 3 1 1 1 1 1 3 1 6 6 6 6 ",
"1 O $ $ $ o o o o o o o o < 6 y }./.- O o . . . . < < < < < 1 $ o 1 < < 1 1 1 $ . . . o + + > ~./ 5 2 + . . . . . . . . . . . < ",
"I /./.(.(.(.Y.(.(.(.(.(.(.).P 4 y }.`...o.....o.{ 4 1 1 1 1 < $ o 1 < < < < 1 u ^ ^ ^ ^ ^ ( .X( r r ~ U.) U.U.U.U.I.( ( ( ( $.L ",
"P } } } [ [ [ [ [ [ [ } } o.oXU 6 p  .X.X.X. .1.a.A.A.A.A.A.A.A.A.A.A.A.A.A.A.a.>./ / / / ( Y r r E.!.Y E E Y Y Y Y Y Y W W T a ",
"< $ $ $ O O $ 1 1 1 < < < O U oXP 6 * = s s s N h.A.A.A.A.A.A.A.A.A.A.A.A.A.A.h.N s s s = * 6 r E.R.- 2 2 % $ $ % % $ $ $ $ $ 1 ",
"6 6 6 6 6 6 6 6 6 6 6 6 6 e O o.).< c ;.9.9.9.i.n.A.A.A.A.A.A.A.A.A.A.A.A.A.A.n.i.9.9.9.7.G 3 L .Xr 6 6 6 6 6 6 6 6 6 6 6 6 6 6 ",
"3 3 3 3 3 3 3 3 3 3 3 3 3 6 <  .Y.< C h.M.M.M.C.Z.A.A.A.A.A.A.A.A.A.A.A.A.A.A.Z.C.M.M.M.h.C 7 L ~.u e 6 6 3 3 3 3 3 3 3 3 6 6 6 ",
"3 3 3 3 3 3 3 3 3 3 3 3 3 6 O %.&.v r.l.A.A.A.A.A.A.A.A.A.A.A.A.A.A.A.A.A.A.A.A.A.A.A.A.l.r.m H |.u e 6 6 3 3 3 3 3 6 6 6 6 3 3 ",
"3 3 3 3 3 3 3 3 3 3 3 3 3 6 $ @.G.u.k.N.A.A.A.A.A.A.A.A.A.A.A.A.A.A.A.A.A.A.A.A.A.A.A.A.N.k.i.:.,.r 9 6 3 3 3 3 3 6 6 6 3 3 3 3 ",
"3 3 3 3 3 3 3 3 3 3 3 3 3 e & 1.F.A.A.A.A.A.A.A.A.A.A.A.A.A.A.A.A.A.A.A.A.A.A.A.A.A.A.A.A.A.A.a.<.a e 6 3 3 3 3 1 3 6 3 3 3 2 3 ",
"3 3 3 3 3 3 3 < 3 3 1 < q G N d.b.A.A.A.A.A.A.A.A.A.A.A.A.A.A.A.A.A.A.A.A.A.A.A.A.A.A.A.A.A.A.z.L.C G q 3 3 3 3 3 3 3 3 3 3 3 3 ",
"3 3 3 3 3 3 3 3 3 3 3 < k =.h.c.C.A.A.A.A.A.A.A.A.A.A.A.A.A.A.A.A.A.A.A.A.A.A.A.A.A.A.A.A.A.A.N.n.h.=.Z 3 3 3 1 3 3 3 3 3 3 3 3 ",
"3 3 3 3 3 3 3 3 3 3 3 1 S 9.M.A.A.A.A.A.A.A.A.A.A.A.A.A.A.A.A.A.A.A.A.A.A.A.A.A.A.A.A.A.A.A.A.A.A.M.9.S 3 3 1 1 3 3 3 3 3 3 3 3 ",
"6 3 3 3 3 3 3 3 1 3 3 3 S 9.M.A.A.A.A.A.A.A.A.A.A.A.A.A.A.A.A.A.A.A.A.A.A.A.A.A.A.A.A.A.A.A.A.A.A.M.9.S 3 3 1 2 3 3 3 6 3 3 3 3 ",
"6 6 3 3 3 3 3 3 3 3 3 3 S 9.M.A.A.A.A.A.A.A.A.A.A.A.A.A.A.A.A.A.A.A.A.A.A.A.A.A.A.A.A.A.A.A.A.A.A.M.9.S 3 3 3 1 3 3 3 3 3 1 3 6 ",
"6 6 3 3 3 3 3 3 3 3 3 M =.i.N.A.A.Z.l.g.t.t.t.g.m.A.A.A.A.A.A.A.A.A.A.A.A.A.A.A.A.A.A.A.A.A.A.A.A.N.i.;.M 3 3 3 3 3 3 3 3 3 3 6 ",
"6 6 3 3 3 3 3 3 3 3 3 i.h.l.Z.A.A.Z.t.n h h h *.g.A.A.A.A.A.A.A.A.A.A.A.A.A.A.A.A.A.A.A.A.A.A.A.A.Z.l.h.i.3 3 3 3 3 3 3 3 3 3 6 ",
"6 6 6 6 6 6 3 6 3 3 6 A.A.A.A.A.A.C.4.#       g q.A.A.A.A.A.A.A.A.A.A.A.A.A.A.A.A.A.A.A.A.A.A.A.A.A.A.A.A.3 3 6 6 6 6 6 6 6 6 6 ",
"1 1 1 1 1 1 1 1 1 1 3 A.A.A.A.A.A.C.4.#       g q.A.A.A.A.A.A.A.A.A.A.A.A.A.A.A.A.A.A.A.A.A.A.A.A.A.A.A.A.1 1 1 1 1 1 1 1 1 1 1 ",
"1 1 1 1 < < < < < < < A.A.A.A.A.A.C.4.#       g q.A.A.A.A.A.A.A.A.A.A.A.A.A.A.A.A.A.A.A.A.A.A.A.A.A.A.A.A.1 1 1 < < < < < < < < ",
"6 6 6 3 3 3 3 3 3 3 3 A.A.A.A.A.A.Z.0.j @ @ @ b y.A.A.A.A.A.A.A.A.A.A.A.A.A.A.A.A.A.A.A.A.A.A.A.A.A.A.A.A.3 3 3 6 6 3 3 6 6 6 3 ",
"6 6 3 3 3 3 3 3 3 3 3 A.A.A.A.A.A.Z.k.0.3.3.3.t.l.A.A.A.A.A.A.A.A.A.A.A.A.A.A.A.A.A.A.A.A.A.A.A.A.A.A.A.A.3 3 3 3 3 3 3 3 3 3 3 ",
"6 6 6 3 3 3 3 3 3 3 3 A.A.A.A.A.A.Z.Z.C.M.M.M.C.Z.A.A.A.A.A.A.A.A.A.A.A.A.A.A.A.A.A.A.A.A.A.A.A.A.A.A.A.A.3 3 3 3 3 6 6 6 3 3 6 ",
"6 6 3 3 3 3 3 3 3 3 3 A.A.A.A.A.A.A.A.A.A.A.A.A.A.A.A.A.A.A.A.A.A.A.A.A.A.A.A.A.A.A.A.A.A.A.A.A.A.A.A.A.A.3 3 3 3 3 6 6 6 3 3 3 ",
"6 6 3 3 3 3 3 3 3 3 3 A.A.A.A.A.A.A.A.A.A.A.A.A.A.A.A.A.A.A.A.A.A.A.A.A.A.A.A.A.A.A.A.A.A.A.A.A.A.A.A.A.A.3 3 3 3 3 3 6 6 6 3 3 ",
"6 6 3 3 3 3 3 3 3 3 3 A.A.A.A.A.A.A.A.A.A.A.A.A.A.A.A.A.A.A.A.Z.C.N.N.N.C.Z.Z.A.A.A.A.A.A.A.A.A.A.A.A.A.A.3 3 3 3 3 3 3 3 3 3 3 ",
"3 6 3 3 3 3 3 3 3 3 3 A.A.A.A.A.A.A.A.A.A.A.A.A.A.A.A.A.A.A.A.m.p.w.w.w.u.k.Z.A.A.A.A.A.A.A.A.A.A.A.A.A.A.3 3 3 3 3 3 3 3 3 3 3 ",
"3 3 3 3 3 3 3 3 3 3 3 A.A.A.A.A.A.A.A.A.A.A.A.A.A.A.A.A.A.A.A.g.=.z z z B u.C.A.A.A.A.A.A.A.A.A.A.A.A.A.A.3 3 3 3 3 3 3 3 3 3 3 ",
"3 3 3 3 3 3 3 3 3 3 3 A.A.A.A.A.A.A.A.A.A.A.A.A.A.A.A.A.A.A.A.i.M 6 3 3 x e.C.A.A.A.A.A.A.A.A.A.A.A.A.A.A.3 3 3 3 3 3 3 3 3 3 3 ",
"3 3 3 3 3 3 3 3 3 3 3 A.A.A.A.A.A.A.A.A.A.A.A.A.A.A.A.A.A.A.A.i.M 6 3 3 x e.C.A.A.A.A.A.A.A.A.A.A.A.A.A.A.3 3 3 3 3 3 3 3 3 3 3 ",
"3 3 3 3 3 3 3 3 3 3 3 A.A.A.A.A.A.A.A.A.A.A.A.A.A.A.A.A.A.A.A.i.M 6 3 3 x e.C.A.A.A.A.A.A.A.A.A.A.A.A.A.A.3 3 3 3 3 3 3 3 3 6 6 ",
"3 6 3 6 6 3 3 3 3 3 3 i.h.n.Z.A.A.A.A.A.A.A.A.A.A.A.A.A.A.A.A.i.M 6 3 3 x e.C.A.A.A.A.A.A.A.A.A.A.Z.n.g.i.3 3 3 6 3 3 6 6 6 6 3 ",
"6 6 6 3 3 6 6 6 6 6 6 M ;.i.N.A.A.A.A.A.A.A.A.A.A.A.A.A.A.A.A.i.M 6 6 6 F e.C.A.A.A.A.A.A.A.A.A.A.N.a.;.M 6 6 6 6 6 6 6 6 6 6 3 ",
"< O O O O O $ O $ $ $ O l 5.M.A.A.A.A.A.A.A.A.A.A.A.A.A.Z.Z.M.u.v 1 1 1 z 8.m.C.Z.A.A.A.A.A.A.A.A.B.8.l $ $ $ $ $ $ . o + $ $ 1 ",
"I | } } } ] ] ] ] ] { } @.f.D.A.A.A.A.A.A.A.A.A.A.A.A.A.M.g.e.C l 6 3 3 f M 8.j.V.A.A.A.A.A.A.A.A.B.L.+.R T T R R Q Q ! ! ! Q i ",
"` _._.T.T.T.T._._._._._.2.J.M.A.A.A.A.A.A.A.A.A.A.A.A.A.l.9.c = * 3 3 3 0 f l s.v.A.A.A.A.A.A.A.A.M.f.,.Q.W.Q.Q.Q.Q.Q.W.W.W.W.L ",
"3 1 1 4 1 < < < < < < < d =.h.c.S.A.A.A.A.A.A.A.A.A.A.A.x.-.q < 1 3 3 3 3 3 3 M p.A.A.A.A.A.A.S.V.h.7.k < < < < < < < < 1 3 2 6 ",
"6 6 6 6 3 3 3 3 3 3 3 3 q G V d.b.A.A.A.A.A.A.A.A.A.A.A.x.-.w 3 3 6 6 6 6 6 6 B h.A.A.A.A.A.A.v.P.J G 0 3 3 3 3 3 3 3 1 6 6 6 3 ",
"3 3 1 3 3 3 3 3 6 6 3 6 6 3 3 #.F.A.A.A.A.A.A.A.A.A.A.A.x.-.q 3 1 6 3 3 3 3 6 B p.A.A.A.A.A.A.a.K.a 3 3 3 3 3 3 3 3 6 3 3 3 6 6 ",
"6 6 6 6 3 3 3 3 3 3 3 3 6 1 $ @.H.i.z.N.A.A.A.A.A.A.A.A.x.6.w 1 1 3 3 3 3 3 6 B h.A.A.A.N.z.i.s. Xr 1 3 3 3 3 3 3 3 3 3 3 6 6 6 ",
"6 3 3 3 3 3 3 3 3 3 3 3 6 3 $ O.XXm r.l.A.A.A.A.A.A.A.A.x.6.w 3 1 3 3 3 3 3 6 B h.A.A.A.m.r.M H |.r 1 3 3 3 3 3 3 3 6 3 3 3 3 3 ",
"3 3 3 3 3 3 3 3 3 3 3 3 3 1 $ { '.3 C h.M.M.M.M.M.M.M.M.g.=.q 3 1 3 3 3 3 3 6 M u.M.M.M.h.C 3 L {.r 1 3 3 3 3 3 3 3 3 3 3 3 3 3 ",
"6 6 3 3 3 3 3 3 3 3 3 3 3 3 $ { '.1 G =.9.9.9.9.9.9.9.9.6.c 0 < 1 6 6 6 6 6 6 D C 9.9.9.;.G 3 L .X5 1 3 3 3 3 3 3 3 3 3 3 3 3 3 ",
"6 3 3 3 3 3 3 3 3 3 3 3 3 6 $ { ].< w Z S S S S S S S S A w 6 3 1 6 6 6 6 6 6 q f S S S A w 1 L {.5 6 6 3 3 3 3 3 6 3 3 3 6 3 6 ",
"6 6 3 3 3 3 6 6 6 3 3 3 3 6 $ { ].< 8 3 3 3 3 3 6 3 3 3 6 6 3 1 < 6 6 6 6 6 6 3 6 3 3 6 6 6 2 L ^.5 6 6 6 3 3 3 6 6 6 6 6 6 6 6 ",
"6 6 3 3 3 6 6 6 6 3 3 3 3 6 $ { ].< 8 3 6 6 6 6 6 3 3 3 3 6 3 3 1 6 3 6 6 6 3 3 6 6 6 6 6 6 1 L ^.5 6 6 6 3 3 3 3 6 3 3 3 6 6 6 ",
"6 6 3 3 6 6 3 3 3 3 3 3 3 6 $ ` `.1 6 6 6 3 3 6 3 3 3 3 3 6 6 3 1 6 3 6 6 3 3 6 6 3 6 6 6 6 1 i R.4 3 6 6 6 6 3 6 6 3 3 3 3 6 6 ",
"6 3 6 6 6 6 6 6 3 3 3 3 3 6 1 u p 6 6 6 3 6 6 6 6 6 6 6 6 6 6 3 1 6 6 6 6 6 6 6 3 6 6 6 6 6 3 6 a 6 3 6 6 6 6 6 6 6 6 3 6 6 6 6 ",
"6 6 6 6 6 3 6 6 6 3 3 3 3 6 1 6 3 6 6 6 3 6 6 6 3 6 6 6 6 6 6 3 1 6 6 6 6 6 6 6 6 6 6 6 6 6 3 3 6 3 6 6 6 6 6 6 6 6 6 6 6 6 6 6 ",
"6 6 6 6 6 6 6 6 6 6 6 6 3 6 3 6 6 3 6 6 6 8 6 6 6 6 6 6 6 6 6 3 3 6 6 6 6 6 6 6 6 6 6 6 6 6 6 6 6 3 6 6 6 6 6 6 6 6 6 6 6 6 6 6 ",
"6 6 6 6 3 3 3 3 3 3 3 3 3 3 1 3 3 3 6 3 3 3 3 3 3 3 3 3 3 3 6 1 1 6 6 6 6 6 6 6 3 3 3 3 3 6 3 6 6 3 6 6 3 3 6 6 3 3 6 6 3 3 6 6 ",
"3 3 3 3 3 3 3 3 3 3 3 3 3 3 1 1 1 1 3 3 3 3 3 3 3 3 3 3 3 3 8 3 $ 3 3 3 3 3 6 6 6 6 3 6 3 8 3 1 3 1 3 3 3 3 3 6 6 6 6 6 6 6 6 6 ",
"6 8 6 6 8 8 8 6 6 8 6 6 6 8 3 6 6 6 8 6 6 6 8 6 8 8 8 6 6 8 8 6 3 e e 8 8 8 e e e e e 8 e e 6 6 6 3 6 6 6 6 6 8 6 6 6 6 6 8 8 9 ",
"6 6 6 6 6 6 6 6 6 6 3 6 6 6 3 6 6 3 6 6 6 6 6 6 6 6 6 6 6 6 6 3 3 6 6 6 6 6 6 6 6 6 6 6 6 6 6 6 6 1 6 6 6 6 6 6 6 6 6 6 6 6 6 6 ",
"6 6 6 6 6 6 6 6 6 6 6 6 6 6 6 6 6 3 6 6 6 6 6 6 8 6 6 6 6 8 6 3 3 6 6 6 6 6 e 6 6 6 6 6 6 9 6 6 6 1 6 6 6 6 6 6 6 6 6 6 6 6 6 6 ",
"6 6 6 6 6 6 6 6 6 6 6 6 6 6 6 6 5 6 6 6 6 6 6 6 8 8 6 6 6 8 8 3 1 6 6 6 6 9 e 6 6 6 6 6 6 9 6 6 6 1 6 6 6 6 6 6 6 6 6 6 6 6 6 6 "
};
