/* XPM */
static const char *floor[] = {
/* columns rows colors chars-per-pixel */
"64 64 168 2 ",
"   c #1C1714",
".  c #1C1C16",
"X  c #16161C",
"o  c #1D1C1B",
"O  c #221E1B",
"+  c #1E201C",
"@  c #24221E",
"#  c #29231E",
"$  c #26281E",
"%  c #1D1C22",
"&  c #221F20",
"*  c #221F28",
"=  c #241935",
"-  c #261B39",
";  c #291E3B",
":  c #252522",
">  c #292723",
",  c #272823",
"<  c #2B2A26",
"1  c #26242A",
"2  c #28262D",
"3  c #2D2D29",
"4  c #312D27",
"5  c #302E2A",
"6  c #2F302C",
"7  c #31302C",
"8  c #2B2534",
"9  c #262D36",
"0  c #2D2A33",
"q  c #2C233B",
"w  c #222D3B",
"e  c #2F2938",
"r  c #312D33",
"t  c #30273F",
"y  c #342D3C",
"u  c #2A323B",
"i  c #323032",
"p  c #37303A",
"a  c #2C2641",
"s  c #332644",
"d  c #352A45",
"f  c #372A48",
"g  c #2C3642",
"h  c #263A4E",
"j  c #2D3C4A",
"k  c #383247",
"l  c #303B47",
"z  c #303D4E",
"x  c #273C51",
"c  c #293E54",
"v  c #253E58",
"b  c #3F3056",
"n  c #442F5E",
"m  c #453553",
"M  c #46365E",
"N  c #4A375C",
"B  c #4B385F",
"V  c #462F61",
"C  c #443261",
"Z  c #4E3B61",
"A  c #503E64",
"S  c #553B6A",
"D  c #563575",
"F  c #563D74",
"G  c #5A3D75",
"H  c #563C7C",
"J  c #5C3C7D",
"K  c #613C7F",
"L  c #2E4355",
"P  c #2C455B",
"I  c #344759",
"U  c #344B5E",
"Y  c #2A4660",
"T  c #2D4B64",
"R  c #2E4C6A",
"E  c #334D63",
"W  c #314D68",
"Q  c #324E69",
"!  c #375067",
"~  c #33526B",
"^  c #38546D",
"/  c #2F5578",
"(  c #335571",
")  c #385771",
"_  c #365872",
"`  c #385975",
"'  c #3A5A74",
"]  c #31577C",
"[  c #365A79",
"{  c #375C79",
"}  c #355C7C",
"|  c #385E7C",
" . c #3A5E7F",
".. c #3A607E",
"X. c #564275",
"o. c #554078",
"O. c #5E407C",
"+. c #5E427A",
"@. c #62467C",
"#. c #66497F",
"$. c #593E81",
"%. c #603B80",
"&. c #613C81",
"*. c #623C81",
"=. c #653F84",
"-. c #365E80",
";. c #3C6384",
":. c #3B658C",
">. c #3F678C",
",. c #3A6689",
"<. c #3F698D",
"1. c #3C6C92",
"2. c #3D6E94",
"3. c #3F6D94",
"4. c #674B8B",
"5. c #6A498D",
"6. c #71498E",
"7. c #72548B",
"8. c #6E4290",
"9. c #674A90",
"0. c #6A4C92",
"q. c #704397",
"w. c #734C95",
"e. c #77479F",
"r. c #734998",
"t. c #74489A",
"y. c #764A9E",
"u. c #764C9B",
"i. c #794C9E",
"p. c #784D9A",
"a. c #7C529D",
"s. c #7E589E",
"d. c #476481",
"f. c #426587",
"g. c #456485",
"h. c #41678B",
"j. c #42668B",
"k. c #41678C",
"l. c #43678C",
"z. c #40688C",
"x. c #466B8D",
"c. c #426B8C",
"v. c #406F97",
"b. c #416D93",
"n. c #4D7495",
"m. c #437299",
"M. c #46759B",
"N. c #4F7798",
"B. c #4A759C",
"V. c #47789E",
"C. c #48799F",
"Z. c #4A7A9E",
"A. c #7747A0",
"S. c #7E4EA6",
"D. c #7F56A1",
"F. c #4678A0",
"G. c #4879A3",
"H. c #4B79A0",
"J. c #81569D",
"K. c #8259A1",
"L. c #8052AA",
"P. c #8552A8",
"I. c #895DAA",
"U. c #8C62AF",
"Y. c #8B62B0",
"T. c #5385AD",
"R. c #528AB3",
"E. c #588AB2",
/* pixels */
"3 3 3 3 3 3 < 3 3 3 3 3 3 3 : g ^ > 3 3 < < 3 3 3 3 5 3 < < 3 < > 7 3 3 7 3 3 3 3 3 3 3 6 6 < 8 G : < 7 3 3 3 3 3 3 3 3 3 3 3 3 ",
"3 3 3 3 3 < < < < 3 < < 3 3 @ L C.: 5 < < < < < 3 3 3 < < < 3 < : 7 3 3 7 3 3 3 3 3 3 3 3 6 , q u.1 < 3 3 < < 3 3 3 3 3 3 3 3 3 ",
"3 3 3 3 3 3 < < < < < < < 3 O P m.: 5 < < < < < < 3 3 < < < 3 > : 7 3 3 3 3 3 3 3 3 3 < 3 6 > q r.* , 3 3 3 < < 3 3 3 3 3 3 3 3 ",
"3 3 3 3 3 3 < < < 3 3 < < < O P m.% 3 < < < < < < 3 3 3 3 3 3 > : 7 3 3 3 3 3 3 3 3 < < 3 3 > ; t.2 > 3 3 < < < 3 3 < 3 3 < 3 3 ",
"3 3 3 < < < < < 3 3 3 < < < : Y v.% 5 < < < < < < < 3 < 3 3 3 > : 7 3 3 3 3 3 3 3 < < 3 3 3 > ; y.8 : < 3 < < < < < 3 < 3 3 3 3 ",
"3 < < < < < < < < < < < < < & T 2.% 3 < < < < < < < 3 3 3 3 3 > : 7 3 3 3 3 3 3 3 3 3 3 3 3 > ; y.8 : 3 3 < < < < 3 < < 3 3 3 3 ",
"3 < < 3 < < < < < < < < < < & T 1.% 3 < < < < < < 3 3 3 3 3 3 > @ 3 3 3 3 3 < 3 3 3 3 3 3 3 > ; e.8 : 3 3 < < < < 3 < 3 3 3 3 3 ",
"> > > > < < < < < < < < < > : R :.% 3 < < < < < < 3 3 < < < 3 > @ 3 3 3 3 < < < < < < 3 3 3 < - A.q @ < 3 < < < < 3 3 < > < > > ",
"< 3 3 < > > : : : : : > : 3 > W B.X 3 3 3 3 3 3 3 3 3 3 3 3 5 < > 7 5 7 3 3 3 5 7 3 5 7 7 i > - S.q 3 < < > > > > > < > 3 3 3 3 ",
"> O @ @ @ o o o o o o o o : 3 w G.d.% O o . . . . : : : : : > @ o > : : > > > @ . . . o + + = i.H 2 , + . . . . . . . . . . . : ",
"z g.f.j.j.k.>.j.k.k.j.j.k.x.h 1 w G.N.` } [ [  .E 1 > > > > : @ o > : : : : > e F G G G G J L.J 8 8 D =.K *.*.*.*.$.J J J J O.d ",
"g Q Q Q R R R R R R R W W  .E.c 3 u ( ] ] ] / } E > < > > > < : @ < : < < < > e F H H H H J n 8 8 q.w.n V V n n n n n n C C M r ",
": @ @ @ O O @ > > > : : : O v T.h 3 O o o o .   . @ @ @ : : > @ o : @ @ @ @ : @ . o o o @ @ 3 8 8.6.% , , $ @ @ $ $ @ @ @ @ @ > ",
"3 3 3 3 3 3 3 3 3 3 3 3 3 7 O } c.% < 3 3 3 3 5 3 < < < 3 3 5 < > 7 3 3 3 3 3 3 7 7 7 7 7 7 , s P.8 3 3 3 3 3 3 3 3 3 3 3 3 3 3 ",
"< < < < < < < < < < < < < 3 : ( :.% 3 < < < < < < : > < < < 3 > > 3 3 < 3 3 < < < < < < < 3 > s y.e 7 3 3 < < < < < < < < 3 3 3 ",
"< < < < < < < < < < < < < 3 O ( ,.% 3 < < < < < < < : < < < 3 : > 3 3 3 3 3 < < < < < < < 3 : s i.e 7 3 3 < < < < < 3 3 3 3 < < ",
"< < < < < < < < < < < < < 3 @ ( ,.% < < < < < < < < < < < < 3 : > 3 3 3 < < 3 3 < < 3 < < < : s u.8 6 3 < < < < < 3 3 3 < < < < ",
"< < < < < < < < < < < < < 3 @ ~ ,.% < < < < < < < < < < < < 3 > > 3 3 3 < < 3 3 3 3 3 3 < 3 @ s r.8 3 3 < < < < > < 3 < < < , < ",
"< < < < < < < : < < > : < 3 O W <.O < < : < < < < < < < < < 3 > : 3 < < 3 < < 3 3 3 3 3 < 3 @ d u.1 3 < < < < < < < < < < < < < ",
"< < < < < < < < < < < : > < : u j > < < < < < < < < < < < < < > : 3 3 3 3 3 3 3 3 3 < < < 3 : 0 m > < < < < < > < < < < < < < < ",
"< < < < < < < < < < < > < < > > > > < < < < < < < < < < < < < > @ 3 3 3 3 3 3 3 3 3 3 3 < < > > > < 3 < < < > > < < < < < < < < ",
"3 < < < < < < < > < < < < < : > < > > < < < < < < < < < < < < > : 3 3 3 3 3 3 3 3 3 3 3 < 3 > > > > 3 < < < > , < < < 3 < < < < ",
"3 3 < < < < < < < < < < < < : : > > > < < < < < < < < < < < < > > 3 < < < < < 3 3 3 3 < < 3 > > > > 3 < < < < > < < < < < > < 3 ",
"3 3 < < < < < < < < < < < < : : > > : < < < < < < < < < < < < > > 3 < < < < 3 3 3 3 3 < < 3 > > > > 3 3 < < < < < < < < < < < 3 ",
"3 3 < < < < < < < < < < < < > : > > < < < < < < < < < < 3 3 3 > > 3 < 3 < < 3 3 3 3 3 < < < > > : > < < < < < < < < < < < < < 3 ",
"3 3 3 3 3 3 < 3 < < 3 < < < > > > : < 3 < 3 3 3 < 3 3 3 3 3 3 > > 3 3 3 3 3 3 3 3 3 3 3 < 3 > > > @ < 3 < < < 3 3 3 3 3 3 3 3 3 ",
"> > > > > > > > > > < : : > @ < > > @ > > > : > : > > > > > < @ + > > > > < > > > < , , , > > > > 3 : > > > > > > > > > > > > > ",
"> > > > : : : : : : : : : > @ < : < @ > > : : : : : : : < < < < o @ : : : : : : : : > > > > > > > < @ > > > > > : : : : : : : : ",
"3 3 3 < < < < < < < < < < 3 > > > : : 3 < < < < < < < < 3 3 3 3 > 3 3 3 3 3 3 3 3 3 < < < 3 < : , > < < < < < < 3 3 < < 3 3 3 < ",
"3 3 < < < < < < < < < < < < < > > : < < < < < > < < < < < < < : > 3 < < < < 3 3 < < < < < < > : > > < < < < < < < < < < < < < < ",
"3 3 3 < < < < < < < < < < < < > > : < < < < < < < < < < < < < > > 3 < 3 3 < < < 3 3 3 < < < > > : > < < < < < < < < 3 3 3 < < 3 ",
"3 3 < < < < < < < < < < < < < > > : < < < < < < < < < < < < < > > 3 < < < < < < 3 3 3 < < < > > > > < < < < < < < < 3 3 3 < < < ",
"3 3 < < < < < < < < < < < < > > < > < < < < < < < < < < < < < < > 3 < < < < < 3 3 3 < < < < > , > > 3 < < < < < < < < 3 3 3 < < ",
"3 3 < < < < < < < < < < < < < > > < < < : < < < < < < < < < < > > 3 < 3 3 < < 3 3 3 < < < : > , > < 3 < < < < < < < < < < < < < ",
"< 3 < < < < < < < < < < < 3 : j I : < < < < < < < < < < < < < > > < < < 3 < < < < < < < < < > 0 S 0 3 < < < < < < < < < < < < < ",
"< < < < < < < < < < < < < 3 O ' c.O < < < < < > < < < < < < < : > < < < 3 3 3 < < < < < < 3 > y J.e 3 3 < < < < < < < < < < < < ",
"< < < < < < < < < < < < < 3 @ ) ;.O < < < < < > : < < < 3 3 3 < > 3 < < < < 3 3 3 < < < < < > s a.e 3 3 < < < < < < < < < < < < ",
"< < < < < < < < < < < < < 3 O ` ,.O < < < < < < > > < < < 3 3 > > 3 < < < < 3 3 < < > > < < > s a.0 3 3 < < < < < < < < < < < < ",
"< < < < < < < < < < < < < 3 O _ ,.O < < < < < < < < < < < < 3 : > 3 < < < 3 3 3 3 < < < < < > d a.8 3 3 < < < < < < < < < < 3 3 ",
"< 3 < 3 3 < < < < < < < < 3 @ ~ ,.o < < < < < < < < < < < < < : > 3 < < < < 3 3 3 3 < < < 3 > f a.8 3 3 3 < < < 3 < < 3 3 3 3 < ",
"3 3 3 < < 3 3 3 3 3 3 3 3 6 o } f.O < 5 3 3 3 3 3 < < < < < 3 < > 3 3 3 3 3 3 3 3 3 3 3 7 3 > d I.t r i 5 3 3 3 3 3 3 3 3 3 3 < ",
": O O O O O @ O @ @ @ O : O Y R.j 4 # O O O O . O : : > : : : > @ > > > > > > @ . . . . o + < r 5.K.8 > @ @ @ @ @ @ . o + @ @ > ",
"l ! W W W T T T T T E W W ..R.x > 9 ! ( ( ( ( ` U 3 3 < < < 3 < > 3 < < < < < y @.+.+.+.+.#.Z 0 r u.J.N B N N B B Z Z A A A Z y ",
"U b.b.2.1.2.2.v.v.v.b.b.b.x.j > w G.m.} -.} } ;.E 3 < > < < < : @ < < < < < > y X.o.H H J $.Y.+.0 p #.w.0.9.0.0.0.0.0.9.9.9.4.k ",
"< > > 1 > : : : : : : : : > 5 9 C.;.% : : : @ @ # < < < < < < : > < < < < < < > $ @ @ > > > a U.S i 7 > : : : : : : : : > < , 3 ",
"3 3 3 3 < < < < < < < < < 3 > U T.% 4 3 3 3 3 3 3 < 3 3 3 < 3 < < 3 3 3 3 3 3 3 3 3 3 7 5 7 > b I.8 3 : < < < < < < < > 3 3 3 < ",
"< < > < < < < < 3 3 < 3 3 > : U V.: 5 < < < < < < < < < < < < < > 3 < < < < 3 < < < < < 3 3 < d D.e > < < < < < < < 3 < < < 3 3 ",
"3 3 3 3 < < < < < < < < 3 > @ U F.: 5 < < < < < < < < < < 3 3 > > < < < < < 3 3 3 < < < 3 3 , d D.8 > < < < < < < < < < < 3 3 3 ",
"3 < < < < < < < < < < < 3 < @ U V.: 5 < < < < < < < < < < 3 3 < > < < < < < 3 3 3 3 < < 3 3 , d D.8 > < < < < < < < 3 < < < < < ",
"< < < < < < < < < < < < < > @ E V.: 5 < < < < < < < < < < < < < > < < < < < 3 3 3 < < < 3 3 , d D.8 > < < < < < < < < < < < < < ",
"3 3 < < < < < < < < < < < < @ E V.: 5 < < < < < < < < < 3 < < : > 3 3 3 3 3 3 3 < < < < 3 3 , d K.2 > < < < < < < < < < < < < < ",
"3 < < < < < < < < < < < < 3 @ E C.: 5 < < < < < < < < < 3 3 3 < > 3 3 3 3 3 3 3 < < < 3 3 3 , d D.2 3 3 < < < < < 3 < < < 3 < 3 ",
"3 3 < < < < 3 3 3 < < < < 3 @ E C.: 5 < < < < < 3 < < < 3 3 < > : 3 3 3 3 3 3 < 3 < < 3 3 3 , f s.2 3 3 3 < < < 3 3 3 3 3 3 3 3 ",
"3 3 < < < 3 3 3 3 < < < < 3 @ E Z.: 5 < 3 3 3 3 3 < < < < 3 < < > 3 < 3 3 3 < < 3 3 3 3 3 3 > f s.2 3 3 3 < < < < 3 < < < 3 3 3 ",
"3 3 < < 3 3 < < < < < < < 3 @ I n.> 3 3 3 < < 3 < < < < < 3 3 < > 3 < 3 3 < < 3 3 < 3 3 3 3 > y 7.1 < 3 3 3 3 < 3 3 < < < < 3 3 ",
"3 < 3 3 3 3 3 3 < < < < < 3 > 0 u 3 3 3 < 3 3 3 3 3 3 3 3 3 3 < > 3 3 3 3 3 3 3 < 3 3 3 3 3 < 3 i 3 < 3 3 3 3 3 3 3 3 < 3 3 3 3 ",
"3 3 3 3 3 < 3 3 3 < < < < 3 > 3 < 3 3 3 < 3 3 3 < 3 3 3 3 3 3 < > 3 3 3 3 3 3 3 3 3 3 3 3 3 < < 3 < 3 3 3 3 3 3 3 3 3 3 3 3 3 3 ",
"3 3 3 3 3 3 3 3 3 3 3 3 < 3 < 3 3 < 3 3 3 5 3 3 3 3 3 3 3 3 3 < < 3 3 3 3 3 3 3 3 3 3 3 3 3 3 3 3 < 3 3 3 3 3 3 3 3 3 3 3 3 3 3 ",
"3 3 3 3 < < < < < < < < < < > < < < 3 < < < < < < < < < < < 3 > > 3 3 3 3 3 3 3 < < < < < 3 < 3 3 < 3 3 < < 3 3 < < 3 3 < < 3 3 ",
"< < < < < < < < < < < < < < > > > > < < < < < < < < < < < < 5 < @ < < < < < 3 3 3 3 < 3 < 5 < > < > < < < < < 3 3 3 3 3 3 3 3 3 ",
"3 5 3 3 5 5 5 3 3 5 3 3 3 5 < 3 3 3 5 3 3 3 5 3 5 5 5 3 3 5 5 3 < 7 7 5 5 5 7 7 7 7 7 5 7 7 3 3 3 < 3 3 3 3 3 5 3 3 3 3 3 5 5 6 ",
"3 3 3 3 3 3 3 3 3 3 < 3 3 3 < 3 3 < 3 3 3 3 3 3 3 3 3 3 3 3 3 < < 3 3 3 3 3 3 3 3 3 3 3 3 3 3 3 3 > 3 3 3 3 3 3 3 3 3 3 3 3 3 3 ",
"3 3 3 3 3 3 3 3 3 3 3 3 3 3 3 3 3 < 3 3 3 3 3 3 5 3 3 3 3 5 3 < < 3 3 3 3 3 7 3 3 3 3 3 3 6 3 3 3 > 3 3 3 3 3 3 3 3 3 3 3 3 3 3 ",
"3 3 3 3 3 3 3 3 3 3 3 3 3 3 3 3 2 3 3 3 3 3 3 3 5 5 3 3 3 5 5 < > 3 3 3 3 6 7 3 3 3 3 3 3 6 3 3 3 > 3 3 3 3 3 3 3 3 3 3 3 3 3 3 "
};
