/* XPM */
static char *a42508e88ad047adaffcd4a5d72d247dAmxBb5PoZAbOvsXP[] = {
/* columns rows colors chars-per-pixel */
"64 64 175 2 ",
"   c #040404",
".  c gray6",
"X  c #1C1C16",
"o  c #191718",
"O  c #1D1C1B",
"+  c #221E1B",
"@  c #1E201C",
"#  c #24221E",
"$  c #29231E",
"%  c #26281E",
"&  c #1D1C22",
"*  c #221F20",
"=  c #221F28",
"-  c #251A38",
";  c #291E3B",
":  c #252522",
">  c #292723",
",  c #272823",
"<  c #2B2A26",
"1  c #26242A",
"2  c #28262D",
"3  c #2D2D29",
"4  c #332924",
"5  c #302E2A",
"6  c #2F302C",
"7  c #31302C",
"8  c #2B2534",
"9  c #262D36",
"0  c #2D2A33",
"q  c #2C233B",
"w  c #222D3B",
"e  c #2F2938",
"r  c #312D33",
"t  c #31273F",
"y  c #342D3C",
"u  c #2A323B",
"i  c #333233",
"p  c #3C393D",
"a  c #631E1B",
"s  c #6F1C1A",
"d  c #7D1917",
"f  c #771D1B",
"g  c #7C1B18",
"h  c #51221F",
"j  c #5F201D",
"k  c #422622",
"l  c #4C2522",
"z  c #472A26",
"x  c #532522",
"c  c #6B2220",
"v  c #2C2641",
"b  c #332644",
"n  c #352A45",
"m  c #372A48",
"M  c #293848",
"N  c #2D3C4A",
"B  c #333949",
"V  c #273D54",
"C  c #3F3056",
"Z  c #442F5E",
"A  c #463659",
"S  c #4A375C",
"D  c #4B385F",
"F  c #462F61",
"G  c #443261",
"H  c #4E3B61",
"J  c #503E64",
"K  c #553B6B",
"L  c #563A74",
"P  c #5A3D75",
"I  c #563C7C",
"U  c #5C3C7D",
"Y  c #613C7F",
"T  c #2D4459",
"R  c #344759",
"E  c #344B5E",
"W  c #2B4660",
"Q  c #2D4B64",
"!  c #2E4C6A",
"~  c #334D63",
"^  c #314D68",
"/  c #375067",
"(  c #35536C",
")  c #2F5578",
"_  c #335571",
"`  c #395975",
"'  c #31577C",
"]  c #355C7B",
"[  c #395B78",
"{  c #3A607E",
"}  c #564177",
"|  c #5E427A",
" . c #65487E",
".. c #6F6F6F",
"X. c #736F6F",
"o. c #777171",
"O. c #95110F",
"+. c #891816",
"@. c #831918",
"#. c #B50F0D",
"$. c #BA0E0D",
"%. c #A9100E",
"&. c #C30C0B",
"*. c #CA0B0A",
"=. c #DD0706",
"-. c #D50807",
";. c #D90807",
":. c #D40908",
">. c #E20605",
",. c #EC0404",
"<. c #F40202",
"1. c #FF0000",
"2. c #FF0B0B",
"3. c #FF1515",
"4. c #FF1818",
"5. c #FF2727",
"6. c #FF2B2B",
"7. c #FF3333",
"8. c #FF3939",
"9. c #FF4242",
"0. c #FF5050",
"q. c #FF5959",
"w. c #FC6B6B",
"e. c #FF7574",
"r. c #FF7B7B",
"t. c #593E81",
"y. c #633D82",
"u. c #365E80",
"i. c #3D6586",
"p. c #3B668A",
"a. c #3D6D93",
"s. c #694A8C",
"d. c #724F8D",
"f. c #6E4290",
"g. c #674B90",
"h. c #6A4C92",
"j. c #754A9A",
"k. c #754A9B",
"l. c #7C529D",
"z. c #7F589E",
"x. c #446585",
"c. c #42668B",
"v. c #446B8C",
"b. c #406E95",
"n. c #437299",
"m. c #4D7598",
"M. c #47789E",
"N. c #48799F",
"B. c #7B4BA3",
"V. c #7F56A1",
"C. c #4678A0",
"Z. c #4879A3",
"A. c #81569D",
"S. c #8458A7",
"D. c #8C62AF",
"F. c #8B62B0",
"G. c #5385AD",
"H. c #548AB3",
"J. c #909090",
"K. c gray60",
"L. c #AAAAAA",
"P. c gray74",
"I. c #C38383",
"U. c #FF8181",
"Y. c #FF8989",
"T. c #FF9C9C",
"R. c #FFA3A3",
"E. c #C0C1C0",
"W. c #FFD5D5",
"Q. c #FFDADA",
"!. c gray89",
"~. c #FFE3E3",
"^. c #F8EAEA",
"/. c #FCF2F2",
"(. c #FEFCFC",
/* pixels */
"3 3 3 3 3 3 < 3 3 3 3 3 3 3 : M ( > 3 3 < < 3 3 3 3 5 3 < < 3 < > 7 3 3 7 3 3 3 3 3 3 3 6 6 < 8 P : < 7 3 3 3 3 3 3 3 3 3 3 3 3 ",
"3 3 3 3 3 < < < < 3 < < 3 3 # T N.: 5 < < < < < 3 3 3 < < < 3 < : 7 3 3 7 3 3 3 3 3 3 3 3 6 , q j.1 < 3 3 < < 3 3 3 3 3 3 3 3 3 ",
"3 3 3 3 3 3 < < < < < < < 3 + T n.: 5 < < < < < < 3 3 < < < 3 > : 7 3 3 3 3 3 3 3 3 3 < 3 6 > q j.= , 3 3 3 < < 3 3 3 3 3 3 3 3 ",
"3 3 3 3 3 3 < < < 3 3 < < < + T n.& 3 < < < < < < 3 3 3 3 3 3 > : 7 3 3 3 3 3 3 3 3 < < 3 3 > ; j.2 > 3 3 < < < 3 3 < 3 3 < 3 3 ",
"3 3 3 < < < < < 3 3 3 < < < : W b.& 5 < < < < < < < 3 < 3 3 3 > : 7 3 3 3 3 3 3 3 < < 3 3 3 > ; j.8 : < 3 < < < < < 3 < 3 3 3 3 ",
"3 < < < < < < < < < < < < < * Q a.& 3 < < < < < < < 3 3 3 3 3 > : 7 3 3 3 3 3 3 3 3 3 3 3 3 > ; j.8 : 3 3 < < < < 3 < < 3 3 3 3 ",
"3 < < 3 < < < < < < < < < < * Q a.& 3 < < < < < < 3 3 3 3 3 3 > # 3 3 3 3 3 < 3 3 3 3 3 3 3 > ; j.8 : 3 3 < < < < 3 < 3 3 3 3 3 ",
"> > > > < < < < < < < < < > : ! p.& 3 < < < < < < 3 3 < < < 3 > # 3 3 3 3 < < < < < < 3 3 3 < - B.q # < 3 < < < < 3 3 < > < > > ",
"< 3 3 < > > : : : : : > : 3 > ^ m.o 3 3 3 3 3 3 3 3 3 3 3 3 5 < > 7 5 7 3 3 3 5 7 3 5 7 7 i > - B.q 3 < < > > > > > < > 3 3 3 3 ",
"> + # # # O O O O O O O O : 3 w Z.x.& + O X X X X : : : : : > # O > : : > > > # X X X O @ @ - j.I 2 , @ X X X X X X X X X X X : ",
"N x.x.c.c.c.p.c.c.c.c.c.c.v.M 1 w Z.m.` ] [ [ ] ~ 1 > > > > : # O > : : : : > e L P P P P U S.U 8 8 L y.Y y.y.y.y.t.U U U U | n ",
"M ^ ^ ^ ! ! ! ! ! ! ! ^ ^ ] H.V 3 u _ ' ' ' ) ] ~ > < > > > < : # < : < < < > e L I I I I U Z 8 8 f.j.Z F F Z Z Z Z Z Z G G S r ",
": # # # + + # > > > : : : + V G.M 3 + O O O X o X # O.1.1.1.1.1.1.1.1.1.1.O.: # X O O O # # 3 8 f.d.& , : % # # % % # # # # # > ",
"3 3 3 3 3 3 3 3 3 3 3 3 3 7 + ] v.& < 3 3 3 z f g d &.1.1.1.1.1.1.1.1.1.1.&.g g f z 7 7 7 7 , b S.8 3 3 3 3 3 3 3 3 3 3 3 3 3 3 ",
"< < < < < < < < < < < < < 3 : _ p.& 3 < < < s ;.,.,.<.1.1.1.1.1.1.1.1.1.1.<.,.,.;.s < < < 3 > b j.e 7 3 3 < < < < < < < < 3 3 3 ",
"< < < < < < < < < < < < < 3 + _ p.& 3 < k g #.<.1.1.1.1.1.1.1.1.1.1.1.1.1.1.1.1.<.#.g k < 3 : b j.e 7 3 3 < < < < < 3 3 3 3 < < ",
"< < < < < < < < < < < < < 3 # _ p.& < < a -.1.1.1.1.1.1.1.1.1.1.1.1.1.1.1.1.1.1.1.1.-.a < < : b j.8 6 3 < < < < < 3 3 3 < < < < ",
"< < < < < < < < < < < < < 3 # ( p.& k d $.,.1.1.1.1.1.1.1.1.1.1.1.1.1.1.1.1.1.1.1.1.,.$.d k # b j.8 3 3 < < < < > < 3 < < < , < ",
"< < < < < < < : < < > : < 3 + ^ p.+ h &.1.1.1.1.2.4.4.4.2.1.1.1.1.1.1.2.4.4.4.2.1.1.1.1.&.x # n j.1 3 < < < < < < < < < < < < < ",
"< < < < < < < < < < < : > < : u N > h &.1.1.1.1.9.T.R.T.9.1.1.1.1.1.1.9.T.R.T.9.1.1.1.1.&.x : 0 A > < < < < < > < < < < < < < < ",
"< < < < < < < < < < < > < < > > > > h &.1.1.3.5.Y.(.(./.U.5.2.1.1.2.5.U./.(.(.Y.5.3.1.1.&.h > > > < 3 < < < > > < < < < < < < < ",
"3 < < < < < < < > < < < < < : > < > h &.1.1.9.R.W.(.(.(.W.T.8.1.1.8.T.W.(.(.(.W.R.9.1.1.&.x > > > > 3 < < < > , < < < 3 < < < < ",
"3 3 < < < < < < < < < < < < : : > a d :.1.1.q.~.!.P.P.E.!.Q.0.1.1.0.Q.!.E.P.P.!.~.q.1.1.:.@.a > > > 3 < < < < > < < < < < > < 3 ",
"3 3 < < < < < < < < < < < < : : > -.=.<.1.1.q.~.L.p i p L.Q.0.1.1.0.Q.L.p i i L.~.q.1.1.<.=.-.> > > 3 3 < < < < < < < < < < < 3 ",
"3 3 < < < < < < < < < < < < > : > 1.1.1.1.1.q.~.J.    . K.Q.0.1.1.0.Q.K..     J.~.q.1.1.1.1.1.> : > < < < < < < < < < < < < < 3 ",
"3 3 3 3 3 3 < 3 < < 3 < < < > > > 1.1.1.1.1.q.~.J.    . K.Q.0.1.1.0.Q.K..     J.~.q.1.1.1.1.1.> > # < 3 < < < 3 3 3 3 3 3 3 3 3 ",
"> > > > > > > > > > < : : > # < > 1.1.1.1.1.7.U.I.X...o.I.r.6.1.1.6.r.I.o...X.I.U.7.1.1.1.1.1.> > 3 : > > > > > > > > > > > > > ",
"> > > > : : : : : : : : : > # < : 1.1.1.1.1.1.1.w./.(.^.w.1.1.1.1.1.1.w.^.(./.w.1.1.1.1.1.1.1.> > < # > > > > > : : : : : : : : ",
"3 3 3 < < < < < < < < < < 3 > > > 1.1.1.1.1.1.1.8.r.r.e.7.1.1.1.1.1.1.7.e.r.r.8.1.1.1.1.1.1.1.: , > < < < < < < 3 3 < < 3 3 3 < ",
"3 3 < < < < < < < < < < < < < > > 1.1.1.1.1.1.1.1.1.1.1.1.1.1.1.1.1.1.1.1.1.1.1.1.1.1.1.1.1.1.: > > < < < < < < < < < < < < < < ",
"3 3 3 < < < < < < < < < < < < > > 1.1.1.1.1.1.1.1.1.1.1.1.1.1.1.1.1.1.1.1.1.1.1.1.1.1.1.1.1.1.> : > < < < < < < < < 3 3 3 < < 3 ",
"3 3 < < < < < < < < < < < < < > > 1.1.1.1.1.1.1.1.1.1.1.1.1.1.1.1.1.1.1.1.1.1.1.1.1.1.1.1.1.1.> > > < < < < < < < < 3 3 3 < < < ",
"3 3 < < < < < < < < < < < < > > < 1.1.1.1.1.1.1.1.1.1.1.1.1.1.1.1.1.1.1.1.1.1.1.1.1.1.1.1.1.1., > > 3 < < < < < < < < 3 3 3 < < ",
"3 3 < < < < < < < < < < < < < > > 1.1.1.1.1.1.1.1.1.1.1.1.1.1.1.1.1.1.1.1.1.1.1.1.1.1.1.1.1.1., > < 3 < < < < < < < < < < < < < ",
"< 3 < < < < < < < < < < < 3 : N R 1.1.1.1.1.1.1.1.1.1.1.1.1.1.1.1.1.1.1.1.1.1.1.1.1.1.1.1.1.1.0 K 0 3 < < < < < < < < < < < < < ",
"< < < < < < < < < < < < < 3 + ` v.1.1.1.1.1.1.1.1.1.1.1.1.1.1.1.1.1.1.1.1.1.1.1.1.1.1.1.1.1.1.y A.e 3 3 < < < < < < < < < < < < ",
"< < < < < < < < < < < < < 3 # ` i.1.1.1.1.1.1.1.1.1.1.1.1.1.1.1.1.1.1.1.1.1.1.1.1.1.1.1.1.1.1.b l.e 3 3 < < < < < < < < < < < < ",
"< < < < < < < < < < < < < 3 + ` p.1.1.1.,.$.*.<.1.1.1.1.1.<.&.%.%.&.<.1.1.1.1.1.<.*.$.,.1.1.1.b l.0 3 3 < < < < < < < < < < < < ",
"< < < < < < < < < < < < < 3 + ` p.1.1.1.*.j d ,.1.1.1.1.1.>.f 4 4 f >.1.1.1.1.1.,.d j *.1.1.1.n l.8 3 3 < < < < < < < < < < 3 3 ",
"< 3 < 3 3 < < < < < < < < 3 # ( p.1.,.#.g k h +.&.1.1.<.&.+.l : > l +.&.<.1.1.&.+.x k g #.,.1.m l.8 3 3 3 < < < 3 < < 3 3 3 3 < ",
"3 3 3 < < 3 3 3 3 3 3 3 3 6 O ] x.1.;.c 3 3 3 3 +.<.1.<.@.< 3 < > 3 3 @.<.1.<.+.3 3 3 3 c ;.1.n S.t r i 5 3 3 3 3 3 3 3 3 3 3 < ",
": + + + + + # + # # # + : + W H.N 5 $ + + + + X + : : > : : : > # > > > > > > # X X X X O @ < r s.S.8 > # # # # # # X O @ # # > ",
"B / ^ ^ ^ Q Q Q Q Q ~ ^ ^ { H.V > 9 / _ _ _ _ ` E 3 3 < < < 3 < > 3 < < < < < y  .| | | |  .H 0 r j.A.S D S S D D H H J J J H y ",
"E b.b.a.a.a.a.b.b.b.b.b.b.v.N > w Z.n.] u.] ] i.~ 3 < > < < < : # < < < < < > y } } I I U t.F.| 0 y  .j.h.g.h.h.h.h.h.g.g.g.s.m ",
"< > > 1 > : : : : : : : : > 5 9 N.i.& : : : # # $ < < < < < < : > < < < < < < > % # # > > > v D.K i 7 > : : : : : : : : > < , 3 ",
"3 3 3 3 < < < < < < < < < 3 > E G.& 5 3 3 3 3 3 3 < 3 3 3 < 3 < < 3 3 3 3 3 3 3 3 3 3 7 5 7 > C S.8 3 : < < < < < < < > 3 3 3 < ",
"< < > < < < < < 3 3 < 3 3 > : E M.: 5 < < < < < < < < < < < < < > 3 < < < < 3 < < < < < 3 3 < n V.e > < < < < < < < 3 < < < 3 3 ",
"3 3 3 3 < < < < < < < < 3 > # E C.: 5 < < < < < < < < < < 3 3 > > < < < < < 3 3 3 < < < 3 3 , n V.8 > < < < < < < < < < < 3 3 3 ",
"3 < < < < < < < < < < < 3 < # E M.: 5 < < < < < < < < < < 3 3 < > < < < < < 3 3 3 3 < < 3 3 , n V.8 > < < < < < < < 3 < < < < < ",
"< < < < < < < < < < < < < > # ~ M.: 5 < < < < < < < < < < < < < > < < < < < 3 3 3 < < < 3 3 , n V.8 > < < < < < < < < < < < < < ",
"3 3 < < < < < < < < < < < < # ~ M.: 5 < < < < < < < < < 3 < < : > 3 3 3 3 3 3 3 < < < < 3 3 , n S.2 > < < < < < < < < < < < < < ",
"3 < < < < < < < < < < < < 3 # ~ N.: 5 < < < < < < < < < 3 3 3 < > 3 3 3 3 3 3 3 < < < 3 3 3 , n V.2 3 3 < < < < < 3 < < < 3 < 3 ",
"3 3 < < < < 3 3 3 < < < < 3 # ~ N.: 5 < < < < < 3 < < < 3 3 < > : 3 3 3 3 3 3 < 3 < < 3 3 3 , m z.2 3 3 3 < < < 3 3 3 3 3 3 3 3 ",
"3 3 < < < 3 3 3 3 < < < < 3 # ~ N.: 5 < 3 3 3 3 3 < < < < 3 < < > 3 < 3 3 3 < < 3 3 3 3 3 3 > m z.2 3 3 3 < < < < 3 < < < 3 3 3 ",
"3 3 < < 3 3 < < < < < < < 3 # R m.> 3 3 3 < < 3 < < < < < 3 3 < > 3 < 3 3 < < 3 3 < 3 3 3 3 > y d.1 < 3 3 3 3 < 3 3 < < < < 3 3 ",
"3 < 3 3 3 3 3 3 < < < < < 3 > 0 u 3 3 3 < 3 3 3 3 3 3 3 3 3 3 < > 3 3 3 3 3 3 3 < 3 3 3 3 3 < 3 i 3 < 3 3 3 3 3 3 3 3 < 3 3 3 3 ",
"3 3 3 3 3 < 3 3 3 < < < < 3 > 3 < 3 3 3 < 3 3 3 < 3 3 3 3 3 3 < > 3 3 3 3 3 3 3 3 3 3 3 3 3 < < 3 < 3 3 3 3 3 3 3 3 3 3 3 3 3 3 ",
"3 3 3 3 3 3 3 3 3 3 3 3 < 3 < 3 3 < 3 3 3 5 3 3 3 3 3 3 3 3 3 < < 3 3 3 3 3 3 3 3 3 3 3 3 3 3 3 3 < 3 3 3 3 3 3 3 3 3 3 3 3 3 3 ",
"3 3 3 3 < < < < < < < < < < > < < < 3 < < < < < < < < < < < 3 > > 3 3 3 3 3 3 3 < < < < < 3 < 3 3 < 3 3 < < 3 3 < < 3 3 < < 3 3 ",
"< < < < < < < < < < < < < < > > > > < < < < < < < < < < < < 5 < # < < < < < 3 3 3 3 < 3 < 5 < > < > < < < < < 3 3 3 3 3 3 3 3 3 ",
"3 5 3 3 5 5 5 3 3 5 3 3 3 5 < 3 3 3 5 3 3 3 5 3 5 5 5 3 3 5 5 3 < 7 7 5 5 5 7 7 7 7 7 5 7 7 3 3 3 < 3 3 3 3 3 5 3 3 3 3 3 5 5 6 ",
"3 3 3 3 3 3 3 3 3 3 < 3 3 3 < 3 3 < 3 3 3 3 3 3 3 3 3 3 3 3 3 < < 3 3 3 3 3 3 3 3 3 3 3 3 3 3 3 3 > 3 3 3 3 3 3 3 3 3 3 3 3 3 3 ",
"3 3 3 3 3 3 3 3 3 3 3 3 3 3 3 3 3 < 3 3 3 3 3 3 5 3 3 3 3 5 3 < < 3 3 3 3 3 7 3 3 3 3 3 3 6 3 3 3 > 3 3 3 3 3 3 3 3 3 3 3 3 3 3 ",
"3 3 3 3 3 3 3 3 3 3 3 3 3 3 3 3 2 3 3 3 3 3 3 3 5 5 3 3 3 5 5 < > 3 3 3 3 6 7 3 3 3 3 3 3 6 3 3 3 > 3 3 3 3 3 3 3 3 3 3 3 3 3 3 "
};
