/* XPM */
static char *_85e4ffb82dc4a9e8fe4f3f85d10b53eVYwc4lLo6DwZHE8g[] = {
/* columns rows colors chars-per-pixel */
"64 64 172 2 ",
"   c #1C1C16",
".  c #191718",
"X  c #1D1C1B",
"o  c #221E1B",
"O  c #1E201C",
"+  c #24221E",
"@  c #29231E",
"#  c #26281E",
"$  c #1D1C22",
"%  c #221F20",
"&  c #221F28",
"*  c #251A38",
"=  c #291E3B",
"-  c #252522",
";  c #292723",
":  c #272823",
">  c #2B2A26",
",  c #26242A",
"<  c #28262D",
"1  c #2D2D29",
"2  c #312D27",
"3  c #302E2A",
"4  c #2F302C",
"5  c #31302C",
"6  c #2B2534",
"7  c #262D37",
"8  c #2B2A33",
"9  c #2C233B",
"0  c #252A3C",
"q  c #2D2A3A",
"w  c #312D33",
"e  c #31273F",
"r  c #342D3C",
"t  c #2A323B",
"y  c #323032",
"u  c #37303A",
"i  c #282643",
"p  c #252846",
"a  c #25294C",
"s  c #332644",
"d  c #352A45",
"f  c #372A48",
"g  c #293848",
"h  c #2D3C4A",
"j  c #333949",
"k  c #242957",
"l  c #273D54",
"z  c #3F3056",
"x  c #1F2662",
"c  c #1C2675",
"v  c #18247D",
"b  c #212964",
"n  c #222A6D",
"m  c #442F5E",
"M  c #463659",
"N  c #4A375C",
"B  c #4B385F",
"V  c #462F61",
"C  c #453261",
"Z  c #4E3B61",
"A  c #503E64",
"S  c #553B6A",
"D  c #563A74",
"F  c #5A3D75",
"G  c #563C7C",
"H  c #5C3C7D",
"J  c #613C7F",
"K  c #2D4459",
"L  c #344759",
"P  c #344B5E",
"I  c #2B4660",
"U  c #2D4B64",
"Y  c #2E4C6A",
"T  c #334D63",
"R  c #314D68",
"E  c #375067",
"W  c #35536C",
"Q  c #2F5578",
"!  c #335571",
"~  c #395975",
"^  c #31577C",
"/  c #355C7B",
"(  c #3A607E",
")  c #564277",
"_  c #5E427A",
"`  c #65487E",
"'  c #192581",
"]  c #15238E",
"[  c #1B288B",
"{  c #152494",
"}  c #152599",
"|  c #1223A6",
" . c #1224A8",
".. c #0F22B6",
"X. c #0D22BC",
"o. c #593E81",
"O. c #633D82",
"+. c #365E80",
"@. c #3D6586",
"#. c #3B668A",
"$. c #3D6D93",
"%. c #694A8C",
"&. c #71498F",
"*. c #72548B",
"=. c #6E4290",
"-. c #674B90",
";. c #6A4C92",
":. c #754A9A",
">. c #754A9B",
",. c #7C529D",
"<. c #7E599E",
"1. c #446585",
"2. c #42668B",
"3. c #446B8D",
"4. c #416E95",
"5. c #437299",
"6. c #4D7598",
"7. c #47789E",
"8. c #48799F",
"9. c #7B4BA3",
"0. c #7F56A1",
"q. c #4678A0",
"w. c #4879A3",
"e. c #0B21C6",
"r. c #0B21CB",
"t. c #0820D7",
"y. c #0721DF",
"u. c #0820D9",
"i. c #051FE4",
"p. c #041FEC",
"a. c #021EF5",
"s. c #001EFF",
"d. c #0620E1",
"f. c #0420EC",
"g. c #0422FF",
"h. c #0926FF",
"j. c #132FFF",
"k. c #1B36FF",
"l. c #1E38FF",
"z. c #223CFF",
"x. c #2942FF",
"c. c #2F48FF",
"v. c #344CFF",
"b. c #3B53FF",
"n. c #4157FF",
"m. c #4B60FF",
"M. c #5267FF",
"N. c #596CFF",
"B. c #5E71FF",
"V. c #6476FF",
"C. c #697AFF",
"Z. c #81569D",
"A. c #8558A7",
"S. c #8C62AF",
"D. c #8B62B0",
"F. c #5385AD",
"G. c #548AB3",
"H. c #7484FF",
"J. c #7C8BFF",
"K. c #808FFF",
"L. c #8190FF",
"P. c #8896FF",
"I. c #909DFF",
"U. c #95A2FF",
"Y. c #A1ACFF",
"T. c #ADB6FF",
"R. c #C6CDFF",
"E. c #D6DBFF",
"W. c #DEE2FF",
"Q. c #E0E4FF",
"!. c #F4F5FF",
"~. c white",
/* pixels */
"1 1 1 1 1 1 > 1 1 1 1 1 1 1 - g W ; 1 1 > > 1 1 1 1 3 1 > > 1 > ; 5 1 1 5 1 1 1 1 1 1 1 4 4 > 6 F - > 5 1 1 1 1 1 1 1 1 1 1 1 1 ",
"1 1 1 1 1 > > > > 1 > > 1 1 + K 8.- 3 > > > > > 1 1 1 > > > 1 > - 5 1 1 5 1 1 1 1 1 1 1 1 4 : 9 :., > 1 1 > > 1 1 1 1 1 1 1 1 1 ",
"1 1 1 1 1 1 > > > > > > > 1 o K 5.- 3 > > > > > > 1 1 > > > 1 ; - 5 1 1 1 1 1 1 1 1 1 > 1 4 ; 9 :.& : 1 1 1 > > 1 1 1 1 1 1 1 1 ",
"1 1 1 1 1 1 > > > 1 1 > > > o K 5.$ 1 > > > > > > 1 1 1 1 1 1 ; - 5 1 1 1 1 1 1 1 1 > > 1 1 ; = :.< ; 1 1 > > > 1 1 > 1 1 > 1 1 ",
"1 1 1 > > > > > 1 1 1 > > > - I 4.$ 3 > > > > > > > 1 > 1 1 1 ; - 5 1 1 1 1 1 1 1 > > 1 1 1 ; = :.6 - > 1 > > > > > 1 > 1 1 1 1 ",
"1 > > > > > > > > > > > > > % U $.$ 1 > > > > > > > 1 1 1 1 1 ; - 5 1 1 1 1 1 1 1 1 1 1 1 1 ; = :.6 - 1 1 > > > > 1 > > 1 1 1 1 ",
"1 > > 1 > > > > > > > > > > % U $.$ 1 > > > > > > 1 1 1 1 1 1 ; + 1 1 1 1 1 > 1 1 1 1 1 1 1 ; = :.6 - 1 1 > > > > 1 > 1 1 1 1 1 ",
"; ; ; ; > > > > > > > > > ; - Y #.$ 1 > > > > > > 1 1 > > > 1 ; + 1 1 1 1 > > > > > > 1 1 1 > * 9.9 + > 1 > > > > 1 1 > ; > ; ; ",
"> 1 1 > ; ; - - - - - ; - 1 ; R 6.. 1 1 1 1 1 1 1 1 1 1 1 1 3 > ; 5 3 5 1 1 1 3 5 1 3 5 5 y ; * 9.9 1 > > ; ; ; ; ; > ; 1 1 1 1 ",
"; o + + + X X X X X X X X - 1 0 w.1.$ o X         - - - - - ; + X ; - - ; ; ; +       X O O * :.G < : O                       - ",
"h 1.1.2.2.2.#.2.2.2.2.2.2.3.g , 0 w.6.~ / / / / T , ; ; ; ; - + X ; - - - - ; q D F F F F H A.H 6 6 D O.J O.O.O.O.o.H H H H _ d ",
"g R R R Y Y Y Y Y Y Y R R / G.l 1 t ! ^ ^ ^ Q / T ; > ; ; ; > - + > - > > > ; q D G G G G H m 6 6 =.:.m V V m m m m m m C C N w ",
"- + + + o o + ; ; ; - - - o l F.g 1 o X X X   .   + ] s.s.s.s.s.s.s.s.s.s.] - +   X X X + + 1 6 =.&.$ : : # + + # # + + + + + ; ",
"1 1 1 1 1 1 1 1 1 1 1 1 1 5 o / 3.$ > 1 1 1 a [ } { r.s.s.s.s.s.s.s.s.s.s.r.} } [ a 5 5 5 5 : s A.6 1 1 1 1 1 1 1 1 1 1 1 1 1 1 ",
"> > > > > > > > > > > > > 1 - ! #.$ 1 > > 8 c i.s.s.s.s.s.s.s.s.s.s.s.s.s.s.s.s.i.c 8 > > 1 ; s :.q 5 1 1 > > > > > > > > 1 1 1 ",
"> > > > > > > > > > > > > 1 o ! #.$ 1 > p ] e.a.s.s.s.s.s.s.s.s.s.s.s.s.s.s.s.s.a.e.] p > 1 - s :.q 5 1 1 > > > > > 1 1 1 1 > > ",
"> > > > > > > > > > > > > 1 + ! #.$ > 0 c t.s.s.s.s.s.s.s.s.s.s.s.s.s.s.s.s.s.s.s.s.u.c 0 > - s :.6 4 1 > > > > > 1 1 1 > > > > ",
"> > > > > > > > > > > > > 1 + W #.$ 0 ] r.a.s.s.s.s.s.s.s.s.s.s.s.s.s.s.s.s.s.s.s.s.a.r.] 0 + s :.6 1 1 > > > > ; > 1 > > > : > ",
"> > > > > > > - > > ; - > 1 o R #.o p X.s.s.s.s.s.s.s.s.s.s.s.s.s.s.s.s.s.s.s.s.s.s.s.s.X.a + d :., 1 > > > > > > > > > > > > > ",
"> > > > > > > > > > > - ; > - t h ; p X.s.s.s.s.s.s.s.s.s.s.s.s.s.s.s.s.s.s.s.s.s.s.s.s.X.a - 8 M ; > > > > > ; > > > > > > > > ",
"> > > > > > > > > > > ; > > ; ; ; ; p X.s.s.s.s.z.M.N.M.z.s.s.s.s.s.s.z.M.N.M.z.s.s.s.s.X.p ; ; ; > 1 > > > ; ; > > > > > > > > ",
"1 > > > > > > > ; > > > > > - ; > ; p X.s.s.s.s.B.E.Q.E.N.s.s.s.s.s.s.N.E.Q.E.B.s.s.s.s.X.a ; ; ; ; 1 > > > ; : > > > 1 > > > > ",
"1 1 > > > > > > > > > > > > - - ; ' { u.s.s.s.s.C.!.~.!.C.s.s.s.s.s.s.C.!.~.!.C.s.s.s.s.u.{ ' ; ; ; 1 > > > > ; > > > > > ; > 1 ",
"1 1 > > > > > > > > > > > > - - ; a.a.s.s.s.s.s.C.!.~.!.C.s.s.s.s.s.s.C.!.~.!.C.s.s.s.s.s.a.a.; ; ; 1 1 > > > > > > > > > > > 1 ",
"1 1 > > > > > > > > > > > > ; - ; s.s.s.s.s.s.s.v.J.J.H.v.s.s.s.s.s.s.v.H.J.J.v.s.s.s.s.s.s.s.; - ; > > > > > > > > > > > > > 1 ",
"1 1 1 1 1 1 > 1 > > 1 > > > ; ; ; s.s.s.s.s.s.s.s.s.s.s.s.s.s.s.s.s.s.s.s.s.s.s.s.s.s.s.s.s.s.; ; + > 1 > > > 1 1 1 1 1 1 1 1 1 ",
"; ; ; ; ; ; ; ; ; ; > - - ; + > ; s.s.s.s.s.s.s.s.s.s.s.s.s.s.s.s.s.s.s.s.s.s.s.s.s.s.s.s.s.s.; ; 1 - ; ; ; ; ; ; ; ; ; ; ; ; ; ",
"; ; ; ; - - - - - - - - - ; + > - s.s.s.s.s.s.s.s.s.s.s.s.s.s.s.s.s.s.s.s.s.s.s.s.s.s.s.s.s.s.; ; > + ; ; ; ; ; - - - - - - - - ",
"1 1 1 > > > > > > > > > > 1 ; ; ; s.s.s.s.s.s.s.s.s.s.s.s.s.s.s.s.s.s.s.s.s.s.s.s.s.s.s.s.s.s.- : ; > > > > > > 1 1 > > 1 1 1 > ",
"1 1 > > > > > > > > > > > > > ; ; s.s.s.s.s.j.v.b.b.l.s.s.h.x.b.b.x.h.s.s.l.b.b.v.j.s.s.s.s.s.- ; ; > > > > > > > > > > > > > > ",
"1 1 1 > > > > > > > > > > > > ; ; s.s.s.s.s.n.T.R.R.V.s.s.k.P.R.R.P.k.s.s.V.R.R.T.n.s.s.s.s.s.; - ; > > > > > > > > 1 1 1 > > 1 ",
"1 1 > > > > > > > > > > > > > ; ; s.s.s.j.n.H.Y.T.T.J.M.M.B.I.T.T.I.B.M.M.J.T.T.Y.H.n.j.s.s.s.; ; ; > > > > > > > > 1 1 1 > > > ",
"1 1 > > > > > > > > > > > > ; ; > s.s.s.v.T.Y.b.z.z.K.W.W.R.B.z.z.B.R.W.W.K.z.z.b.Y.T.v.s.s.s.: ; ; 1 > > > > > > > > 1 1 1 > > ",
"1 1 > > > > > > > > > > > > > ; ; s.s.s.z.H.V.j.s.s.m.U.U.L.c.s.s.c.L.U.U.m.s.s.j.V.H.z.s.s.s.: ; > 1 > > > > > > > > > > > > > ",
"> 1 > > > > > > > > > > > 1 - h L s.s.s.g.h.h.s.s.s.g.h.h.h.g.s.s.g.h.h.h.g.s.s.s.h.h.g.s.s.s.8 S 8 1 > > > > > > > > > > > > > ",
"> > > > > > > > > > > > > 1 o ~ 3.s.s.s.s.s.s.s.s.s.s.s.s.s.s.s.s.s.s.s.s.s.s.s.s.s.s.s.s.s.s.r Z.q 1 1 > > > > > > > > > > > > ",
"> > > > > > > > > > > > > 1 + ~ @.s.s.s.s.a.a.s.s.s.s.s.s.s.a.a.a.a.s.s.s.s.s.s.s.a.a.s.s.s.s.s ,.q 1 1 > > > > > > > > > > > > ",
"> > > > > > > > > > > > > 1 o ~ #.s.s.s.d.}  .p.s.s.s.s.s.f. .v v  .p.s.s.s.s.s.p. .} i.s.s.s.s ,.8 1 1 > > > > > > > > > > > > ",
"> > > > > > > > > > > > > 1 o ~ #.s.a.p...a x r.p.s.s.s.p.r.b - ; b r.p.s.s.s.f.r.x a ..p.a.s.d ,.6 1 1 > > > > > > > > > > 1 1 ",
"> 1 > 1 1 > > > > > > > > 1 + W #.s.p.} k 8 0 x  .a.s.a.| x 0 - ; 0 x | a.s.a. .b 0 8 k } f.s.f ,.6 1 1 1 > > > 1 > > 1 1 1 1 > ",
"1 1 1 > > 1 1 1 1 1 1 1 1 4 X / 1.s.y.n 1 1 1 1 ' a.s.a.v > 1 > ; 1 1 ' a.s.a.' 1 1 1 1 n y.s.d A.e w y 3 1 1 1 1 1 1 1 1 1 1 > ",
"- o o o o o + o + + + o - o I G.h 2 @ o o o o   o - - ; - - - ; + ; ; ; ; ; ; +         X O > w %.A.6 ; + + + + + +   X O + + ; ",
"j E R R R U U U U U T R R ( G.l ; 7 E ! ! ! ! ~ P 1 1 > > > 1 > ; 1 > > > > > r ` _ _ _ _ ` Z 8 w :.Z.N B N N B B Z Z A A A Z r ",
"P 4.4.$.$.$.$.4.4.4.4.4.4.3.h ; 0 w.5./ +./ / @.T 1 > ; > > > - + > > > > > ; r ) ) G G H o.D._ 8 u ` :.;.-.;.;.;.;.;.-.-.-.%.f ",
"> ; ; , ; - - - - - - - - ; 3 7 8.@.$ - - - + + @ > > > > > > - ; > > > > > > ; # + + ; ; ; i S.S y 5 ; - - - - - - - - ; > : 1 ",
"1 1 1 1 > > > > > > > > > 1 ; P F.$ 2 1 1 1 1 1 1 > 1 1 1 > 1 > > 1 1 1 1 1 1 1 1 1 1 5 3 5 ; z A.6 1 - > > > > > > > ; 1 1 1 > ",
"> > ; > > > > > 1 1 > 1 1 ; - P 7.- 3 > > > > > > > > > > > > > ; 1 > > > > 1 > > > > > 1 1 > d 0.q ; > > > > > > > 1 > > > 1 1 ",
"1 1 1 1 > > > > > > > > 1 ; + P q.- 3 > > > > > > > > > > 1 1 ; ; > > > > > 1 1 1 > > > 1 1 : d 0.6 ; > > > > > > > > > > 1 1 1 ",
"1 > > > > > > > > > > > 1 > + P 7.- 3 > > > > > > > > > > 1 1 > ; > > > > > 1 1 1 1 > > 1 1 : d 0.6 ; > > > > > > > 1 > > > > > ",
"> > > > > > > > > > > > > ; + T 7.- 3 > > > > > > > > > > > > > ; > > > > > 1 1 1 > > > 1 1 : d 0.6 ; > > > > > > > > > > > > > ",
"1 1 > > > > > > > > > > > > + T 7.- 3 > > > > > > > > > 1 > > - ; 1 1 1 1 1 1 1 > > > > 1 1 : d A.< ; > > > > > > > > > > > > > ",
"1 > > > > > > > > > > > > 1 + T 8.- 3 > > > > > > > > > 1 1 1 > ; 1 1 1 1 1 1 1 > > > 1 1 1 : d 0.< 1 1 > > > > > 1 > > > 1 > 1 ",
"1 1 > > > > 1 1 1 > > > > 1 + T 8.- 3 > > > > > 1 > > > 1 1 > ; - 1 1 1 1 1 1 > 1 > > 1 1 1 : f <.< 1 1 1 > > > 1 1 1 1 1 1 1 1 ",
"1 1 > > > 1 1 1 1 > > > > 1 + T 8.- 3 > 1 1 1 1 1 > > > > 1 > > ; 1 > 1 1 1 > > 1 1 1 1 1 1 ; f <.< 1 1 1 > > > > 1 > > > 1 1 1 ",
"1 1 > > 1 1 > > > > > > > 1 + L 6.; 1 1 1 > > 1 > > > > > 1 1 > ; 1 > 1 1 > > 1 1 > 1 1 1 1 ; r *., > 1 1 1 1 > 1 1 > > > > 1 1 ",
"1 > 1 1 1 1 1 1 > > > > > 1 ; 8 t 1 1 1 > 1 1 1 1 1 1 1 1 1 1 > ; 1 1 1 1 1 1 1 > 1 1 1 1 1 > 1 y 1 > 1 1 1 1 1 1 1 1 > 1 1 1 1 ",
"1 1 1 1 1 > 1 1 1 > > > > 1 ; 1 > 1 1 1 > 1 1 1 > 1 1 1 1 1 1 > ; 1 1 1 1 1 1 1 1 1 1 1 1 1 > > 1 > 1 1 1 1 1 1 1 1 1 1 1 1 1 1 ",
"1 1 1 1 1 1 1 1 1 1 1 1 > 1 > 1 1 > 1 1 1 3 1 1 1 1 1 1 1 1 1 > > 1 1 1 1 1 1 1 1 1 1 1 1 1 1 1 1 > 1 1 1 1 1 1 1 1 1 1 1 1 1 1 ",
"1 1 1 1 > > > > > > > > > > ; > > > 1 > > > > > > > > > > > 1 ; ; 1 1 1 1 1 1 1 > > > > > 1 > 1 1 > 1 1 > > 1 1 > > 1 1 > > 1 1 ",
"> > > > > > > > > > > > > > ; ; ; ; > > > > > > > > > > > > 3 > + > > > > > 1 1 1 1 > 1 > 3 > ; > ; > > > > > 1 1 1 1 1 1 1 1 1 ",
"1 3 1 1 3 3 3 1 1 3 1 1 1 3 > 1 1 1 3 1 1 1 3 1 3 3 3 1 1 3 3 1 > 5 5 3 3 3 5 5 5 5 5 3 5 5 1 1 1 > 1 1 1 1 1 3 1 1 1 1 1 3 3 4 ",
"1 1 1 1 1 1 1 1 1 1 > 1 1 1 > 1 1 > 1 1 1 1 1 1 1 1 1 1 1 1 1 > > 1 1 1 1 1 1 1 1 1 1 1 1 1 1 1 1 ; 1 1 1 1 1 1 1 1 1 1 1 1 1 1 ",
"1 1 1 1 1 1 1 1 1 1 1 1 1 1 1 1 1 > 1 1 1 1 1 1 3 1 1 1 1 3 1 > > 1 1 1 1 1 5 1 1 1 1 1 1 4 1 1 1 ; 1 1 1 1 1 1 1 1 1 1 1 1 1 1 ",
"1 1 1 1 1 1 1 1 1 1 1 1 1 1 1 1 < 1 1 1 1 1 1 1 3 3 1 1 1 3 3 > ; 1 1 1 1 4 5 1 1 1 1 1 1 4 1 1 1 ; 1 1 1 1 1 1 1 1 1 1 1 1 1 1 "
};
