/* XPM */
static char *b85cf2c52e434234ad9ebf08880675bdR0PDqzCN4gYPIEt1[] = {
/* columns rows colors chars-per-pixel */
"64 64 172 2 ",
"   c #000000",
".  c #1C1C16",
"X  c #16161C",
"o  c #1D1C1B",
"O  c #221E1B",
"+  c #1E201C",
"@  c #24221E",
"#  c #29231E",
"$  c #26281E",
"%  c #1D1C22",
"&  c #221F20",
"*  c #221F28",
"=  c #251A38",
"-  c #291E3B",
";  c #252522",
":  c #292723",
">  c #272823",
",  c #2B2A26",
"<  c #26242A",
"1  c #28262D",
"2  c #2D2D29",
"3  c #352A2A",
"4  c #302E2A",
"5  c #2F302C",
"6  c #31302C",
"7  c #2B2534",
"8  c #262D37",
"9  c #2D2A33",
"0  c #2C233B",
"q  c #222D3B",
"w  c #2F2938",
"e  c #312D33",
"r  c #3C2D32",
"t  c #342D3C",
"y  c #2A323B",
"u  c #323032",
"i  c #393031",
"p  c #3A363B",
"a  c #413237",
"s  c #4C313E",
"d  c #2D2641",
"f  c #332644",
"g  c #352A45",
"h  c #372B48",
"j  c #293848",
"k  c #2D3C4A",
"l  c #333949",
"z  c #273D54",
"x  c #3F3056",
"c  c #5E2C46",
"v  c #4E3441",
"b  c #442F5E",
"n  c #463659",
"m  c #4A375C",
"M  c #4B385F",
"N  c #64314C",
"B  c #683752",
"V  c #723658",
"C  c #743B5B",
"Z  c #462F61",
"A  c #443261",
"S  c #4E3B61",
"D  c #503E64",
"F  c #553B6A",
"G  c #563A74",
"H  c #5A3D75",
"J  c #563C7C",
"K  c #5C3C7D",
"L  c #7C3C61",
"P  c #613C7F",
"I  c #2D4459",
"U  c #344759",
"Y  c #344B5E",
"T  c #2B4660",
"R  c #2D4B64",
"E  c #2E4C6A",
"W  c #334D63",
"Q  c #314D68",
"!  c #375067",
"~  c #35536C",
"^  c #2F5578",
"/  c #335571",
"(  c #395975",
")  c #31577C",
"_  c #355C7B",
"`  c #3A607E",
"'  c #564177",
"]  c #5E427B",
"[  c #62467C",
"{  c #66497F",
"}  c #747474",
"|  c #833D65",
" . c #853F68",
".. c #883F69",
"X. c #87416A",
"o. c #9D4278",
"O. c #A4447D",
"+. c #80787D",
"@. c #593E81",
"#. c #633D82",
"$. c #365E80",
"%. c #3D6486",
"&. c #3B668A",
"*. c #3D6D93",
"=. c #694A8C",
"-. c #724F8D",
";. c #6E4290",
":. c #674B90",
">. c #6A4C92",
",. c #754A9A",
"<. c #754B9B",
"1. c #7C529D",
"2. c #7E589E",
"3. c #446585",
"4. c #41668B",
"5. c #446B8D",
"6. c #416E95",
"7. c #437299",
"8. c #4D7598",
"9. c #47789E",
"0. c #48799F",
"q. c #7B4BA3",
"w. c #7F56A1",
"e. c #4678A0",
"r. c #4879A3",
"t. c #81569D",
"y. c #AA4582",
"u. c #BA4A8E",
"i. c #BE4A91",
"p. c #8558A7",
"a. c #8C62AF",
"s. c #8B62B0",
"d. c #C44B94",
"f. c #D64FA2",
"g. c #D750A3",
"h. c #DA50A4",
"j. c #E151A9",
"k. c #EF55B3",
"l. c #F255B5",
"z. c #F556B8",
"x. c #FB56BC",
"c. c #FF58BF",
"v. c #FF5CC1",
"b. c #FF6AC6",
"n. c #FF73C9",
"m. c #5385AD",
"M. c #548AB3",
"N. c #898989",
"B. c #A2A2A2",
"V. c #AFA0A9",
"C. c #A9A9A9",
"Z. c #B3A6AF",
"A. c #B2B2B2",
"S. c #CB9CB9",
"D. c #FF82CF",
"F. c #E099C5",
"G. c #FF86D1",
"H. c #FF8AD2",
"J. c #FD96D6",
"K. c #FF9AD8",
"L. c #FFA3DC",
"P. c #FFAEE0",
"I. c #FFB2E2",
"U. c gray82",
"Y. c #FFC6E9",
"T. c #FFD1ED",
"R. c #FFDAF1",
"E. c #F6E4EF",
"W. c #FFE2F4",
"Q. c #F5F5F5",
"!. c #FFF3FB",
"~. c #FDFCFD",
/* pixels */
"2 2 2 2 2 2 , 2 2 2 2 2 2 2 ; j ~ : 2 2 , , 2 2 2 2 4 2 , , 2 , : 6 2 2 6 2 2 2 2 2 2 2 5 5 , 7 H ; , 6 2 2 2 2 2 2 2 2 2 2 2 2 ",
"2 2 2 2 2 , , , , 2 , , 2 2 @ I 0.; 4 , , , , , 2 2 2 , , , 2 , ; 6 2 2 6 2 2 2 2 2 2 2 2 5 > 0 ,.< , 2 2 , , 2 2 2 2 2 2 2 2 2 ",
"2 2 2 2 2 2 , , , , , , , 2 O I 7.; 4 , , , , , , 2 2 , , , 2 : ; 6 2 2 2 2 2 2 2 2 2 , 2 5 : 0 ,.* > 2 2 2 , , 2 2 2 2 2 2 2 2 ",
"2 2 2 2 2 2 , , , 2 2 , , , O I 7.% 2 , , , , , , 2 2 2 2 2 2 : ; 6 2 2 2 2 2 2 2 2 , , 2 2 : - ,.1 : 2 2 , , , 2 2 , 2 2 , 2 2 ",
"2 2 2 , , , , , 2 2 2 , , , ; T 6.% 4 , , , , , , , 2 , 2 2 2 : ; 6 2 2 2 2 2 2 2 , , 2 2 2 : - ,.7 ; , 2 , , , , , 2 , 2 2 2 2 ",
"2 , , , , , , , , , , , , , & R *.% 2 , , , , , , , 2 2 2 2 2 : ; 6 2 2 2 2 2 2 2 2 2 2 2 2 : - ,.7 ; 2 2 , , , , 2 , , 2 2 2 2 ",
"2 , , 2 , , , , , , , , , , & R *.% 2 , , , , , , 2 2 2 2 2 2 : @ 2 2 2 2 2 , 2 2 2 2 2 2 2 : - ,.7 ; 2 2 , , , , 2 , 2 2 2 2 2 ",
": : : : , , , , , , , , , : ; E &.% 2 , , , , , , 2 2 , , , 2 : @ 2 2 2 2 , , , , , , 2 2 2 , = q.0 @ , 2 , , , , 2 2 , : , : : ",
", 2 2 , : : ; ; ; ; ; : ; 2 : Q 8.X 2 2 2 2 2 2 2 2 2 2 2 2 4 , : 6 4 6 2 2 2 4 6 2 4 6 6 u : = q.0 2 , , : : : : : , : 2 2 2 2 ",
": O @ @ @ o o o o o o o o ; 2 q r.3.% O o . . . . ; ; ; ; ; : @ o : ; ; : : : @ . . . o + + = ,.J 1 > + . . . . . . . . . . . ; ",
"k 3.3.4.4.4.&.4.4.4.4.4.4.5.j < q r.8.( _ _ _ _ W < : : : : ; @ o : ; ; ; ; : w G H H H H K p.K 7 7 G #.P #.#.#.#.@.K K K K ] g ",
"j Q Q Q E E E E E E E Q Q _ M.z 2 y / ) ) ) ^ _ W r y.c.c.c.c.c.c.c.c.c.c.y.r w G J J J J K b 7 7 ;.,.b Z Z b b b b b b A A m e ",
"; @ @ @ O O @ : : : ; ; ; O z m.j 2 O o o o r c c V d.c.c.c.c.c.c.c.c.c.c.d.V N c r o o @ @ 2 7 ;.-.% > ; $ @ @ $ $ @ @ @ @ @ : ",
"2 2 2 2 2 2 2 2 2 2 2 2 2 6 O _ 5.% , 2 2 2  .g.f.h.l.c.c.c.c.c.c.c.c.c.c.l.h.f.g.X.6 6 6 6 > f p.7 2 2 2 2 2 2 2 2 2 2 2 2 2 2 ",
", , , , , , , , , , , , , 2 ; / &.% 2 , s V u.c.c.c.c.c.c.c.c.c.c.c.c.c.c.c.c.c.c.u.V s , 2 : f ,.w 6 2 2 , , , , , , , , 2 2 2 ",
", , , , , , , , , , , , , 2 O / &.% 2 , | j.l.c.c.c.c.c.c.c.c.c.c.c.c.c.c.c.c.c.c.l.j.| , 2 ; f ,.w 6 2 2 , , , , , 2 2 2 2 , , ",
", , , , , , , , , , , , , 2 @ / &.% s C u.x.c.c.c.c.c.c.c.c.c.c.c.c.c.c.c.c.c.c.c.c.x.u.C s ; f ,.7 5 2 , , , , , 2 2 2 , , , , ",
", , , , , , , , , , , , , 2 @ ~ &.% L j.z.c.c.c.c.c.c.c.c.c.c.x.c.c.c.c.c.c.c.c.c.c.c.z.j.L @ f ,.7 2 2 , , , , : , 2 , , , > , ",
", , , , , , , ; , , : ; , 2 O Q &.O | l.c.c.c.v.D.L.L.J.n.c.c.c.c.c.c.n.J.L.L.D.v.c.c.c.l. .@ g ,.< 2 , , , , , , , , , , , , , ",
", , , , , , , , , , , ; : , ; y k : | l.c.c.c.v.I.~.~.W.H.c.c.c.c.c.c.H.W.~.~.I.v.c.c.c.l. .; 9 n : , , , , , : , , , , , , , , ",
", , , , , , , , , , , : , , : : : : | l.c.c.D.P.R.~.~.!.Y.K.n.c.c.n.K.Y.!.~.~.R.P.D.c.c.l.| : : : , 2 , , , : : , , , , , , , , ",
"2 , , , , , , , : , , , , , ; : , , | l.c.c.P.~.~.~.~.~.~.W.G.c.c.G.W.~.~.~.~.~.~.P.c.c.l. ., : : : 2 , , , : > , , , 2 , , , , ",
"2 2 , , , , , , , , , , , , ; ; : o.d.x.c.c.P.~.A.} } N.U.W.G.c.c.G.W.U.N.} } A.~.P.c.c.x.d.o.: : : 2 , , , , : , , , , , : , 2 ",
"2 2 , , , , , , , , , , , , ; ; : c.c.c.c.c.P.Q.}     ; C.W.G.c.c.G.W.C.;     } Q.P.c.c.c.c.c.: : : 2 2 , , , , , , , , , , , 2 ",
"2 2 , , , , , , , , , , , , : ; : c.c.c.c.c.P.Q.}     ; C.W.G.c.c.G.W.C.;     } Q.P.c.c.c.c.c.: ; : , , , , , , , , , , , , , 2 ",
"2 2 2 2 2 2 , 2 , , 2 , , , : : : c.c.c.c.c.L.E.+.o o p Z.T.D.c.c.D.T.Z.p o o +.E.L.c.c.c.c.c.: : @ , 2 , , , 2 2 2 2 2 2 2 2 2 ",
": : : : : : : : : : , ; ; : @ , : c.c.c.c.c.n.J.S.B.B.V.F.G.b.c.c.b.G.F.V.B.B.S.J.n.c.c.c.c.c.: : 2 ; : : : : : : : : : : : : : ",
": : : : ; ; ; ; ; ; ; ; ; : @ , ; c.c.c.c.c.c.v.L.W.W.T.G.c.c.c.c.c.c.G.T.W.W.L.v.c.c.c.c.c.c.: : , @ : : : : : ; ; ; ; ; ; ; ; ",
"2 2 2 , , , , , , , , , , 2 : : : c.c.c.c.c.c.v.n.H.H.G.b.c.c.c.c.c.c.b.G.H.H.n.v.c.c.c.c.c.c.; > : , , , , , , 2 2 , , 2 2 2 , ",
"2 2 , , , , , , , , , , , , , : : c.c.c.c.c.c.c.c.c.c.c.c.c.c.c.c.c.c.c.c.c.c.c.c.c.c.c.c.c.c.; : : , , , , , , , , , , , , , , ",
"2 2 2 , , , , , , , , , , , , : : c.c.c.c.c.c.c.c.c.c.c.c.c.c.c.c.c.c.c.c.c.c.c.c.c.c.c.c.c.c.: ; : , , , , , , , , 2 2 2 , , 2 ",
"2 2 , , , , , , , , , , , , , : : c.c.c.c.c.c.c.c.c.c.c.c.c.c.c.c.c.c.c.c.c.c.c.c.c.c.c.c.c.c.: : : , , , , , , , , 2 2 2 , , , ",
"2 2 , , , , , , , , , , , , : : , c.c.c.c.c.c.c.c.c.c.c.c.c.c.c.c.c.c.c.c.c.c.c.c.c.c.c.c.c.c.> : : 2 , , , , , , , , 2 2 2 , , ",
"2 2 , , , , , , , , , , , , , : : c.c.c.c.c.c.c.c.c.c.c.c.c.c.c.c.c.c.c.c.c.c.c.c.c.c.c.c.c.c.> : , 2 , , , , , , , , , , , , , ",
", 2 , , , , , , , , , , , 2 ; k U c.c.c.c.c.c.c.c.c.c.c.c.c.c.c.c.c.c.c.c.c.c.c.c.c.c.c.c.c.c.9 F 9 2 , , , , , , , , , , , , , ",
", , , , , , , , , , , , , 2 O ( 5.c.c.c.c.c.c.c.c.c.c.c.c.c.c.c.c.c.c.c.c.c.c.c.c.c.c.c.c.c.c.t t.w 2 2 , , , , , , , , , , , , ",
", , , , , , , , , , , , , 2 @ ( %.c.c.c.c.c.c.c.c.c.c.c.c.c.c.c.c.c.c.c.c.c.c.c.c.c.c.c.c.c.c.f 1.w 2 2 , , , , , , , , , , , , ",
", , , , , , , , , , , , , 2 O ( &.c.c.c.f.y.f.c.c.c.c.c.c.k.d.O.O.d.k.c.c.c.c.c.c.f.y.f.c.c.c.f 1.9 2 2 , , , , , , , , , , , , ",
", , , , , , , , , , , , , 2 O ( &.c.c.c.O.r o.c.c.c.c.c.c.h.C 3 3 C h.c.c.c.c.c.c.o.r O.c.c.c.g 1.7 2 2 , , , , , , , , , , 2 2 ",
", 2 , 2 2 , , , , , , , , 2 @ ~ &.c.f.O.B , B O.f.c.c.l.i...s ; : v ..i.l.c.c.f.O.B , B O.g.c.h 1.7 2 2 2 , , , 2 , , 2 2 2 2 , ",
"2 2 2 , , 2 2 2 2 2 2 2 2 5 o _ 3.c.y.a 2 2 2 i O.c.c.j.C 2 2 , : 2 2 C j.c.c.O.i 2 2 2 a y.c.g p.t e u 4 2 2 2 2 2 2 2 2 2 2 , ",
"; O O O O O @ O @ @ @ O ; O T M.k 4 # O O O O . O ; ; : ; ; ; : @ : : : : : : @ . . . . o + , e =.p.7 : @ @ @ @ @ @ . o + @ @ : ",
"l ! Q Q Q R R R R R W Q Q ` M.z : 8 ! / / / / ( Y 2 2 , , , 2 , : 2 , , , , , t [ ] ] ] ] { S 9 e ,.t.m M m m M M S S D D D S t ",
"Y 6.6.*.*.*.*.6.6.6.6.6.6.5.k : q r.7._ $._ _ %.W 2 , : , , , ; @ , , , , , : t ' ' J J K @.s.] 9 t { ,.>.:.>.>.>.>.>.:.:.:.=.h ",
", : : < : ; ; ; ; ; ; ; ; : 4 8 0.%.% ; ; ; @ @ # , , , , , , ; : , , , , , , : $ @ @ : : : d a.F u 6 : ; ; ; ; ; ; ; ; : , > 2 ",
"2 2 2 2 , , , , , , , , , 2 : Y m.% 4 2 2 2 2 2 2 , 2 2 2 , 2 , , 2 2 2 2 2 2 2 2 2 2 6 4 6 : x p.7 2 ; , , , , , , , : 2 2 2 , ",
", , : , , , , , 2 2 , 2 2 : ; Y 9.; 4 , , , , , , , , , , , , , : 2 , , , , 2 , , , , , 2 2 , g w.w : , , , , , , , 2 , , , 2 2 ",
"2 2 2 2 , , , , , , , , 2 : @ Y e.; 4 , , , , , , , , , , 2 2 : : , , , , , 2 2 2 , , , 2 2 > g w.7 : , , , , , , , , , , 2 2 2 ",
"2 , , , , , , , , , , , 2 , @ Y 9.; 4 , , , , , , , , , , 2 2 , : , , , , , 2 2 2 2 , , 2 2 > g w.7 : , , , , , , , 2 , , , , , ",
", , , , , , , , , , , , , : @ W 9.; 4 , , , , , , , , , , , , , : , , , , , 2 2 2 , , , 2 2 > g w.7 : , , , , , , , , , , , , , ",
"2 2 , , , , , , , , , , , , @ W 9.; 4 , , , , , , , , , 2 , , ; : 2 2 2 2 2 2 2 , , , , 2 2 > g p.1 : , , , , , , , , , , , , , ",
"2 , , , , , , , , , , , , 2 @ W 0.; 4 , , , , , , , , , 2 2 2 , : 2 2 2 2 2 2 2 , , , 2 2 2 > g w.1 2 2 , , , , , 2 , , , 2 , 2 ",
"2 2 , , , , 2 2 2 , , , , 2 @ W 0.; 4 , , , , , 2 , , , 2 2 , : ; 2 2 2 2 2 2 , 2 , , 2 2 2 > h 2.1 2 2 2 , , , 2 2 2 2 2 2 2 2 ",
"2 2 , , , 2 2 2 2 , , , , 2 @ W 0.; 4 , 2 2 2 2 2 , , , , 2 , , : 2 , 2 2 2 , , 2 2 2 2 2 2 : h 2.1 2 2 2 , , , , 2 , , , 2 2 2 ",
"2 2 , , 2 2 , , , , , , , 2 @ U 8.: 2 2 2 , , 2 , , , , , 2 2 , : 2 , 2 2 , , 2 2 , 2 2 2 2 : t -.< , 2 2 2 2 , 2 2 , , , , 2 2 ",
"2 , 2 2 2 2 2 2 , , , , , 2 : 9 y 2 2 2 , 2 2 2 2 2 2 2 2 2 2 , : 2 2 2 2 2 2 2 , 2 2 2 2 2 , 2 u 2 , 2 2 2 2 2 2 2 2 , 2 2 2 2 ",
"2 2 2 2 2 , 2 2 2 , , , , 2 : 2 , 2 2 2 , 2 2 2 , 2 2 2 2 2 2 , : 2 2 2 2 2 2 2 2 2 2 2 2 2 , , 2 , 2 2 2 2 2 2 2 2 2 2 2 2 2 2 ",
"2 2 2 2 2 2 2 2 2 2 2 2 , 2 , 2 2 , 2 2 2 4 2 2 2 2 2 2 2 2 2 , , 2 2 2 2 2 2 2 2 2 2 2 2 2 2 2 2 , 2 2 2 2 2 2 2 2 2 2 2 2 2 2 ",
"2 2 2 2 , , , , , , , , , , : , , , 2 , , , , , , , , , , , 2 : : 2 2 2 2 2 2 2 , , , , , 2 , 2 2 , 2 2 , , 2 2 , , 2 2 , , 2 2 ",
", , , , , , , , , , , , , , : : : : , , , , , , , , , , , , 4 , @ , , , , , 2 2 2 2 , 2 , 4 , : , : , , , , , 2 2 2 2 2 2 2 2 2 ",
"2 4 2 2 4 4 4 2 2 4 2 2 2 4 , 2 2 2 4 2 2 2 4 2 4 4 4 2 2 4 4 2 , 6 6 4 4 4 6 6 6 6 6 4 6 6 2 2 2 , 2 2 2 2 2 4 2 2 2 2 2 4 4 5 ",
"2 2 2 2 2 2 2 2 2 2 , 2 2 2 , 2 2 , 2 2 2 2 2 2 2 2 2 2 2 2 2 , , 2 2 2 2 2 2 2 2 2 2 2 2 2 2 2 2 : 2 2 2 2 2 2 2 2 2 2 2 2 2 2 ",
"2 2 2 2 2 2 2 2 2 2 2 2 2 2 2 2 2 , 2 2 2 2 2 2 4 2 2 2 2 4 2 , , 2 2 2 2 2 6 2 2 2 2 2 2 5 2 2 2 : 2 2 2 2 2 2 2 2 2 2 2 2 2 2 ",
"2 2 2 2 2 2 2 2 2 2 2 2 2 2 2 2 1 2 2 2 2 2 2 2 4 4 2 2 2 4 4 , : 2 2 2 2 5 6 2 2 2 2 2 2 5 2 2 2 : 2 2 2 2 2 2 2 2 2 2 2 2 2 2 "
};
