/* XPM */
static char *_17b76f032544f61eb29edd6cd196b3fNvRcTBgbtnBaJyzk[] = {
/* columns rows colors chars-per-pixel */
"64 64 172 2 ",
"   c black",
".  c #1C1C16",
"X  c #191718",
"o  c #1D1C1B",
"O  c #221E1B",
"+  c #1E201C",
"@  c #24221E",
"#  c #29231E",
"$  c #26281E",
"%  c #1D1C22",
"&  c #221F23",
"*  c #251A37",
"=  c #291E3B",
"-  c #1B2721",
";  c #252522",
":  c #292723",
">  c #272823",
",  c #2B2A26",
"<  c #26242A",
"1  c #28262D",
"2  c #262F2A",
"3  c #2D2D29",
"4  c #312D27",
"5  c #302E2A",
"6  c #26352E",
"7  c #2E312C",
"8  c #31302C",
"9  c #2B2534",
"0  c #2D2A33",
"q  c #2C233B",
"w  c #242D39",
"e  c #2F2938",
"r  c #312D33",
"t  c #31273F",
"y  c #342D3C",
"u  c #213932",
"i  c #2A323B",
"p  c #323032",
"a  c #37303A",
"s  c #332644",
"d  c #352A45",
"f  c #372A48",
"g  c #362B4C",
"h  c #293848",
"j  c #2D3C4A",
"k  c #333949",
"l  c #273D54",
"z  c #442F5E",
"x  c #463659",
"c  c #4A375C",
"v  c #4B385F",
"b  c #462F61",
"n  c #443261",
"m  c #4E3B61",
"M  c #503E64",
"N  c #553B6A",
"B  c #563A75",
"V  c #5A3D75",
"C  c #563C7C",
"Z  c #5C3C7D",
"A  c #613C7F",
"S  c #264B42",
"D  c #255448",
"F  c #245449",
"G  c #2D4459",
"H  c #344759",
"J  c #344B5E",
"K  c #1C6E5D",
"L  c #216657",
"P  c #2B4660",
"I  c #2D4B64",
"U  c #2E4C6A",
"Y  c #334D63",
"T  c #314D68",
"R  c #375067",
"E  c #35536C",
"W  c #2F5578",
"Q  c #335571",
"!  c #395975",
"~  c #31577C",
"^  c #355C7B",
"/  c #1C7A67",
"(  c #414746",
")  c #564177",
"_  c #5E427A",
"`  c #65487E",
"'  c #6C6C6C",
"]  c gray50",
"[  c #17856F",
"{  c #19846E",
"}  c #198670",
"|  c #178D75",
" . c #198872",
".. c #188F78",
"X. c #593E81",
"o. c #633D82",
"O. c #365E80",
"+. c #3D6586",
"@. c #3B668A",
"#. c #3D6D93",
"$. c #694A8C",
"%. c #724F8D",
"&. c #6E4290",
"*. c #674B90",
"=. c #6A4C92",
"-. c #754A9A",
";. c #754A9B",
":. c #7C529D",
">. c #7F589E",
",. c #446585",
"<. c #42668B",
"1. c #446B8D",
"2. c #406E95",
"3. c #437299",
"4. c #4D7598",
"5. c #47789E",
"6. c #48799F",
"7. c #7B4BA3",
"8. c #7F56A1",
"9. c #4678A0",
"0. c #4879A3",
"q. c #81569D",
"w. c #8558A7",
"e. c #8C62B0",
"r. c #0E9F84",
"t. c #149E84",
"y. c #0EA88B",
"u. c #13A186",
"i. c #11A58A",
"p. c #0EBC9C",
"a. c #728380",
"s. c #5385AD",
"d. c #548AB3",
"f. c #0CC2A1",
"g. c #0BCAA7",
"h. c #0ACCA9",
"j. c #09D3AF",
"k. c #09D6B1",
"l. c #05E4BC",
"z. c #04EEC5",
"x. c #02F6CA",
"c. c #00FFD2",
"v. c #0AFFD4",
"b. c #15FFD6",
"n. c #27FFD9",
"m. c #2AFFD9",
"M. c #3DFFDD",
"N. c #44FFDE",
"B. c #49FFDF",
"V. c #56FBDE",
"C. c #70E4CF",
"Z. c #57FFE1",
"A. c #6DFFE6",
"S. c #73FFE7",
"D. c #7EFFE8",
"F. c #9DB8B3",
"G. c gray67",
"H. c #A0B9B5",
"J. c #86D0C3",
"K. c #86FFEA",
"L. c #8FFFEB",
"P. c #94FFEC",
"I. c #AEFFF1",
"U. c #B0FFF1",
"Y. c #CDCDCD",
"T. c #CEF4ED",
"R. c #CDFFF6",
"E. c #DBFFF9",
"W. c #EFEFEF",
"Q. c #EEFFFC",
"!. c #F4F4F4",
"~. c #FEFEFE",
/* pixels */
"3 3 3 3 3 3 , 3 3 3 3 3 3 3 ; h E : 3 3 , , 3 3 3 3 5 3 , , 3 , : 8 3 3 8 3 3 3 3 3 3 3 7 7 , 9 V ; , 8 3 3 3 3 3 3 3 3 3 3 3 3 ",
"3 3 3 3 3 , , , , 3 , , 3 3 @ G 6.; 5 , , , , , 3 3 3 , , , 3 , ; 8 3 3 8 3 3 3 3 3 3 3 3 7 > q -.< , 3 3 , , 3 3 3 3 3 3 3 3 3 ",
"3 3 3 3 3 3 , , , , , , , 3 O G 3.; 5 , , , , , , 3 3 , , , 3 : ; 8 3 3 3 3 3 3 3 3 3 , 3 7 : q -.& > 3 3 3 , , 3 3 3 3 3 3 3 3 ",
"3 3 3 3 3 3 , , , 3 3 , , , O G 3.% 3 , , , , , , 3 3 3 3 3 3 : ; 8 3 3 3 3 3 3 3 3 , , 3 3 : = -.1 : 3 3 , , , 3 3 , 3 3 , 3 3 ",
"3 3 3 , , , , , 3 3 3 , , , ; P 2.% 5 , , , , , , , 3 , 3 3 3 : ; 8 3 3 3 3 3 3 3 , , 3 3 3 : = -.9 ; , 3 , , , , , 3 , 3 3 3 3 ",
"3 , , , , , , , , , , , , , & I #.% 3 , , , , , , , 3 3 3 3 3 : ; 8 3 3 3 3 3 3 3 3 3 3 3 3 : = -.9 ; 3 3 , , , , 3 , , 3 3 3 3 ",
"3 , , 3 , , , , , , , , , , & I #.% 3 , , , , , , 3 3 3 3 3 3 : @ 3 3 3 3 3 , 3 3 3 3 3 3 3 : = -.9 ; 3 3 , , , , 3 , 3 3 3 3 3 ",
": : : : , , , , , , , , , : ; U @.% 3 , , , , , , 3 3 , , , 3 : @ 3 3 3 3 , , , , , , 3 3 3 , * 7.q @ , 3 , , , , 3 3 , : , : : ",
", 3 3 , : : ; ; ; ; ; : ; 3 : T 4.X 3 3 3 3 3 3 3 3 3 3 3 3 5 , : 8 5 8 3 3 3 5 8 3 5 8 8 p : * 7.q 3 , , : : : : : , : 3 3 3 3 ",
": O @ @ @ o o o o o o o o ; 3 w 0.,.% O o . . . . ; ; ; ; ; : @ o : ; ; : : : @ . . . o + + * -.C 1 > + . . . . . . . . . . . ; ",
"j ,.,.<.<.<.@.<.<.<.<.<.<.1.h < w 0.4.! ^ ^ ^ ^ Y < : : : : ; @ o : ; ; ; ; : e B V V V V Z w.Z 9 9 B o.A o.o.o.o.X.Z Z Z Z _ d ",
"h T T T U U U U U U U T T ^ d.l 3 i Q ~ ~ ~ W ^ Y : , : : : , ; @ , ; , , , : e B C C C C Z z 9 9 &.-.z b b z z z z z z n n c r ",
"; @ @ @ O O @ : : : ; ; ; O l s.h 3 O o o o . X . u y.c.c.c.c.c.c.c.c.c.c.y.u @ . o o o @ @ 3 9 &.%.% > > $ @ @ $ $ @ @ @ @ @ : ",
"3 3 3 3 3 3 3 3 3 3 3 3 3 8 O ^ 1.% , 3 3 3 F / / { g.c.c.c.c.c.c.c.c.c.c.h.{ / / F 8 8 8 8 > s w.9 3 3 3 3 3 3 3 3 3 3 3 3 3 3 ",
", , , , , , , , , , , , , 3 ; Q @.% 3 , , , | l.l.l.x.c.c.c.c.c.c.c.c.c.c.x.l.l.l.| , , , 3 : s -.e 8 3 3 , , , , , , , , 3 3 3 ",
", , , , , , , , , , , , , 3 O Q @.% 3 , F / f.c.c.c.c.c.c.c.c.c.c.c.c.c.c.c.c.c.c.f./ F , 3 ; s -.e 8 3 3 , , , , , 3 3 3 3 , , ",
", , , , , , , , , , , , , 3 @ Q @.% , ,  .z.x.c.c.c.c.c.c.c.c.c.c.c.c.c.c.c.c.c.c.x.z. ., , ; s -.9 7 3 , , , , , 3 3 3 , , , , ",
", , , , , , , , , , , , , 3 @ E @.% F { f.c.c.c.c.c.c.c.c.c.c.c.c.c.c.c.c.c.c.c.c.c.c.f.{ F @ s -.9 3 3 , , , , : , 3 , , , > , ",
", , , , , , , ; , , : ; , 3 O T @.O { z.c.c.c.c.c.c.c.c.c.c.c.c.c.c.c.c.c.c.c.c.c.c.c.c.z.} @ d -.< 3 , , , , , , , , , , , , , ",
", , , , , , , , , , , ; : , ; i j : } x.c.c.c.v.B.D.D.A.m.c.c.c.c.c.c.m.A.D.D.B.v.c.c.c.x. .; 0 x : , , , , , : , , , , , , , , ",
", , , , , , , , , , , : , , : : : : } x.c.c.c.b.P.~.~.E.Z.c.c.c.c.c.c.Z.E.~.~.P.b.c.c.c.x.} : : : , 3 , , , : : , , , , , , , , ",
"3 , , , , , , , : , , , , , ; : , : [ x.c.c.B.L.R.~.~.Q.U.A.n.c.c.n.A.U.Q.~.~.R.L.B.c.c.x. .: : : : 3 , , , : > , , , 3 , , , , ",
"3 3 , , , , , , , , , , , , ; ; : 6 | x.c.c.K.~.!.W.W.!.~.R.B.c.c.B.R.~.!.W.W.!.~.K.c.c.x...6 : : : 3 , , , , : , , , , , : , 3 ",
"3 3 , , , , , , , , , , , , ; ; : i.h.c.c.c.K.!.G.' ' ] Y.R.B.c.c.B.R.Y.] ' ' G.!.K.c.c.c.h.i.: : : 3 3 , , , , , , , , , , , 3 ",
"3 3 , , , , , , , , , , , , : ; : c.c.c.c.c.K.!.'     ; G.R.B.c.c.B.R.G.;     ' !.K.c.c.c.c.c.: ; : , , , , , , , , , , , , , 3 ",
"3 3 3 3 3 3 , 3 , , 3 , , , : : : c.c.c.c.c.K.!.'     ; G.R.B.c.c.B.R.G.;     ' !.K.c.c.c.c.c.: : @ , 3 , , , 3 3 3 3 3 3 3 3 3 ",
": : : : : : : : : : , ; ; : @ , : c.c.c.c.c.S.T.a., , ( F.I.M.c.c.M.I.F.( , , a.T.S.c.c.c.c.c.: : 3 ; : : : : : : : : : : : : : ",
": : : : ; ; ; ; ; ; ; ; ; : @ , ; c.c.c.c.c.m.V.J.G.G.H.C.N.b.c.c.b.N.C.H.G.G.J.V.m.c.c.c.c.c.: : , @ : : : : : ; ; ; ; ; ; ; ; ",
"3 3 3 , , , , , , , , , , 3 : : : c.c.c.c.c.c.v.S.R.R.I.N.c.c.c.c.c.c.N.I.R.R.S.v.c.c.c.c.c.c.; > : , , , , , , 3 3 , , 3 3 3 , ",
"3 3 , , , , , , , , , , , , , : : c.c.c.c.c.c.v.m.N.N.M.b.c.c.c.c.c.c.b.M.N.N.m.v.c.c.c.c.c.c.; : : , , , , , , , , , , , , , , ",
"3 3 3 , , , , , , , , , , , , : : c.c.c.c.c.c.c.c.c.c.c.c.c.c.c.c.c.c.c.c.c.c.c.c.c.c.c.c.c.c.: ; : , , , , , , , , 3 3 3 , , 3 ",
"3 3 , , , , , , , , , , , , , : : c.c.c.c.c.c.c.c.c.c.c.c.c.c.c.c.c.c.c.c.c.c.c.c.c.c.c.c.c.c.: : : , , , , , , , , 3 3 3 , , , ",
"3 3 , , , , , , , , , , , , : : , c.c.c.c.c.c.c.c.c.c.c.c.c.c.c.c.c.c.c.c.c.c.c.c.c.c.c.c.c.c.> : : 3 , , , , , , , , 3 3 3 , , ",
"3 3 , , , , , , , , , , , , , : : c.c.c.c.c.c.c.c.c.c.c.c.c.c.c.c.c.c.c.c.c.c.c.c.c.c.c.c.c.c.> : , 3 , , , , , , , , , , , , , ",
", 3 , , , , , , , , , , , 3 ; j H c.c.c.c.c.c.c.c.c.c.c.c.c.c.c.c.c.c.c.c.c.c.c.c.c.c.c.c.c.c.0 N 0 3 , , , , , , , , , , , , , ",
", , , , , , , , , , , , , 3 O ! 1.c.c.c.c.c.c.c.c.c.c.c.c.c.c.c.c.c.c.c.c.c.c.c.c.c.c.c.c.c.c.y q.e 3 3 , , , , , , , , , , , , ",
", , , , , , , , , , , , , 3 @ ! +.c.c.c.c.c.c.c.c.c.c.c.c.c.c.c.c.c.c.c.c.c.c.c.c.c.c.c.c.c.c.s :.e 3 3 , , , , , , , , , , , , ",
", , , , , , , , , , , , , 3 O ! @.c.c.c.c.c.c.c.c.c.c.c.c.c.c.c.c.c.c.c.c.c.c.c.c.c.c.c.c.c.c.s :.0 3 3 , , , , , , , , , , , , ",
", , , , , , , , , , , , , 3 O ! @.c.c.c.j.u.j.c.c.c.c.c.c.z.p.t.u.p.z.c.c.c.c.c.c.j.u.j.c.c.c.d :.9 3 3 , , , , , , , , , , 3 3 ",
", 3 , 3 3 , , , , , , , , 3 @ E @.c.c.c.t.6 t.c.c.c.c.c.c.k.K 2 2 K k.c.c.c.c.c.c.t.6 t.c.c.c.f :.9 3 3 3 , , , 3 , , 3 3 3 3 , ",
"3 3 3 , , 3 3 3 3 3 3 3 3 7 o ^ ,.c.j.t.L 3 L t.j.c.c.z.p.{ S , : S } p.z.c.c.j.t.L 3 L t.j.c.d w.t r p 5 3 3 3 3 3 3 3 3 3 3 , ",
"; O O O O O @ O @ @ @ O ; O P d.j c.t.; O O O - r.c.c.l.K ; ; : @ : : K l.c.c.u.- . . . - r.c.r $.w.9 : @ @ @ @ @ @ . o + @ @ : ",
"k R T T T I I I I I Y T T ^ d.l : w R Q Q Q Q ! J 3 3 , , , 3 , : 3 , , , , , y ` _ _ _ _ ` m 0 r -.q.c v c c v v m m M M M m y ",
"J 2.2.#.#.#.#.2.2.2.2.2.2.1.j : w 0.3.^ O.^ ^ +.Y 3 , : , , , ; @ , , , , , : y ) ) C C Z X.e._ 0 a ` -.=.*.=.=.=.=.=.*.*.*.$.f ",
", : : < : ; ; ; ; ; ; ; ; : 5 w 6.+.% ; ; ; @ @ # , , , , , , ; : , , , , , , : $ @ @ : : : s e.N p 8 : ; ; ; ; ; ; ; ; : , > 3 ",
"3 3 3 3 , , , , , , , , , 3 : J s.% 4 3 3 3 3 3 3 , 3 3 3 , 3 , , 3 3 3 3 3 3 3 3 3 3 8 5 8 : g w.9 3 ; , , , , , , , : 3 3 3 , ",
", , : , , , , , 3 3 , 3 3 : ; J 5.; 5 , , , , , , , , , , , , , : 3 , , , , 3 , , , , , 3 3 , d 8.e : , , , , , , , 3 , , , 3 3 ",
"3 3 3 3 , , , , , , , , 3 : @ J 9.; 5 , , , , , , , , , , 3 3 : : , , , , , 3 3 3 , , , 3 3 > d 8.9 : , , , , , , , , , , 3 3 3 ",
"3 , , , , , , , , , , , 3 , @ J 5.; 5 , , , , , , , , , , 3 3 , : , , , , , 3 3 3 3 , , 3 3 > d 8.9 : , , , , , , , 3 , , , , , ",
", , , , , , , , , , , , , : @ Y 5.; 5 , , , , , , , , , , , , , : , , , , , 3 3 3 , , , 3 3 > d 8.9 : , , , , , , , , , , , , , ",
"3 3 , , , , , , , , , , , , @ Y 5.; 5 , , , , , , , , , 3 , , ; : 3 3 3 3 3 3 3 , , , , 3 3 > d w.1 : , , , , , , , , , , , , , ",
"3 , , , , , , , , , , , , 3 @ Y 6.; 5 , , , , , , , , , 3 3 3 , : 3 3 3 3 3 3 3 , , , 3 3 3 > d 8.1 3 3 , , , , , 3 , , , 3 , 3 ",
"3 3 , , , , 3 3 3 , , , , 3 @ Y 6.; 5 , , , , , 3 , , , 3 3 , : ; 3 3 3 3 3 3 , 3 , , 3 3 3 > f >.1 3 3 3 , , , 3 3 3 3 3 3 3 3 ",
"3 3 , , , 3 3 3 3 , , , , 3 @ Y 6.; 5 , 3 3 3 3 3 , , , , 3 , , : 3 , 3 3 3 , , 3 3 3 3 3 3 : f >.1 3 3 3 , , , , 3 , , , 3 3 3 ",
"3 3 , , 3 3 , , , , , , , 3 @ H 4.: 3 3 3 , , 3 , , , , , 3 3 , : 3 , 3 3 , , 3 3 , 3 3 3 3 : y %.< , 3 3 3 3 , 3 3 , , , , 3 3 ",
"3 , 3 3 3 3 3 3 , , , , , 3 : 0 i 3 3 3 , 3 3 3 3 3 3 3 3 3 3 , : 3 3 3 3 3 3 3 , 3 3 3 3 3 , 3 p 3 , 3 3 3 3 3 3 3 3 , 3 3 3 3 ",
"3 3 3 3 3 , 3 3 3 , , , , 3 : 3 , 3 3 3 , 3 3 3 , 3 3 3 3 3 3 , : 3 3 3 3 3 3 3 3 3 3 3 3 3 , , 3 , 3 3 3 3 3 3 3 3 3 3 3 3 3 3 ",
"3 3 3 3 3 3 3 3 3 3 3 3 , 3 , 3 3 , 3 3 3 5 3 3 3 3 3 3 3 3 3 , , 3 3 3 3 3 3 3 3 3 3 3 3 3 3 3 3 , 3 3 3 3 3 3 3 3 3 3 3 3 3 3 ",
"3 3 3 3 , , , , , , , , , , : , , , 3 , , , , , , , , , , , 3 : : 3 3 3 3 3 3 3 , , , , , 3 , 3 3 , 3 3 , , 3 3 , , 3 3 , , 3 3 ",
", , , , , , , , , , , , , , : : : : , , , , , , , , , , , , 5 , @ , , , , , 3 3 3 3 , 3 , 5 , : , : , , , , , 3 3 3 3 3 3 3 3 3 ",
"3 5 3 3 5 5 5 3 3 5 3 3 3 5 , 3 3 3 5 3 3 3 5 3 5 5 5 3 3 5 5 3 , 8 8 5 5 5 8 8 8 8 8 5 8 8 3 3 3 , 3 3 3 3 3 5 3 3 3 3 3 5 5 7 ",
"3 3 3 3 3 3 3 3 3 3 , 3 3 3 , 3 3 , 3 3 3 3 3 3 3 3 3 3 3 3 3 , , 3 3 3 3 3 3 3 3 3 3 3 3 3 3 3 3 : 3 3 3 3 3 3 3 3 3 3 3 3 3 3 ",
"3 3 3 3 3 3 3 3 3 3 3 3 3 3 3 3 3 , 3 3 3 3 3 3 5 3 3 3 3 5 3 , , 3 3 3 3 3 8 3 3 3 3 3 3 7 3 3 3 : 3 3 3 3 3 3 3 3 3 3 3 3 3 3 ",
"3 3 3 3 3 3 3 3 3 3 3 3 3 3 3 3 1 3 3 3 3 3 3 3 5 5 3 3 3 5 5 , : 3 3 3 3 7 8 3 3 3 3 3 3 7 3 3 3 : 3 3 3 3 3 3 3 3 3 3 3 3 3 3 "
};
