/* XPM */
static char *left_2[] = {
/* columns rows colors chars-per-pixel */
"64 64 188 2 ",
"   c black",
".  c #1C1C16",
"X  c #16161C",
"o  c #1D1C1B",
"O  c #221E1B",
"+  c #1E201C",
"@  c #2F2B00",
"#  c #353100",
"$  c #24221E",
"%  c #26281E",
"&  c #2D2B1D",
"*  c #312C19",
"=  c #39361A",
"-  c #1D1C22",
";  c #221F20",
":  c #221F28",
">  c #251A38",
",  c #291E3B",
"<  c #252522",
"1  c #292723",
"2  c #272823",
"3  c #2B2A26",
"4  c #26242A",
"5  c #28262D",
"6  c #2D2D29",
"7  c #312E22",
"8  c #302E2A",
"9  c #2F302C",
"0  c #353323",
"q  c #393723",
"w  c #3C3A25",
"e  c #31302C",
"r  c #2B2534",
"t  c #2C233B",
"y  c #262C38",
"u  c #2F2938",
"i  c #332D37",
"p  c #2A333B",
"a  c #343033",
"s  c #413D16",
"d  c #403E1E",
"f  c #413E22",
"g  c #4D4700",
"h  c #534D00",
"j  c #5A5300",
"k  c #44401F",
"l  c #49461D",
"z  c #514C1E",
"x  c #55501F",
"c  c #5B571E",
"v  c #655E16",
"b  c #736B07",
"n  c #786F06",
"m  c #6A6315",
"M  c #6D661B",
"N  c #766D11",
"B  c #726B1A",
"V  c #7A7216",
"C  c #7C751A",
"Z  c #464322",
"A  c #4D4920",
"S  c #514E22",
"D  c #5D5820",
"F  c #5B4E38",
"G  c #7C7120",
"H  c #352A45",
"J  c #352846",
"K  c #2A3948",
"L  c #333949",
"P  c #273E56",
"I  c #442F5E",
"U  c #49365D",
"Y  c #4B385F",
"T  c #462F61",
"R  c #443261",
"E  c #4E3B61",
"W  c #503E64",
"Q  c #563975",
"!  c #5A3D75",
"~  c #563C7C",
"^  c #5C3C7D",
"/  c #613C7F",
"(  c #2D4459",
")  c #34485B",
"_  c #2B4660",
"`  c #2D4B64",
"'  c #2E4C6A",
"]  c #334D63",
"[  c #314D68",
"{  c #38526A",
"}  c #2F5578",
"|  c #375976",
" . c #395975",
".. c #31577C",
"X. c #365B7B",
"o. c #445956",
"O. c #67544D",
"+. c #586C55",
"@. c #757E40",
"#. c #5F407C",
"$. c #446268",
"%. c #607F6F",
"&. c #877C00",
"*. c #847B16",
"=. c #897F14",
"-. c #857D19",
";. c #8D7D26",
":. c #897251",
">. c #8D687D",
",. c #A07D67",
"<. c #758449",
"1. c #768D5A",
"2. c #60817A",
"3. c #8E8400",
"4. c #948900",
"5. c #988C0D",
"6. c #888016",
"7. c #888019",
"8. c #9B8F15",
"9. c #9C9212",
"0. c #AB9E00",
"q. c #A19711",
"w. c #A49910",
"e. c #A89D11",
"r. c #ADA00A",
"t. c #B2A500",
"y. c #B7A905",
"u. c #B5A80D",
"i. c #BBAE0C",
"p. c #BFB10B",
"a. c #BDAD14",
"s. c #8E8027",
"d. c #AAAA29",
"f. c #B3AC32",
"g. c #C5B705",
"h. c #C4B60B",
"j. c #C9BB0A",
"k. c #D3C405",
"l. c #D7C807",
"z. c #DDCD05",
"x. c #D6C70A",
"c. c #DFD009",
"v. c #D9CD17",
"b. c #E0CF06",
"n. c #E3D204",
"m. c #ECDB03",
"M. c #F1DF03",
"N. c #F4DF0F",
"B. c #E6D210",
"V. c #F3E102",
"C. c #F9E601",
"Z. c #FFEC00",
"A. c #F5E40C",
"S. c #EFE310",
"D. c #C3C229",
"F. c #91A14D",
"G. c #97AB5A",
"H. c #A9B042",
"J. c #A7856D",
"K. c #C5A845",
"L. c #CEB147",
"P. c #593E81",
"I. c #633D82",
"U. c #3C6384",
"Y. c #3B668B",
"T. c #3D6D93",
"R. c #6E4D8C",
"E. c #6E4290",
"W. c #674B90",
"Q. c #6A4C92",
"!. c #75499A",
"~. c #754A9C",
"^. c #7E589E",
"/. c #446484",
"(. c #42668B",
"). c #436B8C",
"_. c #416E95",
"`. c #497498",
"'. c #47789E",
"]. c #49799F",
"[. c #7B4BA3",
"{. c #7F56A1",
"}. c #4879A3",
"|. c #845A91",
" X c #916B8B",
".X c #8254A6",
"XX c #6A8E80",
"oX c #5688AF",
/* pixels */
"6 6 6 6 6 6 3 6 6 6 6 6 6 6 < K { 1 6 6 3 3 6 6 6 6 8 6 3 3 6 3 1 e 6 6 e 6 6 6 6 6 6 6 9 9 3 r ! < 3 e 6 6 6 6 6 6 6 6 6 6 6 6 ",
"6 6 6 6 6 3 3 3 3 6 3 3 6 6 $ ( ].< 8 3 3 3 3 3 6 6 6 3 3 3 6 3 < e 6 6 e 6 6 6 6 6 6 6 6 9 2 t ~.4 3 6 6 3 3 6 6 6 6 6 6 6 6 6 ",
"6 6 6 6 6 6 3 3 3 3 3 3 3 6 O ( `.< 8 3 3 3 3 3 3 6 6 3 3 3 6 1 < e 6 6 6 6 6 6 6 6 6 3 6 9 1 t !.: 2 6 6 6 3 3 6 6 6 6 6 6 6 6 ",
"6 6 6 6 6 6 3 3 3 6 6 3 3 3 O ( `.- 6 3 3 3 3 3 3 6 6 6 6 6 6 1 < e 6 6 6 6 6 6 6 6 3 3 6 6 1 , !.5 1 6 6 3 3 3 6 6 3 6 6 3 6 6 ",
"6 6 6 3 3 3 3 3 6 6 6 3 3 3 < _ _.- 6 3 3 3 3 3 3 3 6 3 6 6 6 1 < e 6 6 6 6 6 6 6 3 3 6 6 6 1 , ~.r < 3 6 3 3 3 3 3 6 3 6 6 6 6 ",
"6 3 3 3 3 3 3 3 3 3 3 3 3 3 ; ` T.- 6 3 3 3 3 3 3 3 6 6 6 6 6 1 < e 6 6 6 6 6 6 6 6 6 6 6 6 1 , ~.r < 6 6 3 3 3 3 6 3 3 6 6 6 6 ",
"6 3 3 6 3 3 3 3 3 3 3 3 3 3 ; ` T.- 6 3 3 3 3 3 3 6 6 6 6 6 6 1 $ 6 6 6 6 6 3 6 6 6 6 6 6 6 1 , ~.r < 6 6 3 3 3 3 6 3 6 6 6 6 6 ",
"1 1 1 1 3 3 3 3 3 3 3 3 3 1 < ' Y.- 6 3 3 3 3 3 3 6 6 3 3 3 6 1 $ 6 6 6 6 3 3 3 3 3 3 6 6 6 3 > [.t $ 3 6 3 3 3 3 6 6 3 1 3 1 1 ",
"3 6 6 3 1 1 < < < < < 1 < 6 1 [ `.X 6 6 6 6 6 6 6 6 6 6 6 6 8 3 1 e 8 e 6 6 6 8 e 6 8 e e a 1 > [.t 6 3 3 1 1 1 1 1 3 1 6 6 6 6 ",
"1 O $ $ $ o o o o o o o o < 6 y }./.- O o . . . . < < < < < 1 $ o 1 < < 1 1 1 $ . . . o + + > ~.~ 5 2 + . . . . . . . . . . . < ",
"L /./.(.(.(.Y.(.(.(.(.(.(.).K 4 y }.`. .X.X.X.X.] 4 1 1 1 1 < $ o 1 < < < < 1 u Q ! ! ! ! ^ .X^ r r Q I./ I.I.I.I.P.^ ^ ^ ^ #.J ",
"K [ [ [ ' ' ' ' ' ' ' [ [ X.oXP 6 p | ......} 1.a.Z.Z.Z.Z.Z.Z.Z.Z.Z.Z.Z.Z.Z.Z.a.:.~ ~ ~ ~ ^ I r r E.!.I T T I I I I I I R R U a ",
"< $ $ $ O O $ 1 1 1 < < < O P oXK 6 * = s s s N g.Z.Z.Z.Z.Z.Z.Z.Z.Z.Z.Z.Z.Z.Z.h.N s s s = * 6 r E.R.- 2 2 % $ $ % % $ $ $ $ $ 1 ",
"6 6 6 6 6 6 6 6 6 6 6 6 6 e O X.).< c -.9.9.9.i.b.Z.Z.Z.Z.Z.Z.Z.Z.Z.Z.Z.Z.Z.Z.b.i.9.9.9.7.D 3 J .Xr 6 6 6 6 6 6 6 6 6 6 6 6 6 6 ",
"3 3 3 3 3 3 3 3 3 3 3 3 3 6 < | Y.< C h.m.m.m.V.C.Z.Z.Z.Z.Z.Z.Z.Z.Z.Z.Z.Z.Z.Z.C.V.m.m.m.h.C 7 J ~.u e 6 6 3 3 3 3 3 3 3 3 6 6 6 ",
"3 3 3 3 3 3 3 3 3 3 3 3 3 6 O $.%.v e.z.Z.Z.Z.Z.Z.Z.Z.Z.Z.Z.Z.Z.Z.Z.Z.Z.Z.Z.Z.Z.Z.Z.Z.Z.z.e.m F |.u e 6 6 3 3 3 3 3 6 6 6 6 3 3 ",
"3 3 3 3 3 3 3 3 3 3 3 3 3 6 $ +.F.u.x.M.Z.Z.Z.Z.Z.Z.Z.Z.Z.Z.Z.Z.Z.Z.Z.Z.Z.Z.Z.Z.Z.Z.Z.Z.M.x.i.;.>.r 9 6 3 3 3 3 3 6 6 6 3 3 3 3 ",
"3 3 3 3 3 3 3 3 3 3 3 3 6 e & <.D.Z.Z.Z.Z.Z.Z.Z.Z.Z.Z.Z.Z.Z.Z.Z.Z.Z.C.C.V.V.V.C.Z.Z.Z.Z.Z.Z.Z.a.,.a e 6 3 3 3 3 1 3 6 3 3 3 2 3 ",
"3 3 3 3 3 3 3 < 3 3 1 < q D N d.v.Z.Z.Z.Z.Z.Z.Z.Z.Z.Z.Z.Z.Z.Z.Z.Z.C.k.0.4.4.4.y.z.Z.Z.Z.Z.Z.Z.x.K.V D q 3 3 3 3 3 3 3 3 3 3 3 3 ",
"3 3 3 3 3 3 3 3 3 3 3 < k *.h.c.V.Z.Z.Z.Z.Z.Z.Z.Z.Z.Z.Z.Z.Z.Z.Z.Z.V.0.j # # # n g.Z.Z.Z.Z.Z.Z.M.B.h.*.Z 3 3 3 1 3 3 3 3 3 3 3 3 ",
"3 3 3 3 3 3 3 3 3 3 3 1 A 9.m.Z.Z.Z.Z.Z.Z.Z.Z.Z.Z.Z.Z.Z.Z.Z.Z.Z.Z.m.3.@       h t.Z.Z.Z.Z.Z.Z.Z.Z.m.9.A 3 3 1 1 3 3 3 3 3 3 3 3 ",
"6 3 3 3 3 3 3 3 1 3 3 3 A 9.m.Z.Z.Z.Z.Z.Z.Z.Z.Z.Z.Z.Z.Z.Z.Z.Z.Z.Z.m.3.@       h t.Z.Z.Z.Z.Z.Z.Z.Z.m.9.A 3 3 1 2 3 3 3 6 3 3 3 3 ",
"6 6 3 3 3 3 3 3 3 3 3 3 A 9.m.Z.Z.Z.Z.Z.Z.Z.Z.Z.Z.Z.Z.Z.Z.Z.Z.Z.Z.m.3.@       h t.Z.Z.Z.Z.Z.Z.Z.Z.m.9.A 3 3 3 1 3 3 3 3 3 1 3 6 ",
"6 6 3 3 3 3 3 3 3 3 3 3 A 9.m.Z.Z.Z.Z.Z.Z.Z.Z.Z.Z.Z.Z.Z.Z.Z.Z.Z.Z.V.t.b g g g &.g.Z.Z.Z.Z.Z.Z.Z.Z.M.i.*.M 3 3 3 3 3 3 3 3 3 3 6 ",
"6 6 3 3 3 3 3 3 3 3 3 3 A 9.m.Z.Z.Z.Z.Z.Z.Z.Z.Z.Z.Z.Z.Z.Z.Z.Z.Z.Z.C.z.y.0.0.0.g.n.Z.Z.Z.Z.Z.Z.Z.Z.C.z.h.i.3 3 3 3 3 3 3 3 3 3 6 ",
"6 6 6 6 6 6 3 6 3 3 6 3 A 9.m.Z.Z.Z.Z.Z.Z.Z.Z.Z.Z.Z.Z.Z.Z.Z.Z.Z.Z.Z.Z.Z.Z.Z.Z.Z.Z.Z.Z.Z.Z.Z.Z.Z.Z.Z.Z.Z.Z.3 3 6 6 6 6 6 6 6 6 6 ",
"1 1 1 1 1 1 1 1 1 1 3 < l 9.m.Z.Z.Z.Z.Z.Z.Z.Z.Z.Z.Z.Z.Z.Z.Z.Z.Z.Z.Z.Z.Z.Z.Z.Z.Z.Z.Z.Z.Z.Z.Z.Z.Z.Z.Z.Z.Z.Z.1 1 1 1 1 1 1 1 1 1 1 ",
"1 1 1 1 < < < < < < < < l 9.m.Z.Z.Z.Z.Z.Z.Z.Z.Z.Z.Z.Z.Z.Z.Z.Z.Z.Z.Z.Z.Z.Z.Z.Z.Z.Z.Z.Z.Z.Z.Z.Z.Z.Z.Z.Z.Z.Z.1 1 1 < < < < < < < < ",
"6 6 6 3 3 3 3 3 3 3 3 3 Z 6.j.l.l.l.l.l.z.m.Z.Z.Z.Z.Z.Z.Z.Z.Z.Z.Z.Z.Z.Z.Z.Z.Z.Z.Z.Z.Z.Z.Z.Z.Z.Z.Z.Z.Z.Z.Z.3 3 3 6 6 3 3 6 6 6 3 ",
"6 6 3 3 3 3 3 3 3 3 3 3 q c *.=.=.=.=.=.9.j.C.Z.Z.Z.Z.Z.Z.Z.Z.Z.Z.Z.Z.Z.Z.Z.Z.Z.Z.Z.Z.Z.Z.Z.Z.Z.Z.Z.Z.Z.Z.3 3 3 3 3 3 3 3 3 3 3 ",
"6 6 6 3 3 3 3 3 3 3 3 3 6 0 q 0 0 0 q q c w.m.Z.Z.Z.Z.Z.Z.Z.Z.Z.Z.Z.Z.Z.Z.Z.Z.Z.Z.Z.Z.Z.Z.Z.Z.Z.Z.Z.Z.Z.Z.3 3 3 3 3 6 6 6 3 3 6 ",
"6 6 3 3 3 3 3 3 3 3 3 3 3 3 3 1 1 < 3 3 Z V u.i.i.i.i.i.j.n.C.Z.Z.Z.Z.Z.Z.Z.Z.Z.Z.Z.Z.Z.Z.Z.Z.Z.Z.Z.Z.Z.Z.3 3 3 3 3 6 6 6 3 3 3 ",
"6 6 3 3 3 3 3 3 3 3 3 3 3 3 1 1 3 1 3 3 q z m M M M M M 6.p.V.Z.Z.Z.Z.Z.Z.Z.Z.Z.Z.Z.Z.Z.Z.Z.Z.Z.Z.Z.Z.Z.Z.3 3 3 3 3 3 6 6 6 3 3 ",
"6 6 3 3 3 3 3 3 3 3 3 3 3 3 3 1 1 3 3 3 < 3 3 3 3 3 3 3 z q.M.Z.Z.Z.Z.Z.Z.Z.Z.Z.Z.Z.Z.Z.Z.Z.Z.Z.Z.Z.Z.Z.Z.3 3 3 3 3 3 3 3 3 3 3 ",
"3 6 3 3 3 3 3 3 3 3 3 3 3 6 < K ) < 3 3 3 3 3 3 3 3 3 3 z q.M.Z.Z.Z.Z.Z.Z.Z.Z.Z.Z.Z.Z.Z.Z.Z.Z.Z.Z.Z.Z.Z.Z.3 3 3 3 3 3 3 3 3 3 3 ",
"3 3 3 3 3 3 3 3 3 3 3 3 3 6 O  .).O 3 3 3 3 3 1 3 3 3 3 z q.M.Z.Z.Z.Z.Z.Z.Z.Z.Z.Z.Z.Z.Z.Z.Z.Z.Z.Z.Z.Z.Z.Z.3 3 3 3 3 3 3 3 3 3 3 ",
"3 3 3 3 3 3 3 3 3 3 3 3 3 6 $  .U.O 3 3 0 f z z z x x x B u.V.Z.Z.Z.Z.Z.Z.Z.Z.Z.Z.Z.Z.Z.Z.Z.Z.Z.Z.Z.Z.Z.Z.3 3 3 3 3 3 3 3 3 3 3 ",
"3 3 3 3 3 3 3 3 3 3 3 3 3 6 O  .Y.O 3 3 f M 9.w.w.w.w.w.u.x.C.Z.Z.Z.Z.Z.Z.Z.Z.Z.Z.Z.Z.Z.Z.Z.Z.Z.Z.Z.Z.Z.Z.3 3 3 3 3 3 3 3 3 3 3 ",
"3 3 3 3 3 3 3 3 3 3 3 3 3 6 O  .Y.O 3 3 A 8.n.V.V.V.V.V.V.C.Z.Z.Z.Z.Z.Z.Z.Z.Z.Z.Z.Z.Z.Z.Z.Z.Z.Z.Z.Z.Z.Z.Z.3 3 3 3 3 3 3 3 3 6 6 ",
"3 6 3 6 6 3 3 3 3 3 3 3 q S v <.1.m B B 6.p.V.Z.Z.Z.Z.Z.Z.Z.Z.Z.Z.Z.Z.Z.Z.Z.Z.Z.Z.Z.Z.Z.Z.Z.Z.Z.Z.C.b.h.i.3 3 3 6 3 3 6 6 6 6 3 ",
"6 6 6 3 3 6 6 6 6 6 6 6 Z C r.D.D.i.p.h.j.n.C.Z.Z.Z.Z.Z.Z.Z.Z.Z.Z.Z.Z.Z.Z.Z.Z.Z.Z.Z.Z.Z.Z.Z.Z.Z.Z.M.a.-.M 6 6 6 6 6 6 6 6 6 6 3 ",
"< O O O O O $ O $ $ $ O l 5.m.Z.Z.Z.Z.Z.Z.Z.Z.Z.Z.Z.Z.Z.Z.Z.Z.Z.Z.Z.Z.Z.Z.Z.Z.Z.Z.Z.Z.Z.Z.Z.Z.Z.Z.N.8.l $ $ $ $ $ $ . o + $ $ 1 ",
"L { [ [ [ ` ` ` ` ` ] [ +.f.S.Z.Z.Z.Z.Z.Z.Z.Z.Z.Z.Z.Z.Z.Z.Z.Z.Z.Z.Z.Z.Z.Z.Z.Z.Z.Z.Z.Z.Z.Z.Z.Z.Z.Z.N.K.O.Y U U Y Y E E W W W E i ",
") _._.T.T.T.T._._._._._.2.H.m.Z.Z.Z.Z.Z.Z.Z.Z.Z.Z.Z.Z.Z.Z.Z.Z.Z.Z.Z.Z.Z.Z.Z.Z.Z.Z.Z.Z.Z.Z.Z.Z.Z.Z.m.f.>.Q.W.Q.Q.Q.Q.Q.W.W.W.W.J ",
"3 1 1 4 1 < < < < < < < d *.h.c.A.Z.Z.Z.Z.Z.Z.Z.Z.Z.Z.Z.Z.Z.Z.Z.Z.Z.Z.Z.Z.Z.Z.Z.Z.Z.Z.Z.Z.Z.Z.A.B.h.7.k < < < < < < < < 1 3 2 6 ",
"6 6 6 6 3 3 3 3 3 3 3 3 q D V d.v.Z.Z.Z.Z.Z.Z.Z.Z.Z.Z.Z.Z.Z.Z.Z.Z.Z.Z.Z.Z.Z.Z.Z.Z.Z.Z.Z.Z.Z.Z.x.L.G D 0 3 3 3 3 3 3 3 1 6 6 6 3 ",
"3 3 1 3 3 3 3 3 6 6 3 6 6 3 3 @.D.Z.Z.Z.Z.Z.Z.Z.Z.Z.Z.Z.Z.Z.Z.Z.Z.Z.Z.Z.Z.Z.Z.Z.Z.Z.Z.Z.Z.Z.Z.a.J.a 3 6 3 3 3 3 3 3 6 3 3 3 6 6 ",
"6 6 6 6 3 3 3 3 3 3 3 3 6 1 $ +.G.i.x.M.Z.Z.Z.Z.Z.Z.Z.Z.Z.Z.Z.Z.Z.Z.Z.Z.Z.Z.Z.Z.Z.Z.Z.Z.M.x.i.s. Xr 1 3 3 3 3 3 3 3 3 3 3 6 6 6 ",
"6 3 3 3 3 3 3 3 3 3 3 3 6 3 $ o.XXm e.z.Z.Z.Z.Z.Z.Z.Z.Z.Z.Z.Z.Z.Z.Z.Z.Z.Z.Z.Z.Z.Z.Z.Z.Z.n.e.M F |.r 1 3 3 3 3 3 3 3 6 3 3 3 3 3 ",
"3 3 3 3 3 3 3 3 3 3 3 3 3 1 $ ] '.3 C h.m.m.m.V.C.Z.Z.Z.Z.Z.Z.Z.Z.Z.Z.Z.Z.Z.Z.C.V.m.m.m.h.C 3 J {.r 1 3 3 3 3 3 3 3 3 3 3 3 3 3 ",
"6 6 3 3 3 3 3 3 3 3 3 3 3 3 $ ] '.1 D *.9.9.9.i.z.Z.Z.Z.Z.Z.Z.Z.Z.Z.Z.Z.Z.Z.Z.b.i.9.9.9.-.D 3 J .X5 1 3 3 3 3 3 3 3 3 3 3 3 3 3 ",
"6 3 3 3 3 3 3 3 3 3 3 3 3 6 $ ] ].< w Z A A A *.h.Z.Z.Z.Z.Z.Z.Z.Z.Z.Z.Z.Z.Z.Z.h.*.A A A Z w 1 J {.5 6 6 3 3 3 3 3 6 3 3 3 6 3 6 ",
"6 6 3 3 3 3 6 6 6 3 3 3 3 6 $ ] ].< 8 3 3 3 3 M i.Z.Z.Z.Z.Z.Z.Z.Z.Z.Z.Z.Z.Z.Z.i.M 3 3 6 6 6 2 J ^.5 6 6 6 3 3 3 6 6 6 6 6 6 6 6 ",
"6 6 3 3 3 6 6 6 6 3 3 3 3 6 $ ] ].< 8 3 6 6 6 6 6 3 3 3 3 6 3 3 1 6 3 6 6 6 3 3 6 6 6 6 6 6 1 J ^.5 6 6 6 3 3 3 3 6 3 3 3 6 6 6 ",
"6 6 3 3 6 6 3 3 3 3 3 3 3 6 $ ) `.1 6 6 6 3 3 6 3 3 3 3 3 6 6 3 1 6 3 6 6 3 3 6 6 3 6 6 6 6 1 i R.4 3 6 6 6 6 3 6 6 3 3 3 3 6 6 ",
"6 3 6 6 6 6 6 6 3 3 3 3 3 6 1 u p 6 6 6 3 6 6 6 6 6 6 6 6 6 6 3 1 6 6 6 6 6 6 6 3 6 6 6 6 6 3 6 a 6 3 6 6 6 6 6 6 6 6 3 6 6 6 6 ",
"6 6 6 6 6 3 6 6 6 3 3 3 3 6 1 6 3 6 6 6 3 6 6 6 3 6 6 6 6 6 6 3 1 6 6 6 6 6 6 6 6 6 6 6 6 6 3 3 6 3 6 6 6 6 6 6 6 6 6 6 6 6 6 6 ",
"6 6 6 6 6 6 6 6 6 6 6 6 3 6 3 6 6 3 6 6 6 8 6 6 6 6 6 6 6 6 6 3 3 6 6 6 6 6 6 6 6 6 6 6 6 6 6 6 6 3 6 6 6 6 6 6 6 6 6 6 6 6 6 6 ",
"6 6 6 6 3 3 3 3 3 3 3 3 3 3 1 3 3 3 6 3 3 3 3 3 3 3 3 3 3 3 6 1 1 6 6 6 6 6 6 6 3 3 3 3 3 6 3 6 6 3 6 6 3 3 6 6 3 3 6 6 3 3 6 6 ",
"3 3 3 3 3 3 3 3 3 3 3 3 3 3 1 1 1 1 3 3 3 3 3 3 3 3 3 3 3 3 8 3 $ 3 3 3 3 3 6 6 6 6 3 6 3 8 3 1 3 1 3 3 3 3 3 6 6 6 6 6 6 6 6 6 ",
"6 8 6 6 8 8 8 6 6 8 6 6 6 8 3 6 6 6 8 6 6 6 8 6 8 8 8 6 6 8 8 6 3 e e 8 8 8 e e e e e 8 e e 6 6 6 3 6 6 6 6 6 8 6 6 6 6 6 8 8 9 ",
"6 6 6 6 6 6 6 6 6 6 3 6 6 6 3 6 6 3 6 6 6 6 6 6 6 6 6 6 6 6 6 3 3 6 6 6 6 6 6 6 6 6 6 6 6 6 6 6 6 1 6 6 6 6 6 6 6 6 6 6 6 6 6 6 ",
"6 6 6 6 6 6 6 6 6 6 6 6 6 6 6 6 6 3 6 6 6 6 6 6 8 6 6 6 6 8 6 3 3 6 6 6 6 6 e 6 6 6 6 6 6 9 6 6 6 1 6 6 6 6 6 6 6 6 6 6 6 6 6 6 ",
"6 6 6 6 6 6 6 6 6 6 6 6 6 6 6 6 5 6 6 6 6 6 6 6 8 8 6 6 6 8 8 3 1 6 6 6 6 9 e 6 6 6 6 6 6 9 6 6 6 1 6 6 6 6 6 6 6 6 6 6 6 6 6 6 "
};
