/* XPM */
static char *c46b484a06774a95e23843c7a57d92beyLxRDXKuYNY8hK8f[] = {
/* columns rows colors chars-per-pixel */
"64 64 173 2 ",
"   c #0B0B0C",
".  c #0E0F10",
"X  c #141415",
"o  c #1C1C16",
"O  c #161719",
"+  c #181718",
"@  c #17181A",
"#  c #1B1B1C",
"$  c #221E1B",
"%  c #1E201C",
"&  c #24221E",
"*  c #29231E",
"=  c #26281E",
"-  c #1D1E21",
";  c #221F20",
":  c #221F28",
">  c #241935",
",  c #261B39",
"<  c #291E3B",
"1  c #1F2022",
"2  c #242423",
"3  c #292723",
"4  c #272823",
"5  c #2B2A26",
"6  c #252629",
"7  c #28262D",
"8  c #27282B",
"9  c #2D2D29",
"0  c #312D27",
"q  c #302E2A",
"w  c #2F302C",
"e  c #31302D",
"r  c #2B2534",
"t  c #2C2D31",
"y  c #2C233B",
"u  c #222D3B",
"i  c #312D33",
"p  c #342D3C",
"a  c #2F3134",
"s  c #2A323B",
"d  c #323335",
"f  c #383835",
"g  c #34363A",
"h  c #36383D",
"j  c #383A3F",
"k  c #413E3D",
"l  c #352A45",
"z  c #372B49",
"x  c #2C3642",
"c  c #263A4E",
"v  c #3A3344",
"b  c #3B3D42",
"n  c #303C4B",
"m  c #442F5E",
"M  c #46375E",
"N  c #4B385F",
"B  c #443261",
"V  c #4E3B61",
"C  c #503E64",
"Z  c #583975",
"A  c #563C7C",
"S  c #5C3C7D",
"D  c #613C7F",
"F  c #3E4146",
"G  c #3F4248",
"H  c #2D4152",
"J  c #2C455B",
"K  c #344759",
"L  c #354B5E",
"P  c #2A4660",
"I  c #2D4B64",
"U  c #2E4C6A",
"Y  c #334D63",
"T  c #314D68",
"R  c #375067",
"E  c #3A556E",
"W  c #335571",
"Q  c #385975",
"!  c #355C7C",
"~  c #424345",
"^  c #42454B",
"/  c #46484E",
"(  c #4A4A4C",
")  c #474A50",
"_  c #4A4D53",
"`  c #514B5E",
"'  c #4D5056",
"]  c #4E5159",
"[  c #515255",
"{  c #52555C",
"}  c #54585F",
"|  c #545760",
" . c #565961",
".. c #5A5D65",
"X. c #5C5F68",
"o. c #564275",
"O. c #554078",
"+. c #5E427A",
"@. c #62467C",
"#. c #5E626B",
"$. c #61656E",
"%. c #636771",
"&. c #656A73",
"*. c #686C76",
"=. c #6A6E79",
"-. c #6E727C",
";. c #707071",
":. c #71757F",
">. c #78797E",
",. c #593F81",
"<. c #633D81",
"1. c #365E80",
"2. c #3C6384",
"3. c #3D668C",
"4. c #3D6E94",
"5. c #674B8B",
"6. c #72548B",
"7. c #674A90",
"8. c #6A4C92",
"9. c #77479F",
"0. c #754A9B",
"q. c #794D9E",
"w. c #7E589E",
"e. c #456484",
"r. c #42668B",
"t. c #4A6B8B",
"y. c #416E94",
"u. c #437299",
"i. c #4C7599",
"p. c #47789E",
"a. c #49799F",
"s. c #727681",
"d. c #757983",
"f. c #797D86",
"g. c #797E89",
"h. c #7747A0",
"j. c #7E4EA6",
"k. c #4979A2",
"l. c #857794",
"z. c #7E8087",
"x. c #7E828C",
"c. c #81858D",
"v. c #818590",
"b. c #868A94",
"n. c #8A8D95",
"m. c #8A8E98",
"M. c #8F9196",
"N. c #8E929B",
"B. c #92969E",
"V. c #97999E",
"C. c #9397A0",
"Z. c #9599A1",
"A. c #9A9EA6",
"S. c #9EA2AA",
"D. c #A2A5AD",
"F. c #A4A8AF",
"G. c #A7AAB1",
"H. c #AAADB4",
"J. c #ADB1B7",
"K. c #AEB1B8",
"L. c #B2B5BB",
"P. c #B6B8BE",
"I. c #BBBDC3",
"U. c #BFC1C7",
"Y. c #C5C8CC",
"T. c #CBCDD1",
"R. c #D1D3D7",
"E. c #D4D6D9",
"W. c #D8DBDC",
"Q. c #DDDEE1",
"!. c #E2E4E6",
"~. c #E6E7E9",
"^. c #EFEFF0",
/* pixels */
"9 9 9 9 9 9 5 9 9 9 9 9 9 9 2 x E 3 9 9 5 5 9 9 9 9 q 9 5 5 9 5 3 e 9 9 e 9 9 9 9 9 9 9 w w 5 r Z 2 5 e 9 9 9 9 9 9 9 9 9 9 9 9 ",
"9 9 9 9 9 5 5 5 5 9 5 5 9 9 & H a.2 q 5 5 5 5 5 9 9 9 5 5 5 9 5 2 e 9 9 e 9 9 9 9 9 9 9 9 w 4 y 0.6 5 9 9 5 5 9 9 9 9 9 9 9 9 9 ",
"9 9 9 9 9 9 5 5 5 5 5 5 5 9 $ J u.2 q 5 5 5 5 5 5 9 9 5 5 5 9 3 2 e 9 9 9 9 9 9 9 9 9 5 9 w 3 y 0.: 4 9 9 9 5 5 9 9 9 9 9 9 9 9 ",
"9 9 9 9 9 9 5 5 5 9 9 5 5 5 $ J u.- 9 5 5 5 5 5 5 9 9 9 9 9 9 3 2 e 9 9 9 9 9 9 9 9 5 5 9 9 3 < 0.7 3 9 9 5 5 5 9 9 5 9 9 5 9 9 ",
"9 9 9 5 5 5 5 5 9 9 9 5 5 5 2 P y.- q 5 5 5 5 5 5 5 9 ( _ ( ~ ~ b ~ _ X.~ 9 9 9 9 5 5 9 9 9 3 < 0.r 2 5 9 5 5 5 5 5 9 5 9 9 9 9 ",
"9 5 5 5 5 5 5 5 5 5 5 5 5 5 ; I 4.- 9 5 5 5 5 5 5 5 9 $.~.f.C.I.I.m.s.R.] 9 9 9 9 9 9 9 9 9 3 < 0.r 2 9 9 5 5 5 5 9 5 5 9 9 9 9 ",
"9 5 5 9 5 5 5 5 5 5 5 5 5 5 ; I 4.- 9 5 5 5 5 5 5 9 9 ..^ *.m.I.T.&.$.$.~ 9 5 9 9 9 9 9 9 9 3 < 9.r 2 9 9 5 5 5 5 9 5 9 9 9 9 9 ",
"3 3 3 3 5 5 5 5 5 5 5 5 5 3 2 U 3.- 9 5 5 5 5 $.A.G.&.{ .._ h f.x.h _ =.d b.N.c./ 5 5 9 9 9 5 , h.y & 5 9 5 5 5 5 9 9 5 3 5 3 3 ",
"5 9 9 5 3 3 2 2 2 2 2 3 2 9 3 T i.O 9 9 9 =.D.A.{ E.F.{ :. .^ { / t ..d.^ Y.J.#.F.B._ e e d 3 , j.y 9 5 5 3 3 3 3 3 5 3 9 9 9 9 ",
"3 $ & & & # # # # # # # # 2 9 u k.e.- &.D.G.R.^.b.-.x./ m.X.^ { t ....x.d D.-.G.~.I.I.A.{ % > q.A 7 4 % o o o o o o o o o o o 2 ",
"n e.e.r.r.r.3.r.r.t... . .t.c F ) _ N.A.P.^.T.x.#.@ # b f.%.-.b.x.=.&.C.O 2 2 $.D.W.Q.H.D.x.l.&.^ r Z <.D <.<.<.<.,.S S S S +.l ",
"x T T T U U U U U E =.*.s.S.' ~.f._ b.T.L.s._ 2 # 8 8 2 # # # - # # # - 6 8 2 # d  .m.U.P.{ #.Z.!.` &.V. .s.] m m m m m B B M i ",
"2 & & & $ $ & 3 3 d g.g.s.B.m.G.] x._ ..) 6 O t 8 # O $ 2 2 3 & # 2 & &   O 1 8 2 # a { _ #.m.#.I.X.I.%.%.#./ & = = & & & & & 3 ",
"9 9 9 9 9 9 9 9 9 d $.*.*.H.x.f.b $.x.  O - 6 # # 5 5 5 9 9 q 5 3 e 9 9 9 9 5 # - 6 O X h B.X.b.&.F.I.&.$.&.^ 9 9 9 9 9 9 9 9 9 ",
"5 5 5 5 5 5 5 5 5 e $.f.:...{ b.F #.}   - O 2 5 5 2 3 5 5 5 9 3 3 9 9 5 9 9 5 5 5 O # 2 - =.^ { G.H.E.:.&.{ F 5 5 5 5 5 5 9 9 9 ",
"5 5 5 5 5 5 5 5 5 f &.*...$.g %.f.%.X O X 5 5 5 5 5 2 5 5 5 9 2 3 9 9 9 9 9 5 5 5 5 2 O # X b.N.I.$.A.b.#.' F 5 5 5 9 9 9 9 5 5 ",
"5 5 5 5 5 5 5 5 5 f %.#.=.=.6 #.b.# O   5 5 5 5 5 5 5 5 5 5 9 2 3 9 9 9 5 5 9 9 5 5 9 5 . # O L.D.b { V.X.] F 5 5 9 9 9 5 5 5 5 ",
"5 5 5 5 5 5 5 5 5 f #.#.s.:.8 # =.2 + 5 5 5 5 5 5 5 5 5 5 5 9 3 3 9 9 9 5 5 9 9 9 9 9 9 5   g.H.g.h #.M. ...F 5 3 5 9 5 5 5 4 5 ",
"5 5 5 5 5 5 5 2 5 e ..X.#.b.6 - h } 5 5 2 5 5 5 5 5 5 5 5 5 9 3 2 9 5 5 9 5 5 9 9 9 9 9 5 9 L...F / x.n...' h 5 5 5 5 5 5 5 5 5 ",
"5 5 5 5 5 5 5 5 5 [ #.%.#.m.#.#._ $.5 5 5 5 5 5 5 5 5 5 5 5 5 3 2 9 9 9 9 9 9 9 9 9 5 5 5 9 N.F / #.b.n.{ ' h 3 5 5 5 5 5 5 5 5 ",
"5 5 5 5 5 5 5 5 5 b ..#.#.&.x.g j $.5 5 5 5 5 5 5 5 5 5 5 5 5 3 & 9 9 9 9 9 9 9 9 9 9 9 5 5 A.b.f.b H.f. .{ a 3 5 5 5 5 5 5 5 5 ",
"9 5 5 5 5 5 5 5 3 ^ #.#.$.&._ 2 8 #.3 5 5 5 5 5 5 5 5 5 5 5 5 3 2 9 9 9 9 9 9 9 9 9 9 9 5 9 S.t j d.] z.) ) t 4 5 5 5 9 5 5 5 5 ",
"9 9 5 5 5 5 5 c.P.>.%.X.#.s.t { 8  .3 5 5 5 5 5 5 5 5 5 5 5 5 3 3 9 5 5 5 5 5 9 9 9 9 5 5 9 S.F ..{ &.c.G F 2 K.~ 5 5 5 5 3 5 9 ",
"9 9 5 5 5 5 5 { :. .#... .f.^ -.6 F 2 5 5 5 5 5 5 5 5 5 5 5 5 3 3 9 5 5 5 5 9 9 9 9 9 5 5 9 x.h ..-.g.z.h g - &.t 5 5 5 5 5 5 9 ",
"9 9 5 5 5 5 5 9 f.' { ]  .m...$.6 g d 5 5 5 5 5 5 5 5 5 9 9 9 3 3 9 5 9 5 5 9 9 9 9 9 5 5 h } h j  .s.f.t t X ^ 5 5 5 5 5 5 5 9 ",
"9 9 9 9 9 9 5 e =.b $.d # # b.O 8 h d 9 5 9 9 9 5 9 9 9 9 9 9 3 3 9 9 9 9 9 9 9 9 9 9 9 5 b  .h ^ d.J...t t # 6 9 9 9 9 9 9 9 9 ",
"3 3 3 3 3 3 3 3 :.^ ] ^ # # 8 x./ b 5 3 3 3 2 3 2 3 3 3 3 3 5 & % 3 3 3 3 5 3 3 3 5 4 4 4 g { b { D...D.b.b.N.g.5 3 3 3 3 3 3 3 ",
"3 3 3 3 2 2 2 2 *.^ $. .) 2 6 g b b 5 3 3 2 2 2 2 2 2 2 5 5 5 5 # & 2 2 2 2 2 2 2 2 3 3 3 d { ^ h m.!.Q.D.d.N.b.-.2 2 2 2 2 2 2 ",
"9 9 9 5 5 5 5 =.m.P.T.L.f.8 8 j 6 g 2 9 5 5 5 5 5 5 5 5 9 9 9 9 3 9 9 9 9 9 9 9 9 9 5 5 5 g _ %./ S.^.T.A.s.B...) b 5 5 9 9 9 5 ",
"9 9 5 5 5 5 5 ] #.b.B.d...d t b 2 b 5 5 5 5 5 3 5 5 5 5 5 5 5 2 3 9 5 5 5 5 9 9 5 5 5 5 5 9 ] F *.T.Q.A.L.S.n.N.f.#.5 5 5 5 5 5 ",
"9 9 9 5 5 5 5 5 9 ' #.F 8 j h b 8 / 5 5 5 5 5 5 5 5 5 5 5 5 5 3 3 9 5 9 9 5 5 5 9 9 9 5 5 5 &.t f.Y.Z.!.D.I.N.x.z.N.9 9 9 5 5 9 ",
"9 9 5 5 5 5 5 5 d m.H.Z.{ h h F h F 5 5 5 5 5 5 5 5 5 5 5 5 5 3 3 9 5 5 5 5 5 5 9 9 9 5 5 5 :.t &.$.E. .t #.j / $.X.9 9 9 5 5 5 ",
"9 9 5 5 5 5 5 5 d v.U.A._ ^ b ^ g F 5 5 5 5 5 5 5 5 5 5 5 5 5 5 3 9 5 5 5 5 5 9 9 9 5 5 5 5 -.g :.&.} t h g 8 ] _ ^ 5 9 9 9 5 5 ",
"9 9 5 5 5 5 5 5 d c.S.A./ / ^ ^ g F 5 5 2 5 5 5 5 5 5 5 5 5 5 3 3 9 5 9 9 5 5 9 9 9 5 5 5 2 s.} #.=.b.&.m.s.h ] ^ { 5 5 5 5 5 5 ",
"5 9 5 5 5 5 5 5 9 d.N.s.6 ^ F / O b 5 5 5 5 5 5 5 5 5 5 5 5 5 3 3 5 5 5 9 5 5 5 5 5 5 5 5 5 -.j _ &._ :.s./ g b b ^ 5 5 5 5 5 5 ",
"5 5 5 5 5 5 5 5 9 s.N.s._ ..%.^ h d 5 5 5 5 5 3 5 5 5 5 5 5 5 2 3 5 5 5 9 9 9 5 5 5 5 5 5 9 &.6 g { f.| 6 ' g d t t 5 5 5 5 5 5 ",
"5 5 5 5 5 5 5 5 e z.S.f.%.-.-.g a g 5 5 5 5 5 3 2 5 5 5 9 9 9 5 3 9 5 5 5 5 9 9 9 5 5 5 5 5 #.b 2 ^ A._ h b { 8 8 8 5 5 5 5 5 5 ",
"5 5 5 5 5 5 5 5 e =.G.{ -.b.F X g b 9 5 5 5 5 5 3 3 5 5 5 9 9 3 3 9 5 5 5 5 9 9 5 5 3 3 5 5 #./ 2 ..x.^ ^ 8 { 2 2 6 5 5 5 5 5 5 ",
"5 5 5 5 5 5 5 5 e -.F b.x.b.g  .  a f 5 5 5 5 5 5 5 5 5 5 5 9 2 3 9 5 5 5 9 9 9 9 5 5 5 5 } _ 8 -.{ / _ ^ _ d O @ 5 5 5 5 5 9 9 ",
"5 9 5 9 9 5 5 5 9 / $.-.s.{ a # { 8 ( 5 5 5 5 5 5 5 5 5 5 5 5 2 3 9 5 5 5 5 9 9 9 9 5 5 5 $.#.- 6 _ #.F _ h O # 9 5 5 9 9 9 9 5 ",
"9 9 9 5 5 9 9 9 e d b b j b _ d @ 6 ( q 9 9 9 9 9 5 5 5 5 5 9 5 3 9 9 9 9 9 9 9 9 9 9 9 e { ....d _ -.f.- 1 9 9 9 9 9 9 9 9 9 5 ",
"2 $ $ $ $ $ & $ ;.t j F h b O - d 6 k $ $ $ $ o $ 2 2 3 2 2 2 3 & 3 3 3 3 3 3 & o o o o # ^ ] _ { / ^ { 2 t 8 & & & o # % & & 3 ",
"n R T T T I I I b { g b h b 8 8 # a L W W W W Q L 9 9 5 5 5 9 5 3 9 5 5 5 5 5 p @.+.+.+.+.F ) 6 h 8 c. .8 d { N N V V C C C V p ",
"L y.y.4.4.4.4...^ 2 b b g b @ h - t u.! 1.! ! 2.Y 9 5 3 5 5 5 2 & 5 5 5 5 5 3 p o.O.A A S b  .b ~ b ^ #.a d 6 _ 8.8.8.7.7.7.5.v ",
"5 3 3 6 3 2 2 B.S.b.s.$.s.t 2 X / 8 - 2 2 2 & & * 5 5 5 5 5 5 2 3 5 5 5 5 5 5 3 = & & 3 3 3 / O # ) / ' ^ { ..S.^ 2 2 2 3 5 4 9 ",
"9 9 9 9 5 5 5 g.-..._ _ ..&.9 ] 2 ] 0 9 9 9 9 9 9 5 9 9 9 5 9 5 5 9 9 9 9 9 9 9 9 9 9 e q e #.d.2 # ] x...] ^ s.^ 5 5 3 9 9 9 5 ",
"5 5 3 5 5 5 5 s.x.' 8 t 6 | F 6 #.a q 5 5 5 5 5 5 5 5 5 5 5 5 5 3 9 5 5 5 5 9 5 5 5 5 5 9 9 ] f._ %.{ F - 1 ..m.h 5 9 5 5 5 9 9 ",
"9 9 9 9 5 5 5 =.s.^ 8 8 # t &.] / d q 5 5 5 5 5 5 5 5 5 5 9 9 3 3 5 5 5 5 5 9 9 9 5 5 5 9 9 / / s.' g.{ - 6 ..b.h 5 5 5 5 9 9 9 ",
"9 5 5 5 5 5 5 { =.F 8 8 # a b t h # q 5 5 5 5 5 5 5 5 5 5 9 9 5 3 5 5 5 5 5 9 9 9 9 5 5 9 9 8 ] / { &._ 1 t _ $.g 5 9 5 5 5 5 5 ",
"5 5 5 5 5 5 5 g / t 6 2 # { g d H 2 q 5 5 5 5 5 5 5 5 5 5 5 5 5 3 5 5 5 5 5 9 9 9 5 5 5 9 9 b 6 ^ / _ ^ - 2 h b d 5 5 5 5 5 5 5 ",
"9 9 5 5 5 5 5 9 { a 2 - # d 8 H p.2 q 5 5 5 5 5 5 5 5 5 9 5 5 2 3 9 9 9 9 9 9 9 5 5 5 5 9 9 4 t a b ^ ) - - F ^ 5 5 5 5 5 5 5 5 ",
"9 5 5 5 5 5 5 5 5 9 - - @ 8 2 Y a.2 q 5 5 5 5 5 5 5 5 5 9 9 9 5 3 9 9 9 9 9 9 9 5 5 5 9 9 9 4 l v a  .g 2 2 5 5 5 9 5 5 5 9 5 9 ",
"9 9 5 5 5 5 9 9 9 e - - @ 1 & Y a.2 q 5 5 5 5 5 9 5 5 5 9 9 5 3 2 9 9 9 9 9 9 5 9 5 5 9 9 9 4 z w.t d t 2 - 5 5 9 9 9 9 9 9 9 9 ",
"9 9 5 5 5 9 9 9 9 e # # O 9 & Y a.2 q 5 9 9 9 9 9 5 5 5 5 9 5 5 3 9 5 9 9 9 5 5 9 9 9 9 9 9 3 z w.7 9 8 6 2 5 5 5 9 5 5 5 9 9 9 ",
"9 9 5 5 9 9 5 5 5 5 5 5 5 9 & K i.3 9 9 9 5 5 9 5 5 5 5 5 9 9 5 3 9 5 9 9 5 5 9 9 5 9 9 9 9 3 p 6.6 5 9 9 9 9 5 9 9 5 5 5 5 9 9 ",
"9 5 9 9 9 9 9 9 5 5 5 5 5 9 3 t s 9 9 9 5 9 9 9 9 9 9 9 9 9 9 5 3 9 9 9 9 9 9 9 5 9 9 9 9 9 5 9 d 9 5 9 9 9 9 9 9 9 9 5 9 9 9 9 ",
"9 9 9 9 9 5 9 9 9 5 5 5 5 9 3 9 5 9 9 9 5 9 9 9 5 9 9 9 9 9 9 5 3 9 9 9 9 9 9 9 9 9 9 9 9 9 5 5 9 5 9 9 9 9 9 9 9 9 9 9 9 9 9 9 ",
"9 9 9 9 9 9 9 9 9 9 9 9 5 9 5 9 9 5 9 9 9 q 9 9 9 9 9 9 9 9 9 5 5 9 9 9 9 9 9 9 9 9 9 9 9 9 9 9 9 5 9 9 9 9 9 9 9 9 9 9 9 9 9 9 ",
"9 9 9 9 5 5 5 5 5 5 5 5 5 5 3 5 5 5 9 5 5 5 5 5 5 5 5 5 5 5 9 3 3 9 9 9 9 9 9 9 5 5 5 5 5 9 5 9 9 5 9 9 5 5 9 9 5 5 9 9 5 5 9 9 ",
"5 5 5 5 5 5 5 5 5 5 5 5 5 5 3 3 3 3 5 5 5 5 5 5 5 5 5 5 5 5 q 5 & 5 5 5 5 5 9 9 9 9 5 9 5 q 5 3 5 3 5 5 5 5 5 9 9 9 9 9 9 9 9 9 ",
"9 q 9 9 q q q 9 9 q 9 9 9 q 5 9 9 9 q 9 9 9 q 9 q q q 9 9 q q 9 5 e e q q q e e e e e q e e 9 9 9 5 9 9 9 9 9 q 9 9 9 9 9 q q w ",
"9 9 9 9 9 9 9 9 9 9 5 9 9 9 5 9 9 5 9 9 9 9 9 9 9 9 9 9 9 9 9 5 5 9 9 9 9 9 9 9 9 9 9 9 9 9 9 9 9 3 9 9 9 9 9 9 9 9 9 9 9 9 9 9 ",
"9 9 9 9 9 9 9 9 9 9 9 9 9 9 9 9 9 5 9 9 9 9 9 9 q 9 9 9 9 q 9 5 5 9 9 9 9 9 e 9 9 9 9 9 9 w 9 9 9 3 9 9 9 9 9 9 9 9 9 9 9 9 9 9 ",
"9 9 9 9 9 9 9 9 9 9 9 9 9 9 9 9 7 9 9 9 9 9 9 9 q q 9 9 9 q q 5 3 9 9 9 9 w e 9 9 9 9 9 9 w 9 9 9 3 9 9 9 9 9 9 9 9 9 9 9 9 9 9 "
};
