/* XPM */
static char *right_1[] = {
/* columns rows colors chars-per-pixel */
"64 64 195 2 ",
"   c #000000",
".  c #191700",
"X  c #1C1C16",
"o  c #16161C",
"O  c #1D1C1B",
"+  c #221E1B",
"@  c #1E201C",
"#  c #363200",
"$  c #24221E",
"%  c #26281E",
"&  c #2C291C",
"*  c #3C391E",
"=  c #1D1C22",
"-  c #221F23",
";  c #261A38",
":  c #291E3B",
">  c #252522",
",  c #292723",
"<  c #272823",
"1  c #2B2A26",
"2  c #26242A",
"3  c #28262D",
"4  c #2D2D29",
"5  c #322F21",
"6  c #302E2A",
"7  c #2F302C",
"8  c #353324",
"9  c #393727",
"0  c #3C3A24",
"q  c #31302C",
"w  c #2B2534",
"e  c #2D2A33",
"r  c #2C233B",
"t  c #222D3B",
"y  c #2F2938",
"u  c #342D33",
"i  c #332C3B",
"p  c #2A323B",
"a  c #323032",
"s  c #423D00",
"d  c #413F1F",
"f  c #403D22",
"g  c #4F4900",
"h  c #47441D",
"j  c #4C461A",
"k  c #544F17",
"l  c #504C1F",
"z  c #55521B",
"x  c #58521B",
"c  c #5E591D",
"v  c #605800",
"b  c #635C14",
"n  c #615B1B",
"m  c #67610F",
"M  c #776E00",
"N  c #676012",
"B  c #6C6617",
"V  c #6B641A",
"C  c #706917",
"Z  c #716A19",
"A  c #7F7717",
"S  c #7C741A",
"D  c #464424",
"F  c #4D4A21",
"G  c #534E22",
"H  c #585421",
"J  c #5C542A",
"K  c #675B2E",
"L  c #7A6C2D",
"P  c #332644",
"I  c #352A45",
"U  c #372A49",
"Y  c #293848",
"T  c #3C3243",
"R  c #303C4B",
"E  c #273E56",
"W  c #442F5E",
"Q  c #49375D",
"!  c #4B385F",
"~  c #462F61",
"^  c #443261",
"/  c #4E3B61",
"(  c #503E64",
")  c #553B6A",
"_  c #563575",
"`  c #5A3D75",
"'  c #563C7C",
"]  c #5C3C7D",
"[  c #613C7F",
"{  c #2D4459",
"}  c #34495C",
"|  c #2B4660",
" . c #2D4B64",
".. c #2E4C6A",
"X. c #334D63",
"o. c #314D68",
"O. c #385469",
"+. c #375977",
"@. c #31577B",
"#. c #365B7B",
"$. c #596D55",
"%. c #5F407C",
"&. c #857C00",
"*. c #837A15",
"=. c #807919",
"-. c #86723E",
";. c #967E48",
":. c #9E7A74",
">. c #7A823E",
",. c #778548",
"<. c #7E955A",
"1. c #948900",
"2. c #9A8E00",
"3. c #9F9300",
"4. c #9F920C",
"5. c #8B8215",
"6. c #8B801D",
"7. c #948910",
"8. c #998F11",
"9. c #9A9113",
"0. c #A59800",
"q. c #A1950B",
"w. c #A29515",
"e. c #A59A11",
"r. c #AEA20D",
"t. c #BDAF00",
"y. c #B1A50E",
"u. c #B4A80D",
"i. c #B9AB0B",
"p. c #BFB10C",
"a. c #B2A610",
"s. c #BEAE10",
"d. c #B4A419",
"f. c #9FA02D",
"g. c #9EA333",
"h. c #B9BB31",
"j. c #C5B600",
"k. c #CCBD00",
"l. c #C2B40C",
"z. c #C7B90B",
"x. c #C9BA0B",
"c. c #D4BC2C",
"v. c #BDC239",
"b. c #D4C505",
"n. c #DBCB05",
"m. c #D4C508",
"M. c #D7C808",
"N. c #DECC0B",
"B. c #C9C21A",
"V. c #DFD617",
"C. c #E4D404",
"Z. c #E8D705",
"A. c #EDDB03",
"S. c #EDDB08",
"D. c #E0D91A",
"F. c #EDE00D",
"G. c #F4E202",
"H. c #F9E701",
"J. c #FFEC00",
"K. c #EFE310",
"L. c #C5C329",
"P. c #DAC129",
"I. c #E0C72D",
"U. c #83924E",
"Y. c #BD9F48",
"T. c #809663",
"R. c #A68466",
"E. c #86A067",
"W. c #CBAE46",
"Q. c #593E81",
"!. c #633D82",
"~. c #3D668C",
"^. c #3D6E93",
"/. c #6E4D8C",
"(. c #6E4290",
"). c #674B90",
"_. c #6A4C92",
"`. c #754A9B",
"'. c #764A9A",
"]. c #7C529D",
"[. c #7E589E",
"{. c #456484",
"}. c #42668B",
"|. c #446B8A",
" X c #416E95",
".X c #49759A",
"XX c #49799F",
"oX c #507E96",
"OX c #7B4BA3",
"+X c #7F56A1",
"@X c #4879A3",
"#X c #82589D",
"$X c #956E82",
"%X c #8254A6",
"&X c #5688AF",
/* pixels */
"4 4 4 4 4 4 1 4 4 4 4 4 4 4 > Y O., 4 4 1 1 4 4 4 4 6 4 1 1 4 1 , q 4 4 q 4 4 4 4 4 4 4 7 7 1 w ` > 1 q 4 4 4 4 4 4 4 4 4 4 4 4 ",
"4 4 4 4 4 1 1 1 1 4 1 1 4 4 $ { XX> 6 1 1 1 1 1 4 4 4 1 1 1 4 1 > q 4 4 q 4 4 4 4 4 4 4 4 7 < r `.2 1 4 4 1 1 4 4 4 4 4 4 4 4 4 ",
"4 4 4 4 4 4 1 1 1 1 1 1 1 4 + { .X> 6 1 1 1 1 1 1 4 4 1 1 1 4 , > q 4 4 4 4 4 4 4 4 4 1 4 7 , r `.- < 4 4 4 1 1 4 4 4 4 4 4 4 4 ",
"4 4 4 4 4 4 1 1 1 4 4 1 1 1 + { .X= 4 1 1 1 1 1 1 4 4 4 4 4 4 , > q 4 4 4 4 4 4 4 4 1 1 4 4 , : `.3 , 4 4 1 1 1 4 4 1 4 4 1 4 4 ",
"4 4 4 1 1 1 1 1 4 4 4 1 1 1 > |  X= 4 1 1 1 1 1 1 1 4 1 4 4 4 , > q 4 4 4 4 4 4 4 1 1 4 4 4 , : `.w > 1 4 1 1 1 1 1 4 1 4 4 4 4 ",
"4 1 1 1 1 1 1 1 1 1 1 1 1 1 -  .^.= 4 1 1 1 1 1 1 1 4 4 4 4 4 , > q 4 4 4 4 4 4 4 4 4 4 4 4 , : `.w > 4 4 1 1 1 1 4 1 1 4 4 4 4 ",
"4 1 1 4 1 1 1 1 1 1 1 1 1 1 -  .^.= 4 1 1 1 1 1 1 4 4 4 4 4 4 , $ 4 4 4 4 4 1 4 4 4 4 4 4 4 , : `.w > 4 4 1 1 1 1 4 1 4 4 4 4 4 ",
", , , , 1 1 1 1 1 1 1 1 1 , > ..~.= 4 1 1 1 1 1 1 4 4 1 1 1 4 , $ 4 4 4 4 1 1 1 1 1 1 4 4 4 1 ; OXr $ 1 4 1 1 1 1 4 4 1 , 1 , , ",
"1 4 4 1 , , > > > > > , > 4 , o..Xo 4 4 4 4 4 4 4 4 4 4 4 4 6 1 , q 6 q 4 4 4 6 q 4 6 q q a , ; OXr 4 1 1 , , , , , 1 , 4 4 4 4 ",
", + $ $ $ O O O O O O O O > 4 t @X{.= + O X X X X > > > > > , $ O , > > , , , $ X X X O @ @ ; `.' 3 < @ X X X X X X X X X X X > ",
"R {.{.}.}.}.~.}.}.}.}.}.}.|.Y 2 t @X.X+.#.#.#.U.B.J.J.J.J.J.J.J.J.J.J.J.J.J.J.x.;.` ` ` ` ] %X] w w _ !.[ !.!.!.!.Q.] ] ] ] %.I ",
"Y o.o.o...............o.o.#.&XE 4 p O.@.@.@.@.U.B.J.J.J.J.J.J.J.J.J.J.J.J.J.J.x.;.' ' ' ' ] W w w (.`.W ~ ~ W W W W W W ^ ^ Q u ",
"> $ $ $ + + $ , , , > > > + E &XY 9 j b N N m q.n.J.J.J.J.J.J.J.J.J.J.J.J.J.J.n.q.N N N b j 9 w (./.= < > % $ $ % % $ $ $ $ $ , ",
"4 4 4 4 4 4 4 4 4 4 4 4 4 q + #.|.* S y.p.p.l.M.A.J.J.J.J.J.J.J.J.J.J.J.J.J.J.A.M.l.l.l.a.S d P %Xw 4 4 4 4 4 4 4 4 4 4 4 4 4 4 ",
"1 1 1 1 1 1 1 1 1 1 1 1 1 4 > O.|.l e.A.J.J.J.J.J.J.J.J.J.J.J.J.J.J.J.J.J.J.J.J.J.J.J.J.A.e.x T ].i q 4 4 1 1 1 1 1 1 1 1 4 4 4 ",
"1 1 1 1 1 1 1 1 1 1 1 1 1 4 $ $.<.7.z.G.J.J.J.J.J.J.J.J.J.J.J.J.J.J.J.J.J.J.J.J.J.J.J.J.G.z.8.L $Xu q 4 4 1 1 1 1 1 4 4 4 4 1 1 ",
"1 1 1 1 1 1 1 1 1 1 1 1 1 4 & ,.h.n.A.H.J.J.J.J.J.J.J.J.J.J.J.J.J.J.J.J.J.J.J.J.J.J.J.J.H.A.n.d.R.u 7 4 1 1 1 1 1 4 4 4 1 1 1 1 ",
"1 1 1 1 1 1 1 1 1 1 1 1 8 D k g.V.J.J.J.J.J.J.A.n.b.b.b.n.A.J.J.J.J.J.J.J.J.J.J.J.J.J.J.J.J.J.N.Y.J D 9 1 1 1 1 , 1 4 1 1 1 < 1 ",
"1 1 1 1 1 1 1 > 1 1 , > l S 4.B.F.J.J.J.J.J.J.k.2.M M M 1.j.H.J.J.J.J.J.J.J.J.J.J.J.J.J.J.J.J.A.P.w.S l 1 1 1 1 1 1 1 1 1 1 1 1 ",
"1 1 1 1 1 1 1 1 1 1 1 > V y.A.G.H.J.J.J.J.J.J.0.g . . . g 3.G.J.J.J.J.J.J.J.J.J.J.J.J.J.J.J.J.H.G.A.y.V 1 1 1 , 1 1 1 1 1 1 1 1 ",
"1 1 1 1 1 1 1 1 1 1 1 , Z p.J.J.J.J.J.J.J.J.J.3.s       # 1.G.J.J.J.J.J.J.J.J.J.J.J.J.J.J.J.J.J.J.J.p.Z 1 1 , , 1 1 1 1 1 1 1 1 ",
"4 1 1 1 1 1 1 1 , 1 1 1 Z p.J.J.J.J.J.J.J.J.J.3.s       # 1.G.J.J.J.J.J.J.J.J.J.J.J.J.J.J.J.J.J.J.J.p.Z 1 1 , < 1 1 1 4 1 1 1 1 ",
"4 4 1 1 1 1 1 1 1 1 1 1 Z p.J.J.J.J.J.J.J.J.J.0.s       # 1.G.J.J.J.J.J.J.J.J.J.J.J.J.J.J.J.J.J.J.J.p.Z 1 1 1 , 1 1 1 1 1 , 1 4 ",
"4 4 1 1 1 1 1 1 1 1 S S e.M.J.J.J.J.J.J.J.J.J.j.&.v v v &.t.H.J.J.J.J.J.J.J.J.J.J.J.C.z.r.y.r.r.r.r.5.H 1 1 1 1 1 1 1 1 1 1 1 4 ",
"4 4 1 1 1 1 1 1 1 1 x.x.n.A.J.J.J.J.J.J.J.J.J.C.k.t.t.t.k.C.J.J.J.J.J.J.J.J.J.J.J.J.z.5.n n n n c n l 0 1 1 1 1 1 1 1 1 1 1 1 4 ",
"4 4 4 4 4 4 1 4 1 1 J.J.J.J.J.J.J.J.J.J.J.J.J.J.J.J.J.J.J.J.J.J.J.J.G.A.Z.Z.Z.Z.Z.Z.e.c 1 4 , , , $ 1 4 1 1 1 4 4 4 4 4 4 4 4 4 ",
", , , , , , , , , , J.J.J.J.J.J.J.J.J.J.J.J.J.J.J.J.J.J.J.J.J.J.J.H.M.r.8.9.8.8.8.9.C h < , , , , 4 > , , , , , , , , , , , , , ",
", , , , > > > > > > J.J.J.J.J.J.J.J.J.J.J.J.J.J.J.J.J.J.J.J.J.J.J.G.y.C h h h h h h 0 5 , , , , , 1 $ , , , , , > > > > > > > > ",
"4 4 4 1 1 1 1 1 1 1 J.J.J.J.J.J.J.J.J.J.J.J.J.J.J.J.J.J.G.C.m.m.m.x.5.G 4 4 4 4 4 4 1 1 1 4 1 > < , 1 1 1 1 1 1 4 4 1 1 4 4 4 1 ",
"4 4 1 1 1 1 1 1 1 1 J.J.J.J.J.J.J.J.J.J.J.J.J.J.J.J.J.J.C.i.5.*.*.=.c 0 1 1 4 4 1 1 1 1 1 1 , > , , 1 1 1 1 1 1 1 1 1 1 1 1 1 1 ",
"4 4 4 1 1 1 1 1 1 1 J.J.J.J.J.J.J.J.J.J.J.J.J.J.J.J.J.J.m.5.f 8 8 8 8 4 4 1 1 1 4 4 4 1 1 1 , , > , 1 1 1 1 1 1 1 1 4 4 4 1 1 4 ",
"4 4 1 1 1 1 1 1 1 1 J.J.J.J.J.J.J.J.J.J.J.J.J.J.J.J.J.J.m.*.8 , , 4 1 1 1 1 1 1 4 4 4 1 1 1 , , , , 1 1 1 1 1 1 1 1 4 4 4 1 1 1 ",
"4 4 1 1 1 1 1 1 1 1 J.J.J.J.J.J.J.J.J.J.J.J.J.J.J.J.J.J.m.*.8 1 , 4 1 1 1 1 1 4 4 4 1 1 1 1 , < , , 4 1 1 1 1 1 1 1 1 4 4 4 1 1 ",
"4 4 1 1 1 1 1 1 1 1 J.J.J.J.J.J.J.J.J.J.J.J.J.J.J.J.J.J.m.5.f 8 8 8 8 4 4 1 1 4 4 4 1 1 1 > , < , 1 4 1 1 1 1 1 1 1 1 1 1 1 1 1 ",
"1 4 1 1 1 1 1 1 1 1 J.J.J.J.J.J.J.J.J.J.J.J.J.J.J.J.J.J.C.i.5.*.*.A c 0 4 1 1 1 1 1 1 1 1 1 , e ) e 4 1 1 1 1 1 1 1 1 1 1 1 1 1 ",
"1 1 1 1 1 1 1 1 1 1 J.J.J.J.J.J.J.J.J.J.J.J.J.J.J.J.J.J.G.C.m.m.m.x.5.F 4 4 4 1 1 1 1 1 1 4 , i #Xy 4 4 1 1 1 1 1 1 1 1 1 1 1 1 ",
"1 1 1 1 1 1 1 1 1 1 J.J.J.J.J.J.J.J.J.J.J.J.J.J.J.J.J.J.J.J.J.J.J.H.u.Z F F F F F F f 8 1 1 , P ].y 4 4 1 1 1 1 1 1 1 1 1 1 1 1 ",
"1 1 1 1 1 1 1 1 1 1 J.J.J.J.J.J.J.J.J.J.J.J.J.J.J.J.J.J.J.J.J.J.J.H.m.r.9.9.9.9.9.9.C h 1 1 , P ].e 4 4 1 1 1 1 1 1 1 1 1 1 1 1 ",
"1 1 1 1 1 1 1 1 1 1 J.J.J.J.J.J.J.J.J.J.J.J.J.J.J.J.J.J.J.J.J.J.J.J.G.A.Z.Z.Z.Z.Z.Z.e.c 1 1 , I ].w 4 4 1 1 1 1 1 1 1 1 1 1 4 4 ",
"1 4 1 4 4 1 1 1 1 1 x.x.n.A.J.J.J.J.J.J.J.J.J.J.J.J.J.J.J.J.J.J.J.J.J.J.J.J.J.J.J.J.z.5.n n n K :.J G 0 4 1 1 1 4 1 1 4 4 4 4 1 ",
"4 4 4 1 1 4 4 4 4 4 S S e.M.J.J.J.J.J.J.J.J.J.J.J.J.J.J.J.J.J.J.J.J.J.J.J.J.J.J.J.J.C.z.a.y.r.d.W.d.6.J 6 4 4 4 4 4 4 4 4 4 4 1 ",
"> + + + + + $ + $ $ $ + B i.J.J.J.J.J.J.J.J.J.J.J.J.J.J.J.J.J.J.J.J.J.J.J.J.J.J.J.J.J.J.J.J.J.J.J.J.s.B $ $ $ $ $ $ X O @ $ $ , ",
"R O.o.o.o. . . . . .X.o.,.L.J.J.J.J.J.J.J.J.J.J.J.J.J.J.J.J.J.J.J.J.J.J.J.J.J.J.J.J.J.J.J.J.J.J.J.J.c.-.! Q Q ! ! / / ( ( ( / i ",
"}  X X^.^.^.^. X X X X XT.L.J.J.J.J.J.J.J.J.J.J.J.J.J.J.J.J.J.J.J.J.J.J.J.J.J.J.J.J.J.J.J.J.J.J.J.J.c.R._.)._._._._._.).).).).T ",
"1 , , 2 , > > > > > > > V r.A.G.H.J.J.J.J.J.J.J.J.J.J.J.J.J.J.J.J.J.J.J.J.J.J.J.J.J.J.J.J.J.J.J.G.A.a.V > > > > > > > > , 1 < 4 ",
"4 4 4 4 1 1 1 1 1 1 1 1 l S q.B.K.J.J.J.J.J.J.J.J.J.J.J.J.J.J.J.J.J.J.J.J.J.J.J.J.J.J.J.J.J.J.S.I.w.S j 1 1 1 1 1 1 1 , 4 4 4 1 ",
"1 1 , 1 1 1 1 1 4 4 1 4 9 d z f.D.J.J.J.J.J.J.J.J.J.J.J.J.J.J.J.J.J.J.J.J.J.J.J.J.J.J.J.J.J.J.N.W.J d 8 1 1 1 1 1 1 4 1 1 1 4 4 ",
"4 4 4 4 1 1 1 1 1 1 1 1 4 , & >.v.n.A.H.J.J.J.J.J.J.J.J.J.J.J.J.J.J.J.J.J.J.J.J.J.J.J.J.H.A.n.d.R.u , 1 1 1 1 1 1 1 1 1 1 4 4 4 ",
"4 1 1 1 1 1 1 1 1 1 1 1 4 1 & $.E.8.x.G.J.J.J.J.J.J.J.J.J.J.J.J.J.J.J.J.J.J.J.J.J.J.J.J.G.z.8.L $Xu , 1 1 1 1 1 1 1 4 1 1 1 1 1 ",
"1 1 1 1 1 1 1 1 1 1 1 1 1 , $ X.oXz e.A.J.J.J.J.J.J.J.J.J.J.J.J.J.J.J.J.J.J.J.J.J.J.J.J.A.e.z T #Xw , 1 1 1 1 1 1 1 1 1 1 1 1 1 ",
"4 4 1 1 1 1 1 1 1 1 1 1 1 1 $ X.XX* S y.p.p.p.M.A.J.J.J.J.J.J.J.J.J.J.J.J.J.J.A.M.p.p.p.y.S d I %X3 , 1 1 1 1 1 1 1 1 1 1 1 1 1 ",
"4 1 1 1 1 1 1 1 1 1 1 1 1 4 $ X.XX5 G V Z Z Z e.n.J.J.J.J.J.J.J.J.J.J.J.J.J.J.n.e.Z Z Z V G 8 I +X3 4 4 1 1 1 1 1 4 1 1 1 4 1 4 ",
"4 4 1 1 1 1 4 4 4 1 1 1 1 4 $ X.XX> 6 1 1 1 1 S x.J.J.J.J.J.J.J.J.J.J.J.J.J.J.x.S 1 1 4 4 4 < U [.3 4 4 4 1 1 1 4 4 4 4 4 4 4 4 ",
"4 4 1 1 1 4 4 4 4 1 1 1 1 4 $ X.XX> 6 1 4 4 4 S x.J.J.J.J.J.J.J.J.J.J.J.J.J.J.x.S 4 4 4 4 4 , U [.3 4 4 4 1 1 1 1 4 1 1 1 4 4 4 ",
"4 4 1 1 4 4 1 1 1 1 1 1 1 4 $ } .X, 4 4 4 1 1 4 1 1 1 1 1 4 4 1 , 4 1 4 4 1 1 4 4 1 4 4 4 4 , i /.2 1 4 4 4 4 1 4 4 1 1 1 1 4 4 ",
"4 1 4 4 4 4 4 4 1 1 1 1 1 4 , e p 4 4 4 1 4 4 4 4 4 4 4 4 4 4 1 , 4 4 4 4 4 4 4 1 4 4 4 4 4 1 4 a 4 1 4 4 4 4 4 4 4 4 1 4 4 4 4 ",
"4 4 4 4 4 1 4 4 4 1 1 1 1 4 , 4 1 4 4 4 1 4 4 4 1 4 4 4 4 4 4 1 , 4 4 4 4 4 4 4 4 4 4 4 4 4 1 1 4 1 4 4 4 4 4 4 4 4 4 4 4 4 4 4 ",
"4 4 4 4 4 4 4 4 4 4 4 4 1 4 1 4 4 1 4 4 4 6 4 4 4 4 4 4 4 4 4 1 1 4 4 4 4 4 4 4 4 4 4 4 4 4 4 4 4 1 4 4 4 4 4 4 4 4 4 4 4 4 4 4 ",
"4 4 4 4 1 1 1 1 1 1 1 1 1 1 , 1 1 1 4 1 1 1 1 1 1 1 1 1 1 1 4 , , 4 4 4 4 4 4 4 1 1 1 1 1 4 1 4 4 1 4 4 1 1 4 4 1 1 4 4 1 1 4 4 ",
"1 1 1 1 1 1 1 1 1 1 1 1 1 1 , , , , 1 1 1 1 1 1 1 1 1 1 1 1 6 1 $ 1 1 1 1 1 4 4 4 4 1 4 1 6 1 , 1 , 1 1 1 1 1 4 4 4 4 4 4 4 4 4 ",
"4 6 4 4 6 6 6 4 4 6 4 4 4 6 1 4 4 4 6 4 4 4 6 4 6 6 6 4 4 6 6 4 1 q q 6 6 6 q q q q q 6 q q 4 4 4 1 4 4 4 4 4 6 4 4 4 4 4 6 6 7 ",
"4 4 4 4 4 4 4 4 4 4 1 4 4 4 1 4 4 1 4 4 4 4 4 4 4 4 4 4 4 4 4 1 1 4 4 4 4 4 4 4 4 4 4 4 4 4 4 4 4 , 4 4 4 4 4 4 4 4 4 4 4 4 4 4 ",
"4 4 4 4 4 4 4 4 4 4 4 4 4 4 4 4 4 1 4 4 4 4 4 4 6 4 4 4 4 6 4 1 1 4 4 4 4 4 q 4 4 4 4 4 4 7 4 4 4 , 4 4 4 4 4 4 4 4 4 4 4 4 4 4 ",
"4 4 4 4 4 4 4 4 4 4 4 4 4 4 4 4 3 4 4 4 4 4 4 4 6 6 4 4 4 6 6 1 , 4 4 4 4 7 q 4 4 4 4 4 4 7 4 4 4 , 4 4 4 4 4 4 4 4 4 4 4 4 4 4 "
};
