/* XPM */
static char *up_0[] = {
/* columns rows colors chars-per-pixel */
"64 64 187 2 ",
"   c #000000",
".  c #1C1C16",
"X  c #16161C",
"o  c #1D1C1B",
"O  c #221E1B",
"+  c #1E201C",
"@  c #2F2B00",
"#  c #353100",
"$  c #24221E",
"%  c #26281E",
"&  c #2B2919",
"*  c #342D16",
"=  c #39361A",
"-  c #1D1C22",
";  c #221F20",
":  c #221F28",
">  c #261A38",
",  c #291E3B",
"<  c #252522",
"1  c #292723",
"2  c #272823",
"3  c #2B2A26",
"4  c #26242A",
"5  c #28262D",
"6  c #2D2D29",
"7  c #312E23",
"8  c #302E2A",
"9  c #2F302C",
"0  c #343222",
"q  c #393723",
"w  c #3B3A26",
"e  c #31302C",
"r  c #38362A",
"t  c #2B2534",
"y  c #2C233B",
"u  c #262C38",
"i  c #2F2938",
"p  c #332D37",
"a  c #2A323B",
"s  c #343033",
"d  c #413D15",
"f  c #403E1C",
"g  c #413E22",
"h  c #4D4700",
"j  c #534D00",
"k  c #5A5300",
"l  c #46421B",
"z  c #49451D",
"x  c #4E481D",
"c  c #514C1D",
"v  c #55501F",
"b  c #5C581F",
"n  c #665E17",
"m  c #6D6500",
"M  c #766E00",
"N  c #6A6316",
"B  c #6B651A",
"V  c #6C651A",
"C  c #766D11",
"Z  c #716A1A",
"A  c #797116",
"S  c #7D751A",
"D  c #464422",
"F  c #4D4920",
"G  c #514E22",
"H  c #555121",
"J  c #5D5920",
"K  c #5B4E38",
"L  c #7C7120",
"P  c #352A45",
"I  c #352846",
"U  c #293848",
"Y  c #333949",
"T  c #273E56",
"R  c #442F5E",
"E  c #49375D",
"W  c #4B385F",
"Q  c #462F61",
"!  c #443261",
"~  c #4E3B61",
"^  c #503E64",
"/  c #563A74",
"(  c #5A3D75",
")  c #563C7C",
"_  c #5C3C7D",
"`  c #613C7F",
"'  c #2D4459",
"]  c #34495C",
"[  c #2B4660",
"{  c #2D4B64",
"}  c #2E4C6A",
"|  c #334D63",
" . c #314D68",
".. c #38526A",
"X. c #2F5578",
"o. c #375A77",
"O. c #31577C",
"+. c #355B7B",
"@. c #455956",
"#. c #67544D",
"$. c #586C55",
"%. c #757E40",
"&. c #5F407C",
"*. c #446268",
"=. c #607F6F",
"-. c #877C00",
";. c #847B16",
":. c #897F15",
">. c #847C19",
",. c #8D7D26",
"<. c #8D697D",
"1. c #A07D67",
"2. c #758349",
"3. c #60817B",
"4. c #8E8400",
"5. c #948900",
"6. c #988C0D",
"7. c #898117",
"8. c #888019",
"9. c #9B8F15",
"0. c #9D9313",
"q. c #AB9E00",
"w. c #A19711",
"e. c #A59A11",
"r. c #A89D11",
"t. c #B2A500",
"y. c #B7AA06",
"u. c #B2A50E",
"i. c #BAAD0C",
"p. c #BFB20B",
"a. c #BDAD14",
"s. c #8E8027",
"d. c #AAAA29",
"f. c #AEA63B",
"g. c #C6B804",
"h. c #C5B60B",
"j. c #C9BB0A",
"k. c #D4C505",
"l. c #DDCD05",
"z. c #D6C70A",
"x. c #D8C908",
"c. c #DFD009",
"v. c #D9CD17",
"b. c #E0CF06",
"n. c #E3D204",
"m. c #ECDB03",
"M. c #F1DF03",
"N. c #F3DE0F",
"B. c #E6D210",
"V. c #F3E202",
"C. c #F9E601",
"Z. c #FFEC00",
"A. c #F5E40C",
"S. c #EFE310",
"D. c #C0C12C",
"F. c #91A14D",
"G. c #97AB5A",
"H. c #A9B042",
"J. c #A7856D",
"K. c #C5A845",
"L. c #CEB147",
"P. c #593E81",
"I. c #633D82",
"U. c #3C668C",
"Y. c #3D6E93",
"T. c #6E4D8C",
"R. c #6E4290",
"E. c #674B90",
"W. c #6A4C92",
"Q. c #75499A",
"!. c #754A9C",
"~. c #7E589E",
"^. c #456484",
"/. c #42668B",
"(. c #446B8D",
"). c #416E95",
"_. c #497499",
"`. c #47789E",
"'. c #49799F",
"]. c #7B4BA3",
"[. c #7F56A1",
"{. c #4879A3",
"}. c #845A91",
"|. c #916B8C",
" X c #8254A6",
".X c #6B8E80",
"XX c #5688AF",
/* pixels */
"6 6 6 6 6 6 3 6 6 6 6 6 6 6 < U ..1 6 6 3 3 6 6 6 6 8 6 3 3 6 3 1 e 6 6 e 6 6 6 6 6 6 6 9 9 3 t ( < 3 e 6 6 6 6 6 6 6 6 6 6 6 6 ",
"6 6 6 6 6 3 3 3 3 6 3 3 6 6 $ ' '.< 8 3 3 3 3 3 6 6 6 3 3 3 6 3 < e 6 6 e 6 6 6 6 6 6 6 6 9 2 y !.4 3 6 6 3 3 6 6 6 6 6 6 6 6 6 ",
"6 6 6 6 6 6 3 3 3 3 3 3 3 6 O ' _.< 8 3 3 3 3 3 3 6 6 3 3 3 6 1 < e 6 6 6 6 6 6 6 6 6 3 6 9 1 y Q.: 2 6 6 6 3 3 6 6 6 6 6 6 6 6 ",
"6 6 6 6 6 6 3 3 3 6 6 3 3 3 O ' _.- 6 3 3 3 3 3 3 6 6 6 6 6 6 1 < e 6 6 6 6 6 6 6 6 3 3 6 6 1 , Q.5 1 6 6 3 3 3 6 6 3 6 6 3 6 6 ",
"6 6 6 3 3 3 3 3 6 6 6 3 3 3 < [ ).- 6 3 3 3 3 3 3 3 6 3 6 6 6 1 < e 6 6 6 6 6 6 6 3 3 6 6 6 1 , !.t < 3 6 3 3 3 3 3 6 3 6 6 6 6 ",
"6 3 3 3 3 3 3 3 3 3 3 3 3 3 ; { Y.- 6 3 3 3 3 3 3 3 6 6 6 6 6 1 < e 6 6 6 6 6 6 6 6 6 6 6 6 1 , !.t < 6 6 3 3 3 3 6 3 3 6 6 6 6 ",
"6 3 3 6 3 3 3 3 3 3 3 3 3 3 ; { Y.- 6 3 3 3 3 3 3 6 6 6 6 6 6 1 $ 6 6 6 6 6 3 6 6 6 6 6 6 6 1 , !.t < 6 6 3 3 3 3 6 3 6 6 6 6 6 ",
"1 1 1 1 3 3 3 3 3 3 3 3 3 1 < } U.- 6 3 3 3 3 3 3 6 6 3 3 3 6 1 $ 6 6 6 6 3 3 3 3 3 3 6 6 6 3 > ].y $ 3 6 3 3 3 3 6 6 3 1 3 1 1 ",
"3 6 6 3 1 1 < < < < < 1 < 6 1  ._.X 6 6 6 6 6 6 6 6 6 6 6 6 8 3 1 e 8 e 6 6 6 8 e 6 8 e e s 1 > ].y 6 3 3 1 1 1 1 1 3 1 6 6 6 6 ",
"1 O $ $ $ o o o o o o o o < 6 u {.^.- O o . . . . < < < < < 1 $ o 1 < < 1 1 1 $ . . . o + + > !.) 5 2 + . . . . . . . . . . . < ",
"Y ^.^./././.U././././././.(.U 4 u {._.o.+.o.o.+.| 4 1 1 1 1 < $ o 1 < < < < 1 i / ( ( ( ( _  X_ t t / I.` I.I.I.I.P._ _ _ _ &.I ",
"U  . . .} } } } } } }  . .+.XXT 6 a X.O.O.O.X.+.| 1 3 1 1 1 3 < $ 3 < 3 3 3 1 i / ) ) ) ) _ R t t R.Q.R Q Q R R R R R R ! ! E s ",
"< $ $ $ O O $ 1 1 1 < < < O T XXU 6 * = d d d * & $ $ $ < < 1 $ o 1 * f l l z l d d d d = * 6 t R.T.- 2 2 % $ $ % % $ $ $ $ $ 1 ",
"6 6 6 6 6 6 6 6 6 6 6 6 6 e O +.(.< b >.0.0.0.S G 3 3 3 6 6 8 3 1 r b 7.0.0.0.0.0.0.0.0.8.J 3 I  Xt 6 6 6 6 6 6 6 6 6 6 6 6 6 6 ",
"3 3 3 3 3 3 3 3 3 3 3 3 3 6 < X.U.< S h.m.m.m.u.B < 1 3 3 3 6 1 1 w >.j.m.m.m.m.m.m.m.m.h.S 7 I !.i e 6 6 3 3 3 3 3 3 3 3 6 6 6 ",
"3 3 3 3 3 3 3 3 3 3 3 3 3 6 O *.=.n r.l.Z.Z.Z.p.Z 3 < 3 3 3 6 < 1 w 7.x.Z.Z.Z.Z.Z.Z.Z.Z.l.r.N K }.i e 6 6 3 3 3 3 3 6 6 6 6 3 3 ",
"3 3 3 3 3 3 3 3 3 3 3 3 3 6 $ $.F.y.k.M.Z.Z.Z.p.Z 3 3 3 3 3 6 < 1 w 7.x.Z.Z.Z.Z.Z.Z.Z.Z.M.k.i.,.<.t 9 6 3 3 3 3 3 6 6 6 3 3 3 3 ",
"3 3 3 3 3 3 3 3 3 3 3 3 3 e & 2.D.Z.Z.Z.Z.Z.Z.p.Z 3 3 3 3 3 6 1 1 w 7.x.Z.Z.Z.Z.Z.Z.Z.Z.Z.Z.Z.a.1.s e 6 3 3 3 3 1 3 6 3 3 3 2 3 ",
"3 3 3 3 3 3 3 < 3 3 1 < q J C d.v.Z.Z.Z.Z.Z.Z.p.Z 3 3 3 3 3 6 1 < w :.x.Z.Z.Z.Z.Z.Z.Z.Z.Z.Z.Z.z.K.A J q 3 3 3 3 3 3 3 3 3 3 3 3 ",
"3 3 3 3 3 3 3 3 3 3 3 < l ;.h.c.V.Z.Z.Z.Z.Z.Z.p.Z 3 3 3 3 3 3 1 < w 7.x.Z.Z.Z.Z.Z.Z.Z.Z.Z.Z.Z.M.B.h.;.D 3 3 3 1 3 3 3 3 3 3 3 3 ",
"3 3 3 3 3 3 3 3 3 3 3 1 F 0.m.Z.Z.Z.Z.Z.Z.Z.Z.j.7.F g 0 3 3 3 0 = J 0.l.Z.Z.Z.Z.Z.Z.Z.Z.Z.Z.Z.Z.Z.m.0.F 3 3 1 1 3 3 3 3 3 3 3 3 ",
"6 3 3 3 3 3 3 3 1 3 3 3 F 0.m.Z.Z.Z.Z.Z.Z.Z.Z.n.p.9.B g 3 3 3 x A e.j.m.Z.Z.Z.Z.Z.Z.Z.Z.Z.Z.Z.Z.Z.m.0.F 3 3 1 2 3 3 3 6 3 3 3 3 ",
"6 6 3 3 3 3 3 3 3 3 3 3 F 0.m.Z.Z.Z.Z.Z.Z.Z.Z.C.V.n.0.c 3 3 3 N u.m.C.Z.Z.Z.Z.Z.Z.Z.Z.Z.Z.Z.Z.Z.Z.m.0.F 3 3 3 1 3 3 3 3 3 1 3 6 ",
"6 6 3 3 3 3 3 3 3 3 3 B ;.i.M.Z.Z.Z.Z.Z.Z.Z.Z.Z.Z.V.e.v 3 3 3 B i.Z.Z.Z.Z.Z.Z.Z.Z.Z.Z.Z.Z.Z.Z.Z.Z.M.i.>.B 3 3 3 3 3 3 3 3 3 3 6 ",
"6 6 3 3 3 3 3 3 3 3 3 i.h.l.C.Z.Z.Z.Z.Z.Z.Z.Z.Z.Z.V.e.v 6 6 6 B i.Z.Z.Z.Z.Z.Z.Z.Z.Z.Z.Z.Z.Z.Z.Z.Z.C.l.h.i.3 3 3 3 3 3 3 3 3 3 6 ",
"6 6 6 6 6 6 3 6 3 3 6 Z.Z.Z.Z.Z.Z.Z.Z.Z.Z.Z.Z.Z.Z.V.e.H 6 6 6 B i.Z.Z.Z.Z.Z.Z.Z.Z.Z.Z.Z.Z.Z.Z.Z.Z.Z.Z.Z.Z.3 3 6 6 6 6 6 6 6 6 6 ",
"1 1 1 1 1 1 1 1 1 1 3 Z.Z.Z.Z.Z.Z.Z.Z.Z.Z.Z.Z.Z.Z.V.w.c 1 1 3 N i.Z.Z.Z.Z.Z.Z.Z.Z.Z.Z.Z.Z.Z.Z.Z.Z.Z.Z.Z.Z.1 1 1 1 1 1 1 1 1 1 1 ",
"1 1 1 1 < < < < < < < Z.Z.Z.Z.Z.Z.Z.Z.Z.Z.Z.Z.Z.Z.V.w.c 3 3 3 B y.Z.Z.Z.Z.Z.Z.Z.Z.Z.Z.Z.Z.Z.Z.Z.Z.Z.Z.Z.Z.1 1 1 < < < < < < < < ",
"6 6 6 3 3 3 3 3 3 3 3 Z.Z.Z.Z.Z.Z.Z.Z.Z.Z.Z.Z.Z.Z.V.u.Z H H H 7.j.Z.Z.Z.Z.Z.Z.Z.Z.Z.Z.Z.Z.Z.Z.Z.Z.Z.Z.Z.Z.3 3 3 6 6 3 3 6 6 6 3 ",
"6 6 3 3 3 3 3 3 3 3 3 Z.Z.Z.Z.Z.Z.Z.Z.Z.Z.Z.Z.Z.Z.C.k.u.w.w.w.i.n.Z.Z.Z.Z.Z.Z.Z.Z.Z.Z.Z.Z.Z.Z.Z.Z.Z.Z.Z.Z.3 3 3 3 3 3 3 3 3 3 3 ",
"6 6 6 3 3 3 3 3 3 3 3 Z.Z.Z.Z.Z.Z.Z.Z.Z.Z.Z.Z.Z.Z.Z.C.V.M.M.M.V.C.Z.Z.Z.Z.Z.Z.Z.Z.Z.Z.Z.Z.Z.Z.Z.Z.Z.Z.Z.Z.3 3 3 3 3 6 6 6 3 3 6 ",
"6 6 3 3 3 3 3 3 3 3 3 Z.Z.Z.Z.Z.Z.Z.Z.Z.Z.Z.Z.Z.Z.Z.Z.Z.Z.Z.Z.Z.Z.Z.Z.Z.Z.Z.Z.Z.Z.Z.Z.Z.Z.Z.Z.Z.Z.Z.Z.Z.Z.3 3 3 3 3 6 6 6 3 3 3 ",
"6 6 3 3 3 3 3 3 3 3 3 Z.Z.Z.Z.Z.Z.Z.Z.Z.Z.Z.Z.Z.Z.Z.Z.Z.Z.Z.Z.Z.Z.Z.Z.Z.Z.Z.Z.Z.Z.Z.Z.Z.Z.Z.Z.Z.Z.Z.Z.Z.Z.3 3 3 3 3 3 6 6 6 3 3 ",
"6 6 3 3 3 3 3 3 3 3 3 Z.Z.Z.Z.Z.Z.Z.Z.Z.Z.Z.Z.Z.Z.Z.Z.Z.Z.Z.Z.Z.Z.Z.Z.Z.Z.Z.Z.C.V.m.m.m.V.C.Z.Z.Z.Z.Z.Z.Z.3 3 3 3 3 3 3 3 3 3 3 ",
"3 6 3 3 3 3 3 3 3 3 3 Z.Z.Z.Z.Z.Z.Z.Z.Z.Z.Z.Z.Z.Z.Z.Z.Z.Z.Z.Z.Z.Z.Z.Z.Z.Z.Z.Z.l.t.4.4.4.q.k.C.Z.Z.Z.Z.Z.Z.3 3 3 3 3 3 3 3 3 3 3 ",
"3 3 3 3 3 3 3 3 3 3 3 Z.Z.Z.Z.Z.Z.Z.Z.Z.Z.Z.Z.Z.Z.Z.Z.Z.Z.Z.Z.Z.Z.Z.Z.Z.Z.Z.Z.y.m @ @ @ k q.C.Z.Z.Z.Z.Z.Z.3 3 3 3 3 3 3 3 3 3 3 ",
"3 3 3 3 3 3 3 3 3 3 3 Z.Z.Z.Z.Z.Z.Z.Z.Z.Z.Z.Z.Z.Z.Z.Z.Z.Z.Z.Z.Z.Z.Z.Z.Z.Z.Z.Z.q.h       # 5.V.Z.Z.Z.Z.Z.Z.3 3 3 3 3 3 3 3 3 3 3 ",
"3 3 3 3 3 3 3 3 3 3 3 Z.Z.Z.Z.Z.Z.Z.Z.Z.Z.Z.Z.Z.Z.Z.Z.Z.Z.Z.Z.Z.Z.Z.Z.Z.Z.Z.Z.q.h       # 5.V.Z.Z.Z.Z.Z.Z.3 3 3 3 3 3 3 3 3 3 3 ",
"3 3 3 3 3 3 3 3 3 3 3 Z.Z.Z.Z.Z.Z.Z.Z.Z.Z.Z.Z.Z.Z.Z.Z.Z.Z.Z.Z.Z.Z.Z.Z.Z.Z.Z.Z.q.h       # 5.V.Z.Z.Z.Z.Z.Z.3 3 3 3 3 3 3 3 3 6 6 ",
"3 6 3 6 6 3 3 3 3 3 3 i.h.b.C.Z.Z.Z.Z.Z.Z.Z.Z.Z.Z.Z.Z.Z.Z.Z.Z.Z.Z.Z.Z.Z.Z.Z.Z.g.-.j j j M t.C.Z.Z.C.b.h.i.3 3 3 6 3 3 6 6 6 6 3 ",
"6 6 6 3 3 6 6 6 6 6 6 V >.i.M.Z.Z.Z.Z.Z.Z.Z.Z.Z.Z.Z.Z.Z.Z.Z.Z.Z.Z.Z.Z.Z.Z.Z.Z.n.g.t.t.t.g.l.Z.Z.Z.M.a.>.V 6 6 6 6 6 6 6 6 6 6 3 ",
"< O O O O O $ O $ $ $ O z 6.m.Z.Z.Z.Z.Z.Z.Z.Z.Z.Z.Z.Z.Z.Z.Z.Z.Z.Z.Z.Z.Z.Z.Z.Z.Z.Z.Z.Z.Z.Z.Z.Z.Z.Z.N.9.z $ $ $ $ $ $ . o + $ $ 1 ",
"Y .. . . .{ { { { { |  .$.f.S.Z.Z.Z.Z.Z.Z.Z.Z.Z.Z.Z.Z.Z.Z.Z.Z.Z.Z.Z.Z.Z.Z.Z.Z.Z.Z.Z.Z.Z.Z.Z.Z.Z.Z.N.K.#.W E E W W ~ ~ ^ ^ ^ ~ p ",
"] ).).Y.Y.Y.Y.).).).).).3.H.m.Z.Z.Z.Z.Z.Z.Z.Z.Z.Z.Z.Z.Z.Z.Z.Z.Z.Z.Z.Z.Z.Z.Z.Z.Z.Z.Z.Z.Z.Z.Z.Z.Z.Z.m.f.<.W.E.W.W.W.W.W.E.E.E.E.I ",
"3 1 1 4 1 < < < < < < < f ;.h.c.A.Z.Z.Z.Z.Z.Z.Z.Z.Z.Z.Z.Z.Z.Z.Z.Z.Z.Z.Z.Z.Z.Z.Z.Z.Z.Z.Z.Z.Z.Z.A.B.h.8.l < < < < < < < < 1 3 2 6 ",
"6 6 6 6 3 3 3 3 3 3 3 3 q J A d.v.Z.Z.Z.Z.Z.Z.Z.Z.Z.Z.Z.Z.Z.Z.Z.Z.Z.Z.Z.Z.Z.Z.Z.Z.Z.Z.Z.Z.Z.Z.z.L.L J 0 3 3 3 3 3 3 3 1 6 6 6 3 ",
"3 3 1 3 3 3 3 3 6 6 3 6 6 3 3 %.D.Z.Z.Z.Z.Z.Z.Z.Z.Z.Z.Z.Z.Z.Z.Z.Z.Z.Z.Z.Z.Z.Z.Z.Z.Z.Z.Z.Z.Z.Z.a.J.s 3 3 3 3 3 3 3 3 6 3 3 3 6 6 ",
"6 6 6 6 3 3 3 3 3 3 3 3 6 1 $ $.G.i.z.M.Z.Z.Z.Z.Z.Z.Z.Z.Z.Z.Z.Z.Z.Z.Z.Z.Z.Z.Z.Z.Z.Z.Z.Z.M.z.i.s.|.t 1 3 3 3 3 3 3 3 3 3 3 6 6 6 ",
"6 3 3 3 3 3 3 3 3 3 3 3 6 3 $ @..XN r.l.Z.Z.Z.Z.Z.Z.Z.Z.Z.Z.Z.Z.Z.Z.Z.Z.Z.Z.Z.Z.Z.Z.Z.Z.n.r.B K }.t 1 3 3 3 3 3 3 3 6 3 3 3 3 3 ",
"3 3 3 3 3 3 3 3 3 3 3 3 3 1 $ | `.3 S h.m.m.m.V.C.Z.Z.Z.Z.Z.Z.Z.Z.Z.Z.Z.Z.Z.Z.C.V.m.m.m.h.S 3 I [.t 1 3 3 3 3 3 3 3 3 3 3 3 3 3 ",
"6 6 3 3 3 3 3 3 3 3 3 3 3 3 $ | `.1 J ;.0.0.0.i.l.Z.Z.Z.Z.Z.Z.Z.Z.Z.Z.Z.Z.Z.Z.b.i.0.0.0.>.J 3 I  X5 1 3 3 3 3 3 3 3 3 3 3 3 3 3 ",
"6 3 3 3 3 3 3 3 3 3 3 3 3 6 $ | '.< w D F F F ;.h.Z.Z.Z.Z.Z.Z.Z.Z.Z.Z.Z.Z.Z.Z.h.;.F F F D w 1 I [.5 6 6 3 3 3 3 3 6 3 3 3 6 3 6 ",
"6 6 3 3 3 3 6 6 6 3 3 3 3 6 $ | '.< 8 3 3 3 3 B i.Z.Z.Z.Z.Z.Z.Z.Z.Z.Z.Z.Z.Z.Z.i.V 3 3 6 6 6 2 I ~.5 6 6 6 3 3 3 6 6 6 6 6 6 6 6 ",
"6 6 3 3 3 6 6 6 6 3 3 3 3 6 $ | '.< 8 3 6 6 6 6 6 3 3 3 3 6 3 3 1 6 3 6 6 6 3 3 6 6 6 6 6 6 1 I ~.5 6 6 6 3 3 3 3 6 3 3 3 6 6 6 ",
"6 6 3 3 6 6 3 3 3 3 3 3 3 6 $ ] _.1 6 6 6 3 3 6 3 3 3 3 3 6 6 3 1 6 3 6 6 3 3 6 6 3 6 6 6 6 1 p T.4 3 6 6 6 6 3 6 6 3 3 3 3 6 6 ",
"6 3 6 6 6 6 6 6 3 3 3 3 3 6 1 i a 6 6 6 3 6 6 6 6 6 6 6 6 6 6 3 1 6 6 6 6 6 6 6 3 6 6 6 6 6 3 6 s 6 3 6 6 6 6 6 6 6 6 3 6 6 6 6 ",
"6 6 6 6 6 3 6 6 6 3 3 3 3 6 1 6 3 6 6 6 3 6 6 6 3 6 6 6 6 6 6 3 1 6 6 6 6 6 6 6 6 6 6 6 6 6 3 3 6 3 6 6 6 6 6 6 6 6 6 6 6 6 6 6 ",
"6 6 6 6 6 6 6 6 6 6 6 6 3 6 3 6 6 3 6 6 6 8 6 6 6 6 6 6 6 6 6 3 3 6 6 6 6 6 6 6 6 6 6 6 6 6 6 6 6 3 6 6 6 6 6 6 6 6 6 6 6 6 6 6 ",
"6 6 6 6 3 3 3 3 3 3 3 3 3 3 1 3 3 3 6 3 3 3 3 3 3 3 3 3 3 3 6 1 1 6 6 6 6 6 6 6 3 3 3 3 3 6 3 6 6 3 6 6 3 3 6 6 3 3 6 6 3 3 6 6 ",
"3 3 3 3 3 3 3 3 3 3 3 3 3 3 1 1 1 1 3 3 3 3 3 3 3 3 3 3 3 3 8 3 $ 3 3 3 3 3 6 6 6 6 3 6 3 8 3 1 3 1 3 3 3 3 3 6 6 6 6 6 6 6 6 6 ",
"6 8 6 6 8 8 8 6 6 8 6 6 6 8 3 6 6 6 8 6 6 6 8 6 8 8 8 6 6 8 8 6 3 e e 8 8 8 e e e e e 8 e e 6 6 6 3 6 6 6 6 6 8 6 6 6 6 6 8 8 9 ",
"6 6 6 6 6 6 6 6 6 6 3 6 6 6 3 6 6 3 6 6 6 6 6 6 6 6 6 6 6 6 6 3 3 6 6 6 6 6 6 6 6 6 6 6 6 6 6 6 6 1 6 6 6 6 6 6 6 6 6 6 6 6 6 6 ",
"6 6 6 6 6 6 6 6 6 6 6 6 6 6 6 6 6 3 6 6 6 6 6 6 8 6 6 6 6 8 6 3 3 6 6 6 6 6 e 6 6 6 6 6 6 9 6 6 6 1 6 6 6 6 6 6 6 6 6 6 6 6 6 6 ",
"6 6 6 6 6 6 6 6 6 6 6 6 6 6 6 6 5 6 6 6 6 6 6 6 8 8 6 6 6 8 8 3 1 6 6 6 6 9 e 6 6 6 6 6 6 9 6 6 6 1 6 6 6 6 6 6 6 6 6 6 6 6 6 6 "
};
